<?xml version="1.0" encoding="UTF-8"?><svg id="Layer_1" xmlns="http://www.w3.org/2000/svg" xmlns:xlink="http://www.w3.org/1999/xlink" viewBox="0 0 4902.01 1605.82"><defs><style>.cls-1{fill:#001343;}.cls-2{fill:#044783;}.cls-3{fill:url(#linear-gradient);}.cls-4{fill:#079848;}</style><linearGradient id="linear-gradient" x1="239.73" y1="472.29" x2="1340.88" y2="472.29" gradientUnits="userSpaceOnUse"><stop offset="0" stop-color="#00b350"/><stop offset=".02" stop-color="#00b350"/><stop offset="1" stop-color="#00d45e"/></linearGradient></defs><path class="cls-2" d="M1070.69,215.47c27.63-59.98,66.32-108.93,128-132.32,42.87-16.26,95.78,3.45,124.83,43.42,7.83,10.78,15.74,21.49,23.62,32.24,28.83,128.81,10.45,256.52-10.22,383.64-23.21,142.68-74.81,275.46-137.96,403.46-21.54,43.66-47.97,84.24-83.13,117.73-37.48,35.7-80.52,58.5-132.1,59.76-110.03,2.69-172.41-79.89-145.63-191.43,11.11-46.28,36-85.15,59.57-124.66,47.85-80.21,102.97-155.51,147.49-237.99,36.66-67.92,65.14-139.06,75.33-216.8,7.14-54.5.26-104.64-49.8-137.04Z"/><path class="cls-1" d="M1102.52,245.54s.04-.1.06-.15c3.22-7.64,18.97-43.5,59.63-76.11,17.27-13.85,33.25-28.03,55.11-32.72,70.49-15.13,135.39,50.38,135.39,50.38-.9-8.91-2.96-21.39-8.07-35.51-3.58-9.9-13.47-37.22-37.76-57.57-46.33-38.83-109.42-22.83-118.48-19.98-37.43,11.78-49.29,25.07-58.97,38.3-4.84,6.61-9.36,12.04-13.43,16.57-9.14,10.15-16.3,16.72-18.78,19.03-8.62,8.05-19.02,25.63-26.11,67.93,3.51,2.18,7.22,4.77,11.01,7.84,9.14,7.43,15.75,15.3,20.42,21.97Z"/><path class="cls-2" d="M245.99,280.96c4.99-2.43,12.52-6.04,21.77-10.28,8.33-3.82,16.55-7.44,19.11-8.51,13.02-5.45,43.81-14.09,66.52-2.66,15.4,7.76,27.59,22.51,34.71,44.16,20.99,63.81,16.91,129.69,7,195.28-31.76,7.81-48.53,33.39-63.01,60.29-32.18,59.8-50.92,125.49-74.09,189.24-11.97,32.95-23.68,66.19-38.44,97.8-19.24,41.22-49.57,70.41-96.04,71.26-45.83.84-74.56-29.05-94.6-67.93-46.36-89.94-32.61-178.51,10.36-264.6,55.49-111.17,123.62-213.23,206.71-304.07Z"/><path class="cls-1" d="M239.88,287.69c6.94-2.89,41.41-16.45,70.19.71,3.39,2.02,15.02,9.78,28.35,35.13,8.98,17.07,18.41,42.65,20.46,94.52,2.6,65.67,2.98,99.13,2.98,99.13,4.36-3.57,9.98-7.56,16.9-11.25,5.96-3.17,11.53-5.39,16.34-6.97,1.72-7.88,3.49-15.86,5.42-23.91,2.66-11.1,5.31-21.86,5.31-21.86,0,0,2.03-56.96-.48-91.99-2.68-37.42-5.65-91.26-40.07-111.16-35.53-20.54-91.25,2.53-119.53,31.2-2.55,2.58-4.53,4.86-5.86,6.46Z"/><path class="cls-2" d="M2034.58,307.16c-30.09,129.74-59.48,255.73-88.3,381.86-3.21,14.05-9.98,17.44-22.79,16.87-22.82-1.02-45.72-.29-72.25-.29,16-66.64,31.43-130.92,48.37-201.45-24.89,18.64-33.9,42.03-47.68,61.09-21.68,29.99-43.14,60.36-62.11,92.24-14.93,25.08-30.37,19.99-47.94,6.23-13.77-10.78-20.28-25.78-23.3-43.53-7.18-42.15-15.54-84.07-29.44-125.86-14.13,60.28-29.41,120.3-41.83,180.96-5.08,24.8-15.5,31.67-39.13,30.97-59.81-1.78-59.89-.51-45.87-60.85,21.61-92.97,43.22-185.95,64.98-278.89,12.1-51.66,59.84-77.86,106.51-59.04,11.96,4.82,10.49,16.14,12.26,25.59,11.48,61.39,22.57,122.86,35.11,191.48,23.22-33.38,43.44-62.22,63.43-91.24,23.58-34.23,47.86-68,70.06-103.19,10.79-17.1,22.6-24.94,42.62-23.42,24.8,1.88,49.83.45,77.31.45Z"/><path class="cls-3" d="M245.99,280.96c24.4-25.56,44.65-55.18,73.54-76.38,62.54-45.87,114.52-35.72,153.93,33.05,29.92,52.19,45.7,110.67,65,167.52,14.2,41.82,26.46,84.53,50.89,121.62,38.14,57.91,81.84,62.88,131.09,14.73,36.29-35.47,62.22-79.23,87.81-123.02,59.7-102.17,113.74-208.1,184.88-302.61,20.29-26.96,43.09-51.55,69.31-72.42,114.24-90.9,257.47-32.85,284.7,115.36-7.88-10.75-15.79-21.46-23.62-32.24-29.05-39.98-81.96-59.68-124.83-43.42-61.68,23.4-100.37,72.34-128,132.32-13.15,3.06-19.99,13.91-24.69,25.09-53.28,126.68-105.38,253.9-159.26,380.29-30.12,70.66-62.23,140.47-104.37,204.54-16.06,24.41-33.21,47.83-55.26,66.96-83.95,72.83-176.2,69.37-255.21-9.66-56.55-56.56-75.82-129.49-82.82-207.39-4.4-48.99.93-97.76,6.33-146.44,1.09-9.8,5.68-20.03-.3-29.9,9.91-65.59,13.99-131.47-7-195.28-7.12-21.65-19.31-36.4-34.71-44.16-27.47-13.83-64.31,1.74-66.52,2.65-3.11,1.29-14.21,6.19-26.38,11.88-6.2,2.9-11.24,5.33-14.5,6.91Z"/><path class="cls-4" d="M4320.45,576.97c24.23,43.21,46.5,82.92,71.86,128.15-34.91,0-65.71-.08-96.52.04-11.68.05-12.94-11-17.13-18.02-17.86-29.92-37.58-59.11-51.46-91.02-13.21-30.38-36.01-19.17-55.78-19.9-19.02-.71-15.41,17.89-18.46,30.03-3.03,12.07-4.51,24.66-8.54,36.33-6.92,20.04-1.87,52.39-18.04,58.78-23.98,9.49-53.58,3.7-80.79,4.01-15.47.18-10.6-11.92-8.86-19.49,24.09-104.68,47.63-209.53,73.57-313.72,10.8-43.37,41.5-66.16,84.34-66.91,60.08-1.05,120.2-1.32,180.27.02,63.12,1.41,95.49,47.81,80.87,113.19-5.92,26.46-11.73,52.96-18.18,79.29-14.22,58.07-37.06,76.82-93.83,77.91-6.16.12-12.32.67-23.33,1.3ZM4267.97,480.84c10.88,0,21.76,0,32.63,0,54,.01,56.43-2.87,63.84-58.53,2.37-17.79-1.4-25.34-19.46-25.04-40.24.65-80.49.31-120.74,0-10.52-.08-18.75,1.89-23.72,13.21-24.23,55.14-15.44,70.31,41.34,70.33,8.7,0,17.4,0,26.11.03Z"/><path class="cls-4" d="M4770.69,505.27c12.55-55.13,27.51-109.52,36.51-164.96,4.75-29.25,15.03-36.97,42.08-36.1,58.92,1.91,58.93.41,45.34,59.03-24.02,103.62-49.03,207.01-71.23,311.06-5.44,25.48-14.84,34.14-38.8,31.63-19.36-2.03-39.08-.41-65.25-.41,35.92-59.01,6.84-97.39-28.59-136.89-38.67-43.12-73.35-90.14-113.59-140.21-17.31,73.56-33.95,141.74-49.3,210.24-16.4,73.19-15.83,72.7-88.78,67.36-15.69-1.15-18.63-6.81-15.38-20.71,24.2-103.53,47.93-207.18,72.84-310.52,4.5-18.69,15.18-35.06,29.22-48.55,31.26-30.04,71.49-28.26,99.03,5.27,46.86,57.05,93.42,114.36,140.16,171.51.62.75,2,.82,5.73,2.24Z"/><path class="cls-4" d="M4080.39,308.5c-29.33,127.98-57.93,252.43-86.28,376.95-3.58,15.73-11.64,20.29-27.31,20.55-72.3,1.16-72.17,1.82-54.98-70.03,16.56-69.2,32.4-138.6,49.47-207.66,5.54-22.41,2.72-32.84-22.87-31.35-34.83,2.03-69.88,1.42-104.77.12-18.76-.7-28.94,5.23-30.36,25.66-.62,8.95-3.38,17.74-5.29,26.58q-12.45,57.62,42.49,57.63c5.46,0,10.92,0,16.38,0,63.12,0,62.5-.15,47.31,64.78-4.45,19.02-12.49,25.8-31.28,24.67-28.29-1.71-56.77.29-85.13-.74-17.44-.63-29.97,1.98-29.96,24.27,0,6.56-3.41,13.06-4.77,19.7-14.66,71.5-18.82,74.08-89.8,66.32-14.08-1.54-16.38-6.86-13.48-19.09,24.71-104.38,48.15-209.12,74.58-313.02,12.12-47.63,39.36-65.28,86.84-65.31,88.38-.04,176.76-.01,269.2-.01Z"/><path class="cls-4" d="M3627.84,616.55q-18.55,88.94-99.77,88.93c-47,0-93.99.16-140.99-.08-61.1-.3-97.8-46.08-84.4-107.77,15.62-71.88,32.57-143.48,50.5-214.77,13.8-54.85,39.92-74.3,94-74.33,76.5-.05,153.02.62,229.5-.59,20.15-.32,22.15,5.27,17.96,24.43-14.21,64.9-13.44,65.08-78.06,65.08-49.18,0-98.36-.24-147.54.12-21.15.15-44.28,35.63-36.59,55.28,4,10.22,12.88,6.06,19.62,6.14,37.15.43,74.33.73,111.47-.03,16.32-.33,19.12,3.16,15.23,21.25-14.56,67.74-13.54,67.98-79.26,67.95-24.04-.01-48.09.11-72.13-.06-11.58-.08-18.96.93-22.62,16.83-11.54,50.17-11.46,51.62,37.64,51.62,61.11,0,122.22,0,185.42,0Z"/><path class="cls-2" d="M2598.62,397.36c-.39-4.63-1.02-6.86-.7-8.93q12.73-80.05,89.68-80.04c87.27,0,174.54,0,261.5,0,.84,3.72,2.03,5.91,1.63,7.71-18.06,81.34-18.15,83.42-98.3,80.36-33.52-1.28-46.36,8.13-53.3,43.13-15.9,80.15-38.06,158.92-55.72,238.72-4.91,22.18-13.45,30.06-34.88,27.76-19.34-2.07-39.04-.44-61.39-.44,22.09-93.03,42.17-183.74,65.76-273.45,7.96-30.27,1.9-37.51-26.56-35.33-29.16,2.24-58.61.5-87.72.5Z"/><path class="cls-2" d="M2260.14,705.67c22.55-94.88,43.58-186.66,66.58-277.91,5.92-23.49,4.08-33.77-21.72-30.67-14.01,1.68-28.4,1.08-42.53.09-16.98-1.19-45.73,7.68-48.62-4.13-6.25-25.54,8.19-52.69,15.02-78.91,1.95-7.47,11.02-5.75,17.4-5.76,105.74-.06,211.48-.04,317.6-.04-15.15,89.05-15.22,91.16-96.72,88.07-34.52-1.31-48.28,8.8-55.42,44.64-15.3,76.77-37.07,152.11-53.63,228.64-5.92,27.39-16.69,39.52-43.88,36.32-16.11-1.89-32.59-.35-54.1-.35Z"/><path class="cls-4" d="M3263.58,616.48q-13.75,89-96.12,89c-49.19,0-98.38.13-147.57-.05-60.78-.23-97.74-46.29-84.51-107.95,15.91-74.12,33.49-147.86,51.22-221.53,10.54-43.81,42.59-67.24,86.42-67.69,19.13-.19,26.56,1,20.27,25.91-20.78,82.25-36.73,165.84-57.45,248.11-7.83,31.07,2.7,35,27.94,34.57,65.51-1.12,131.05-.38,199.8-.38Z"/><path class="cls-2" d="M2000.91,705.63c25.99-111.93,50.32-220.34,76.6-328.24,11.43-46.91,44.61-71.79,84.82-70.56,13.38.41,20.48,2.53,16.62,19.07-28.37,121.54-56.61,243.12-84.02,364.89-3.13,13.92-10.17,15.03-20.68,14.91-22.83-.25-45.67-.08-73.34-.08Z"/><path d="M1942.57,1415.93c2.01-.67,3.95-.54,5.83.4,1.87.94,3.15,2.41,3.82,4.42.67,2.01.6,4.08-.2,6.23-4.82,9.11-8.98,15.54-12.46,19.29-3.49,3.75-7.37,4.95-11.65,3.62-3.49-1.07-5.9-3.42-7.23-7.03-1.34-3.62-1.75-11.32-1.21-23.11.53-11.79,1.94-26.66,4.22-44.61,2.27-17.95,5.96-43.94,11.05-77.97,4.82-34.02,8.57-60.42,11.25-79.17,2.68-18.75,5.29-41.19,7.84-67.32,2.54-26.12,3.55-46.68,3.01-61.69-.8-32.15-7.64-49.03-20.5-50.64-10.99-1.61-26.66,7.64-47.02,27.73-20.37,20.1-43.14,52.11-68.32,96.05-57.61,99.67-108.65,228.81-153.12,387.42-.27,0-.4.13-.4.4-1.07,3.21-1.95,5.56-2.61,7.03-.67,1.47-1.54,3.21-2.61,5.22-1.07,2.01-2.28,3.48-3.62,4.42-1.34.94-2.81,1.41-4.42,1.41-.8,0-1.75-.27-2.81-.8-3.48-1.07-5.43-4.02-5.83-8.84-.4-4.82.2-12.06,1.81-21.7,2.14-13.4,5.63-32.69,10.45-57.87,8.3-43.4,20.63-102.62,36.97-177.64,28.4-130.48,51.71-233.9,69.93-310.26,3.22-13.93,4.95-25.58,5.22-34.96.26-9.38-.2-15.34-1.41-17.88-1.21-2.54-2.48-4.35-3.82-5.43-2.95-1.61-7.84-1.21-14.67,1.21-6.83,2.41-15.34,7.64-25.52,15.67-18.76,14.47-38.58,34.5-59.48,60.08-20.9,25.59-39.59,52.18-56.06,79.78-16.48,27.6-28.87,54.93-37.18,81.99-8.31,27.07-9.78,48.63-4.42,64.7,6.96,20.64,25.99,31.22,57.07,31.75,2.14,0,3.95.8,5.43,2.41,1.47,1.61,2.21,3.48,2.21,5.63s-.74,3.96-2.21,5.43c-1.48,1.48-3.28,2.21-5.43,2.21-38.58-.8-62.56-15-71.94-42.6-2.41-7.5-3.68-15.94-3.82-25.32-.13-9.37.87-18.95,3.02-28.74,2.14-9.78,4.82-19.49,8.04-29.14,3.21-9.65,7.1-19.29,11.65-28.94,4.55-9.64,8.77-18.29,12.66-25.92,3.88-7.64,8.1-15.07,12.66-22.31,16.88-28.94,36.1-56.4,57.67-82.39,21.56-25.98,41.73-46.35,60.48-61.09,25.72-19.83,45.01-25.58,57.87-17.28,14.2,9.11,16.48,34.03,6.83,74.75-11.52,49.03-28.74,125.06-51.64,228.07-22.91,103.02-40.53,185.6-52.85,247.77,17.68-56,36.5-108.45,56.47-157.34,19.96-48.89,39.45-91.16,58.48-126.8,19.02-35.63,37.64-66.17,55.86-91.63,18.22-25.45,35.16-44.14,50.84-56.06,15.67-11.92,29.54-17.21,41.6-15.87,21.7,2.95,33.09,24.92,34.16,65.91.26,15.27-.87,36.17-3.42,62.7-2.55,26.52-5.09,49.23-7.64,68.12-2.55,18.89-6.37,45.48-11.45,79.78-9.92,68.85-15.01,111.32-15.27,127.4,1.07-2.15,2.27-4.42,3.62-6.83.8-1.88,2.21-3.15,4.22-3.82Z"/><path d="M2154.56,1231.86c2.14-.4,4.08-.06,5.83,1,1.74,1.07,2.88,2.68,3.42,4.82.53,2.15.26,4.02-.8,5.63-3.22,5.09-6.7,10.52-10.45,16.28-3.76,5.76-9.31,13.6-16.68,23.51-7.37,9.92-14.4,18.56-21.1,25.92-6.7,7.37-13.94,13.87-21.7,19.49-7.77,5.63-14.47,8.44-20.09,8.44-2.15,0-4.02-.4-5.63-1.21-12.86-4.82-16.48-25.32-10.85-61.49-8.84,12.06-16.88,21.17-24.11,27.33-10.45,8.84-19.56,9.92-27.33,3.21-7.23-5.89-10.51-16.34-9.85-31.35.67-15,5.02-29.47,13.06-43.4,1.07-1.87,2.68-3.08,4.82-3.62,2.14-.53,4.15-.26,6.03.8,1.87,1.07,3.08,2.61,3.62,4.62.53,2.01.26,3.96-.8,5.83-4.56,7.5-7.71,15.41-9.45,23.71-1.75,8.31-2.28,15.21-1.61,20.7.67,5.49,1.94,9.04,3.82,10.65,1.34,1.34,3.88.4,7.64-2.81,6.96-5.89,15.67-16.48,26.12-31.75,1.87-2.41,3.28-4.22,4.22-5.43.94-1.21,2.07-2.68,3.42-4.42,1.34-1.74,2.41-2.88,3.22-3.42.8-.53,1.74-1.14,2.81-1.81,1.07-.67,2.14-.94,3.21-.8,1.07.14,2.27.47,3.62,1.01,3.48,1.34,5.36,4.36,5.63,9.04.26,4.69-.4,10.79-2.01,18.29-2.95,14.74-4.09,25.99-3.41,33.76.67,7.77,1.27,12.53,1.81,14.27.53,1.74,1.21,2.61,2.01,2.61.8.53,2.21.33,4.22-.6,2.01-.94,4.42-2.47,7.23-4.62,2.81-2.14,5.96-4.89,9.44-8.24,3.48-3.35,7.44-7.44,11.86-12.26,4.42-4.82,8.9-10.11,13.46-15.88,4.55-5.76,9.51-12.46,14.87-20.09,5.36-7.64,10.58-15.74,15.67-24.31,1.07-1.87,2.67-3.02,4.82-3.42Z"/><path d="M2312.3,1228.24c2.01-.67,3.95-.53,5.83.4,1.87.94,3.22,2.41,4.02,4.42.8,2.01.67,3.96-.4,5.83-7.23,15.54-15.41,31.48-24.51,47.82-9.11,16.35-19.09,32.89-29.94,49.63-10.85,16.74-21.64,30.4-32.35,40.99-10.72,10.58-19.83,15.87-27.33,15.87-1.88,0-3.62-.4-5.22-1.21-10.99-4.29-14.47-20.9-10.45-49.83,3.75-27.06,13.66-65.37,29.74-114.94-.27,0-.47.07-.6.2s-.34.2-.6.2c-5.9,4.02-10.79,7.1-14.67,9.24-3.89,2.15-9.11,4.56-15.67,7.23-6.57,2.68-12.8,3.89-18.69,3.62-5.9-.26-11.39-2.14-16.48-5.63-10.18-7.23-15.4-17.28-15.67-30.14-.26-12.86,4.55-26.93,14.47-42.2,6.16-9.65,13.59-18.08,22.31-25.32,8.7-7.23,16.14-8.84,22.31-4.82,3.75,2.15,5.96,5.63,6.63,10.45.67,4.82-1.68,14.14-7.03,27.93-5.36,13.8-14.34,31.82-26.93,54.06,8.3,1.07,21.97-4.68,40.99-17.28,3.48-2.41,6.09-4.08,7.84-5.02,1.74-.94,3.75-1.94,6.03-3.01,2.27-1.07,4.22-1.47,5.83-1.21,1.61.27,3.22.94,4.82,2.01,4.02,3.22,4.68,8.84,2.01,16.88-26.8,83.06-37.38,133.43-31.75,151.11.53,1.07.94,1.87,1.21,2.41,2.14.26,5.43-1.48,9.85-5.22,4.42-3.75,9.91-9.64,16.48-17.68,6.56-8.04,13.66-17.68,21.3-28.94,7.64-11.25,16.08-25.05,25.32-41.39,9.24-16.34,18.15-33.76,26.73-52.25,1.07-2.14,2.61-3.55,4.62-4.22ZM2156.17,1201.12c-2.41,9.38-1.88,16.88,1.61,22.51,19.56-34.02,30-57.07,31.35-69.12-3.22,1.88-6.9,4.96-11.05,9.24-4.16,4.29-8.44,9.85-12.86,16.68-4.42,6.83-7.44,13.73-9.04,20.7Z"/><path d="M2638.84,1082.56c1.34,1.61,1.87,3.48,1.61,5.63-.27,2.15-1.34,3.89-3.22,5.22-3.21,2.15-6.3,2.01-9.24-.4-12.86-4.55-103.15-4.95-270.87-1.21-17.42,73.14-35.1,152.46-53.05,237.92-21.43,103.15-34.42,174.02-38.98,212.6.54,0,1.07.13,1.61.4,2.15.53,3.62,1.81,4.42,3.82.8,2.01.8,3.95,0,5.83-1.34,4.28-2.48,7.44-3.42,9.45-.94,2.01-2.34,4.02-4.22,6.03-1.87,2.01-3.88,3.01-6.03,3.01-.8,0-1.74-.14-2.81-.4-3.48-1.07-5.56-3.89-6.23-8.44-.67-4.56-.33-10.72,1-18.49,1.07-11.25,3.49-27.47,7.23-48.63,6.7-40.19,16.75-92.43,30.14-156.74,17.95-86.81,36.03-168.79,54.26-245.96-18.22.27-40.86.8-67.92,1.61-42.86,1.07-68.05,1.61-75.56,1.61-2.14,0-3.95-.73-5.43-2.21-1.47-1.47-2.21-3.28-2.21-5.43,0-1.34.34-2.61,1-3.82.67-1.21,1.61-2.14,2.81-2.81,1.21-.67,2.48-1,3.82-1,7.5,0,32.55-.67,75.15-2.01,26.53-.53,50.64-1.07,72.34-1.61,8.57-35.37,16.21-65.37,22.91-90.02.53-2.14,1.74-3.75,3.62-4.82,1.87-1.07,3.82-1.34,5.83-.8,2.01.54,3.55,1.75,4.62,3.62,1.07,1.88,1.34,3.89.8,6.03-6.43,23.85-13.8,52.38-22.1,85.6,80.38-2.14,141.06-2.94,182.06-2.41,40.99.54,66.78,1.41,77.36,2.61,10.58,1.21,16.81,3.28,18.69,6.23Z"/><path d="M2507.42,1231.86c2.14-.4,4.08-.06,5.83,1,1.74,1.07,2.88,2.68,3.42,4.82.53,2.15.26,4.02-.8,5.63-3.22,5.09-6.7,10.52-10.45,16.28-3.76,5.76-9.31,13.6-16.68,23.51-7.37,9.92-14.4,18.56-21.1,25.92-6.7,7.37-13.94,13.87-21.7,19.49-7.77,5.63-14.47,8.44-20.09,8.44-2.15,0-4.02-.4-5.63-1.21-12.86-4.82-16.48-25.32-10.85-61.49-8.84,12.06-16.88,21.17-24.11,27.33-10.45,8.84-19.56,9.92-27.33,3.21-7.23-5.89-10.51-16.34-9.85-31.35.67-15,5.02-29.47,13.06-43.4,1.07-1.87,2.68-3.08,4.82-3.62,2.14-.53,4.15-.26,6.03.8,1.87,1.07,3.08,2.61,3.62,4.62.53,2.01.26,3.96-.8,5.83-4.56,7.5-7.71,15.41-9.45,23.71-1.75,8.31-2.28,15.21-1.61,20.7.67,5.49,1.94,9.04,3.82,10.65,1.34,1.34,3.88.4,7.64-2.81,6.96-5.89,15.67-16.48,26.12-31.75,1.87-2.41,3.28-4.22,4.22-5.43.94-1.21,2.07-2.68,3.42-4.42,1.34-1.74,2.41-2.88,3.22-3.42.8-.53,1.74-1.14,2.81-1.81,1.07-.67,2.14-.94,3.21-.8,1.07.14,2.27.47,3.62,1.01,3.48,1.34,5.36,4.36,5.63,9.04.26,4.69-.4,10.79-2.01,18.29-2.95,14.74-4.09,25.99-3.41,33.76.67,7.77,1.27,12.53,1.81,14.27.53,1.74,1.21,2.61,2.01,2.61.8.53,2.21.33,4.22-.6,2.01-.94,4.42-2.47,7.23-4.62,2.81-2.14,5.96-4.89,9.44-8.24,3.48-3.35,7.44-7.44,11.86-12.26,4.42-4.82,8.9-10.11,13.46-15.88,4.55-5.76,9.51-12.46,14.87-20.09,5.36-7.64,10.58-15.74,15.67-24.31,1.07-1.87,2.67-3.02,4.82-3.42Z"/><path d="M2665.16,1228.24c2.01-.67,3.95-.53,5.83.4,1.87.94,3.22,2.41,4.02,4.42.8,2.01.67,3.96-.4,5.83-7.23,15.54-15.41,31.48-24.51,47.82-9.11,16.35-19.09,32.89-29.94,49.63-10.85,16.74-21.64,30.4-32.35,40.99-10.72,10.58-19.83,15.87-27.33,15.87-1.88,0-3.62-.4-5.22-1.21-10.99-4.29-14.47-20.9-10.45-49.83,3.75-27.06,13.66-65.37,29.74-114.94-.27,0-.47.07-.6.2s-.34.2-.6.2c-5.9,4.02-10.79,7.1-14.67,9.24-3.89,2.15-9.11,4.56-15.67,7.23-6.57,2.68-12.8,3.89-18.69,3.62-5.9-.26-11.39-2.14-16.48-5.63-10.18-7.23-15.4-17.28-15.67-30.14-.26-12.86,4.55-26.93,14.47-42.2,6.16-9.65,13.59-18.08,22.31-25.32,8.7-7.23,16.14-8.84,22.31-4.82,3.75,2.15,5.96,5.63,6.63,10.45.67,4.82-1.68,14.14-7.03,27.93-5.36,13.8-14.34,31.82-26.93,54.06,8.3,1.07,21.97-4.68,40.99-17.28,3.48-2.41,6.09-4.08,7.84-5.02,1.74-.94,3.75-1.94,6.03-3.01,2.27-1.07,4.22-1.47,5.83-1.21,1.61.27,3.22.94,4.82,2.01,4.02,3.22,4.68,8.84,2.01,16.88-26.8,83.06-37.38,133.43-31.75,151.11.53,1.07.94,1.87,1.21,2.41,2.14.26,5.43-1.48,9.85-5.22,4.42-3.75,9.91-9.64,16.48-17.68,6.56-8.04,13.66-17.68,21.3-28.94,7.64-11.25,16.08-25.05,25.32-41.39,9.24-16.34,18.15-33.76,26.73-52.25,1.07-2.14,2.61-3.55,4.62-4.22ZM2509.02,1201.12c-2.41,9.38-1.88,16.88,1.61,22.51,19.56-34.02,30-57.07,31.35-69.12-3.22,1.88-6.9,4.96-11.05,9.24-4.16,4.29-8.44,9.85-12.86,16.68s-7.44,13.73-9.04,20.7Z"/><path d="M2785.11,1228.65c2.14-.4,4.08,0,5.83,1.21,1.74,1.21,2.74,2.88,3.01,5.02.26,2.15-.14,4.02-1.21,5.63-30.28,42.34-57.87,72.34-82.79,90.02-9.92,6.96-19.69,10.45-29.34,10.45-7.5,0-14.07-2.01-19.69-6.03-3.21-2.41-6.1-5.63-8.64-9.65-2.54-4.02-4.75-9.64-6.63-16.88-1.87-7.23-2.21-16.74-1-28.53,1.21-11.79,4.22-25.18,9.04-40.19v-.4c7.5-24.38,16.61-43.67,27.33-57.87,10.71-14.2,20.36-21.43,28.94-21.7,6.16-.26,10.18,2.41,12.06,8.04,2.94,7.77-.54,18.76-10.45,32.96-9.92,14.2-24.52,29.48-43.81,45.82-3.22,10.45-5.49,20.1-6.83,28.94-1.34,8.84-1.81,15.87-1.41,21.1.4,5.22,1.34,9.78,2.81,13.66,1.47,3.89,2.81,6.63,4.02,8.24,1.21,1.61,2.48,2.94,3.82,4.02,8.04,5.89,18.35,4.28,30.94-4.82,23.57-16.61,49.83-45.28,78.77-86.01,1.34-1.61,3.08-2.61,5.22-3.01ZM2707.15,1176.6c-9.38,5.9-18.62,18.62-27.73,38.18,15.54-15.54,24.78-28.26,27.73-38.18Z"/><path d="M3280.44,1197.1c2.01.8,3.41,2.15,4.22,4.02.8,1.88.8,3.82,0,5.83s-2.15,3.42-4.02,4.22c-30.54,12.6-59.35,25.72-86.41,39.39-20.09,86.54-45.01,158.75-74.75,216.62-21.7,42.6-45.01,75.96-69.93,100.07-24.92,24.11-49.17,36.84-72.74,38.18-1.34.26-2.68.4-4.02.4-13.93,0-25.79-4.22-35.57-12.66-9.78-8.44-16.41-20.16-19.89-35.16-3.21-14.47-3.21-30.68,0-48.63,3.22-17.95,10.91-38.12,23.11-60.48,12.19-22.37,28.26-44.88,48.23-67.52,19.96-22.64,46.48-46.36,79.57-71.14,33.09-24.78,70.66-48.16,112.73-70.13,16.34-71.8,28.94-151.37,37.78-238.72.8-7.77,1.34-14.47,1.61-20.1-2.68,6.17-7.37,16.88-14.07,32.15-7.5,17.42-13.6,31.35-18.29,41.8-4.69,10.45-11.79,25.39-21.3,44.81-9.51,19.43-18.29,35.84-26.32,49.23-8.04,13.4-17.55,27.67-28.53,42.8-10.99,15.14-21.7,27.8-32.15,37.98-34.83,32.69-62.56,45.68-83.19,38.98-14.2-4.28-23.31-16.61-27.33-36.97-3.75-19.29-2.68-42.93,3.22-70.93,5.89-27.99,16.21-55.99,30.94-84,14.73-27.99,32.01-50.3,51.84-66.92,1.61-1.34,3.48-1.94,5.63-1.81,2.14.14,3.88,1,5.22,2.61,1.34,1.61,1.94,3.48,1.81,5.63-.14,2.15-1,3.89-2.61,5.22-17.95,15.27-33.9,36.04-47.83,62.29-13.93,26.26-23.78,52.52-29.54,78.77-5.76,26.26-6.9,48.36-3.42,66.31,2.95,14.2,8.57,22.64,16.88,25.32,14.73,4.56,37.24-7.37,67.52-35.77,8.57-8.04,17.14-17.48,25.72-28.33,8.57-10.85,16.81-22.97,24.72-36.37,7.9-13.4,15-25.72,21.3-36.97,6.29-11.25,13.06-24.65,20.3-40.19,7.23-15.54,12.72-27.46,16.48-35.77,3.75-8.3,8.7-19.55,14.87-33.76,11.25-25.99,18.82-42.26,22.71-48.83,3.88-6.56,8.37-9.18,13.46-7.84,4.28,1.07,6.83,4.96,7.64,11.65.8,6.7.13,20.23-2.01,40.59-8.31,82.79-20.1,158.89-35.37,228.27,24.11-12.06,49.43-23.44,75.96-34.16,1.87-.8,3.82-.8,5.83,0ZM3105.82,1459.93c27.59-53.85,51.04-120.43,70.33-199.74-79.84,43.14-141.47,90.56-184.87,142.27-23.05,27.33-39.79,54.46-50.24,81.38-10.45,26.93-13.26,50.57-8.44,70.93,2.68,11.79,7.77,20.83,15.27,27.13,7.5,6.29,16.74,9.04,27.73,8.24,20.63-1.34,42.46-13.46,65.51-36.37,23.04-22.91,44.61-54.19,64.7-93.84Z"/><path d="M3416.08,1230.45c2.14-.26,4.08.27,5.83,1.61,1.74,1.34,2.74,3.08,3.01,5.22.26,2.15-.27,4.02-1.61,5.63-10.99,14.2-24.11,25.32-39.39,33.36-15.27,8.04-29.61,10.59-43,7.64-3.76,9.11-8.98,16.28-15.67,21.5-6.7,5.22-13.66,7.84-20.9,7.84h-.4c-7.23-.26-13.6-2.75-19.09-7.44-5.49-4.68-9.31-11.18-11.45-19.49-3.48-13.13-2.88-25.65,1.81-37.58,4.68-11.92,11.45-20.7,20.3-26.32,1.87-1.34,4.02-1.61,6.43-.8,2.41-5.89,5.83-10.45,10.25-13.66s9.04-4.42,13.86-3.62c2.68.54,5.16,1.68,7.44,3.42,2.27,1.75,4.55,4.49,6.83,8.24,2.27,3.76,3.95,9.51,5.02,17.28,1.07,7.77,1.34,17.02.8,27.73-.27,2.68-.67,5.36-1.21,8.04,10.18,2.15,21.5-.4,33.96-7.64,12.46-7.23,23.11-16.61,31.95-28.13,1.34-1.61,3.08-2.54,5.22-2.81ZM3304.35,1297.57c3.75,0,7.7-1.74,11.86-5.22,4.15-3.48,7.57-8.17,10.25-14.07-17.42-9.65-26.53-22.77-27.33-39.39-5.36,5.09-9.04,11.92-11.05,20.5-2.01,8.58-1.95,16.08.2,22.51,2.95,10.45,8.3,15.67,16.08,15.67ZM3330.47,1260.19c.53-6.43.6-11.99.2-16.68-.4-4.68-.87-8.5-1.41-11.45-.54-2.95-1.21-5.36-2.01-7.23-.8-1.87-1.55-3.22-2.21-4.02-.67-.8-1.14-1.21-1.41-1.21h-.4c-1.07,0-2.41.87-4.02,2.61-1.61,1.75-2.81,4.09-3.62,7.03-1.61,5.63-1.34,11.39.8,17.28,2.14,5.9,6.83,11.25,14.07,16.08v-2.41Z"/><path d="M3559.15,1231.86c2.14-.4,4.08-.06,5.83,1,1.74,1.07,2.88,2.68,3.42,4.82.53,2.15.26,4.02-.8,5.63-3.22,5.09-6.7,10.52-10.45,16.28-3.76,5.76-9.31,13.6-16.68,23.51-7.37,9.92-14.4,18.56-21.1,25.92-6.7,7.37-13.94,13.87-21.7,19.49-7.77,5.63-14.47,8.44-20.09,8.44-2.15,0-4.02-.4-5.63-1.21-12.86-4.82-16.48-25.32-10.85-61.49-8.84,12.06-16.88,21.17-24.11,27.33-10.45,8.84-19.56,9.92-27.33,3.21-7.23-5.89-10.51-16.34-9.85-31.35.67-15,5.02-29.47,13.06-43.4,1.07-1.87,2.68-3.08,4.82-3.62,2.14-.53,4.15-.26,6.03.8,1.87,1.07,3.08,2.61,3.62,4.62.53,2.01.26,3.96-.8,5.83-4.56,7.5-7.71,15.41-9.45,23.71-1.75,8.31-2.28,15.21-1.61,20.7.67,5.49,1.94,9.04,3.82,10.65,1.34,1.34,3.88.4,7.64-2.81,6.96-5.89,15.67-16.48,26.12-31.75,1.87-2.41,3.28-4.22,4.22-5.43.94-1.21,2.07-2.68,3.42-4.42,1.34-1.74,2.41-2.88,3.22-3.42.8-.53,1.74-1.14,2.81-1.81,1.07-.67,2.14-.94,3.21-.8,1.07.14,2.27.47,3.62,1.01,3.48,1.34,5.36,4.36,5.63,9.04.26,4.69-.4,10.79-2.01,18.29-2.95,14.74-4.09,25.99-3.41,33.76.67,7.77,1.27,12.53,1.81,14.27.53,1.74,1.21,2.61,2.01,2.61.8.53,2.21.33,4.22-.6,2.01-.94,4.42-2.47,7.23-4.62,2.81-2.14,5.96-4.89,9.44-8.24,3.48-3.35,7.44-7.44,11.86-12.26,4.42-4.82,8.9-10.11,13.46-15.88,4.55-5.76,9.51-12.46,14.87-20.09,5.36-7.64,10.58-15.74,15.67-24.31,1.07-1.87,2.67-3.02,4.82-3.42Z"/><path d="M3716.88,1228.24c2.01-.67,3.95-.53,5.83.4,1.87.94,3.22,2.41,4.02,4.42.8,2.01.67,3.96-.4,5.83-7.23,15.54-15.41,31.48-24.51,47.82-9.11,16.35-19.09,32.89-29.94,49.63-10.85,16.74-21.64,30.4-32.35,40.99-10.72,10.58-19.83,15.87-27.33,15.87-1.88,0-3.62-.4-5.22-1.21-10.99-4.29-14.47-20.9-10.45-49.83,3.75-27.06,13.66-65.37,29.74-114.94-.27,0-.47.07-.6.2s-.34.2-.6.2c-5.9,4.02-10.79,7.1-14.67,9.24-3.89,2.15-9.11,4.56-15.67,7.23-6.57,2.68-12.8,3.89-18.69,3.62-5.9-.26-11.39-2.14-16.48-5.63-10.18-7.23-15.4-17.28-15.67-30.14-.26-12.86,4.55-26.93,14.47-42.2,6.16-9.65,13.59-18.08,22.31-25.32,8.7-7.23,16.14-8.84,22.31-4.82,3.75,2.15,5.96,5.63,6.63,10.45.67,4.82-1.68,14.14-7.03,27.93-5.36,13.8-14.34,31.82-26.93,54.06,8.3,1.07,21.97-4.68,40.99-17.28,3.48-2.41,6.09-4.08,7.84-5.02,1.74-.94,3.75-1.94,6.03-3.01,2.27-1.07,4.22-1.47,5.83-1.21,1.61.27,3.22.94,4.82,2.01,4.02,3.22,4.68,8.84,2.01,16.88-26.8,83.06-37.38,133.43-31.75,151.11.53,1.07.94,1.87,1.21,2.41,2.14.26,5.43-1.48,9.85-5.22,4.42-3.75,9.91-9.64,16.48-17.68,6.56-8.04,13.66-17.68,21.3-28.94,7.64-11.25,16.08-25.05,25.32-41.39,9.24-16.34,18.15-33.76,26.73-52.25,1.07-2.14,2.61-3.55,4.62-4.22ZM3560.75,1201.12c-2.41,9.38-1.88,16.88,1.61,22.51,19.56-34.02,30-57.07,31.35-69.12-3.22,1.88-6.9,4.96-11.05,9.24-4.16,4.29-8.44,9.85-12.86,16.68s-7.44,13.73-9.04,20.7Z"/><path d="M4346.24,850.47c2.01.94,3.28,2.41,3.82,4.42.53,2.01.33,3.96-.6,5.83-.94,1.88-2.35,3.22-4.22,4.02-19.03,5.9-59.48,18.22-121.37,36.97-71,21.44-124.86,37.92-161.56,49.43-8.84,34.83-26.52,111.86-53.05,231.09-27.33,124.05-46.89,210.19-58.68,258.42-9.38,39.12-17.02,68.59-22.91,88.42-4.56,15.54-8.18,25.92-10.85,31.15-2.68,5.22-5.9,7.84-9.65,7.84h-1.61c-4.82-.8-7.64-4.82-8.44-12.06-.8-7.24-.14-23.85,2.01-49.83.26-2.15,1.21-3.89,2.81-5.22,1.61-1.34,3.48-1.88,5.63-1.61,1.34,0,2.61.4,3.82,1.21,1.21.8,2.07,1.87,2.61,3.22.53,1.34.67,2.68.4,4.02-.54,5.89-.94,11.25-1.21,16.08,12.59-43.95,39.65-159.02,81.18-345.23,24.92-112.53,41.8-186.48,50.64-221.84-24.38,7.5-46.22,14.47-65.51,20.9-72.34,24.11-116.29,41.26-131.82,51.44,2.68,1.88,3.75,4.42,3.22,7.64-.8,4.29-3.35,6.43-7.64,6.43-.54,0-1.07-.13-1.61-.4-8.58-1.61-13.12-5.49-13.66-11.65,0-4.28,2.81-8.64,8.44-13.06,5.63-4.42,16.88-10.11,33.76-17.08,21.97-9.38,53.85-21.03,95.65-34.97,51.17-17.14,135.7-43.54,253.59-79.17,61.62-18.49,101.94-30.81,120.97-36.97,1.87-.53,3.82-.33,5.83.6Z"/><path d="M4210.4,1229.85c2.01-.67,3.95-.53,5.83.4,1.87.94,3.15,2.41,3.82,4.42.67,2.01.6,3.96-.2,5.83-28.67,59.22-54.26,88.82-76.76,88.82-1.34,0-2.81-.14-4.42-.4-17.95-3.48-29.07-27.59-33.36-72.34-13.13,17.68-24.79,32.15-34.96,43.4-9.11,9.65-16.88,13-23.31,10.05-6.43-2.41-9.51-9.38-9.24-20.9,0-9.65,2.15-21.16,6.43-34.56,4.28-13.39,10.58-26.39,18.89-38.98,8.3-12.59,17.28-20.5,26.93-23.71,14.2-5.09,27.33-.4,39.39,14.07,1.34,1.61,1.94,3.48,1.81,5.63-.14,2.15-1,3.89-2.61,5.22-1.61,1.34-3.49,1.95-5.63,1.81-2.15-.13-3.89-1-5.22-2.61-9.38-11.25-18.89-13.39-28.53-6.43-10.99,7.77-20.16,21.77-27.53,42-7.37,20.23-10.25,34.63-8.64,43.2,1.61-1.34,3.48-3.08,5.63-5.22,10.71-11.52,23.84-27.99,39.39-49.43,3.48-4.82,5.89-8.17,7.23-10.05,2.14-2.68,4.95-3.55,8.44-2.61,3.48.94,5.36,3.28,5.63,7.03.53,13.13,1.61,24.78,3.21,34.96,1.61,10.19,3.22,17.88,4.82,23.11,1.61,5.22,3.48,9.58,5.63,13.06,2.14,3.49,3.82,5.7,5.02,6.63,1.21.94,2.48,1.41,3.82,1.41,3.75.8,8.5-1,14.27-5.43,5.76-4.42,13.12-12.99,22.1-25.72,8.97-12.72,18.15-28.87,27.53-48.43,1.07-2.14,2.61-3.55,4.62-4.22Z"/><path d="M4315.49,943.1c5.63,8.31,2.88,27.93-8.24,58.88-11.12,30.94-29.14,66.25-54.05,105.9l-.8.8c-16.88,67.52-33.02,137.92-48.43,211.19-15.4,73.28-25.25,125.45-29.54,156.54h.8c2.15.8,3.69,2.14,4.62,4.02.94,1.87,1,3.88.2,6.03-1.61,4.55-2.88,7.97-3.82,10.25-.94,2.27-2.34,4.48-4.22,6.63-1.87,2.14-3.88,3.21-6.03,3.21-.8,0-1.74-.14-2.81-.4-3.75-1.34-5.76-5.02-6.03-11.05-.26-6.03,1.61-20.83,5.63-44.41,4.82-28.94,12.06-66.71,21.7-113.33,22.24-106.1,44.34-200.68,66.31-283.74,1.87-6.96,3.88-14.27,6.03-21.9,2.14-7.64,5.22-17.21,9.24-28.74,4.02-11.52,7.97-21.63,11.86-30.34,3.88-8.7,8.24-16.48,13.06-23.31,4.82-6.83,9.38-10.51,13.67-11.05,4.55-.8,8.17.8,10.85,4.82ZM4266.46,1054.83c21.43-40.45,33.49-72.2,36.17-95.25-11.79,17.68-23.85,49.43-36.17,95.25Z"/><path d="M4388.63,1228.65c2.14-.4,4.08,0,5.83,1.21,1.74,1.21,2.74,2.88,3.01,5.02.26,2.15-.14,4.02-1.21,5.63-30.28,42.34-57.87,72.34-82.79,90.02-9.92,6.96-19.69,10.45-29.34,10.45-7.5,0-14.07-2.01-19.69-6.03-3.21-2.41-6.1-5.63-8.64-9.65-2.54-4.02-4.75-9.64-6.63-16.88-1.87-7.23-2.21-16.74-1-28.53,1.21-11.79,4.22-25.18,9.04-40.19v-.4c7.5-24.38,16.61-43.67,27.33-57.87,10.71-14.2,20.36-21.43,28.94-21.7,6.16-.26,10.18,2.41,12.06,8.04,2.94,7.77-.54,18.76-10.45,32.96-9.92,14.2-24.52,29.48-43.81,45.82-3.22,10.45-5.49,20.1-6.83,28.94-1.34,8.84-1.81,15.87-1.41,21.1.4,5.22,1.34,9.78,2.81,13.66,1.47,3.89,2.81,6.63,4.02,8.24,1.21,1.61,2.48,2.94,3.82,4.02,8.04,5.89,18.35,4.28,30.94-4.82,23.57-16.61,49.83-45.28,78.77-86.01,1.34-1.61,3.08-2.61,5.22-3.01ZM4310.66,1176.6c-9.38,5.9-18.62,18.62-27.73,38.18,15.54-15.54,24.78-28.26,27.73-38.18Z"/><path d="M4531.3,1229.25c2.14-.53,4.15-.26,6.03.8,1.87,1.07,3.08,2.61,3.62,4.62.53,2.01.26,3.96-.8,5.83-9.11,16.08-17.02,28.8-23.71,38.18-6.7,9.38-13.53,16.75-20.5,22.1-6.97,5.36-13.8,7.64-20.5,6.83-13.4-1.61-23.98-16.08-31.75-43.4-5.63-18.49-10.45-27.73-14.47-27.73-.8-.26-1.95.07-3.42,1-1.48.94-3.82,3.35-7.03,7.23-3.22,3.89-6.77,9.18-10.65,15.88-3.89,6.7-8.98,16.62-15.27,29.74-6.3,13.13-13.06,28.67-20.3,46.62-1.34,3.22-3.75,4.82-7.23,4.82-.53,0-1.07-.14-1.61-.4-4.55-1.07-6.56-3.89-6.03-8.44,2.68-21.97,12.73-62.83,30.14-122.58,1.87-6.16,3.22-10.85,4.02-14.07.8-2.14,2.14-3.68,4.02-4.62,1.87-.94,3.82-1.14,5.83-.6,2.01.54,3.55,1.75,4.62,3.62,1.07,1.88,1.21,3.89.4,6.03-.54,1.88-1.88,6.57-4.02,14.07-5.9,20.63-10.45,36.71-13.66,48.23,8.57-16.08,16.08-27.19,22.51-33.36,6.43-6.16,12.59-9.11,18.49-8.84,6.96.27,12.52,3.89,16.68,10.85,4.15,6.97,8.1,16.48,11.86,28.53,5.89,20.64,12.19,31.35,18.89,32.15,3.21.54,7.16-1.27,11.86-5.43,4.68-4.15,9.71-10.18,15.07-18.08,5.36-7.9,9.44-14.13,12.26-18.69,2.81-4.55,6.09-10.31,9.85-17.28,1.07-1.87,2.67-3.08,4.82-3.62Z"/><path d="M4858.03,1082.56c1.34,1.61,1.87,3.48,1.61,5.63-.27,2.15-1.34,3.89-3.22,5.22-3.21,2.15-6.3,2.01-9.24-.4-12.86-4.55-103.15-4.95-270.87-1.21-17.42,73.14-35.1,152.46-53.05,237.92-21.43,103.15-34.42,174.02-38.98,212.6.54,0,1.07.13,1.61.4,2.15.53,3.62,1.81,4.42,3.82.8,2.01.8,3.95,0,5.83-1.34,4.28-2.48,7.44-3.42,9.45-.94,2.01-2.34,4.02-4.22,6.03-1.87,2.01-3.88,3.01-6.03,3.01-.8,0-1.74-.14-2.81-.4-3.48-1.07-5.56-3.89-6.23-8.44-.67-4.56-.33-10.72,1-18.49,1.07-11.25,3.49-27.47,7.23-48.63,6.7-40.19,16.75-92.43,30.14-156.74,17.95-86.81,36.03-168.79,54.26-245.96-18.22.27-40.86.8-67.92,1.61-42.86,1.07-68.05,1.61-75.56,1.61-2.14,0-3.95-.73-5.43-2.21-1.47-1.47-2.21-3.28-2.21-5.43,0-1.34.34-2.61,1-3.82.67-1.21,1.61-2.14,2.81-2.81,1.21-.67,2.48-1,3.82-1,7.5,0,32.55-.67,75.15-2.01,26.53-.53,50.64-1.07,72.34-1.61,8.57-35.37,16.21-65.37,22.91-90.02.53-2.14,1.74-3.75,3.62-4.82,1.87-1.07,3.82-1.34,5.83-.8,2.01.54,3.55,1.75,4.62,3.62,1.07,1.88,1.34,3.89.8,6.03-6.43,23.85-13.8,52.38-22.1,85.6,80.38-2.14,141.06-2.94,182.06-2.41,40.99.54,66.78,1.41,77.36,2.61,10.58,1.21,16.81,3.28,18.69,6.23Z"/></svg>