<svg xmlns="http://www.w3.org/2000/svg" width="80.666" height="54.712" viewBox="0 0 80.666 54.712">
  <g id="Group_35730" data-name="Group 35730" transform="translate(-805.388 -8580.5)">
    <path id="Path_37803" data-name="Path 37803" d="M80.547,45.432a1.64,1.64,0,0,0-.484-1.791c-2.759-2.356-4.453-5.276-4.63-8a1.622,1.622,0,0,0-1.613-1.516H21.193a1.62,1.62,0,0,0-1.613,1.5c-.178,2.743-1.871,5.663-4.646,8.018a1.661,1.661,0,0,0-.468,1.791A1.639,1.639,0,0,0,15.982,46.5H79.031A1.64,1.64,0,0,0,80.547,45.432Z" transform="translate(798.215 8569.497)" fill="#67bec5"/>
    <path id="Path_37804" data-name="Path 37804" d="M14.977,54.13h.984a4.6,4.6,0,0,1,.661-.71c2.113-1.791,3.42-3.953,3.533-5.792A4.895,4.895,0,0,1,25,43.11H77.623a4.867,4.867,0,0,1,4.824,4.5c.129,1.871,1.436,4.017,3.517,5.792a4.07,4.07,0,0,1,.678.726h.984a4,4,0,0,0,4.017-4V27.219a4,4,0,0,0-4.017-4H14.977a4.011,4.011,0,0,0-4,4V50.128A4.011,4.011,0,0,0,14.977,54.13ZM29.449,30.736h2.694a1.613,1.613,0,0,1,0,3.227H29.449a1.613,1.613,0,0,1,0-3.227Zm-9,0h2.694a1.613,1.613,0,0,1,0,3.227H20.446a1.613,1.613,0,1,1,0-3.227Z" transform="translate(794.411 8557.282)" fill="#67bec5"/>
    <path id="Path_37805" data-name="Path 37805" d="M40.782,42.33a1.613,1.613,0,0,0-3.227,0c0,.152,0,.152-.221.429a3.681,3.681,0,0,0,0,4.89c.221.275.221.275.221.426s0,.154-.222.431a3.69,3.69,0,0,0,0,4.894c.222.279.222.279.222.434s0,.155-.222.434a3.641,3.641,0,0,0-.928,2.448,1.613,1.613,0,1,0,3.227,0c0-.155,0-.155.222-.434a3.692,3.692,0,0,0,0-4.9c-.222-.279-.222-.279-.222-.434s0-.154.222-.431a3.683,3.683,0,0,0,0-4.89c-.221-.275-.221-.275-.221-.426s0-.153.222-.429A3.635,3.635,0,0,0,40.782,42.33Z" transform="translate(822.896 8576.884)" fill="#67bec5"/>
    <path id="Path_37806" data-name="Path 37806" d="M35.823,42.33a1.613,1.613,0,1,0-3.227,0c0,.152,0,.152-.221.429a3.681,3.681,0,0,0,0,4.89c.221.275.221.275.221.426s0,.154-.222.431a3.69,3.69,0,0,0,0,4.894c.222.279.222.279.222.434s0,.155-.222.434a3.64,3.64,0,0,0-.928,2.448,1.613,1.613,0,1,0,3.227,0c0-.155,0-.155.222-.434a3.692,3.692,0,0,0,0-4.9c-.222-.279-.222-.279-.222-.434s0-.154.222-.431a3.683,3.683,0,0,0,0-4.89c-.221-.275-.221-.275-.221-.426s0-.153.222-.429A3.635,3.635,0,0,0,35.823,42.33Z" transform="translate(817.341 8576.884)" fill="#67bec5"/>
    <path id="Path_37807" data-name="Path 37807" d="M30.866,42.33a1.613,1.613,0,0,0-3.227,0c0,.152,0,.152-.222.428a3.68,3.68,0,0,0,0,4.892c.221.275.221.275.221.425s0,.153-.222.43a3.687,3.687,0,0,0,0,4.9c.222.278.222.278.222.433s0,.155-.222.433a3.634,3.634,0,0,0-.93,2.448,1.613,1.613,0,1,0,3.227,0c0-.155,0-.155.222-.433a3.689,3.689,0,0,0,0-4.9c-.222-.278-.222-.278-.222-.433s0-.153.222-.43a3.681,3.681,0,0,0,0-4.892c-.221-.275-.221-.275-.221-.425s0-.152.222-.429A3.636,3.636,0,0,0,30.866,42.33Z" transform="translate(811.786 8576.884)" fill="#67bec5"/>
    <path id="Path_37808" data-name="Path 37808" d="M25.906,42.33a1.613,1.613,0,0,0-3.227,0c0,.152,0,.152-.221.429a3.681,3.681,0,0,0,0,4.89c.221.275.221.275.221.426s0,.154-.222.431a3.69,3.69,0,0,0,0,4.894c.222.279.222.279.222.434s0,.155-.222.434a3.641,3.641,0,0,0-.928,2.448,1.613,1.613,0,1,0,3.227,0c0-.155,0-.155.222-.434a3.692,3.692,0,0,0,0-4.9c-.222-.279-.222-.279-.222-.434s0-.154.222-.431a3.683,3.683,0,0,0,0-4.89c-.221-.275-.221-.275-.221-.426s0-.153.222-.429A3.635,3.635,0,0,0,25.906,42.33Z" transform="translate(806.233 8576.884)" fill="#67bec5"/>
  </g>
</svg>
