<svg xmlns="http://www.w3.org/2000/svg" width="60.502" height="15" viewBox="0 0 60.502 15">
  <g id="Group_44084" data-name="Group 44084" transform="translate(-8911.498 -1346.5)">
    <path id="Path_49733" data-name="Path 49733" d="M5.01,19.5a5.412,5.412,0,0,0,1.74-.35,12.9,12.9,0,0,0,2.52-1.27l.2-.13a18.8,18.8,0,0,0,2.38-1.72,10.48,10.48,0,0,0,3.45-4.76,5.724,5.724,0,0,0,.17-3.47,4.5,4.5,0,0,0-1.81-2.37,5.378,5.378,0,0,0-3.29-.93,11.794,11.794,0,0,0-6.2,2.1l-.07.05-.2.13A12.73,12.73,0,0,0,2.44,7.85c-.94.87-2,2.32-1.94,3.56a1.661,1.661,0,0,0,.68,1.27,2.2,2.2,0,0,0,1.4.43,6.949,6.949,0,0,0,3.23-1.1l.16-.1.44-.28.15-.1a17.206,17.206,0,0,1,3.86-2.06,3.323,3.323,0,0,1,.98-.18,2,2,0,0,1,.42.05,1.335,1.335,0,0,1,.93.7,3.07,3.07,0,0,1-.2,2.58,11.3,11.3,0,0,1-3.09,3.69,12.322,12.322,0,0,1-2.02,1.4l-.06.02a6.091,6.091,0,0,1-.93.44l-.05.02-.26.1c-1.41.36-.55-.84-.55-.84a10.76,10.76,0,0,1,.96-.95c.2-.17.4-.35.59-.54l.04-.04a1.412,1.412,0,0,0,.57-1.04,1.244,1.244,0,0,0-1.3-1.02H6.41a2.589,2.589,0,0,0-1.52.62,4.6,4.6,0,0,0-1.01,1.1c-.38.57-1.17,2.04-.4,3.21a1.71,1.71,0,0,0,1.53.71Z" transform="translate(8911 1342)" fill="#e40000" fill-rule="evenodd"/>
    <g id="Group_44083" data-name="Group 44083" transform="translate(8932 1347)">
      <path id="Path_49734" data-name="Path 49734" d="M23.69,1.22l-2.58.41v9.21c0,2.07,1.22,3.04,3.28,3.04a5.656,5.656,0,0,0,.96-.09V12.26l-.37-.01c-1.08-.04-1.3-.62-1.3-1.3V5.76h1.67V3.94H23.69ZM39.62,12.24c-1.05-.07-1.27-.53-1.27-1.28V1.21l-2.52.42V10.8c0,2.17,1.2,3.1,3.2,3.1a6.239,6.239,0,0,0,.97-.1V12.25h-.38ZM14.4,5.71v8.1h2.56V6.18a2.951,2.951,0,0,1,1.72-.63,3.645,3.645,0,0,1,1.04.1l.7-1.56a4.264,4.264,0,0,0-1.69-.3A5.923,5.923,0,0,0,14.4,5.7Zm14.53,1.9h2.72c0-.73-.16-1.93-1.28-1.93-1,0-1.4.99-1.44,1.94Zm4.7,3.79.7,1.44a7.21,7.21,0,0,1-1.89.9,6.284,6.284,0,0,1-1.78.26,4.216,4.216,0,0,1-2.72-.86,5.27,5.27,0,0,1-1.7-4.1c.02-2.52,1.17-5.2,4.13-5.2,2.65,0,3.86,1.6,3.91,5.09v.24H28.85a3.678,3.678,0,0,0,.6,2.52,1.878,1.878,0,0,0,1.46.55,4.9,4.9,0,0,0,2.71-.84ZM5.42,9.03H4.4A1.578,1.578,0,0,0,2.65,10.6,1.44,1.44,0,0,0,4.1,12.26a2.5,2.5,0,0,0,1.31-.32V9.03ZM7.97,7.17v5.26a5.95,5.95,0,0,1-4.24,1.55A3.566,3.566,0,0,1-.01,10.54C.03,8.6,1.52,7.36,3.92,7.36h1.5v-.5c0-.87-.38-1.28-1.3-1.32a5.524,5.524,0,0,0-2.37.55l-.38.18L.7,4.79,1,4.63a7.57,7.57,0,0,1,3.39-.88c1.74,0,3.6.85,3.6,3.4ZM9.86,13.8h2.51V3.94l-2.51.4V13.8ZM12.29.47a1.507,1.507,0,0,1,.44,1.11,1.6,1.6,0,0,1-3.2-.01A1.62,1.62,0,0,1,12.29.47Z" fill="#e40000" fill-rule="evenodd"/>
    </g>
  </g>
</svg>
