<svg xmlns="http://www.w3.org/2000/svg" width="15.988" height="15.993" viewBox="0 0 15.988 15.993">
  <path id="Layer_2" data-name="Layer 2" d="M14.79,14.79V4.4a2.4,2.4,0,1,0-4.8,0v.8h1.6V4.4a.8.8,0,0,1,1.6,0V6H6.8V4.4a2.334,2.334,0,0,0-.7-1.687A2.35,2.35,0,0,0,4.4,2,2.4,2.4,0,0,0,2,4.4v.8H3.6V4.4a.8.8,0,0,1,1.6,0V16.389c-.448,0-.64-.176-1.031-.568A2.846,2.846,0,0,0,2,14.79v1.6c.448,0,.64.176,1.031.568A2.846,2.846,0,0,0,5.2,17.988a2.846,2.846,0,0,0,2.158-1.031c.392-.392.584-.568,1.031-.568s.64.176,1.031.568a2.782,2.782,0,0,0,4.333,0c.392-.392.584-.568,1.039-.568s.64.176,1.031.568a2.854,2.854,0,0,0,2.166,1.031v-1.6c-.448,0-.64-.176-1.031-.568A2.854,2.854,0,0,0,14.79,14.79Zm-1.6-2.4H6.8v-1.6h6.4Zm0-4.8v1.6H6.8V7.6Zm-1.6,8.793c-.448,0-.64-.176-1.031-.568A2.846,2.846,0,0,0,8.4,14.79a2.558,2.558,0,0,0-1.6.52V13.991h6.4V15.31a5.18,5.18,0,0,0-.568.512c-.4.392-.592.568-1.031.568Z" transform="translate(-2 -2)" fill="#3a266b"/>
</svg>
