<svg xmlns="http://www.w3.org/2000/svg" width="13.217" height="16" viewBox="0 0 13.217 16">
  <g id="Group_36184" data-name="Group 36184" transform="translate(-149 -145)">
    <g id="Group_36183" data-name="Group 36183" transform="translate(149 145)">
      <path id="Path_38763" data-name="Path 38763" d="M155.609,145A6.612,6.612,0,0,0,149,151.609a9.316,9.316,0,0,0,2.172,5.348,22.622,22.622,0,0,0,3.805,3.831,1.044,1.044,0,0,0,1.263,0,22.622,22.622,0,0,0,3.805-3.831,9.316,9.316,0,0,0,2.172-5.348A6.612,6.612,0,0,0,155.609,145Zm0,.7a5.916,5.916,0,0,1,5.913,5.913,8.606,8.606,0,0,1-2.03,4.927,21.854,21.854,0,0,1-3.672,3.7h0a.348.348,0,0,1-.421,0h0a21.854,21.854,0,0,1-3.672-3.7,8.606,8.606,0,0,1-2.03-4.927A5.916,5.916,0,0,1,155.609,145.7Z" transform="translate(-149 -145)" fill="#39246f" fill-rule="evenodd"/>
      <path id="Path_38764" data-name="Path 38764" d="M162.13,155a3.13,3.13,0,1,0,3.13,3.13A3.132,3.132,0,0,0,162.13,155Zm0,.7a2.435,2.435,0,1,1-2.435,2.435A2.436,2.436,0,0,1,162.13,155.7Z" transform="translate(-155.522 -151.522)" fill="#39246f" fill-rule="evenodd"/>
    </g>
  </g>
</svg>
