<svg id="Group_35765" data-name="Group 35765" xmlns="http://www.w3.org/2000/svg" xmlns:xlink="http://www.w3.org/1999/xlink" width="1212.27" height="743.967" viewBox="0 0 1212.27 743.967">
  <defs>
    <clipPath id="clip-path">
      <rect id="Rectangle_4806" data-name="Rectangle 4806" width="1212.27" height="743.967" fill="none"/>
    </clipPath>
    <clipPath id="clip-path-2">
      <path id="Path_37923" data-name="Path 37923" d="M388.729,198.011c-3.944,48.3,16.266,92.172,18.731,135.056s13.308,72.948,13.308,72.948h20.7s4.167-52.741-5.42-81.822c1.479-28.095,5.913-80.781,5.913-80.781s4.437,40.855,5.423,76.346c-3.944,33.022,0,77.383,0,77.383h19.224c1.97-31.543,15.773-40.91,8.874-76.4,31.05-93.158,19.714-122.732,19.714-122.732Z" transform="translate(-388.22 -198.011)" fill="none"/>
    </clipPath>
    <clipPath id="clip-path-4">
      <path id="Path_37935" data-name="Path 37935" d="M405.791,137.644c-20.7,4.932-16,38.268-11.562,60.449s5.916,37.952-2.481,69-11.322,35.982,10.862,44.854c57.176,24.153,86.747,0,97.915-2.423s10.521-13.84,2.635-30.108c-4.616-9.518-10.076-26.975-13.81-39.816a65.65,65.65,0,0,1-1.55-30.219c3.575-19.452,8.424-52.688,1.557-60.583-9.857-11.336-50.274-16.266-50.274-16.266s-12.589.18-33.292,5.107" transform="translate(-385.513 -132.537)" fill="none"/>
    </clipPath>
    <clipPath id="clip-path-6">
      <path id="Path_37945" data-name="Path 37945" d="M427.811,187.409c0,27.6,21.686,66.542,28.588,83.3s22.674,15.775,28.095,13.308-.986-23.165-9.857-40.417-13.308-46.33-20.769-72.951-19.65-31.05-19.65-31.05-6.406,20.207-6.406,47.811" transform="translate(-427.811 -139.598)" fill="none"/>
    </clipPath>
    <clipPath id="clip-path-8">
      <path id="Path_37955" data-name="Path 37955" d="M395.372,167.875c-.986,23.66-.493,56.192-8.873,75.416s-20.207,43.868-7.888,49.781,16.236,8.873,29.067-17.252,9.461-68.291,3.937-89.551,3.631-50.214,3.631-50.214-18.89,8.162-19.873,31.82" transform="translate(-373.294 -136.055)" fill="none"/>
    </clipPath>
    <clipPath id="clip-path-10">
      <path id="Path_37959" data-name="Path 37959" d="M411.17,300.877a183.536,183.536,0,0,1-6.215,19.115c-7.669,7.01-10.951,14.676-5.7,19.933s27.821,5.259,28.62,0,8.4-1.751,9.954-5.913c4.4-13.363-.456-32.421-.456-32.421-5.34-3.891-10.138-5.158-14.123-5.158a18.542,18.542,0,0,0-12.082,4.444" transform="translate(-396.696 -296.433)" fill="none"/>
    </clipPath>
    <clipPath id="clip-path-12">
      <path id="Path_37969" data-name="Path 37969" d="M397.145,121.5c-14.785,11.518-8.811,29.463-8.811,29.463s-8.535,18.724,0,30.838,20.1,7.846,20.1,7.846,10.739,23.29,36.9,7.848c28.956,15.683,38.885-10.463,38.885-10.463,24.292,1.928,27.475-29.74,10.4-44.881,1.375-19.551-14.593-26.436-14.593-26.436s-16.95-1.428-35.775-1.428c-18.9,0-39.7,1.442-47.109,7.213" transform="translate(-384.54 -114.285)" fill="none"/>
    </clipPath>
  </defs>
  <g id="Group_35740" data-name="Group 35740">
    <g id="Group_35739" data-name="Group 35739" clip-path="url(#clip-path)">
      <path id="Path_37827" data-name="Path 37827" d="M1149.269,235.325s25.51,56.289-147.687,71.453S700.94,389.632,477.366,389.632,42.181,321.056,23.437,235.325" transform="translate(30.553 306.772)" fill="#eaf0fd"/>
      <path id="Path_37828" data-name="Path 37828" d="M701.144,372.4C471.875,341.57,529.226,257.548,529.226,257.548V235.325h-195.4v22.223S174.894,321.3,339.588,420.521" transform="translate(345.282 306.772)" fill="none" stroke="#6284e8" stroke-linecap="round" stroke-linejoin="round" stroke-width="0.5"/>
      <path id="Path_37829" data-name="Path 37829" d="M563,94.344H440.1s6.358-20.122,29.829-14.6c9.956-28.258,59.961-20.825,65.821,4.865,11.707-16.773,36.71-1.474,27.249,9.73" transform="translate(573.719 80.42)" fill="#eaf0fd"/>
      <path id="Path_37830" data-name="Path 37830" d="M168.473,38.31H45.573s6.358-20.124,29.829-14.6c9.956-28.258,59.961-20.825,65.821,4.865C152.93,11.806,177.934,27.1,168.473,38.31Z" transform="translate(59.409 7.373)" fill="none" stroke="#eaf0fd" stroke-width="1"/>
      <path id="Path_37831" data-name="Path 37831" d="M358.426,185.979H175.837s9.443-29.9,44.315-21.684c14.791-41.983,89.083-30.94,97.791,7.226,17.395-24.918,54.538-2.188,40.484,14.457" transform="translate(229.223 179.203)" fill="#eaf0fd"/>
      <path id="Path_37832" data-name="Path 37832" d="M362.071,85.574H549.355s-14.515-30.9-56.038-15.448c-37.4-48.4-86.837-16.683-86.837,5.561C380.735,56.738,362.071,85.574,362.071,85.574Z" transform="translate(472 58.319)" fill="none" stroke="#eaf0fd" stroke-width="1"/>
      <path id="Path_37833" data-name="Path 37833" d="M301.447,75.788H192.495s8.445-17.973,32.6-8.986c21.758-28.159,50.516-9.705,50.516,3.234,14.978-11.023,25.835,5.752,25.835,5.752" transform="translate(250.939 67.828)" fill="#eaf0fd"/>
      <path id="Path_37834" data-name="Path 37834" d="M586.984,24.257H478.033s8.445-17.973,32.6-8.986c21.758-28.159,50.516-9.705,50.516,3.234C576.128,7.482,586.984,24.257,586.984,24.257Z" transform="translate(623.169 0.652)" fill="none" stroke="#eaf0fd" stroke-width="1"/>
      <line id="Line_79" data-name="Line 79" y2="61.239" transform="translate(297.712 480.858)" fill="#fff"/>
      <line id="Line_80" data-name="Line 80" y2="61.239" transform="translate(297.712 480.858)" fill="none" stroke="#6284e8" stroke-linecap="round" stroke-linejoin="round" stroke-width="0.5"/>
      <path id="Path_37835" data-name="Path 37835" d="M144.478,170.873s60.6,123.653,0,123.653,0-123.653,0-123.653" transform="translate(153.233 222.752)" fill="#fff"/>
      <path id="Path_37836" data-name="Path 37836" d="M144.478,170.873s60.6,123.653,0,123.653S144.478,170.873,144.478,170.873Z" transform="translate(153.233 222.752)" fill="none" stroke="#6284e8" stroke-linecap="round" stroke-linejoin="round" stroke-width="0.5"/>
      <line id="Line_81" data-name="Line 81" y2="61.239" transform="translate(215.869 480.858)" fill="#fff"/>
      <line id="Line_82" data-name="Line 82" y2="61.239" transform="translate(215.869 480.858)" fill="none" stroke="#6284e8" stroke-linecap="round" stroke-linejoin="round" stroke-width="0.5"/>
      <path id="Path_37837" data-name="Path 37837" d="M108.95,170.873s60.6,123.653,0,123.653,0-123.653,0-123.653" transform="translate(106.919 222.752)" fill="#fff"/>
      <path id="Path_37838" data-name="Path 37838" d="M108.95,170.873s60.6,123.653,0,123.653S108.95,170.873,108.95,170.873Z" transform="translate(106.919 222.752)" fill="none" stroke="#6284e8" stroke-linecap="round" stroke-linejoin="round" stroke-width="0.5"/>
      <line id="Line_83" data-name="Line 83" y2="61.239" transform="translate(379.555 480.858)" fill="#fff"/>
      <line id="Line_84" data-name="Line 84" y2="61.239" transform="translate(379.555 480.858)" fill="none" stroke="#6284e8" stroke-linecap="round" stroke-linejoin="round" stroke-width="0.5"/>
      <path id="Path_37839" data-name="Path 37839" d="M180.006,170.873s60.6,123.653,0,123.653,0-123.653,0-123.653" transform="translate(199.548 222.752)" fill="#fff"/>
      <path id="Path_37840" data-name="Path 37840" d="M180.006,170.873s60.6,123.653,0,123.653S180.006,170.873,180.006,170.873Z" transform="translate(199.548 222.752)" fill="none" stroke="#6284e8" stroke-linecap="round" stroke-linejoin="round" stroke-width="0.5"/>
      <line id="Line_85" data-name="Line 85" y2="61.239" transform="translate(461.397 480.858)" fill="#fff"/>
      <line id="Line_86" data-name="Line 86" y2="61.239" transform="translate(461.397 480.858)" fill="none" stroke="#6284e8" stroke-linecap="round" stroke-linejoin="round" stroke-width="0.5"/>
      <path id="Path_37841" data-name="Path 37841" d="M215.534,170.873s60.6,123.653,0,123.653,0-123.653,0-123.653" transform="translate(245.863 222.752)" fill="#fff"/>
      <path id="Path_37842" data-name="Path 37842" d="M215.534,170.873s60.6,123.653,0,123.653S215.534,170.873,215.534,170.873Z" transform="translate(245.863 222.752)" fill="none" stroke="#6284e8" stroke-linecap="round" stroke-linejoin="round" stroke-width="0.5"/>
      <line id="Line_87" data-name="Line 87" y2="61.239" transform="translate(1046.902 480.858)" fill="#fff"/>
      <line id="Line_88" data-name="Line 88" y2="61.239" transform="translate(1046.902 480.858)" fill="none" stroke="#6284e8" stroke-linecap="round" stroke-linejoin="round" stroke-width="0.5"/>
      <path id="Path_37843" data-name="Path 37843" d="M469.7,170.873s60.6,123.653,0,123.653,0-123.653,0-123.653" transform="translate(577.2 222.752)" fill="#fff"/>
      <path id="Path_37844" data-name="Path 37844" d="M469.7,170.873s60.6,123.653,0,123.653S469.7,170.873,469.7,170.873Z" transform="translate(577.2 222.752)" fill="none" stroke="#6284e8" stroke-linecap="round" stroke-linejoin="round" stroke-width="0.5"/>
      <line id="Line_89" data-name="Line 89" y2="61.239" transform="translate(1128.745 480.858)" fill="#fff"/>
      <line id="Line_90" data-name="Line 90" y2="61.239" transform="translate(1128.745 480.858)" fill="none" stroke="#6284e8" stroke-linecap="round" stroke-linejoin="round" stroke-width="0.5"/>
      <path id="Path_37845" data-name="Path 37845" d="M505.231,170.873s60.6,123.653,0,123.653,0-123.653,0-123.653" transform="translate(623.515 222.752)" fill="#fff"/>
      <path id="Path_37846" data-name="Path 37846" d="M505.231,170.873s60.6,123.653,0,123.653S505.231,170.873,505.231,170.873Z" transform="translate(623.515 222.752)" fill="none" stroke="#6284e8" stroke-linecap="round" stroke-linejoin="round" stroke-width="0.5"/>
      <line id="Line_91" data-name="Line 91" x1="1196.076" transform="translate(0.575 542.097)" fill="#eaf0fd"/>
      <line id="Line_92" data-name="Line 92" x1="1196.076" transform="translate(0.575 542.097)" fill="none" stroke="#6284e8" stroke-linecap="round" stroke-linejoin="round" stroke-width="0.5"/>
      <rect id="Rectangle_4778" data-name="Rectangle 4778" width="209.615" height="119.53" transform="translate(672.002 439.828)" fill="#fff"/>
      <rect id="Rectangle_4779" data-name="Rectangle 4779" width="209.615" height="119.53" transform="translate(672.002 439.828)" fill="none" stroke="#6284e8" stroke-linecap="round" stroke-linejoin="round" stroke-width="0.5"/>
      <path id="Path_37847" data-name="Path 37847" d="M548.55,164.214l-153.9-92.105V302.355l153.9,46.69Z" transform="translate(514.471 94.002)" fill="#fff"/>
      <path id="Path_37848" data-name="Path 37848" d="M548.55,164.214l-153.9-92.105V302.355l153.9,46.69Z" transform="translate(514.471 94.002)" fill="none" stroke="#6284e8" stroke-linecap="round" stroke-linejoin="round" stroke-width="0.5"/>
      <path id="Path_37849" data-name="Path 37849" d="M515.591,208V324.966L385.8,329.928V179.8Z" transform="translate(502.928 234.392)" fill="#fff"/>
      <path id="Path_37850" data-name="Path 37850" d="M515.591,208V324.966L385.8,329.928V179.8Z" transform="translate(502.928 234.392)" fill="none" stroke="#6284e8" stroke-linecap="round" stroke-linejoin="round" stroke-width="0.5"/>
      <path id="Path_37851" data-name="Path 37851" d="M458.762,283.995V205.552L402.517,196.9v87.1Z" transform="translate(524.725 256.678)" fill="#eaf0fd"/>
      <path id="Path_37852" data-name="Path 37852" d="M458.762,283.995V205.552L402.517,196.9v87.1Z" transform="translate(524.725 256.678)" fill="none" stroke="#6284e8" stroke-linecap="round" stroke-linejoin="round" stroke-width="0.5"/>
      <path id="Path_37853" data-name="Path 37853" d="M379.625,196.969v114.2h14.216V194.188Z" transform="translate(494.884 253.146)" fill="#fff"/>
      <path id="Path_37854" data-name="Path 37854" d="M379.625,196.969v114.2h14.216V194.188Z" transform="translate(494.884 253.146)" fill="none" stroke="#6284e8" stroke-linecap="round" stroke-linejoin="round" stroke-width="0.5"/>
      <rect id="Rectangle_4780" data-name="Rectangle 4780" width="97.655" height="88.539" transform="translate(776.853 470.819)" fill="#fff"/>
      <rect id="Rectangle_4781" data-name="Rectangle 4781" width="97.655" height="88.539" transform="translate(776.853 470.819)" fill="none" stroke="#6284e8" stroke-linecap="round" stroke-linejoin="round" stroke-width="0.5"/>
      <rect id="Rectangle_4782" data-name="Rectangle 4782" width="40.792" height="77.982" transform="translate(827.954 475.675)" fill="#eaf0fd"/>
      <rect id="Rectangle_4783" data-name="Rectangle 4783" width="40.792" height="77.982" transform="translate(827.954 475.675)" fill="none" stroke="#6284e8" stroke-linecap="round" stroke-linejoin="round" stroke-width="0.5"/>
      <rect id="Rectangle_4784" data-name="Rectangle 4784" width="40.792" height="77.982" transform="translate(782.615 475.675)" fill="#eaf0fd"/>
      <rect id="Rectangle_4785" data-name="Rectangle 4785" width="40.792" height="77.982" transform="translate(782.615 475.675)" fill="none" stroke="#6284e8" stroke-linecap="round" stroke-linejoin="round" stroke-width="0.5"/>
      <path id="Path_37855" data-name="Path 37855" d="M452.657,114.1v52.882L428.054,156V100.491Z" transform="translate(558.016 131)" fill="#eaf0fd"/>
      <path id="Path_37856" data-name="Path 37856" d="M452.657,114.1v52.882L428.054,156V100.491Z" transform="translate(558.016 131)" fill="none" stroke="#6284e8" stroke-linecap="round" stroke-linejoin="round" stroke-width="0.5"/>
      <path id="Path_37857" data-name="Path 37857" d="M471.012,124.734V172.6l-22.49-10.044V112.288Z" transform="translate(584.698 146.38)" fill="#eaf0fd"/>
      <path id="Path_37858" data-name="Path 37858" d="M471.012,124.734V172.6l-22.49-10.044V112.288Z" transform="translate(584.698 146.38)" fill="none" stroke="#6284e8" stroke-linecap="round" stroke-linejoin="round" stroke-width="0.5"/>
      <path id="Path_37859" data-name="Path 37859" d="M401.684,85.9l33.448,18.51v58.422L401.684,147.89Z" transform="translate(523.64 111.977)" fill="#eaf0fd"/>
      <path id="Path_37860" data-name="Path 37860" d="M401.684,85.9l33.448,18.51v58.422L401.684,147.89Z" transform="translate(523.64 111.977)" fill="none" stroke="#6284e8" stroke-linecap="round" stroke-linejoin="round" stroke-width="0.5"/>
      <path id="Path_37861" data-name="Path 37861" d="M452.657,159.976v52.882l-24.6-7.878V149.472Z" transform="translate(558.016 194.853)" fill="#eaf0fd"/>
      <path id="Path_37862" data-name="Path 37862" d="M452.657,159.976v52.882l-24.6-7.878V149.472Z" transform="translate(558.016 194.853)" fill="none" stroke="#6284e8" stroke-linecap="round" stroke-linejoin="round" stroke-width="0.5"/>
      <path id="Path_37863" data-name="Path 37863" d="M471.012,168.179v47.864l-22.49-7.2V158.575Z" transform="translate(584.698 206.72)" fill="#eaf0fd"/>
      <path id="Path_37864" data-name="Path 37864" d="M471.012,168.179v47.864l-22.49-7.2V158.575Z" transform="translate(584.698 206.72)" fill="none" stroke="#6284e8" stroke-linecap="round" stroke-linejoin="round" stroke-width="0.5"/>
      <path id="Path_37865" data-name="Path 37865" d="M401.684,138.211l33.448,14.282v58.422L401.684,200.2Z" transform="translate(523.64 180.173)" fill="#eaf0fd"/>
      <path id="Path_37866" data-name="Path 37866" d="M401.684,138.211l33.448,14.282v58.422L401.684,200.2Z" transform="translate(523.64 180.173)" fill="none" stroke="#6284e8" stroke-linecap="round" stroke-linejoin="round" stroke-width="0.5"/>
      <rect id="Rectangle_4786" data-name="Rectangle 4786" width="264.623" height="230.246" transform="translate(644.497 166.111)" fill="#fff"/>
      <rect id="Rectangle_4787" data-name="Rectangle 4787" width="264.623" height="230.246" transform="translate(644.497 166.111)" fill="none" stroke="#6284e8" stroke-linecap="round" stroke-linejoin="round" stroke-width="0.5"/>
      <path id="Path_37867" data-name="Path 37867" d="M212.969,164.214l153.9-92.105V302.355l-153.9,46.69Z" transform="translate(277.629 94.002)" fill="#fff"/>
      <path id="Path_37868" data-name="Path 37868" d="M212.969,164.214l153.9-92.105V302.355l-153.9,46.69Z" transform="translate(277.629 94.002)" fill="none" stroke="#6284e8" stroke-linecap="round" stroke-linejoin="round" stroke-width="0.5"/>
      <path id="Path_37869" data-name="Path 37869" d="M232.287,208V324.966l129.795,4.962V179.8Z" transform="translate(302.812 234.392)" fill="#fff"/>
      <path id="Path_37870" data-name="Path 37870" d="M232.287,208V324.966l129.795,4.962V179.8Z" transform="translate(302.812 234.392)" fill="none" stroke="#6284e8" stroke-linecap="round" stroke-linejoin="round" stroke-width="0.5"/>
      <path id="Path_37871" data-name="Path 37871" d="M366.869,172.059H631.492l153.9,46.69-44.5-.652L612.95,196.18H385.411L257.47,218.1l-44.5.652Z" transform="translate(277.629 224.298)" fill="#fff"/>
      <path id="Path_37872" data-name="Path 37872" d="M366.869,172.059H631.492l153.9,46.69-44.5-.652L612.95,196.18H385.411L257.47,218.1l-44.5.652Z" transform="translate(277.629 224.298)" fill="none" stroke="#6284e8" stroke-linecap="round" stroke-linejoin="round" stroke-width="0.5"/>
      <path id="Path_37873" data-name="Path 37873" d="M246.772,283.995V205.552l56.245-8.655v87.1Z" transform="translate(321.695 256.678)" fill="#eaf0fd"/>
      <path id="Path_37874" data-name="Path 37874" d="M246.772,283.995V205.552l56.245-8.655v87.1Z" transform="translate(321.695 256.678)" fill="none" stroke="#6284e8" stroke-linecap="round" stroke-linejoin="round" stroke-width="0.5"/>
      <path id="Path_37875" data-name="Path 37875" d="M302.847,196.969v114.2H288.631V194.188Z" transform="translate(376.263 253.146)" fill="#fff"/>
      <path id="Path_37876" data-name="Path 37876" d="M302.847,196.969v114.2H288.631V194.188Z" transform="translate(376.263 253.146)" fill="none" stroke="#6284e8" stroke-linecap="round" stroke-linejoin="round" stroke-width="0.5"/>
      <rect id="Rectangle_4788" data-name="Rectangle 4788" width="97.655" height="88.539" transform="translate(679.111 470.819)" fill="#fff"/>
      <rect id="Rectangle_4789" data-name="Rectangle 4789" width="97.655" height="88.539" transform="translate(679.111 470.819)" fill="none" stroke="#6284e8" stroke-linecap="round" stroke-linejoin="round" stroke-width="0.5"/>
      <rect id="Rectangle_4790" data-name="Rectangle 4790" width="40.792" height="77.982" transform="translate(684.873 475.675)" fill="#eaf0fd"/>
      <rect id="Rectangle_4791" data-name="Rectangle 4791" width="40.792" height="77.982" transform="translate(684.873 475.675)" fill="none" stroke="#6284e8" stroke-linecap="round" stroke-linejoin="round" stroke-width="0.5"/>
      <rect id="Rectangle_4792" data-name="Rectangle 4792" width="40.792" height="77.982" transform="translate(730.212 475.675)" fill="#eaf0fd"/>
      <rect id="Rectangle_4793" data-name="Rectangle 4793" width="40.792" height="77.982" transform="translate(730.212 475.675)" fill="none" stroke="#6284e8" stroke-linecap="round" stroke-linejoin="round" stroke-width="0.5"/>
      <path id="Path_37877" data-name="Path 37877" d="M235.694,114.1v52.882L260.3,156V100.491Z" transform="translate(307.253 131)" fill="#eaf0fd"/>
      <path id="Path_37878" data-name="Path 37878" d="M235.694,114.1v52.882L260.3,156V100.491Z" transform="translate(307.253 131)" fill="none" stroke="#6284e8" stroke-linecap="round" stroke-linejoin="round" stroke-width="0.5"/>
      <path id="Path_37879" data-name="Path 37879" d="M216.143,124.734V172.6l22.49-10.044V112.288Z" transform="translate(281.766 146.38)" fill="#eaf0fd"/>
      <path id="Path_37880" data-name="Path 37880" d="M216.143,124.734V172.6l22.49-10.044V112.288Z" transform="translate(281.766 146.38)" fill="none" stroke="#6284e8" stroke-linecap="round" stroke-linejoin="round" stroke-width="0.5"/>
      <path id="Path_37881" data-name="Path 37881" d="M291.672,85.9l-33.448,18.51v58.422l33.448-14.939Z" transform="translate(336.623 111.977)" fill="#eaf0fd"/>
      <path id="Path_37882" data-name="Path 37882" d="M291.672,85.9l-33.448,18.51v58.422l33.448-14.939Z" transform="translate(336.623 111.977)" fill="none" stroke="#6284e8" stroke-linecap="round" stroke-linejoin="round" stroke-width="0.5"/>
      <path id="Path_37883" data-name="Path 37883" d="M235.694,159.976v52.882l24.6-7.878V149.472Z" transform="translate(307.253 194.853)" fill="#eaf0fd"/>
      <path id="Path_37884" data-name="Path 37884" d="M235.694,159.976v52.882l24.6-7.878V149.472Z" transform="translate(307.253 194.853)" fill="none" stroke="#6284e8" stroke-linecap="round" stroke-linejoin="round" stroke-width="0.5"/>
      <path id="Path_37885" data-name="Path 37885" d="M216.143,168.179v47.864l22.49-7.2V158.575Z" transform="translate(281.766 206.72)" fill="#eaf0fd"/>
      <path id="Path_37886" data-name="Path 37886" d="M216.143,168.179v47.864l22.49-7.2V158.575Z" transform="translate(281.766 206.72)" fill="none" stroke="#6284e8" stroke-linecap="round" stroke-linejoin="round" stroke-width="0.5"/>
      <path id="Path_37887" data-name="Path 37887" d="M291.672,138.211l-33.448,14.282v58.422L291.672,200.2Z" transform="translate(336.623 180.173)" fill="#eaf0fd"/>
      <path id="Path_37888" data-name="Path 37888" d="M291.672,138.211l-33.448,14.282v58.422L291.672,200.2Z" transform="translate(336.623 180.173)" fill="none" stroke="#6284e8" stroke-linecap="round" stroke-linejoin="round" stroke-width="0.5"/>
      <rect id="Rectangle_4794" data-name="Rectangle 4794" width="60.769" height="60.769" transform="translate(830.961 188.122)" fill="#eaf0fd"/>
      <rect id="Rectangle_4795" data-name="Rectangle 4795" width="60.769" height="60.769" transform="translate(830.961 188.122)" fill="none" stroke="#6284e8" stroke-linecap="round" stroke-linejoin="round" stroke-width="0.5"/>
      <rect id="Rectangle_4796" data-name="Rectangle 4796" width="60.769" height="60.769" transform="translate(661.977 188.122)" fill="#eaf0fd"/>
      <rect id="Rectangle_4797" data-name="Rectangle 4797" width="60.769" height="60.769" transform="translate(661.977 188.122)" fill="none" stroke="#6284e8" stroke-linecap="round" stroke-linejoin="round" stroke-width="0.5"/>
      <rect id="Rectangle_4798" data-name="Rectangle 4798" width="60.769" height="60.769" transform="translate(746.469 188.122)" fill="#eaf0fd"/>
      <rect id="Rectangle_4799" data-name="Rectangle 4799" width="60.769" height="60.769" transform="translate(746.469 188.122)" fill="none" stroke="#6284e8" stroke-linecap="round" stroke-linejoin="round" stroke-width="0.5"/>
      <rect id="Rectangle_4800" data-name="Rectangle 4800" width="60.769" height="60.769" transform="translate(830.961 312.284)" fill="#eaf0fd"/>
      <rect id="Rectangle_4801" data-name="Rectangle 4801" width="60.769" height="60.769" transform="translate(830.961 312.284)" fill="none" stroke="#6284e8" stroke-linecap="round" stroke-linejoin="round" stroke-width="0.5"/>
      <rect id="Rectangle_4802" data-name="Rectangle 4802" width="60.769" height="60.769" transform="translate(661.977 312.284)" fill="#eaf0fd"/>
      <rect id="Rectangle_4803" data-name="Rectangle 4803" width="60.769" height="60.769" transform="translate(661.977 312.284)" fill="none" stroke="#6284e8" stroke-linecap="round" stroke-linejoin="round" stroke-width="0.5"/>
      <rect id="Rectangle_4804" data-name="Rectangle 4804" width="60.769" height="60.769" transform="translate(746.469 312.284)" fill="#eaf0fd"/>
      <rect id="Rectangle_4805" data-name="Rectangle 4805" width="60.769" height="60.769" transform="translate(746.469 312.284)" fill="none" stroke="#6284e8" stroke-linecap="round" stroke-linejoin="round" stroke-width="0.5"/>
      <path id="Path_37889" data-name="Path 37889" d="M408.636,176.211H534.721v41.412l-14.216,5.561H296.676l-14.216-5.561V176.211Z" transform="translate(368.218 229.711)" fill="#eaf0fd"/>
      <path id="Path_37890" data-name="Path 37890" d="M408.636,176.211H534.721v41.412l-14.216,5.561H296.676l-14.216-5.561V176.211Z" transform="translate(368.218 229.711)" fill="none" stroke="#6284e8" stroke-linecap="round" stroke-linejoin="round" stroke-width="0.5"/>
      <path id="Path_37891" data-name="Path 37891" d="M534.722,194.188H282.46l14.216,5.563h223.83Z" transform="translate(368.218 253.145)" fill="#fff"/>
      <path id="Path_37892" data-name="Path 37892" d="M534.722,194.188H282.46l14.216,5.563h223.83Z" transform="translate(368.218 253.145)" fill="none" stroke="#6284e8" stroke-linecap="round" stroke-linejoin="round" stroke-width="0.5"/>
      <path id="Path_37893" data-name="Path 37893" d="M320.141,52.071c0,43.467,39.33,84.229,39.33,84.229S398.8,95.538,398.8,52.071a39.328,39.328,0,0,0-78.657,0m13.11,0a26.219,26.219,0,1,1,26.22,26.22,26.22,26.22,0,0,1-26.22-26.22" transform="translate(417.339 16.613)" fill="#ca4439"/>
      <path id="Path_37894" data-name="Path 37894" d="M292.771,57.19H416.943a17.481,17.481,0,1,0,0-34.962H292.771a17.481,17.481,0,1,0,0,34.962" transform="translate(358.87 28.977)" fill="#fff"/>
      <path id="Path_37895" data-name="Path 37895" d="M292.771,57.19H416.943a17.481,17.481,0,1,0,0-34.962H292.771a17.481,17.481,0,1,0,0,34.962Z" transform="translate(358.87 28.977)" fill="none" stroke="#6284e8" stroke-linecap="round" stroke-linejoin="round" stroke-width="0.5"/>
      <path id="Path_37896" data-name="Path 37896" d="M339.812,25.777l-2.8,5.672-6.259.91,4.529,4.416-1.069,6.234,5.6-2.944,5.6,2.944-1.069-6.234,4.529-4.416-6.259-.91Z" transform="translate(431.175 33.603)" fill="#ebbb2c"/>
      <path id="Path_37897" data-name="Path 37897" d="M327.384,25.777l-2.8,5.672-6.259.91,4.529,4.416-1.069,6.234,5.6-2.944,5.6,2.944-1.069-6.234,4.529-4.416-6.259-.91Z" transform="translate(414.973 33.603)" fill="#ebbb2c"/>
      <path id="Path_37898" data-name="Path 37898" d="M302.526,25.777l-2.8,5.672-6.259.91L298,36.774l-1.069,6.234,5.6-2.944,5.6,2.944-1.069-6.234,4.529-4.416-6.259-.91Z" transform="translate(382.568 33.603)" fill="#ebbb2c"/>
      <path id="Path_37899" data-name="Path 37899" d="M314.955,25.777l-2.8,5.672-6.259.91,4.529,4.416-1.069,6.234,5.6-2.944,5.6,2.944-1.069-6.234,4.529-4.416-6.259-.91Z" transform="translate(398.771 33.603)" fill="#ebbb2c"/>
      <path id="Path_37900" data-name="Path 37900" d="M290.1,25.777l-2.8,5.672-6.259.91,4.529,4.416L284.5,43.008l5.6-2.944,5.6,2.944-1.069-6.234,4.529-4.416-6.259-.91Z" transform="translate(366.366 33.603)" fill="#ebbb2c"/>
      <path id="Path_37901" data-name="Path 37901" d="M212.181,113.066H147.9s1.965-19.164,29.65-9.452c14.243-12.138,34.635-8.818,34.635,9.452" transform="translate(192.799 125.714)" fill="#eaf0fd"/>
      <path id="Path_37902" data-name="Path 37902" d="M534.16,157.408H469.875s1.965-19.164,29.65-9.452c14.243-12.14,34.635-8.818,34.635,9.452" transform="translate(612.534 183.517)" fill="#eaf0fd"/>
      <path id="Path_37903" data-name="Path 37903" d="M435.462,292.743s5.257,15.333-1.972,27.6a26.617,26.617,0,0,1-19.788-.659s-4.909-16.867,2.511-26.943,19.249,0,19.249,0" transform="translate(537.231 375.785)" fill="#382826"/>
      <path id="Path_37904" data-name="Path 37904" d="M357.364,294.009c.71-2.82,17.395-69.118,18.56-74.642.864-4.077,3.559-4.243,3.863-4.248l.021-3.144h-.055c-1.928,0-5.775,1.4-6.9,6.743-1.154,5.466-18.36,73.833-18.535,74.524Z" transform="translate(461.887 276.333)" fill="#272726"/>
      <path id="Path_37905" data-name="Path 37905" d="M368.758,220.777l33.478,3.257a5.084,5.084,0,0,0,.984-10.12l-33.476-3.257a5.084,5.084,0,1,0-.986,10.12" transform="translate(474.732 274.584)" fill="#ebbb2c"/>
      <path id="Path_37906" data-name="Path 37906" d="M398.529,207.993s3.58,14.1-7.71,16.57c-2.753,6.872-4.029,14.757-8.5,10.728-3.036,2.7-5.033-.762-5.033-.762s-2.988,3.015-4.914-1.691c-4.13,2.177-5.234-5.024-5.784-10.647s-.825-7.756,9.362-13.713l10.189-5.955Z" transform="translate(477.605 264.01)" fill="#ffb98a"/>
      <line id="Line_93" data-name="Line 93" x1="0.166" y2="13.384" transform="translate(849.975 483.464)" fill="none" stroke="#f9a064" stroke-linecap="round" stroke-linejoin="round" stroke-width="0.5"/>
      <line id="Line_94" data-name="Line 94" x1="2.092" y2="12.882" transform="translate(854.89 485.656)" fill="none" stroke="#f9a064" stroke-linecap="round" stroke-linejoin="round" stroke-width="0.5"/>
      <path id="Path_37907" data-name="Path 37907" d="M376.341,211.814s-1.907,6.1-3.048,11.364" transform="translate(486.629 276.123)" fill="none" stroke="#f9a064" stroke-linecap="round" stroke-linejoin="round" stroke-width="0.5"/>
      <path id="Path_37908" data-name="Path 37908" d="M377.686,293.761s15.964-64.8,17.609-71.437c.728-2.942.486-5.238-.716-6.826a4.881,4.881,0,0,0-3.561-1.9l-.1,3.142.048-1.571-.078,1.569a1.767,1.767,0,0,1,1.2.689c.562.779.617,2.248.148,4.142-1.645,6.641-17.609,71.442-17.609,71.442Z" transform="translate(488.377 278.449)" fill="#272726"/>
      <path id="Path_37909" data-name="Path 37909" d="M450.942,253.083s-32.059-11.974-83.946-6.34C346.8,289.473,332.248,365.07,332.248,365.07s32.635,14.087,93.206,11.269c21.131-74.893,25.487-123.257,25.487-123.257" transform="translate(433.122 319.692)" fill="#382826"/>
      <path id="Path_37910" data-name="Path 37910" d="M378.814,406.17A481.8,481.8,0,0,0,398.2,337.856c7.616-37.563,5.294-72.78,0-89.214C381.866,281.51,372.709,371.9,372.709,371.9Z" transform="translate(485.867 324.132)" fill="#261a19"/>
      <path id="Path_37911" data-name="Path 37911" d="M332.249,297.256s3.522,21.834,7.512,36.39c29.113,10.564,70.668,15.245,91.8,9.15,1.877-23.237-6.1-34.271-6.1-34.271Z" transform="translate(433.123 387.506)" fill="#2d201f"/>
      <path id="Path_37912" data-name="Path 37912" d="M363,323.178c-.744,4.28.721,8.109,3.276,8.553s5.232-2.663,5.976-6.941-.721-8.111-3.276-8.556-5.229,2.663-5.976,6.943" transform="translate(472.952 412.192)" fill="#ebbb2c"/>
      <path id="Path_37913" data-name="Path 37913" d="M372.83,316.854l-6.109-1.064a4.659,4.659,0,0,0-4.6,1.824,12.115,12.115,0,0,0-1.977,5.015,18.229,18.229,0,0,0-.274,4.28,4.718,4.718,0,0,0,3.912,4.335l6.346,1.106Z" transform="translate(469.094 411.573)" fill="#ebbb2c"/>
      <path id="Path_37914" data-name="Path 37914" d="M445.429,200.618s-.9,18.047,9.926,26.425c7.077-10.382.516-26.425.516-26.425Z" transform="translate(580.643 261.528)" fill="#f9a064"/>
      <path id="Path_37915" data-name="Path 37915" d="M341.9,320.427c-.746,4.28.721,8.109,3.276,8.553s5.232-2.663,5.976-6.941-.721-8.111-3.276-8.556-5.232,2.663-5.976,6.943" transform="translate(445.446 408.606)" fill="#ebbb2c"/>
      <path id="Path_37916" data-name="Path 37916" d="M351.73,314.1l-6.109-1.064a4.656,4.656,0,0,0-4.6,1.827,12.089,12.089,0,0,0-1.976,5.013,18.231,18.231,0,0,0-.274,4.28,4.718,4.718,0,0,0,3.912,4.335l6.346,1.106Z" transform="translate(441.587 407.987)" fill="#ebbb2c"/>
      <path id="Path_37917" data-name="Path 37917" d="M446.291,201.163,457.763,200s6.187,12.711,7.991,16.862,0,16.21-1.159,17.786-8.95,9.857-9.926,8.148c-2.062-3.61,5.238-12.145,5.238-12.145l-1.758-12.476s-14.179-3.22-11.859-17.014" transform="translate(581.456 260.725)" fill="#ffb98a"/>
      <path id="Path_37918" data-name="Path 37918" d="M455.712,206.438l-3.094,11.085s-6.763,8.083-4.255,10.055c1.806,1.417,10.571-7.349,10.958-9.926s1.1-8.378,1.1-8.378" transform="translate(583.764 269.115)" fill="#ffb98a"/>
      <path id="Path_37919" data-name="Path 37919" d="M456.1,204.9s4.639,8.318,4.766,11.154.758,12.375-1.426,15.6-5.662,9.926-7.339,8.894.12-7.706,3.552-13.4-1.359-16.655-1.359-16.655" transform="translate(588.535 267.106)" fill="#ffb98a"/>
      <path id="Path_37920" data-name="Path 37920" d="M452.686,205.107s6.376,7.077,7.134,9.811,3.495,11.9,2.085,15.524-3.31,10.938-5.172,10.306-1.6-7.54.474-13.861-5.038-15.932-5.038-15.932" transform="translate(589.454 267.38)" fill="#ffb98a"/>
      <path id="Path_37921" data-name="Path 37921" d="M495.195,198.011s11.336,29.574-19.717,122.732c6.9,35.489-6.9,44.854-8.871,76.4H447.383s-3.944-44.361,0-77.385c-.986-35.489-5.42-76.344-5.42-76.344s-4.437,52.686-5.916,80.781c9.588,29.081,5.42,81.822,5.42,81.822h-20.7s-10.845-30.067-13.308-72.951-22.674-86.749-18.731-135.054Z" transform="translate(506.088 258.129)" fill="#ca4439"/>
    </g>
  </g>
  <g id="Group_35742" data-name="Group 35742" transform="translate(894.308 456.14)">
    <g id="Group_35741" data-name="Group 35741" clip-path="url(#clip-path-2)">
      <path id="Path_37922" data-name="Path 37922" d="M507.726,221.556s-18.461,16.964-60.133,16.964-63.112-20.744-63.112-20.744V203.463H505.9Z" transform="translate(-393.095 -190.904)" fill="#bf312b"/>
    </g>
  </g>
  <g id="Group_35744" data-name="Group 35744">
    <g id="Group_35743" data-name="Group 35743" clip-path="url(#clip-path)">
      <path id="Path_37924" data-name="Path 37924" d="M439.082,132.537s40.417,4.93,50.276,16.266c6.865,7.894,2.016,41.131-1.56,60.583a65.649,65.649,0,0,0,1.55,30.219c3.734,12.84,9.194,30.3,13.81,39.816,7.885,16.266,8.528,27.685-2.635,30.108s-40.739,26.577-97.917,2.423c-22.179-8.871-19.254-13.8-10.859-44.854s6.918-46.826,2.481-69-9.138-55.519,11.564-60.447,33.289-5.109,33.289-5.109" transform="translate(502.56 172.777)" fill="#73a361"/>
    </g>
  </g>
  <g id="Group_35746" data-name="Group 35746" transform="translate(888.073 305.314)">
    <g id="Group_35745" data-name="Group 35745" clip-path="url(#clip-path-4)">
      <path id="Path_37925" data-name="Path 37925" d="M506.8,151.161s-68.214,17.293-121.278-1.737" transform="translate(-385.505 -110.523)" fill="none" stroke="#fff" stroke-linecap="round" stroke-linejoin="round" stroke-width="0.5"/>
      <path id="Path_37926" data-name="Path 37926" d="M502.137,146.2s-65.909,15.365-114.971-3.778" transform="translate(-383.359 -119.648)" fill="none" stroke="#fff" stroke-linecap="round" stroke-linejoin="round" stroke-width="0.5"/>
      <path id="Path_37927" data-name="Path 37927" d="M506.8,164.319s-63.485,22.969-121.278-1.737" transform="translate(-385.505 -93.37)" fill="none" stroke="#fff" stroke-linecap="round" stroke-linejoin="round" stroke-width="0.5"/>
      <path id="Path_37928" data-name="Path 37928" d="M502.137,159.908s-65.909,15.363-114.971-3.78" transform="translate(-383.359 -101.784)" fill="none" stroke="#fff" stroke-linecap="round" stroke-linejoin="round" stroke-width="0.5"/>
      <path id="Path_37929" data-name="Path 37929" d="M506.8,178.023s-63.485,22.969-121.278-1.737" transform="translate(-385.505 -75.505)" fill="none" stroke="#fff" stroke-linecap="round" stroke-linejoin="round" stroke-width="0.5"/>
      <path id="Path_37930" data-name="Path 37930" d="M502.137,173.612s-65.909,15.363-114.971-3.78" transform="translate(-383.359 -83.919)" fill="none" stroke="#fff" stroke-linecap="round" stroke-linejoin="round" stroke-width="0.5"/>
      <path id="Path_37931" data-name="Path 37931" d="M506.8,191.729S443.313,214.7,385.52,189.99" transform="translate(-385.505 -57.641)" fill="none" stroke="#fff" stroke-linecap="round" stroke-linejoin="round" stroke-width="0.5"/>
      <path id="Path_37932" data-name="Path 37932" d="M502.137,187.317s-65.909,15.363-114.971-3.78" transform="translate(-383.359 -66.053)" fill="none" stroke="#fff" stroke-linecap="round" stroke-linejoin="round" stroke-width="0.5"/>
      <path id="Path_37933" data-name="Path 37933" d="M511.371,204.146S451.6,234.559,385.52,203.082" transform="translate(-385.505 -40.574)" fill="none" stroke="#fff" stroke-linecap="round" stroke-linejoin="round" stroke-width="0.5"/>
      <path id="Path_37934" data-name="Path 37934" d="M509,197.8s-65.554,27.441-123.492-1.327" transform="translate(-385.514 -49.185)" fill="none" stroke="#fff" stroke-linecap="round" stroke-linejoin="round" stroke-width="0.5"/>
    </g>
  </g>
  <g id="Group_35748" data-name="Group 35748">
    <g id="Group_35747" data-name="Group 35747" clip-path="url(#clip-path)">
      <path id="Path_37936" data-name="Path 37936" d="M434.22,139.6s12.184,4.437,19.648,31.053,11.9,55.7,20.769,72.948,15.28,37.954,9.859,40.419-21.2,3.449-28.095-13.31-28.59-55.7-28.59-83.3S434.22,139.6,434.22,139.6" transform="translate(557.699 181.981)" fill="#73a361"/>
    </g>
  </g>
  <g id="Group_35750" data-name="Group 35750" transform="translate(985.51 321.579)">
    <g id="Group_35749" data-name="Group 35749" clip-path="url(#clip-path-6)">
      <path id="Path_37937" data-name="Path 37937" d="M493.967,191.928s-6.462,17.581-58.869,12.389" transform="translate(-418.312 -71.38)" fill="none" stroke="#fff" stroke-linecap="round" stroke-linejoin="round" stroke-width="0.5"/>
      <path id="Path_37938" data-name="Path 37938" d="M492.04,185.067s-6.462,17.579-58.869,12.389" transform="translate(-420.824 -80.324)" fill="none" stroke="#fff" stroke-linecap="round" stroke-linejoin="round" stroke-width="0.5"/>
      <path id="Path_37939" data-name="Path 37939" d="M488.37,178.368s-6.462,17.581-58.869,12.389" transform="translate(-425.608 -89.057)" fill="none" stroke="#fff" stroke-linecap="round" stroke-linejoin="round" stroke-width="0.5"/>
      <path id="Path_37940" data-name="Path 37940" d="M484.536,171.684s-6.462,17.581-58.869,12.391" transform="translate(-430.606 -97.77)" fill="none" stroke="#fff" stroke-linecap="round" stroke-linejoin="round" stroke-width="0.5"/>
      <path id="Path_37941" data-name="Path 37941" d="M481.6,164.917s-6.462,17.581-58.869,12.389" transform="translate(-434.429 -106.592)" fill="none" stroke="#fff" stroke-linecap="round" stroke-linejoin="round" stroke-width="0.5"/>
      <path id="Path_37942" data-name="Path 37942" d="M479.906,158.035s-6.462,17.581-58.869,12.389" transform="translate(-436.642 -115.563)" fill="none" stroke="#fff" stroke-linecap="round" stroke-linejoin="round" stroke-width="0.5"/>
      <path id="Path_37943" data-name="Path 37943" d="M479.257,151.055s-6.462,17.581-58.869,12.389" transform="translate(-437.488 -124.663)" fill="none" stroke="#fff" stroke-linecap="round" stroke-linejoin="round" stroke-width="0.5"/>
      <path id="Path_37944" data-name="Path 37944" d="M475.233,144.389s-6.462,17.581-58.869,12.389" transform="translate(-442.733 -133.352)" fill="none" stroke="#fff" stroke-linecap="round" stroke-linejoin="round" stroke-width="0.5"/>
    </g>
  </g>
  <g id="Group_35752" data-name="Group 35752">
    <g id="Group_35751" data-name="Group 35751" clip-path="url(#clip-path)">
      <path id="Path_37946" data-name="Path 37946" d="M415.246,136.055s-18.89,8.162-19.876,31.822-.493,56.19-8.871,75.413-20.21,43.868-7.888,49.781,16.236,8.873,29.067-17.249,9.459-68.291,3.935-89.553,3.633-50.214,3.633-50.214" transform="translate(486.629 177.363)" fill="#73a361"/>
    </g>
  </g>
  <g id="Group_35754" data-name="Group 35754" transform="translate(859.923 313.418)">
    <g id="Group_35753" data-name="Group 35753" clip-path="url(#clip-path-8)">
      <path id="Path_37947" data-name="Path 37947" d="M370.255,193.54S375.906,211.4,428.5,208.6" transform="translate(-377.255 -61.117)" fill="none" stroke="#fff" stroke-linecap="round" stroke-linejoin="round" stroke-width="0.5"/>
      <path id="Path_37948" data-name="Path 37948" d="M371.386,186.35s6.386,17.609,58.816,12.645" transform="translate(-375.78 -70.49)" fill="none" stroke="#fff" stroke-linecap="round" stroke-linejoin="round" stroke-width="0.5"/>
      <path id="Path_37949" data-name="Path 37949" d="M374.42,178.731s6.386,17.609,58.816,12.645" transform="translate(-371.825 -80.422)" fill="none" stroke="#fff" stroke-linecap="round" stroke-linejoin="round" stroke-width="0.5"/>
      <path id="Path_37950" data-name="Path 37950" d="M377.348,172.782s8.06,16.906,59.763,6.89" transform="translate(-368.008 -88.177)" fill="none" stroke="#fff" stroke-linecap="round" stroke-linejoin="round" stroke-width="0.5"/>
      <path id="Path_37951" data-name="Path 37951" d="M378.906,165.055s8.06,16.906,59.763,6.89" transform="translate(-365.977 -98.25)" fill="none" stroke="#fff" stroke-linecap="round" stroke-linejoin="round" stroke-width="0.5"/>
      <path id="Path_37952" data-name="Path 37952" d="M380.695,157.373s8.06,16.906,59.763,6.89" transform="translate(-363.645 -108.265)" fill="none" stroke="#fff" stroke-linecap="round" stroke-linejoin="round" stroke-width="0.5"/>
      <path id="Path_37953" data-name="Path 37953" d="M380.695,150.363s8.06,16.906,59.763,6.89" transform="translate(-363.645 -117.403)" fill="none" stroke="#fff" stroke-linecap="round" stroke-linejoin="round" stroke-width="0.5"/>
      <path id="Path_37954" data-name="Path 37954" d="M384.085,143.353s8.06,16.906,59.763,6.89" transform="translate(-359.226 -126.541)" fill="none" stroke="#fff" stroke-linecap="round" stroke-linejoin="round" stroke-width="0.5"/>
    </g>
  </g>
  <g id="Group_35756" data-name="Group 35756">
    <g id="Group_35755" data-name="Group 35755" clip-path="url(#clip-path)">
      <path id="Path_37956" data-name="Path 37956" d="M427.987,291.029l.859-3.559a1.919,1.919,0,0,0-1.071-2.2c-3.531-1.615-13.336-4.819-26.233,1.511a1.936,1.936,0,0,0-1.011,2.3l1.269,4.19a1.921,1.921,0,0,0,2.02,1.355l22.481-2.131a1.926,1.926,0,0,0,1.686-1.463" transform="translate(522.027 368.94)" fill="#ebbb2c"/>
      <path id="Path_37957" data-name="Path 37957" d="M437.374,301.591s4.856,19.058.456,32.421c-1.55,4.16-9.157.657-9.954,5.913s-23.361,5.257-28.618,0-1.972-12.923,5.694-19.933a183.829,183.829,0,0,0,6.217-19.118s10.871-10.456,26.2.716" transform="translate(517.136 386.433)" fill="#382826"/>
    </g>
  </g>
  <g id="Group_35758" data-name="Group 35758" transform="translate(913.832 682.866)">
    <g id="Group_35757" data-name="Group 35757" clip-path="url(#clip-path-10)">
      <path id="Path_37958" data-name="Path 37958" d="M437.2,316.886s1.746-3.988-10.931-6.57-15.731,2.115-20.191,5.4-9.09.855-8.89,5.241,6.328,11.9,23.573,9.786S437.2,316.886,437.2,316.886" transform="translate(-396.062 -279.307)" fill="#2d201f"/>
    </g>
  </g>
  <g id="Group_35760" data-name="Group 35760">
    <g id="Group_35759" data-name="Group 35759" clip-path="url(#clip-path)">
      <path id="Path_37960" data-name="Path 37960" d="M430.487,288.957c-3.389-1.94-11.887-4.805-28.118.815a2.6,2.6,0,0,0-1.689,3.075c1.562,6.045-2.029,12.983,1.649,20.018a2.618,2.618,0,0,0,3.748.986c3.649-2.428,11.926-6.25,22.939-1.053a2.624,2.624,0,0,0,3.718-2.366c.122-6.821-2.716-12.085-1.021-18.45a2.663,2.663,0,0,0-1.228-3.027" transform="translate(522.229 373.458)" fill="#261a19"/>
      <path id="Path_37961" data-name="Path 37961" d="M415.175,280.956c7.876,1.615,15.969.613,19.776-.048a1.918,1.918,0,0,1,2.239,1.9v4.653a1.942,1.942,0,0,1-1.315,1.824,32.413,32.413,0,0,1-21.716-.055,1.9,1.9,0,0,1-1.223-1.6,29.548,29.548,0,0,1-.062-4.92,1.921,1.921,0,0,1,2.3-1.753" transform="translate(538.133 366.158)" fill="#ebbb2c"/>
      <path id="Path_37962" data-name="Path 37962" d="M436.837,283.842a27.6,27.6,0,0,1-21.161-.078,2.4,2.4,0,0,0-3.324,2.043c-.516,8.04-.539,12.082-.5,13.916a2.364,2.364,0,0,0,1.232,2.022,25.587,25.587,0,0,0,24.393-.177,2.365,2.365,0,0,0,1.2-1.59,66.142,66.142,0,0,0,1.447-13.953,2.38,2.38,0,0,0-3.292-2.184" transform="translate(536.881 369.673)" fill="#261a19"/>
      <path id="Path_37963" data-name="Path 37963" d="M431.584,170.008l-3.773,24.55,4.72,9.491s6.934-21.027-.947-34.04" transform="translate(557.699 221.624)" fill="#261a19"/>
      <path id="Path_37964" data-name="Path 37964" d="M391.966,170.072l6.941,23.849-3.442,10.023s-9.618-19.942-3.5-33.872" transform="translate(508.315 221.708)" fill="#261a19"/>
      <path id="Path_37965" data-name="Path 37965" d="M402.185,134.262s2.421,30.032,17.841,48.482c15.971,1.1,24.782-4.13,24.782-4.13s9.841-15.434,13.458-42.826l8.249,2.605s-1.055,24.524-12.345,47.655c-12.942,11.564-39.387,11.3-45.722,6.9-10.463-24.232-16.323-55.519-16.323-55.519Z" transform="translate(511.178 175.025)" fill="#261a19"/>
      <path id="Path_37966" data-name="Path 37966" d="M430.545,153.422s22.3-2.753,30.564,9.638,12.942,30.564,16.8,52.041,15.969,69.389-42.681,69.389-41.843-77.318-35.8-98.852,8.261-29.737,31.115-32.216" transform="translate(511.673 199.663)" fill="#382826"/>
      <path id="Path_37967" data-name="Path 37967" d="M480.028,115.713S496,122.6,494.621,142.147c17.072,15.144,13.888,46.812-10.4,44.884,0,0-9.929,26.144-38.885,10.463-26.16,15.441-36.9-7.848-36.9-7.848s-11.566,4.269-20.1-7.846,0-30.841,0-30.841-5.973-17.943,8.811-29.463,82.882-5.782,82.882-5.782" transform="translate(501.292 148.983)" fill="#ca4439"/>
    </g>
  </g>
  <g id="Group_35762" data-name="Group 35762" transform="translate(885.831 263.268)">
    <g id="Group_35761" data-name="Group 35761" clip-path="url(#clip-path-12)">
      <path id="Path_37968" data-name="Path 37968" d="M485.292,116.983s9.2,52.1-51.278,52.1-45.717-52.1-45.717-52.1Z" transform="translate(-381.715 -110.768)" fill="#bf312b"/>
    </g>
  </g>
  <g id="Group_35764" data-name="Group 35764">
    <g id="Group_35763" data-name="Group 35763" clip-path="url(#clip-path)">
      <path id="Path_37970" data-name="Path 37970" d="M436.6,251.769s-7.987,4.831-20.652,0" transform="translate(542.238 328.209)" fill="none" stroke="#bf312b" stroke-linecap="round" stroke-linejoin="round" stroke-width="0.5"/>
      <path id="Path_37971" data-name="Path 37971" d="M433.957,253.2s-6.153,5.305-15.976,1.928" transform="translate(544.884 330.079)" fill="none" stroke="#bf312b" stroke-linecap="round" stroke-linejoin="round" stroke-width="0.5"/>
      <path id="Path_37972" data-name="Path 37972" d="M418.829,253.743s-7.289,5.83-20.475,2.7" transform="translate(519.3 330.782)" fill="none" stroke="#bf312b" stroke-linecap="round" stroke-linejoin="round" stroke-width="0.5"/>
      <path id="Path_37973" data-name="Path 37973" d="M418.957,252.659s-7.812,5.107-20.638.726" transform="translate(519.253 329.369)" fill="none" stroke="#bf312b" stroke-linecap="round" stroke-linejoin="round" stroke-width="0.5"/>
      <path id="Path_37974" data-name="Path 37974" d="M416.206,254.715s-5.409,6.061-15.586,3.994" transform="translate(522.252 332.049)" fill="none" stroke="#bf312b" stroke-linecap="round" stroke-linejoin="round" stroke-width="0.5"/>
      <path id="Path_37975" data-name="Path 37975" d="M433.018,101.51s36.468-8.811,47.973,16.8,7.924,66.086-49.9,66.086-44.881-48.463-37.173-64.708,22.292-16.777,39.1-18.173" transform="translate(504.519 130.42)" fill="#ebbb2c"/>
      <path id="Path_37976" data-name="Path 37976" d="M421.44,96.233s13.492-3.029,22.3,16.8,13.63,55.344-19.894,55.344-28.519-34.745-24.99-47.086,7.71-24.506,22.58-25.056" transform="translate(516.648 125.234)" fill="#e3a627"/>
      <path id="Path_37977" data-name="Path 37977" d="M428.014,263.653s-24.727-5.7-85.019-7.017" transform="translate(447.132 334.553)" fill="none" stroke="#261a19" stroke-linecap="round" stroke-linejoin="round" stroke-width="0.5"/>
      <path id="Path_37978" data-name="Path 37978" d="M397.7,190.528s32.617,9.751,67.157-.53c2.2,44.561-64.842,57.694-67.157.53" transform="translate(518.451 247.683)" fill="#2d201f"/>
      <path id="Path_37979" data-name="Path 37979" d="M402.817,165.281s24.741,10.313,54.093,0c8.226,32.23,7.712,50.175,7.712,50.175s-25.533,9.839-67.21,0c-.433-31.776,5.4-50.175,5.4-50.175" transform="translate(518.042 215.462)" fill="#2d201f"/>
      <path id="Path_37980" data-name="Path 37980" d="M400.719,172.4s20.387,8.364,47.881.26c0-19.1-44.121-24.513-47.881-.26" transform="translate(522.382 203.623)" fill="#2d201f"/>
      <path id="Path_37981" data-name="Path 37981" d="M397.991,194.507s32.78,9.373,66.415-2.161" transform="translate(518.825 250.744)" fill="none" stroke="#ca4439" stroke-linecap="round" stroke-linejoin="round" stroke-width="0.5"/>
      <path id="Path_37982" data-name="Path 37982" d="M399,169.124s26.187,10.2,57.351-1.117" transform="translate(520.138 219.016)" fill="none" stroke="#ca4439" stroke-linecap="round" stroke-linejoin="round" stroke-width="0.5"/>
      <path id="Path_37983" data-name="Path 37983" d="M400.907,198.03c-.689,1.845-1.914,2.472-2.992,2.069s-1.594-1.675-.908-3.522,2.322-3.564,3.4-3.163,1.189,2.771.5,4.616" transform="translate(517.137 252.059)" fill="#ca4439"/>
      <path id="Path_37984" data-name="Path 37984" d="M402.066,172.958c-.689,1.845-1.914,2.472-2.992,2.069s-1.594-1.675-.908-3.522,2.322-3.564,3.4-3.163,1.189,2.771.5,4.616" transform="translate(518.648 219.375)" fill="#ca4439"/>
      <path id="Path_37985" data-name="Path 37985" d="M391.659,129.357s-11.465,13.746-7.286,28.233c4.361,15.114,19.751,14.787,25.478,12.407" transform="translate(499.877 168.631)" fill="none" stroke="#ca4439" stroke-linecap="round" stroke-linejoin="round" stroke-width="0.5"/>
      <path id="Path_37986" data-name="Path 37986" d="M438.214,126.38s17.524,16,10.728,34.252c-5.386,14.471-21.131,10.631-21.131,10.631" transform="translate(557.699 164.75)" fill="none" stroke="#ca4439" stroke-linecap="round" stroke-linejoin="round" stroke-width="0.5"/>
      <path id="Path_37987" data-name="Path 37987" d="M415.96,96.871a15.558,15.558,0,0,0-15.079,17.98c1.5,9.35,13.382,18.756,22.49,12.769,9.288-6.1,11.071-20.567,1.967-27.583a14.763,14.763,0,0,0-9.378-3.165" transform="translate(522.321 126.279)" fill="#e09819"/>
    </g>
  </g>
</svg>
