<svg xmlns="http://www.w3.org/2000/svg" width="75.154" height="52.588" viewBox="0 0 75.154 52.588">
  <g id="Group_35736" data-name="Group 35736" transform="translate(-1348.25 -8859.091)">
    <path id="Path_37824" data-name="Path 37824" d="M36.67,17.317a22.42,22.42,0,1,0,22.42,22.42,22.445,22.445,0,0,0-22.42-22.42Zm0,39.788A17.368,17.368,0,1,1,54.038,39.737,17.388,17.388,0,0,1,36.67,57.1Z" transform="translate(1349.157 8849.522)" fill="#67bec5"/>
    <circle id="Ellipse_208" data-name="Ellipse 208" cx="15.473" cy="15.473" r="15.473" transform="translate(1370.354 8873.787)" fill="#67bec5"/>
    <path id="Path_37825" data-name="Path 37825" d="M63.526,11.352a.944.944,0,0,0-.994.093A24.161,24.161,0,0,0,53,30.609v6.866a.948.948,0,0,0,.947.947H57.1V58.934a3.474,3.474,0,0,0,6.947,0V12.2a.947.947,0,0,0-.525-.848Z" transform="translate(1359.353 8847.927)" fill="#67bec5"/>
    <path id="Path_37826" data-name="Path 37826" d="M15.966,11.183a.948.948,0,0,0-.947.947V24.152H10.529V12.13a.947.947,0,0,0-1.895,0V24.152H4.145V12.13a.947.947,0,1,0-1.895,0V29.188a3.52,3.52,0,0,0,3.858,3.474V58.905a3.577,3.577,0,0,0,2.9,3.562,3.557,3.557,0,0,0,.57.046,3.472,3.472,0,0,0,3.48-3.473V32.662a3.52,3.52,0,0,0,3.858-3.474V12.13A.948.948,0,0,0,15.966,11.183Z" transform="translate(1346 8847.908)" fill="#67bec5"/>
  </g>
</svg>
