<svg xmlns="http://www.w3.org/2000/svg" width="25.009" height="25.601" viewBox="0 0 25.009 25.601">
  <g id="Group_36144" data-name="Group 36144" transform="translate(-1215.909 -522)">
    <path id="Path_38724" data-name="Path 38724" d="M50.259,34.715a1.261,1.261,0,0,0,1.259-1.259v-4.2a1.259,1.259,0,0,0-2.518,0v4.2A1.261,1.261,0,0,0,50.259,34.715Zm-.42-5.456a.42.42,0,0,1,.839,0v4.2a.42.42,0,1,1-.839,0Z" transform="translate(1186.634 505.331)" fill="#989898"/>
    <path id="Path_38725" data-name="Path 38725" d="M26.342,20.693V13.171a2.939,2.939,0,0,0-1.661-2.642,2.938,2.938,0,1,0-3.393,0,2.953,2.953,0,0,0-1.335,1.3l-4.227,4.226a1.258,1.258,0,0,0-.045,1.724l-1.09,1.09-2.1-2.1V12.331h.839a.42.42,0,0,0,.42-.42v-2.1a.42.42,0,0,0-.42-.42H12.072V7.715A2.52,2.52,0,0,0,9.739,5.206a2.518,2.518,0,1,0-3.726,0A2.52,2.52,0,0,0,3.679,7.715V9.394H2v.839H12.912v1.259h-.839a.42.42,0,0,0-.42.42v4.862L7.282,21.145H2v.839H6.443l-.543.543a.419.419,0,0,0,0,.593l2.815,2.815V26.6h.839v-.666l5.753-5.753a.419.419,0,0,0,0-.593l-.123-.123,1.222-1.222a1.27,1.27,0,0,0,.283.035,1.25,1.25,0,0,0,.89-.369l2.048-2.048v5.994l-2.018,3.027a1.1,1.1,0,0,0,.92,1.717h.732a1.1,1.1,0,0,0,.918-.491l2.315-3.472a.422.422,0,0,0,.071-.233V21.145h.9l.649,4.221a1.449,1.449,0,0,0,1.44,1.235h0a1.456,1.456,0,0,0,1.439-1.678ZM7.876,1.839A1.679,1.679,0,1,1,6.2,3.518,1.68,1.68,0,0,1,7.876,1.839Zm2.1,7.554V7.715H9.135V9.394H6.616V7.715H5.777V9.394H4.518V7.715A1.68,1.68,0,0,1,6.2,6.036H9.554a1.68,1.68,0,0,1,1.679,1.679V9.394ZM9.135,25.168,6.79,22.823l.962-.962,4.32-4.32,2.344,2.344ZM20.886,8.135a2.1,2.1,0,1,1,3.838,1.172.83.83,0,0,1-.481-.752H23.4A1.662,1.662,0,0,0,24.1,9.906a2.09,2.09,0,0,1-3.213-1.771Zm1.679,2.938H23.4a2.1,2.1,0,0,1,2.1,2.1v7.135H20.466V13.171a2.086,2.086,0,0,1,.039-.382c0-.02.006-.04.01-.06a2.026,2.026,0,0,1,.1-.317c.014-.035.028-.07.043-.1A2.1,2.1,0,0,1,22.564,11.072Zm-5.579,6.244a.429.429,0,0,1-.593,0l-.072-.072a.42.42,0,0,1,0-.593l3.306-3.306v1.331Zm4.739,4.96-2.244,3.367a.263.263,0,0,1-.22.118h-.732a.264.264,0,0,1-.12-.029.264.264,0,0,1-.1-.383L20.4,22.217a.422.422,0,0,0,.071-.233v-.839h1.259Zm4.3,3.269a.617.617,0,0,1-1.079-.308l-.63-4.093h1.249l.6,3.906A.618.618,0,0,1,26.021,25.546Z" transform="translate(1213.909 521)" fill="#989898"/>
    <path id="Path_38726" data-name="Path 38726" d="M29.6,8.257a.412.412,0,0,0,.173.038.421.421,0,0,0,.277-.1l3.357-2.938a.42.42,0,0,0-.025-.652L30.029,2.084a.42.42,0,0,0-.671.336v1.2l-2.886-.361A.419.419,0,0,0,26,3.678V6.616a.419.419,0,0,0,.472.416l2.886-.361v1.2A.419.419,0,0,0,29.6,8.257ZM26.839,6.141V4.154l2.886.361A.419.419,0,0,0,30.2,4.1V3.259l2.272,1.7L30.2,6.95V6.2a.419.419,0,0,0-.42-.42.433.433,0,0,0-.052,0Z" transform="translate(1199.981 520.42)" fill="#989898"/>
  </g>
</svg>
