<svg xmlns="http://www.w3.org/2000/svg" width="23.733" height="23.733" viewBox="0 0 23.733 23.733">
  <g id="Group_36143" data-name="Group 36143" transform="translate(-558.5 -424.5)">
    <circle id="Ellipse_221" data-name="Ellipse 221" cx="0.5" cy="0.5" r="0.5" transform="translate(566.367 430.367)" fill="#989898"/>
    <circle id="Ellipse_222" data-name="Ellipse 222" cx="0.5" cy="0.5" r="0.5" transform="translate(562.367 430.367)" fill="#989898"/>
    <path id="Path_38718" data-name="Path 38718" d="M128.4,129.582h.791a.4.4,0,0,0,0-.791h-.4v-.4a.4.4,0,1,0-.791,0v.791A.4.4,0,0,0,128.4,129.582Z" transform="translate(436.038 302.038)" fill="#989898"/>
    <path id="Path_38719" data-name="Path 38719" d="M317.933,69.933a.4.4,0,0,0,.4-.4V64.4a.4.4,0,0,0-.4-.4H312.4a.4.4,0,0,0-.4.4v5.142a.4.4,0,0,0,.4.4Zm-5.142-5.142h4.747v4.351h-4.747Z" transform="translate(261.136 362.873)" fill="#989898"/>
    <path id="Path_38720" data-name="Path 38720" d="M37.756,28.658H35.778V27.5a1.188,1.188,0,0,0-1.187-1.187H33.009A1.188,1.188,0,0,0,31.822,27.5v1.161H29.844a1.976,1.976,0,0,0-1.581.791h-.792V27.471a1.98,1.98,0,0,0-1.978-1.978H24.7q.157-.118.3-.251a3.945,3.945,0,0,0,1.2-2.124l.08,0a1.582,1.582,0,0,0,.791-2.952v-1h.4a.4.4,0,0,0,.4-.4V16.4a.4.4,0,0,0-.4-.4H17.187a.4.4,0,0,0-.4.4v2.373a.4.4,0,0,0,.4.4h.4v1a1.582,1.582,0,0,0,.791,2.952l.08,0a3.958,3.958,0,0,0,1.078,2.008,4.014,4.014,0,0,0,.424.368h-.791a1.98,1.98,0,0,0-1.978,1.978v1.978H16.4a.4.4,0,0,0-.4.4v9.493a.4.4,0,0,0,.4.4H39.338a.4.4,0,0,0,.4-.4V36.173a.4.4,0,0,0-.4-.4h0a1.967,1.967,0,0,0,.4-1.187V30.636A1.98,1.98,0,0,0,37.756,28.658ZM26.284,22.329V20.747a.791.791,0,0,1,0,1.582Zm-8.7-5.538h9.493v1.582H17.582Zm.791,5.538a.791.791,0,1,1,0-1.582Zm0-2.373v-.791h7.911v.791Zm.8,2.659c-.009-.094-.013-.19-.013-.286V20.747h6.329v1.582c0,.1,0,.192-.013.287a3.164,3.164,0,0,1-6.3,0Zm-1.2,4.856a1.188,1.188,0,0,1,1.187-1.187h2.769v1.187a.4.4,0,0,0,.791,0V26.284h2.769a1.188,1.188,0,0,1,1.187,1.187v1.978h-8.7Zm10.284,8.307a.4.4,0,0,0-.4.4v2.769H16.791v-8.7H27.907a1.979,1.979,0,0,0-.04.4v3.956a1.967,1.967,0,0,0,.4,1.187ZM32.613,27.5a.4.4,0,0,1,.4-.4h1.582a.4.4,0,0,1,.4.4v1.161H32.613Zm-1.978,1.952h6.329v6.329H30.636Zm-1.978,1.187a1.188,1.188,0,0,1,1.187-1.187v6.329a1.188,1.188,0,0,1-1.187-1.187Zm10.284,8.307H28.658V36.569H38.942Zm0-4.351a1.188,1.188,0,0,1-1.187,1.187V29.449a1.188,1.188,0,0,1,1.187,1.187Z" transform="translate(542.5 408.5)" fill="#989898"/>
    <path id="Path_38721" data-name="Path 38721" d="M353.978,448H352.4a.4.4,0,0,0,0,.791h1.582a.4.4,0,0,0,0-.791Z" transform="translate(223.113 -2.14)" fill="#989898"/>
    <path id="Path_38722" data-name="Path 38722" d="M104.4,160a.395.395,0,0,0-.353.572h0l0,.009,0,0a2.365,2.365,0,0,0,3.858,0l0,0,0-.009h0a.4.4,0,0,0-.707-.354h0l0,0a1.6,1.6,0,0,1-2.462,0l0,0h0A.4.4,0,0,0,104.4,160Z" transform="translate(458.851 271.62)" fill="#989898"/>
    <path id="Path_38723" data-name="Path 38723" d="M346.549,97.253l-.572.381V96.4a.4.4,0,0,0-.791,0v1.239l-.572-.381a.4.4,0,0,0-.439.658l1.187.791a.4.4,0,0,0,.439,0l1.187-.791a.4.4,0,0,0-.439-.658Z" transform="translate(230.719 332.456)" fill="#989898"/>
  </g>
</svg>
