<svg xmlns="http://www.w3.org/2000/svg" width="40.549" height="38.564" viewBox="0 0 40.549 38.564">
  <g id="Group_71" data-name="Group 71" transform="translate(-18.378 -21.432)">
    <path id="Path_65" data-name="Path 65" d="M26.134,7.325,16.018,17.442M19.39,6.482h7.587v7.587" transform="translate(17.154 34.662)" fill="none" stroke="#989898" stroke-width="2"/>
    <path id="f5624eefdfc7445bb6d448bed03aae9c" d="M78.349,56.392H75.043V53.95a.95.95,0,1,0-1.9,0v2.442H52.928V53.95a.95.95,0,0,0-1.9,0v2.442H47.3a4.755,4.755,0,0,0-4.749,4.749V86.814A4.755,4.755,0,0,0,47.3,91.564h31.05A4.755,4.755,0,0,0,83.1,86.814V61.141A4.755,4.755,0,0,0,78.349,56.392ZM81.2,86.814a2.853,2.853,0,0,1-2.85,2.85H47.3a2.853,2.853,0,0,1-2.85-2.85V68.89H81.2V86.814ZM44.449,66.99v-5.85a2.853,2.853,0,0,1,2.85-2.85h3.73v2.442a.95.95,0,0,0,1.9,0V58.291H73.143v2.442a.95.95,0,0,0,1.9,0V58.291h3.306a2.853,2.853,0,0,1,2.85,2.85v5.85Z" transform="translate(-24.171 -31.568)" fill="#989898"/>
  </g>
</svg>
