<svg xmlns="http://www.w3.org/2000/svg" width="38.92" height="48.649" viewBox="0 0 38.92 48.649">
  <path id="_64b49fc362248a006bdc4ad3d2b02a09" data-name="64b49fc362248a006bdc4ad3d2b02a09" d="M23.733,2A19.462,19.462,0,0,0,4,21.189C4,34.441,21.913,49.718,22.676,50.362a1.213,1.213,0,0,0,1.568,0c.762-.644,18.676-15.92,18.676-29.173A19.462,19.462,0,0,0,23.733,2Zm-.273,45.81C20.015,44.72,6.432,31.838,6.432,21.189a17.029,17.029,0,0,1,34.055,0C40.487,31.828,26.9,44.717,23.46,47.813Zm0-33.651a7.3,7.3,0,1,0,7.3,7.3A7.3,7.3,0,0,0,23.46,14.162Zm0,12.162a4.865,4.865,0,1,1,4.865-4.865A4.865,4.865,0,0,1,23.46,26.324Z" transform="translate(-4 -2)" fill="#989898"/>
</svg>
