<svg xmlns="http://www.w3.org/2000/svg" width="19.996" height="20.001" viewBox="0 0 19.996 20.001">
  <g id="_61070e83ef80f0e56a45ffddc3ed539f" data-name="61070e83ef80f0e56a45ffddc3ed539f" transform="translate(-2.005 -2.07)">
    <path id="Path_38817" data-name="Path 38817" d="M12,22.071a10,10,0,1,1,7.073-2.925A9.974,9.974,0,0,1,12,22.071Zm0-18.4a8.4,8.4,0,1,0,5.941,2.461A8.346,8.346,0,0,0,12,3.67Zm6.507,14.91h0Z" transform="translate(0 0)" fill="#989898"/>
    <path id="Path_38818" data-name="Path 38818" d="M13.382,16.551a.8.8,0,0,1-.566-.234L9.138,12.639a.8.8,0,0,1,1.131-1.131l3.112,3.112,3.112-3.112a.8.8,0,1,1,1.131,1.131l-3.678,3.678a.8.8,0,0,1-.566.234Z" transform="translate(-1.378 -1.839)" fill="#989898"/>
  </g>
</svg>
