<svg id="Group_35945" data-name="Group 35945" xmlns="http://www.w3.org/2000/svg" width="26.641" height="26.641" viewBox="0 0 26.641 26.641">
  <path id="Path_38464" data-name="Path 38464" d="M129.933,57A3.97,3.97,0,1,1,126,61.007,3.991,3.991,0,0,1,129.933,57Z" transform="translate(-116.65 -52.77)" fill="#fff" fill-rule="evenodd"/>
  <path id="Path_38465" data-name="Path 38465" d="M81.527,188h6.085a4.511,4.511,0,0,1,4.527,4.007,8.64,8.64,0,0,1-7.569,4.378A8.821,8.821,0,0,1,77,192.007,4.566,4.566,0,0,1,81.527,188Z" transform="translate(-71.286 -174.049)" fill="#fff" fill-rule="evenodd"/>
  <path id="Path_38466" data-name="Path 38466" d="M13.283,0A13.32,13.32,0,1,1,0,13.283,13.333,13.333,0,0,1,13.283,0Zm0,1.484a11.836,11.836,0,0,0,0,23.672,11.836,11.836,0,1,0,0-23.672Z" fill="#fff"/>
</svg>
