<svg xmlns="http://www.w3.org/2000/svg" width="196.963" height="162.562" viewBox="0 0 196.963 162.562">
  <g id="day78-wallet" transform="translate(-41.657 3.007)">
    <g id="XMLID_1_" transform="translate(44.657)" opacity="0.15">
      <path id="XMLID_57_" d="M157.5,387.9h22.513v10.973H157.5" transform="translate(-157.5 -333.647)" fill="none" stroke="#474747" stroke-linecap="round" stroke-linejoin="round" stroke-width="6"/>
      <line id="XMLID_59_" x1="22.485" transform="translate(22.513 65.226)" fill="none" stroke="#474747" stroke-linecap="round" stroke-linejoin="round" stroke-width="6"/>
      <line id="XMLID_38_" x2="8.62" transform="translate(22.513 54.253)" fill="none" stroke="#474747" stroke-linecap="round" stroke-linejoin="round" stroke-width="6"/>
      <rect id="XMLID_42_" width="22.485" height="10.973" transform="translate(11.256 65.226)" fill="none" stroke="#474747" stroke-linecap="round" stroke-linejoin="round" stroke-width="6"/>
      <path id="XMLID_52_" d="M169.9,465.5h19v10.973h-7.29" transform="translate(-166.384 -389.244)" fill="none" stroke="#474747" stroke-linecap="round" stroke-linejoin="round" stroke-width="6"/>
      <rect id="XMLID_54_" width="22.485" height="10.973" transform="translate(22.513 76.256)" fill="none" stroke="#474747" stroke-linecap="round" stroke-linejoin="round" stroke-width="6"/>
      <path id="XMLID_81_" d="M580.5,528h22.513v10.945H580.5" transform="translate(-460.564 -434.023)" fill="none" stroke="#474747" stroke-linecap="round" stroke-linejoin="round" stroke-width="6"/>
      <line id="XMLID_80_" x1="22.485" transform="translate(142.449 104.921)" fill="none" stroke="#474747" stroke-linecap="round" stroke-linejoin="round" stroke-width="6"/>
      <line id="XMLID_79_" x2="8.62" transform="translate(142.449 93.977)" fill="none" stroke="#474747" stroke-linecap="round" stroke-linejoin="round" stroke-width="6"/>
      <rect id="XMLID_78_" width="22.485" height="10.973" transform="translate(131.193 104.921)" fill="none" stroke="#474747" stroke-linecap="round" stroke-linejoin="round" stroke-width="6"/>
      <path id="XMLID_77_" d="M592.9,605.5h19v10.973h-7.29" transform="translate(-469.448 -489.549)" fill="none" stroke="#474747" stroke-linecap="round" stroke-linejoin="round" stroke-width="6"/>
      <path id="XMLID_76_" d="M674.389,616.473H659.9V605.5h18.742" transform="translate(-517.451 -489.549)" fill="none" stroke="#474747" stroke-linecap="round" stroke-linejoin="round" stroke-width="6"/>
      <rect id="XMLID_25_" width="34.903" height="28.297" transform="translate(46.585 13.169)" fill="none" stroke="#474747" stroke-linecap="round" stroke-linejoin="round" stroke-width="6"/>
      <path id="XMLID_62_" d="M338.8,296.272,345.18,287l6.635,8.194" transform="translate(-287.395 -261.356)" fill="none" stroke="#474747" stroke-linecap="round" stroke-linejoin="round" stroke-width="6"/>
      <path id="XMLID_64_" d="M376.1,283.448l8.931-8.648,6.323,12.731" transform="translate(-314.119 -252.615)" fill="none" stroke="#474747" stroke-linecap="round" stroke-linejoin="round" stroke-width="6"/>
      <path id="XMLID_63_" d="M367.9,289.3a3.353,3.353,0,0,1,6.068-.652" transform="translate(-308.244 -261.356)" fill="none" stroke="#474747" stroke-linecap="round" stroke-linejoin="round" stroke-width="6"/>
      <path id="XMLID_24_" d="M631.165,393.435H581.517a3.3,3.3,0,0,1-3.317-3.317h0a3.3,3.3,0,0,1,3.317-3.317h49.648a3.3,3.3,0,0,1,3.317,3.317h0a3.3,3.3,0,0,1-3.317,3.317Z" transform="translate(-458.916 -332.859)" fill="none" stroke="#474747" stroke-linecap="round" stroke-linejoin="round" stroke-width="6"/>
      <path id="XMLID_23_" d="M660.451,339.872H645.906L642.9,321.3h20.585Z" transform="translate(-505.271 -285.93)" fill="none" stroke="#474747" stroke-linecap="round" stroke-linejoin="round" stroke-width="6"/>
      <rect id="XMLID_46_" width="26.171" height="5.387" transform="translate(134.879 29.982)" fill="none" stroke="#474747" stroke-linecap="round" stroke-linejoin="round" stroke-width="6"/>
      <g id="XMLID_68_" transform="translate(143.341 9.539)">
        <path id="XMLID_83_" d="M671,250.643h-5.359c-1.474-5.132-2.75-10.519-2.58-15.793.2-2.523,2.92-4.65,5.274-4.65h0c2.353,0,5.075,2.127,5.274,4.65C673.722,240.124,672.446,245.511,671,250.643Z" transform="translate(-663.046 -230.2)" fill="none" stroke="#474747" stroke-linecap="round" stroke-linejoin="round" stroke-width="6"/>
      </g>
      <path id="XMLID_71_" d="M700.7,226.113l3.714-6.153a2.229,2.229,0,0,1,3.374-.539h0a2.214,2.214,0,0,1-.057,3.4l-6.975,5.727" transform="translate(-546.682 -212.548)" fill="none" stroke="#474747" stroke-linecap="round" stroke-linejoin="round" stroke-width="6"/>
      <path id="XMLID_75_" d="M709.372,203.912l-1.758-5.5a1.408,1.408,0,0,1,1.163-1.843h0a1.454,1.454,0,0,1,1.644,1.446l-.142,4.452" transform="translate(-551.583 -196.556)" fill="none" stroke="#474747" stroke-linecap="round" stroke-linejoin="round" stroke-width="6"/>
    </g>
    <g id="XMLID_20_" transform="translate(116.09 33.008)">
      <rect id="XMLID_7_" width="85.375" height="41.199" transform="matrix(-0.438, 0.899, -0.899, -0.438, 74.443, 18.053)" fill="#77ba85"/>
      <rect id="XMLID_17_" width="85.375" height="41.199" transform="matrix(-0.438, 0.899, -0.899, -0.438, 74.443, 18.053)" fill="none" stroke="#474747" stroke-linecap="round" stroke-linejoin="round" stroke-width="1"/>
      <path id="XMLID_16_" d="M485.175,355.284,473.323,349.5a9.281,9.281,0,0,1-12.419,4.281l-29.2,59.883,28.552,13.922,29.2-59.883a9.257,9.257,0,0,1-4.281-12.419Z" transform="translate(-425.387 -339.142)" fill="#f6f9ea"/>
      <path id="XMLID_12_" d="M485.175,355.284,473.323,349.5a9.281,9.281,0,0,1-12.419,4.281l-29.2,59.883,28.552,13.922,29.2-59.883a9.257,9.257,0,0,1-4.281-12.419Z" transform="translate(-425.387 -339.142)" fill="none" stroke="#474747" stroke-linecap="round" stroke-linejoin="round" stroke-width="1"/>
      <rect id="XMLID_10_" width="31.757" height="75.933" transform="matrix(0.899, 0.438, -0.438, 0.899, 39.59, 6.298)" fill="none" stroke="#474747" stroke-linecap="round" stroke-linejoin="round" stroke-width="1"/>
      <circle id="XMLID_19_" cx="9.725" cy="9.725" r="9.725" transform="translate(30.328 31.68)" fill="#77ba85"/>
      <circle id="XMLID_13_" cx="9.725" cy="9.725" r="9.725" transform="translate(30.328 31.68)" fill="none" stroke="#474747" stroke-linecap="round" stroke-linejoin="round" stroke-width="1"/>
    </g>
    <g id="XMLID_22_" transform="translate(126.231 45.494)">
      <rect id="XMLID_33_" width="85.371" height="41.197" transform="translate(92.16 31.858) rotate(140.642)" fill="#97cd78"/>
      <rect id="XMLID_32_" width="85.371" height="41.197" transform="translate(92.16 31.858) rotate(140.642)" fill="none" stroke="#474747" stroke-linecap="round" stroke-linejoin="round" stroke-width="1"/>
      <path id="XMLID_31_" d="M541.654,412.683,533.29,402.5a9.279,9.279,0,0,1-13.071-1.3L468.7,443.447,488.831,468l51.519-42.247a9.282,9.282,0,0,1,1.3-13.07Z" transform="translate(-462.037 -388.67)" fill="#f6f9ea"/>
      <path id="XMLID_30_" d="M541.654,412.683,533.29,402.5a9.279,9.279,0,0,1-13.071-1.3L468.7,443.447,488.831,468l51.519-42.247a9.282,9.282,0,0,1,1.3-13.07Z" transform="translate(-462.037 -388.67)" fill="none" stroke="#474747" stroke-linecap="round" stroke-linejoin="round" stroke-width="1"/>
      <rect id="XMLID_29_" width="31.755" height="75.929" transform="translate(65.356 6.654) rotate(50.642)" fill="none" stroke="#474747" stroke-linecap="round" stroke-linejoin="round" stroke-width="1"/>
      <circle id="XMLID_28_" cx="9.725" cy="9.725" r="9.725" transform="translate(41.425 29.032)" fill="#97cd78"/>
      <circle id="XMLID_27_" cx="9.725" cy="9.725" r="9.725" transform="translate(41.425 29.032)" fill="none" stroke="#474747" stroke-linecap="round" stroke-linejoin="round" stroke-width="1"/>
      <path id="XMLID_48_" d="M497.428,424.456a19.864,19.864,0,0,0-4.99-13.156L445.2,450.031l26.142,31.87,26.114-21.407V424.456Z" transform="translate(-445.2 -395.906)" fill="#474747" stroke="#474747" stroke-linecap="round" stroke-linejoin="round" stroke-width="6" opacity="0.32"/>
    </g>
    <line id="XMLID_9_" x2="187.702" transform="translate(47.918 156.554)" fill="none" stroke="#474747" stroke-linecap="round" stroke-linejoin="round" stroke-width="6" opacity="0.15"/>
    <g id="Group_288" data-name="Group 288" transform="translate(82.056 49.235)">
      <path id="XMLID_15_" d="M365.955,493.639H306.412A17.026,17.026,0,0,1,289.4,476.627V409.712A17.026,17.026,0,0,1,306.412,392.7h59.543a17.026,17.026,0,0,1,17.012,17.012v66.915a16.989,16.989,0,0,1-17.012,17.012Z" transform="translate(-289.4 -386.32)" fill="#f58870"/>
      <path id="XMLID_36_" d="M365.955,493.639H306.412A17.026,17.026,0,0,1,289.4,476.627V409.712A17.026,17.026,0,0,1,306.412,392.7h59.543a17.026,17.026,0,0,1,17.012,17.012v66.915a16.989,16.989,0,0,1-17.012,17.012Z" transform="translate(-289.4 -386.32)" fill="#f58870"/>
      <path id="XMLID_43_" d="M365.955,693.612H306.412A17.026,17.026,0,0,1,289.4,676.6v3.431a17.026,17.026,0,0,0,17.012,17.012h59.543a17.026,17.026,0,0,0,17.012-17.012V676.6a17.009,17.009,0,0,1-17.016,17.012Z" transform="translate(-289.4 -589.724)" fill="#dd7868"/>
      <path id="XMLID_40_" d="M365.955,392.7H306.412c-9.385,0-17.012,7-17.012,15.623v3.658c0-8.62,7.627-15.623,17.012-15.623h59.543c9.385,0,17.012,7,17.012,15.623v-3.658C382.968,399.7,375.369,392.7,365.955,392.7Z" transform="translate(-289.4 -386.32)" fill="#ffa399"/>
      <path id="XMLID_34_" d="M437.815,434.238H422.5a5.119,5.119,0,0,1-5.1-5.1V397.8a5.119,5.119,0,0,1,5.1-5.1h20.415v36.435a5.1,5.1,0,0,1-5.1,5.1Z" transform="translate(-381.107 -386.32)" fill="#474747" stroke="#474747" stroke-linecap="round" stroke-linejoin="round" stroke-width="6" opacity="0.3"/>
      <path id="XMLID_2_" d="M365.955,493.639H306.412A17.026,17.026,0,0,1,289.4,476.627V409.712A17.026,17.026,0,0,1,306.412,392.7h59.543a17.026,17.026,0,0,1,17.012,17.012v66.915a16.989,16.989,0,0,1-17.012,17.012Z" transform="translate(-289.4 -386.32)" fill="none" stroke="#474747" stroke-linecap="round" stroke-linejoin="round" stroke-width="1"/>
      <g id="XMLID_5_" transform="translate(6.238 13.043)" opacity="0.46">
        <path id="Path_115" data-name="Path 115" d="M311.4,493.039V426.974A10.77,10.77,0,0,1,322.174,416.2h59.543a10.77,10.77,0,0,1,10.774,10.774V493.01a10.77,10.77,0,0,1-10.774,10.774H322.174A10.727,10.727,0,0,1,311.4,493.039Z" transform="translate(-311.4 -416.2)" fill="none" stroke="#474747" stroke-linecap="round" stroke-linejoin="round" stroke-width="1" stroke-dasharray="13.958 9.97"/>
      </g>
      <path id="XMLID_18_" d="M429.815,415H414.5a5.119,5.119,0,0,1-5.1-5.1V375.3a5.119,5.119,0,0,1,5.1-5.1h15.311a5.119,5.119,0,0,1,5.1,5.1v34.6A5.1,5.1,0,0,1,429.815,415Z" transform="translate(-375.375 -370.2)" fill="#f79765"/>
      <path id="XMLID_45_" d="M429.815,507H414.5a5.119,5.119,0,0,1-5.1-5.1v2.353a5.119,5.119,0,0,0,5.1,5.1h15.311a5.119,5.119,0,0,0,5.1-5.1V501.9A5.1,5.1,0,0,1,429.815,507Z" transform="translate(-375.375 -464.558)" fill="#e27444"/>
      <path id="XMLID_44_" d="M429.815,370.2H414.5a5.119,5.119,0,0,0-5.1,5.1v1.928a5.119,5.119,0,0,1,5.1-5.1h15.311a5.119,5.119,0,0,1,5.1,5.1V375.3a5.1,5.1,0,0,0-5.1-5.1Z" transform="translate(-375.375 -370.2)" fill="#ffb797"/>
      <path id="XMLID_4_" d="M429.815,415H414.5a5.119,5.119,0,0,1-5.1-5.1V375.3a5.119,5.119,0,0,1,5.1-5.1h15.311a5.119,5.119,0,0,1,5.1,5.1v34.6A5.1,5.1,0,0,1,429.815,415Z" transform="translate(-375.375 -370.2)" fill="none" stroke="#474747" stroke-linecap="round" stroke-linejoin="round" stroke-width="1"/>
      <circle id="XMLID_35_" cx="6.578" cy="6.578" r="6.578" transform="translate(41.056 24.328)" fill="#474747" stroke="#474747" stroke-linecap="round" stroke-linejoin="round" stroke-width="6" opacity="0.3"/>
      <g id="XMLID_11_" transform="translate(37.427 3.402)" opacity="0.46">
        <path id="Path_116" data-name="Path 116" d="M423.1,420.194a1.706,1.706,0,0,1-1.7-1.7V383.9a1.706,1.706,0,0,1,1.7-1.7h15.311a1.706,1.706,0,0,1,1.7,1.7v34.592a1.706,1.706,0,0,1-1.7,1.7Z" transform="translate(-421.4 -382.2)" fill="none" stroke="#474747" stroke-linecap="round" stroke-linejoin="round" stroke-width="1" stroke-dasharray="9.839 11.807"/>
      </g>
      <circle id="XMLID_21_" cx="6.578" cy="6.578" r="6.578" transform="translate(40.206 22.626)" fill="#8f6d5d"/>
      <circle id="XMLID_6_" cx="6.578" cy="6.578" r="6.578" transform="translate(40.206 22.626)" fill="none" stroke="#474747" stroke-linecap="round" stroke-linejoin="round" stroke-width="6"/>
      <g id="XMLID_37_" transform="translate(42.788 24.252)" opacity="0.6">
        <path id="Path_117" data-name="Path 117" d="M447.082,457.313c.227,1.077-1.049,1.758-2.92,2.155-1.9.369-3.6.425-3.828-.482-.227-.879,1.049-2.552,2.92-3.091C445.154,455.356,446.856,456.264,447.082,457.313Z" transform="translate(-440.308 -455.735)" fill="#fffcee"/>
      </g>
    </g>
    <g id="XMLID_65_" transform="translate(201.595 151.025)">
      <path id="XMLID_41_" d="M732.918,734.729H713.07a2.081,2.081,0,0,1-2.07-2.07V731.27a2.081,2.081,0,0,1,2.07-2.07h19.848a2.081,2.081,0,0,1,2.07,2.07v1.389a2.063,2.063,0,0,1-2.07,2.07Z" transform="translate(-711 -729.2)" fill="#fdb740"/>
      <path id="XMLID_72_" d="M732.918,731.3H713.07a2.081,2.081,0,0,0-2.07,2.07v.794a2.081,2.081,0,0,1,2.07-2.07h19.848a2.081,2.081,0,0,1,2.07,2.07v-.794a2.081,2.081,0,0,0-2.07-2.07Z" transform="translate(-711 -730.704)" fill="#fff3c0" opacity="0.88"/>
      <path id="XMLID_70_" d="M732.918,739.264H713.07a2.081,2.081,0,0,1-2.07-2.07V736.4a2.081,2.081,0,0,0,2.07,2.07h19.848a2.081,2.081,0,0,0,2.07-2.07v.794a2.063,2.063,0,0,1-2.07,2.07Z" transform="translate(-711 -734.358)" fill="#f29e25"/>
      <path id="XMLID_39_" d="M732.918,734.729H713.07a2.081,2.081,0,0,1-2.07-2.07V731.27a2.081,2.081,0,0,1,2.07-2.07h19.848a2.081,2.081,0,0,1,2.07,2.07v1.389a2.063,2.063,0,0,1-2.07,2.07Z" transform="translate(-711 -729.2)" fill="none" stroke="#474747" stroke-linecap="round" stroke-linejoin="round" stroke-width="1"/>
    </g>
    <g id="XMLID_73_" transform="translate(204.913 145.524)">
      <path id="XMLID_90_" d="M744.617,715.329H724.77a2.081,2.081,0,0,1-2.07-2.07V711.87a2.081,2.081,0,0,1,2.07-2.07h19.848a2.081,2.081,0,0,1,2.07,2.07v1.389a2.081,2.081,0,0,1-2.071,2.07Z" transform="translate(-722.7 -709.8)" fill="#fdb740"/>
      <path id="XMLID_89_" d="M744.617,711.9H724.77a2.081,2.081,0,0,0-2.07,2.07v.794a2.081,2.081,0,0,1,2.07-2.07h19.848a2.081,2.081,0,0,1,2.07,2.07v-.794A2.1,2.1,0,0,0,744.617,711.9Z" transform="translate(-722.7 -711.305)" fill="#fff3c0" opacity="0.88"/>
      <path id="XMLID_88_" d="M744.617,719.864H724.77a2.081,2.081,0,0,1-2.07-2.07V717a2.081,2.081,0,0,0,2.07,2.07h19.848a2.081,2.081,0,0,0,2.07-2.07v.794a2.081,2.081,0,0,1-2.071,2.07Z" transform="translate(-722.7 -714.958)" fill="#f29e25"/>
      <path id="XMLID_74_" d="M744.617,715.329H724.77a2.081,2.081,0,0,1-2.07-2.07V711.87a2.081,2.081,0,0,1,2.07-2.07h19.848a2.081,2.081,0,0,1,2.07,2.07v1.389a2.081,2.081,0,0,1-2.071,2.07Z" transform="translate(-722.7 -709.8)" fill="none" stroke="#474747" stroke-linecap="round" stroke-linejoin="round" stroke-width="1"/>
    </g>
    <g id="XMLID_47_" transform="translate(201.595 140.023)">
      <path id="XMLID_56_" d="M732.918,695.929H713.07a2.081,2.081,0,0,1-2.07-2.07V692.47a2.081,2.081,0,0,1,2.07-2.07h19.848a2.081,2.081,0,0,1,2.07,2.07v1.389a2.063,2.063,0,0,1-2.07,2.07Z" transform="translate(-711 -690.4)" fill="#fdb740"/>
      <path id="XMLID_53_" d="M732.918,692.6H713.07a2.081,2.081,0,0,0-2.07,2.07v.794a2.081,2.081,0,0,1,2.07-2.07h19.848a2.081,2.081,0,0,1,2.07,2.07v-.794a2.063,2.063,0,0,0-2.07-2.07Z" transform="translate(-711 -691.976)" fill="#fff3c0" opacity="0.88"/>
      <path id="XMLID_50_" d="M732.918,700.564H713.07a2.081,2.081,0,0,1-2.07-2.07V697.7a2.081,2.081,0,0,0,2.07,2.07h19.848a2.081,2.081,0,0,0,2.07-2.07v.794A2.081,2.081,0,0,1,732.918,700.564Z" transform="translate(-711 -695.63)" fill="#f29e25"/>
      <path id="XMLID_49_" d="M732.918,695.929H713.07a2.081,2.081,0,0,1-2.07-2.07V692.47a2.081,2.081,0,0,1,2.07-2.07h19.848a2.081,2.081,0,0,1,2.07,2.07v1.389a2.063,2.063,0,0,1-2.07,2.07Z" transform="translate(-711 -690.4)" fill="none" stroke="#474747" stroke-linecap="round" stroke-linejoin="round" stroke-width="1"/>
    </g>
    <g id="XMLID_58_" transform="translate(182.941 136.992)">
      <path id="XMLID_67_" d="M663.324,684.129l-13.553,14.489a2.062,2.062,0,0,1-2.92.085l-.992-.936a2.062,2.062,0,0,1-.085-2.92l13.553-14.489a2.062,2.062,0,0,1,2.92-.085l.992.936a2.116,2.116,0,0,1,.085,2.92Z" transform="translate(-645.208 -679.708)" fill="#fdb740"/>
      <path id="XMLID_66_" d="M660.754,681.758,647.2,696.247a2.09,2.09,0,0,0,.085,2.92l.6.539a2.062,2.062,0,0,1-.085-2.92L661.349,682.3a2.062,2.062,0,0,1,2.92-.085l-.6-.539a2.062,2.062,0,0,0-2.915.082Z" transform="translate(-646.239 -680.711)" fill="#fff3c0" opacity="0.88"/>
      <path id="XMLID_61_" d="M664.369,685.059l-13.553,14.489a2.062,2.062,0,0,1-2.921.085l-.6-.539a2.09,2.09,0,0,0,2.92-.085l13.553-14.489a2.09,2.09,0,0,0-.085-2.92l.6.539A2.117,2.117,0,0,1,664.369,685.059Z" transform="translate(-646.707 -681.064)" fill="#f29e25"/>
      <path id="XMLID_60_" d="M663.324,684.129l-13.553,14.489a2.062,2.062,0,0,1-2.92.085l-.992-.936a2.062,2.062,0,0,1-.085-2.92l13.553-14.489a2.062,2.062,0,0,1,2.92-.085l.992.936a2.116,2.116,0,0,1,.085,2.92Z" transform="translate(-645.208 -679.708)" fill="none" stroke="#474747" stroke-linecap="round" stroke-linejoin="round" stroke-width="1"/>
    </g>
  </g>
</svg>
