<svg xmlns="http://www.w3.org/2000/svg" width="20.659" height="32.463" viewBox="0 0 20.659 32.463">
  <g id="_547568d10387385aa577aedf486ad124" data-name="547568d10387385aa577aedf486ad124" transform="translate(20.659) rotate(90)">
    <path id="Path_17894" data-name="Path 17894" d="M9.591,8.854a.738.738,0,0,0,.738-.738v-5.9a.738.738,0,1,1,1.476,0V18.445a.738.738,0,1,1-1.476,0V13.28a.738.738,0,1,0-1.476,0v5.078a2.272,2.272,0,0,0,1.772,2.258,2.217,2.217,0,0,0,2.655-2.171v-.136a2.04,2.04,0,0,0,1.945-.264,2.326,2.326,0,0,0,1.006-1.931V16.1a2,2,0,0,0,1.632-.082,2.465,2.465,0,0,0,1.319-2.226V11.8a.738.738,0,0,0,.738-.738V9.591a.738.738,0,0,0-.738-.738V6.87a2.466,2.466,0,0,0-1.319-2.227,2,2,0,0,0-1.632-.081V4.544a2.326,2.326,0,0,0-1.006-1.931,2.04,2.04,0,0,0-1.945-.264V2.3A2.272,2.272,0,0,0,11.508.043,2.217,2.217,0,0,0,8.854,2.213V7.38c-.19,0-.4,0-.646,0H.738A.738.738,0,0,0,0,8.116H0a.734.734,0,0,0,.733.738H9.591ZM16.969,5.9a.739.739,0,0,1,.738.738v7.378a.738.738,0,1,1-1.476,0V6.64A.739.739,0,0,1,16.969,5.9ZM14.018,3.689a.739.739,0,0,1,.738.738v11.8a.738.738,0,1,1-1.476,0V4.427A.739.739,0,0,1,14.018,3.689Z" transform="translate(12.542)" fill="#f5654b"/>
    <path id="Path_17895" data-name="Path 17895" d="M.738,11.8v2.213a2.216,2.216,0,0,0,2.213,2.213,2.189,2.189,0,0,0,.738-.136v.136A2.216,2.216,0,0,0,5.9,18.445a2.188,2.188,0,0,0,.738-.136v.136a2.213,2.213,0,1,0,4.427,0V14.018h8.116a.738.738,0,0,0,0-1.476H10.329a.738.738,0,0,0-.738.738v5.165a.738.738,0,1,1-1.476,0V2.213a.738.738,0,1,1,1.476,0v5.9a.738.738,0,1,0,1.476,0v-5.9a2.213,2.213,0,1,0-4.427,0v.136A2.188,2.188,0,0,0,5.9,2.213,2.216,2.216,0,0,0,3.689,4.427v.136a2.189,2.189,0,0,0-.738-.136A2.216,2.216,0,0,0,.738,6.64V8.854A.738.738,0,0,0,0,9.591v1.476A.738.738,0,0,0,.738,11.8ZM5.165,4.427a.738.738,0,1,1,1.476,0v11.8a.738.738,0,1,1-1.476,0V4.427ZM2.213,6.64a.738.738,0,1,1,1.476,0v7.378a.738.738,0,1,1-1.476,0Z" transform="translate(0 0)" fill="#f5654b"/>
  </g>
</svg>
