<svg xmlns="http://www.w3.org/2000/svg" width="37.214" height="28.6" viewBox="0 0 37.214 28.6">
  <path id="d6378b516d597ae21dc81e084b8484c2" d="M9.23,29.208a.871.871,0,0,1-.578-.22L1.6,22.724a.871.871,0,0,1-.279-.8l.637-3.7A1.74,1.74,0,0,1,4.69,17.109c.027.02.053.041.079.064L9.75,21.729l7.023-2.751L7.287,10.45a.87.87,0,0,1,.264-1.457l3.9-1.526a.871.871,0,0,1,.762.062l13.415,7.982,6.153-2.41a3.983,3.983,0,1,1,2.906,7.417L9.513,29.162A.863.863,0,0,1,9.23,29.208ZM3.118,21.744,9.429,27.35l24.653-8.464a2.243,2.243,0,0,0-1.671-4.163l-6.549,2.565a.869.869,0,0,1-.762-.062L11.686,9.243,9.5,10.1l9.485,8.528a.87.87,0,0,1-.264,1.457L9.879,23.549a.871.871,0,0,1-.905-.168l-5.3-4.851Zm31.7,12.522L0,34.244v1.741l34.813.023Z" transform="translate(0 -7.407)" fill="#989898"/>
</svg>
