<svg xmlns="http://www.w3.org/2000/svg" width="90" height="73.695" viewBox="0 0 90 73.695">
  <g id="Group_35729" data-name="Group 35729" transform="translate(4118 -8349)">
    <g id="Group_35728" data-name="Group 35728" transform="translate(-4123 8335.847)">
      <circle id="Ellipse_207" data-name="Ellipse 207" cx="8.33" cy="8.33" r="8.33" transform="translate(41.676 70.188)" fill="#67bec5"/>
      <path id="Path_37800" data-name="Path 37800" d="M50.006,48.9a29.408,29.408,0,0,0-18.9,6.866,3.451,3.451,0,0,0-.2,5.036h0a3.49,3.49,0,0,0,4.746.2A22.531,22.531,0,0,1,64.356,61,3.489,3.489,0,0,0,69.1,60.8a3.452,3.452,0,0,0-.2-5.037A29.417,29.417,0,0,0,50.006,48.9Z" fill="#67bec5"/>
      <path id="Path_37801" data-name="Path 37801" d="M50.006,31.9A46.412,46.412,0,0,0,19.238,43.531a3.489,3.489,0,0,0-.2,5.043,3.431,3.431,0,0,0,4.732.209,39.569,39.569,0,0,1,52.461-.007,3.434,3.434,0,0,0,4.733-.21,3.489,3.489,0,0,0-.2-5.043A46.406,46.406,0,0,0,50.006,31.9Z" fill="#67bec5"/>
      <path id="Path_37802" data-name="Path 37802" d="M93.828,30.067a65.223,65.223,0,0,0-87.656.013,3.5,3.5,0,0,0-.2,5.034,3.441,3.441,0,0,0,4.776.181,58.285,58.285,0,0,1,78.5-.011,3.441,3.441,0,0,0,4.777-.183A3.5,3.5,0,0,0,93.828,30.067Z" fill="#67bec5"/>
    </g>
  </g>
</svg>
