<svg id="noun-help-2057866" xmlns="http://www.w3.org/2000/svg" width="24.434" height="24.434" viewBox="0 0 24.434 24.434">
  <g id="Group_36100" data-name="Group 36100">
    <path id="Path_38691" data-name="Path 38691" d="M9.946,10.009a.953.953,0,1,1-1.906,0,4.168,4.168,0,1,1,5.122,4.056v.413a.955.955,0,1,1-1.911,0V13.22a.954.954,0,0,1,.955-.95,2.261,2.261,0,1,0-2.261-2.261Zm2.165,8.578a.953.953,0,1,1,0-1.906h.211a.953.953,0,1,1,0,1.906Zm.106,3.936A10.309,10.309,0,1,0,4.925,19.5,10.258,10.258,0,0,0,12.217,22.524Zm8.636-1.671a12.209,12.209,0,1,1,3.581-8.636A12.168,12.168,0,0,1,20.853,20.853Z" fill="#3a266b" fill-rule="evenodd"/>
  </g>
</svg>
