<svg id="_58af46e52f0ca78aea1b132e4d156ae2" data-name="58af46e52f0ca78aea1b132e4d156ae2" xmlns="http://www.w3.org/2000/svg" width="41" height="41" viewBox="0 0 41 41">
  <path id="Path_54" data-name="Path 54" d="M0,0H41V41H0Z" fill="none"/>
  <path id="Path_55" data-name="Path 55" d="M11.25,20.375A5.125,5.125,0,1,0,6.125,15.25,5.118,5.118,0,0,0,11.25,20.375Zm0-6.833A1.708,1.708,0,1,1,9.542,15.25,1.713,1.713,0,0,1,11.25,13.542Zm20.5-5.125H18.083V22.083H4.417V5H1V30.625H4.417V25.5h30.75v5.125h3.417V15.25A6.831,6.831,0,0,0,31.75,8.417Zm3.417,13.667H21.5V11.833H31.75a3.427,3.427,0,0,1,3.417,3.417Z" transform="translate(0.708 3.542)" fill="#989898"/>
</svg>
