<svg xmlns="http://www.w3.org/2000/svg" width="76" height="76" viewBox="0 0 76 76">
  <g id="Group_36112" data-name="Group 36112" transform="translate(-451 -329)">
    <circle id="Ellipse_27" data-name="Ellipse 27" cx="38" cy="38" r="38" transform="translate(451 329)" fill="#fff"/>
    <g id="_0340e21e03cf34df952ace607a7dab17" data-name="0340e21e03cf34df952ace607a7dab17" transform="translate(463.856 338.856)">
      <path id="Path_38792" data-name="Path 38792" d="M7.716,18.072H9.94L5.724,13.857l1.693-1.678L10.1,18.072h3.143L11.617,4.216l3.7-.436V18.072h1.572V5.5h16.5V18.072h1.572V3.779l3.7.436L37.033,18.072h3.143l2.687-5.893,1.693,1.693-4.208,4.2h2.224l3.658-3.658a.786.786,0,0,0,0-1.112l-2.664-2.664.723-1.6A.786.786,0,0,0,43.9,8L40.011,6.227l.31-2.62a.786.786,0,0,0-.684-.856L34.966,2.2V.786A.786.786,0,0,0,34.18,0H16.108a.786.786,0,0,0-.786.786V2.2l-4.671.554a.786.786,0,0,0-.688.872l.31,2.62L6.388,8.011A.786.786,0,0,0,6,9.052l.723,1.591L4.054,13.307a.786.786,0,0,0,0,1.112Zm32.1-10.2,2.711,1.234L38.671,17.6ZM16.894,1.572h16.5V3.929h-16.5ZM10.466,7.877,11.617,17.6,7.755,9.111ZM47.145,19.644h-44A3.143,3.143,0,0,0,0,22.787V47.145a3.143,3.143,0,0,0,3.143,3.143h44a3.143,3.143,0,0,0,3.143-3.143V22.787A3.143,3.143,0,0,0,47.145,19.644Zm1.572,27.5a1.572,1.572,0,0,1-1.572,1.572h-44a1.572,1.572,0,0,1-1.572-1.572V34.18H48.717Zm0-14.536H1.572v-5.5H48.717Zm0-7.072H1.572v-2.75a1.572,1.572,0,0,1,1.572-1.572h44a1.572,1.572,0,0,1,1.572,1.572Z" transform="translate(0)" fill="#3a266b" stroke="#3a266b" stroke-width="0.5"/>
      <path id="Path_38793" data-name="Path 38793" d="M47.145,103.215a5.107,5.107,0,1,0-5.107-5.107A5.107,5.107,0,0,0,47.145,103.215Zm0-8.643a3.536,3.536,0,1,1-3.536,3.536A3.536,3.536,0,0,1,47.145,94.572ZM11.786,96.929H19.25a.786.786,0,1,0,0-1.572H11.786a.786.786,0,1,0,0,1.572Zm0,3.929H23.179a.786.786,0,1,0,0-1.572H11.786a.786.786,0,1,0,0,1.572Zm14.536,0h3.143a.786.786,0,1,0,0-1.572H26.322a.786.786,0,0,0,0,1.572Z" transform="translate(-6.678 -56.462)" fill="#3a266b" stroke="#3a266b" stroke-width="0.5"/>
      <g id="Group_36147" data-name="Group 36147" transform="translate(22.059 7.835)">
        <path id="Path_38701" data-name="Path 38701" d="M5.746.848H.424A.424.424,0,0,1,.424,0H5.746a.424.424,0,1,1,0,.848Zm0,2.9H.424a.424.424,0,0,1,0-.848H5.746a.424.424,0,1,1,0,.848Z" transform="translate(0 0)" fill="#3a266b" stroke="#3a266b" stroke-width="0.5"/>
        <path id="Path_38702" data-name="Path 38702" d="M4.278,9.859a.44.44,0,0,1-.307-.121L.117,6a.373.373,0,0,1-.108-.353A.4.4,0,0,1,.265,5.37L.293,5.36a.454.454,0,0,1,.159-.029h.938A2.37,2.37,0,0,0,3.847,3.058,2.37,2.37,0,0,0,1.391.785H.452A.409.409,0,0,1,.028.392.409.409,0,0,1,.452,0h.938A3.19,3.19,0,0,1,4.7,3.051,3.187,3.187,0,0,1,1.4,6.116L4.584,9.2a.371.371,0,0,1,.083.425.426.426,0,0,1-.39.238Z" transform="translate(0.016 0)" fill="#3a266b" stroke="#3a266b" stroke-width="0.5"/>
      </g>
    </g>
  </g>
</svg>
