<svg xmlns="http://www.w3.org/2000/svg" width="37.213" height="37.213" viewBox="0 0 37.213 37.213">
  <g id="_00a4efd1008c5bc5d14b8188bf59642f" data-name="00a4efd1008c5bc5d14b8188bf59642f" transform="translate(-1 -1)">
    <path id="Path_59" data-name="Path 59" d="M23.539,12.27A8.27,8.27,0,1,0,7,12.27V39.441H23.539Z" transform="translate(-4.228 -2.114)" fill="none"/>
    <path id="Path_60" data-name="Path 60" d="M62.113,43.936l-3.456-7.62L49.207,31l-9.451,5.316L36.3,43.936h2.57V58.467H59.544V43.936Z" transform="translate(-24.874 -21.14)" fill="none"/>
    <path id="Path_61" data-name="Path 61" d="M21.927,7.527A9.157,9.157,0,0,0,4,10.156V33.783a.886.886,0,0,0,1.772,0V11.632H17A.886.886,0,0,0,17,9.86H5.772a7.392,7.392,0,0,1,14.472-1.8.866.866,0,0,0,1.093.591A.9.9,0,0,0,21.927,7.527Z" transform="translate(-2.114)" fill="#fff"/>
    <path id="Path_62" data-name="Path 62" d="M59.948,42.726a.9.9,0,0,1-.8-.532L55.813,34.87l-8.772-4.932L38.27,34.87l-3.337,7.325a.892.892,0,0,1-1.624-.738l3.456-7.59a.871.871,0,0,1,.384-.413L46.6,28.136a.883.883,0,0,1,.856,0l9.451,5.316a.871.871,0,0,1,.384.413l3.456,7.59a.9.9,0,0,1-.443,1.181A.63.63,0,0,1,59.948,42.726Z" transform="translate(-22.709 -19.043)" fill="#fff"/>
    <path id="Path_63" data-name="Path 63" d="M37.327,73.788H35.555v-12.7a.886.886,0,1,0-1.772,0v12.7H30.239V64.632a.87.87,0,0,0-.886-.886H24.332a.886.886,0,1,0,0,1.772h2.894l-2.894,2.894-4.4-4.4a.8.8,0,0,0-.62-.266.87.87,0,0,0-.886.886v9.156H14.881V62.86a.886.886,0,0,0-1.772,0V73.788H1.886a.886.886,0,1,0,0,1.772H37.327a.886.886,0,1,0,0-1.772Zm-8.86-7.029v5.759l-2.894-2.894Zm-1.24,7.029H21.438l2.894-2.894ZM20.2,72.548V66.759l2.894,2.894Zm4.135-13.231a2.658,2.658,0,1,1,2.658-2.658A2.647,2.647,0,0,1,24.332,59.316Zm0-3.544a.886.886,0,1,0,.886.886A.87.87,0,0,0,24.332,55.772Z" transform="translate(0 -37.347)" fill="#fff"/>
  </g>
</svg>
