<svg id="_74e9c37682d8f551fbdccb9c32896e6e" data-name="74e9c37682d8f551fbdccb9c32896e6e" xmlns="http://www.w3.org/2000/svg" width="29" height="29" viewBox="0 0 29 29">
  <rect id="Rectangle_34" data-name="Rectangle 34" width="29" height="29" fill="none"/>
  <path id="Path_51" data-name="Path 51" d="M570.181,111.809a12.681,12.681,0,0,0,19.575,0,9.969,9.969,0,1,1-19.575,0Z" transform="translate(-565.469 -97.396)" fill="#3fc1c9" fill-rule="evenodd"/>
  <path id="Path_52" data-name="Path 52" d="M582.17,91.252a9.062,9.062,0,1,1-6.59,0,.906.906,0,0,0-.66-1.688,10.875,10.875,0,1,0,7.91,0,.906.906,0,0,0-.66,1.688Z" transform="translate(-564.375 -83.384)" fill="#364f6b" fill-rule="evenodd"/>
  <path id="Path_53" data-name="Path 53" d="M590,94.462v9.062a.906.906,0,1,0,1.813,0V94.462a.906.906,0,0,0-1.812,0Z" transform="translate(-576.406 -91.743)" fill="#364f6b" fill-rule="evenodd"/>
</svg>
