<svg xmlns="http://www.w3.org/2000/svg" width="35.668" height="35.669" viewBox="0 0 35.668 35.669">
  <g id="Group_36113" data-name="Group 36113" transform="translate(0)">
    <ellipse id="Ellipse_29" data-name="Ellipse 29" cx="16.629" cy="16.629" rx="16.629" ry="16.629" transform="translate(1.205 1.205)" fill="#6c579e"/>
    <path id="Path_38703" data-name="Path 38703" d="M388.456,7.5a16.757,16.757,0,0,0-2.409.174,16.63,16.63,0,0,1,0,32.909A16.629,16.629,0,1,0,388.456,7.5Z" transform="translate(-370.622 -6.295)" fill="#4e3787"/>
    <path id="Path_38704" data-name="Path 38704" d="M307.914,35.669a17.834,17.834,0,1,1,17.834-17.834A17.834,17.834,0,0,1,307.914,35.669Zm0-33.258a15.423,15.423,0,1,0,15.423,15.423A15.423,15.423,0,0,0,307.914,2.411Z" transform="translate(-290.08 0)" fill="#3a266b"/>
    <path id="_2731b26508fdd406f6f2b260272c1be0" data-name="2731b26508fdd406f6f2b260272c1be0" d="M1.6,10.361H8.17v6.574a1.1,1.1,0,1,0,2.191,0V10.361h6.574a1.1,1.1,0,1,0,0-2.191H10.361V1.6a1.1,1.1,0,1,0-2.191,0V8.17H1.6a1.1,1.1,0,1,0,0,2.191Z" transform="translate(8.568 8.569)" fill="#fff"/>
  </g>
</svg>
