<svg xmlns="http://www.w3.org/2000/svg" width="33.615" height="29.82" viewBox="0 0 33.615 29.82">
  <path id="Bookings_White" d="M63,34.075a2.747,2.747,0,0,0-2.733-2.754H53.024V28.233A2.747,2.747,0,0,0,50.291,25.5H42.212a2.747,2.747,0,0,0-2.733,2.733v3.089H32.232A2.744,2.744,0,0,0,29.5,34.075V52.469A2.747,2.747,0,0,0,32.232,55.2l22.573.119a.832.832,0,1,0,0-1.663l-22.573-.114a1.081,1.081,0,0,1-1.069-1.074V34.075a1.081,1.081,0,0,1,1.069-1.091H60.271a1.084,1.084,0,0,1,1.079,1.088l.112,12.81a.832.832,0,0,0,.829.834h0a.832.832,0,0,0,.825-.839Zm-21.86-5.843a1.081,1.081,0,0,1,1.069-1.069h8.079a1.081,1.081,0,0,1,1.069,1.069v3.089H41.143Z" transform="translate(-29.5 -25.5)" fill="#f7f5fc"/>
</svg>
