<svg xmlns="http://www.w3.org/2000/svg" width="32.732" height="36.42" viewBox="0 0 32.732 36.42">
  <g id="Employees_White" transform="translate(-32.92 -29)">
    <path id="Path_38840" data-name="Path 38840" d="M85.608,108.711H79.784a.9.9,0,0,1-.9-.9h0a.9.9,0,0,1,.9-.9h5.338a.322.322,0,0,0,.306-.42l-1.477-4.633a1.544,1.544,0,0,0-1.467-1.071H75.689a1.544,1.544,0,0,0-1.488,1.14l-1.472,5.938a.857.857,0,0,1-.831.659h0a.855.855,0,0,1-.831-1.048l1.392-6A3.346,3.346,0,0,1,75.689,99h6.8a3.346,3.346,0,0,1,3.181,2.316l1.64,5.119a1.742,1.742,0,0,1-.978,2.134,1.771,1.771,0,0,1-.721.142Z" transform="translate(-28.312 -51.983)" fill="#f7f5fc"/>
    <circle id="Ellipse_223" data-name="Ellipse 223" cx="3.73" cy="3.73" r="3.73" transform="translate(46.844 36.755)" fill="#f7f5fc"/>
    <path id="Path_38841" data-name="Path 38841" d="M63.85,41.483V62.074a1.544,1.544,0,0,1-1.544,1.544H39.537a1.544,1.544,0,0,1-1.544-1.544V32.346A1.544,1.544,0,0,1,39.537,30.8H55.719a.9.9,0,0,0,.9-.9h0a.9.9,0,0,0-.9-.9H39.537a3.346,3.346,0,0,0-3.346,3.346V33.89H33.875a.955.955,0,0,0-.955.955h0a.955.955,0,0,0,.955.957h2.316v4.623H33.875a.955.955,0,0,0-.955.957h0a.957.957,0,0,0,.955.957h2.316v4.61H33.875a.955.955,0,0,0-.955.955h0a.955.955,0,0,0,.955.957h2.316v4.61H33.875a.957.957,0,0,0-.955.957h0a.957.957,0,0,0,.955.957h2.316V60H33.875a.955.955,0,0,0-.955.955h0a.955.955,0,0,0,.955.957h2.316v.165a3.346,3.346,0,0,0,3.346,3.346H62.306a3.346,3.346,0,0,0,3.346-3.346V41.483a.9.9,0,0,0-.9-.9h0A.9.9,0,0,0,63.85,41.483Z" fill="#f7f5fc"/>
  </g>
</svg>
