<svg xmlns="http://www.w3.org/2000/svg" width="27.1" height="27.1" viewBox="0 0 27.1 27.1">
  <g id="PrepaidW_White" transform="translate(-38 -39)">
    <path id="Path_38848" data-name="Path 38848" d="M64.328,66.1h-20.2A6.136,6.136,0,0,1,38,59.972v-12.6a.771.771,0,0,1,1.542,0v12.6a4.592,4.592,0,0,0,4.585,4.585h19.43V40.542H47.143a.771.771,0,0,1,0-1.542H64.328a.771.771,0,0,1,.771.771V65.328a.771.771,0,0,1-.771.771Z" fill="#f7f5fc"/>
    <rect id="Rectangle_5164" data-name="Rectangle 5164" width="10.355" height="6.169" rx="1.99" transform="translate(51.77 51.669)" fill="#f7f5fc"/>
  </g>
</svg>
