<svg xmlns="http://www.w3.org/2000/svg" width="16.875" height="30.001" viewBox="0 0 16.875 30.001">
  <g id="Group_36146" data-name="Group 36146" transform="translate(-1346 -488)">
    <g id="Group_36145" data-name="Group 36145" transform="translate(1346 488)">
      <path id="Path_38727" data-name="Path 38727" d="M22.532,31.967,22,32.52a.467.467,0,0,0,.014.661.454.454,0,0,0,.323.131.462.462,0,0,0,.338-.145l.53-.553a.467.467,0,0,0-.675-.647Z" transform="translate(-18.182 -16.905)" fill="#989898"/>
      <path id="Path_38728" data-name="Path 38728" d="M31.192,9.141c0-1.111,0-1.744-.042-2.1h.033a6.6,6.6,0,0,0-1.369-4.674,2.739,2.739,0,0,0-.286-.333A6.81,6.81,0,0,0,23.209.174,6.988,6.988,0,0,0,18.273,4.4a1.962,1.962,0,0,0,.211,1.8,1.9,1.9,0,0,0,1.617.83,1.983,1.983,0,0,0,1.87-1.369,2.8,2.8,0,0,1,1.861-1.8,3.3,3.3,0,0,1,3,.722.889.889,0,0,1,.267.361,3.4,3.4,0,0,1-.117,3.216.647.647,0,0,1-.061.084c-.431.553-2.2,2.452-5.11,5.494a.467.467,0,0,0,.675.647c2.977-3.108,4.72-4.983,5.194-5.6a1.415,1.415,0,0,0,.1-.141,4.358,4.358,0,0,0,.188-4.059,1.807,1.807,0,0,0-.553-.741,4.208,4.208,0,0,0-3.853-.886,3.753,3.753,0,0,0-2.484,2.4,1.045,1.045,0,0,1-1.017.731.972.972,0,0,1-.811-.427,1,1,0,0,1-.108-.938,6.127,6.127,0,0,1,4.27-3.647A5.915,5.915,0,0,1,28.881,2.71a2.326,2.326,0,0,1,.178.206,5.616,5.616,0,0,1,1.181,4.106V7.06c.009.22.023,2.991.023,18.722a.469.469,0,1,0,.938,0c0-2.92,0-7.608,0-11.564C31.2,12.235,31.192,10.44,31.192,9.141Z" transform="translate(-16.201 0)" fill="#989898"/>
      <path id="Path_38729" data-name="Path 38729" d="M30.657,46.359a.47.47,0,0,0-.469.469v.938a.47.47,0,0,1-.469.469H18.938V37.579a.993.993,0,0,1,.281-.7.467.467,0,0,0-.67-.652A1.94,1.94,0,0,0,18,37.579V48.234a.94.94,0,0,0,.938.938H29.719a1.41,1.41,0,0,0,1.406-1.406v-.938A.47.47,0,0,0,30.657,46.359Z" transform="translate(-16.125 -19.171)" fill="#989898"/>
      <path id="Path_38730" data-name="Path 38730" d="M27.755,47.506a3.748,3.748,0,1,0-2.649-1.1A3.741,3.741,0,0,0,27.755,47.506Zm1.988-1.763a2.814,2.814,0,0,1-3.614.3l3.909-3.909A2.8,2.8,0,0,1,29.743,45.743Zm-3.975-3.975a2.79,2.79,0,0,1,3.609-.3l-3.909,3.909A2.807,2.807,0,0,1,25.768,41.768Z" transform="translate(-19.318 -21.255)" fill="#989898"/>
      <path id="Path_38731" data-name="Path 38731" d="M22.469,56a.47.47,0,0,0-.469.469v.938a.47.47,0,0,0,.469.469h.938a.469.469,0,1,0,0-.938h-.469v-.469A.47.47,0,0,0,22.469,56Z" transform="translate(-18.25 -29.749)" fill="#989898"/>
      <path id="Path_38732" data-name="Path 38732" d="M40.469,32.813a.47.47,0,0,0,.469-.469V30.469a.469.469,0,1,0-.938,0v1.875A.47.47,0,0,0,40.469,32.813Z" transform="translate(-27.812 -15.937)" fill="#989898"/>
      <path id="Path_38733" data-name="Path 38733" d="M40,39.406a.469.469,0,1,0,.938,0v-.938a.469.469,0,1,0-.938,0Z" transform="translate(-27.812 -20.187)" fill="#989898"/>
      <path id="Path_38734" data-name="Path 38734" d="M14.469,41a.47.47,0,0,0-.469.469v1.875a.469.469,0,0,0,.938,0V41.469A.47.47,0,0,0,14.469,41Z" transform="translate(-14 -21.781)" fill="#989898"/>
      <path id="Path_38735" data-name="Path 38735" d="M14.469,49a.47.47,0,0,0-.469.469v.938a.469.469,0,0,0,.938,0v-.938A.47.47,0,0,0,14.469,49Z" transform="translate(-14 -26.031)" fill="#989898"/>
      <path id="Path_38736" data-name="Path 38736" d="M48.469,14a.47.47,0,0,0-.469.469v1.875a.469.469,0,1,0,.938,0V14.469A.47.47,0,0,0,48.469,14Z" transform="translate(-32.062 -7.438)" fill="#989898"/>
      <path id="Path_38737" data-name="Path 38737" d="M48.469,22a.47.47,0,0,0-.469.469v.938a.469.469,0,1,0,.938,0v-.938A.47.47,0,0,0,48.469,22Z" transform="translate(-32.062 -11.687)" fill="#989898"/>
      <path id="Path_38738" data-name="Path 38738" d="M48.469,57a.47.47,0,0,0-.469.469v1.875a.469.469,0,1,0,.938,0V57.469A.47.47,0,0,0,48.469,57Z" transform="translate(-32.062 -30.281)" fill="#989898"/>
    </g>
  </g>
</svg>
