<svg xmlns="http://www.w3.org/2000/svg" width="14.596" height="21.333" viewBox="0 0 14.596 21.333">
  <g id="Group_35949" data-name="Group 35949" transform="translate(1279.789 -970)">
    <g id="Group_35948" data-name="Group 35948" transform="translate(-1279.789 970)">
      <path id="Path_38467" data-name="Path 38467" d="M42.524,54.084A2.326,2.326,0,0,0,40.2,56.413a2.3,2.3,0,0,0,1.3,2.082v3.412h2.037V58.5a2.3,2.3,0,0,0,1.3-2.082A2.326,2.326,0,0,0,42.524,54.084Z" transform="translate(-35.226 -42.449)" fill="none"/>
      <path id="Path_38468" data-name="Path 38468" d="M31.5,37.527H21.52a2.306,2.306,0,0,0-2.309,2.309v9A2.306,2.306,0,0,0,21.52,51.15H31.5a2.306,2.306,0,0,0,2.309-2.309v-9A2.306,2.306,0,0,0,31.5,37.527Zm-3.97,8.336v3.412H25.491V45.863a2.3,2.3,0,0,1-1.3-2.082,2.322,2.322,0,1,1,4.645,0A2.3,2.3,0,0,1,27.528,45.863Z" transform="translate(-19.211 -29.817)" fill="#fff"/>
      <path id="Path_38469" data-name="Path 38469" d="M27.122,11.758a1.3,1.3,0,0,0,1.3-1.3V9.886A2.291,2.291,0,0,1,30.71,7.6H32.4A2.291,2.291,0,0,1,34.69,9.886v.574a1.3,1.3,0,0,0,2.595,0V9.886A4.886,4.886,0,0,0,32.4,5H30.71a4.886,4.886,0,0,0-4.886,4.886v.574A1.3,1.3,0,0,0,27.122,11.758Z" transform="translate(-24.256 -5)" fill="#fff"/>
    </g>
  </g>
</svg>
