<svg xmlns="http://www.w3.org/2000/svg" width="15.7" height="19.625" viewBox="0 0 15.7 19.625">
  <path id="_64b49fc362248a006bdc4ad3d2b02a09" data-name="64b49fc362248a006bdc4ad3d2b02a09" d="M11.96,2A7.851,7.851,0,0,0,4,9.741c0,5.346,7.226,11.509,7.534,11.768a.489.489,0,0,0,.632,0c.308-.26,7.534-6.422,7.534-11.768A7.851,7.851,0,0,0,11.96,2Zm-.11,18.48c-1.389-1.248-6.869-6.444-6.869-10.74a6.87,6.87,0,0,1,13.738,0C18.719,14.033,13.239,19.232,11.85,20.481Zm0-13.575A2.944,2.944,0,1,0,14.794,9.85,2.944,2.944,0,0,0,11.85,6.906Zm0,4.906A1.963,1.963,0,1,1,13.813,9.85,1.963,1.963,0,0,1,11.85,11.813Z" transform="translate(-4 -2)" fill="#989898"/>
</svg>
