<svg id="_590e913120aba7fda6a45dfa8d18c5e4" data-name="590e913120aba7fda6a45dfa8d18c5e4" xmlns="http://www.w3.org/2000/svg" width="30.099" height="32.463" viewBox="0 0 30.099 32.463">
  <path id="Path_17896" data-name="Path 17896" d="M57.779,47.11a4.749,4.749,0,0,1,.978-.568l-.238.1a4.8,4.8,0,0,1,1.21-.334l-.264.036a4.913,4.913,0,0,1,1.246,0l-.264-.036a4.8,4.8,0,0,1,1.21.334l-.238-.1a4.744,4.744,0,0,1,.744.4c.225.149.433.321.668.456a5.436,5.436,0,0,0,1.748.671,5.76,5.76,0,0,0,3.834-.572,7.272,7.272,0,0,0,.737-.486A4.684,4.684,0,0,1,70,46.538l-.238.1a4.8,4.8,0,0,1,1.21-.334l-.264.036a4.913,4.913,0,0,1,1.246,0L71.69,46.3a4.8,4.8,0,0,1,1.21.334l-.238-.1a4.744,4.744,0,0,1,.744.4c.225.149.433.321.668.456a5.437,5.437,0,0,0,1.748.671,5.761,5.761,0,0,0,3.834-.572,7.272,7.272,0,0,0,.737-.486,4.684,4.684,0,0,1,.853-.476l-.238.1a4.8,4.8,0,0,1,1.21-.334l-.264.036a4.913,4.913,0,0,1,1.246,0l-.264-.036a4.8,4.8,0,0,1,1.21.334l-.238-.1a4.9,4.9,0,0,1,.978.568.979.979,0,0,0,.763.1.992.992,0,0,0,.691-1.22,1.157,1.157,0,0,0-.456-.592,5.674,5.674,0,0,0-6.217-.278c-.225.136-.426.3-.644.443a4.9,4.9,0,0,1-.744.4l.238-.1a4.8,4.8,0,0,1-1.21.334l.264-.036a4.913,4.913,0,0,1-1.246,0l.264.036a4.8,4.8,0,0,1-1.21-.334l.238.1a4.744,4.744,0,0,1-.744-.4c-.225-.149-.433-.321-.668-.456a5.437,5.437,0,0,0-1.748-.671A5.76,5.76,0,0,0,68.623,45a7.272,7.272,0,0,0-.737.486,4.683,4.683,0,0,1-.853.476l.238-.1a4.8,4.8,0,0,1-1.21.334l.264-.036a4.913,4.913,0,0,1-1.246,0l.264.036a4.8,4.8,0,0,1-1.21-.334l.238.1a7.809,7.809,0,0,1-1.213-.737,5.626,5.626,0,0,0-4.723-.668,5.535,5.535,0,0,0-1.669.836,1.1,1.1,0,0,0-.456.592A.992.992,0,0,0,57,47.206a.973.973,0,0,0,.777-.1Zm13.273-21.1a5.115,5.115,0,0,0-2.945-4.6,5.268,5.268,0,0,0-2.994-.4,4.787,4.787,0,0,0-2.125.9A5.089,5.089,0,0,0,61.4,23.786a5.251,5.251,0,0,0-.516,2.228c0,.7,0,1.4,0,2.105V41.386a.992.992,0,0,0,1.983,0v-11.9c0-1.157-.007-2.31,0-3.467a4.475,4.475,0,0,1,.036-.555c-.013.089-.023.175-.036.264a4.27,4.27,0,0,1,.281-1.028l-.1.238a4.15,4.15,0,0,1,.364-.674c.036-.053.076-.106.112-.162.076-.109-.076.093-.076.1,0-.02.053-.066.069-.086.083-.1.172-.195.264-.288s.178-.169.271-.248c.026-.023.056-.046.086-.069.086-.073-.192.139-.1.076.053-.036.106-.076.159-.112a4.221,4.221,0,0,1,.691-.373l-.238.1a4.123,4.123,0,0,1,1.028-.281l-.264.036a4.406,4.406,0,0,1,1.084,0l-.264-.036a4.192,4.192,0,0,1,1.054.288l-.238-.1a4.271,4.271,0,0,1,.674.364c.056.036.112.079.165.116.083.059.053.04-.079-.063.026.02.053.043.079.063.089.076.178.155.261.241s.165.172.241.261c.023.026.043.053.063.079-.1-.136-.122-.162-.063-.079.04.056.079.109.116.165a4.27,4.27,0,0,1,.364.674l-.1-.238a4.3,4.3,0,0,1,.288,1.054c-.013-.089-.023-.175-.036-.264a4.856,4.856,0,0,1,.036.535.993.993,0,0,0,1.986,0Zm13.435,0a5.115,5.115,0,0,0-2.945-4.6,5.267,5.267,0,0,0-2.994-.4,4.787,4.787,0,0,0-2.125.9,5.089,5.089,0,0,0-1.586,1.884,5.251,5.251,0,0,0-.516,2.228c0,.7,0,1.411,0,2.115V41.386a.992.992,0,0,0,1.983,0V29.491c0-1.16-.007-2.32,0-3.48a4.476,4.476,0,0,1,.036-.555c-.013.089-.023.175-.036.264a4.269,4.269,0,0,1,.281-1.028l-.1.238a4.15,4.15,0,0,1,.364-.674c.036-.053.076-.106.112-.162.076-.109-.076.093-.076.1,0-.02.053-.066.069-.086.083-.1.172-.195.264-.288s.178-.169.271-.248c.026-.023.056-.046.086-.069.086-.073-.192.139-.1.076.053-.036.106-.076.159-.112a4.222,4.222,0,0,1,.691-.373l-.238.1a4.123,4.123,0,0,1,1.028-.281l-.264.036a4.407,4.407,0,0,1,1.084,0l-.264-.036a4.192,4.192,0,0,1,1.054.288l-.238-.1a4.271,4.271,0,0,1,.674.364c.056.036.112.079.165.116.083.059.053.04-.079-.063.026.02.053.043.079.063.089.076.178.155.261.241s.165.172.241.261c.023.026.043.053.063.079-.1-.136-.122-.162-.063-.079.04.056.079.109.116.165a4.271,4.271,0,0,1,.364.674l-.1-.238a4.3,4.3,0,0,1,.288,1.054c-.013-.089-.023-.175-.036-.264A4.858,4.858,0,0,1,82.5,26a.993.993,0,0,0,1.986.007Z" transform="translate(-56.277 -20.938)" fill="#f5654b"/>
  <path id="Path_17897" data-name="Path 17897" d="M74.321,295.663v7.027l.992-.992H63.533c-.545,0-1.091-.017-1.636,0h-.023l.992.992v-7.027l-.992.991H73.653c.545,0,1.091.01,1.636,0h.023a.992.992,0,1,0,0-1.983H63.533c-.545,0-1.091-.01-1.636,0h-.023a1,1,0,0,0-.992.992v7.027a1,1,0,0,0,.992.992H73.653c.545,0,1.091.01,1.636,0h.023a1,1,0,0,0,.992-.992v-7.027a.992.992,0,1,0-1.983,0ZM57.779,317.013a4.751,4.751,0,0,1,.978-.568l-.238.1a4.8,4.8,0,0,1,1.21-.334l-.264.036a4.915,4.915,0,0,1,1.246,0l-.264-.036a4.8,4.8,0,0,1,1.21.334l-.238-.1a4.744,4.744,0,0,1,.744.4c.225.149.433.321.668.456a5.436,5.436,0,0,0,1.748.671,5.761,5.761,0,0,0,3.834-.572,7.282,7.282,0,0,0,.737-.486,4.683,4.683,0,0,1,.853-.476l-.238.1a4.8,4.8,0,0,1,1.21-.334l-.264.036a4.915,4.915,0,0,1,1.246,0l-.264-.036a4.8,4.8,0,0,1,1.21.334l-.238-.1a4.745,4.745,0,0,1,.744.4c.225.149.433.321.668.456a5.437,5.437,0,0,0,1.748.671,5.761,5.761,0,0,0,3.834-.572,7.281,7.281,0,0,0,.737-.486,4.685,4.685,0,0,1,.853-.476l-.238.1a4.8,4.8,0,0,1,1.21-.334l-.264.036a4.912,4.912,0,0,1,1.246,0l-.264-.036a4.8,4.8,0,0,1,1.21.334l-.238-.1a4.9,4.9,0,0,1,.978.568.979.979,0,0,0,.763.1.992.992,0,0,0,.691-1.22,1.157,1.157,0,0,0-.456-.592,5.674,5.674,0,0,0-6.217-.278c-.225.136-.426.3-.644.443a4.9,4.9,0,0,1-.744.4l.238-.1a4.8,4.8,0,0,1-1.21.334l.264-.036a4.915,4.915,0,0,1-1.246,0l.264.036a4.8,4.8,0,0,1-1.21-.334l.238.1a4.744,4.744,0,0,1-.744-.4c-.225-.149-.433-.321-.668-.456a5.436,5.436,0,0,0-1.748-.671,5.761,5.761,0,0,0-3.834.572,7.281,7.281,0,0,0-.737.486,4.682,4.682,0,0,1-.853.476l.238-.1a4.8,4.8,0,0,1-1.21.334l.264-.036a4.915,4.915,0,0,1-1.246,0l.264.036a4.8,4.8,0,0,1-1.21-.334l.238.1a7.808,7.808,0,0,1-1.213-.737,5.626,5.626,0,0,0-4.723-.668,5.536,5.536,0,0,0-1.669.836,1.1,1.1,0,0,0-.456.592.992.992,0,0,0,.691,1.22.973.973,0,0,0,.777-.1Z" transform="translate(-56.277 -285.62)" fill="#f5654b"/>
</svg>
