<svg xmlns="http://www.w3.org/2000/svg" width="25.243" height="25.243" viewBox="0 0 25.243 25.243">
  <g id="_0a69f9e1c3151873312481307a88b974" data-name="0a69f9e1c3151873312481307a88b974" transform="translate(0)">
    <circle id="Ellipse_409" data-name="Ellipse 409" cx="12.621" cy="12.621" r="12.621" transform="translate(0)" fill="#39246f"/>
    <path id="Path_39142" data-name="Path 39142" d="M17.626,24.2a1.418,1.418,0,0,0,1.955,0L30.963,12.863a1.391,1.391,0,0,0,0-1.972,1.417,1.417,0,0,0-1.955,0l-9.959,9.918a.653.653,0,0,1-.89,0l-3.794-3.778a1.385,1.385,0,0,0-1.955,0,1.391,1.391,0,0,0,0,1.972Z" transform="translate(-6.423 -5.804)" fill="#67bec5"/>
    <path id="Path_39144" data-name="Path 39144" d="M12.794,19.266a.294.294,0,0,1-.294-.294,1.1,1.1,0,0,1,1.094-1.1.294.294,0,0,1,0,.587.5.5,0,0,0-.356.147.511.511,0,0,0-.151.362A.294.294,0,0,1,12.794,19.266Zm7.726,2.362a.295.295,0,0,1-.207-.5l8.26-8.226a.294.294,0,1,1,.414.416l-8.26,8.226A.294.294,0,0,1,20.52,21.628Z" transform="translate(-6.63 -6.759)" fill="#fff"/>
  </g>
</svg>
