<svg xmlns="http://www.w3.org/2000/svg" width="99.452" height="125.866" viewBox="0 0 99.452 125.866">
  <g id="Single_Point_Booking" data-name="Single Point Booking" transform="translate(-63.34 -31.695)">
    <path id="Path_38685" data-name="Path 38685" d="M212.646,83.966a21.051,21.051,0,0,1-2.335,9.565L186.653,139.14,161.715,93.652a20.766,20.766,0,0,1-2.565-9.984v-.389a26.779,26.779,0,0,1,8.666-19.733A26.507,26.507,0,0,1,185.867,56.5c.816,0,1.632.042,2.448.117A26.261,26.261,0,0,1,205.6,65.438,28.035,28.035,0,0,1,212.646,83.966Z" transform="translate(-55.72 -14.426)" fill="#c9e7ec"/>
    <path id="Path_38686" data-name="Path 38686" d="M100.522,143.635,66.964,82.486a29.424,29.424,0,0,1-3.624-14.13v-.469A36.286,36.286,0,0,1,75.073,41.208a35.876,35.876,0,0,1,27.683-9.356c18.465,1.619,32.926,17.8,32.926,36.822a29.508,29.508,0,0,1-3.3,13.528ZM99.48,37.576a29.989,29.989,0,0,0-20.44,7.95A30.378,30.378,0,0,0,69.2,67.879v.469a23.574,23.574,0,0,0,2.9,11.3l28.273,51.513,26.8-51.634a23.6,23.6,0,0,0,2.64-10.825h0c0-16.022-12.109-29.629-27.57-30.985Q100.856,37.58,99.48,37.576Z" transform="translate(0 0)" fill="#76c7cb"/>
    <path id="Path_38687" data-name="Path 38687" d="M165.3,143.631,131.734,82.486a29.424,29.424,0,0,1-3.624-14.13v-.469a36.278,36.278,0,0,1,11.741-26.679,35.876,35.876,0,0,1,27.683-9.356c18.465,1.619,32.926,17.8,32.926,36.822a29.512,29.512,0,0,1-3.3,13.528ZM164.258,37.576a29.989,29.989,0,0,0-20.44,7.95,30.378,30.378,0,0,0-9.841,22.353v.469a23.574,23.574,0,0,0,2.9,11.3l28.273,51.517,26.8-51.638a23.6,23.6,0,0,0,2.644-10.842h0c0-16.022-12.114-29.629-27.57-31Q165.631,37.58,164.258,37.576Z" transform="translate(-37.668 0)" fill="#76c7cb"/>
    <circle id="Ellipse_220" data-name="Ellipse 220" cx="10.611" cy="10.611" r="10.611" transform="translate(102.777 55.949)" fill="#352c55"/>
    <path id="Path_38688" data-name="Path 38688" d="M135.134,293.552c-17.482,0-36.064-5.62-36.064-16.03,0-4.632,3.87-8.787,10.879-11.716l2.255,5.419c-4.49,1.87-7.281,4.285-7.281,6.3,0,4.142,11.766,10.164,30.2,10.164s30.194-6.021,30.194-10.164c0-2.126-3.029-4.636-7.908-6.557l2.151-5.44c7.494,2.929,11.624,7.218,11.624,12.017C171.195,287.933,152.6,293.552,135.134,293.552Z" transform="translate(-20.779 -135.991)" fill="#362d56"/>
  </g>
</svg>
