<svg xmlns="http://www.w3.org/2000/svg" width="19.133" height="18.267" viewBox="0 0 19.133 18.267">
  <path id="_6c8a01acce8d142c65301ac8f47dc0e1" data-name="6c8a01acce8d142c65301ac8f47dc0e1" d="M9.478.41l2.15,4.32a.738.738,0,0,0,.554.406l4.812.7a.741.741,0,0,1,.49.284.714.714,0,0,1-.078.957L13.92,10.448a.705.705,0,0,0-.21.646l.84,4.758a.73.73,0,0,1-.6.828.8.8,0,0,1-.479-.074L9.175,14.362a.723.723,0,0,0-.689,0L4.17,16.622a.753.753,0,0,1-1-.306.735.735,0,0,1-.076-.463l.84-4.758a.73.73,0,0,0-.21-.646L.215,7.071a.729.729,0,0,1,0-1.034.844.844,0,0,1,.42-.207l4.812-.7A.755.755,0,0,0,6,4.729L8.151.41A.727.727,0,0,1,8.575.038a.74.74,0,0,1,.566.04A.758.758,0,0,1,9.478.41Z" transform="translate(0.75 0.754)" fill="none" stroke="#200e32" stroke-linecap="round" stroke-linejoin="round" stroke-width="1.5" fill-rule="evenodd"/>
</svg>
