<svg xmlns="http://www.w3.org/2000/svg" width="37.746" height="37.748" viewBox="0 0 37.746 37.748">
  <g id="d1c84353c1e380581fcb3b178555fce7" transform="translate(-6.004 -6.003)">
    <path id="Path_74" data-name="Path 74" d="M17.8,11.711a10.512,10.512,0,0,0-3.691,2.4,10.634,10.634,0,0,0-2.889,9.629.787.787,0,0,0,.77.631.8.8,0,0,0,.156-.015.787.787,0,0,0,.616-.926,9.061,9.061,0,0,1,2.457-8.205,8.94,8.94,0,0,1,3.138-2.041.787.787,0,0,0-.558-1.471Zm3.724-.7a1.787,1.787,0,0,0-.282.019.8.8,0,0,0-.657.909.769.769,0,0,0,.894.645h.045a.786.786,0,1,0,0-1.573Z" transform="translate(-1.068 -1.069)" fill="#fff"/>
    <path id="Path_75" data-name="Path 75" d="M33.441,27.352a14.516,14.516,0,1,0-6.08,6.088l6.528,6.528,6.08-6.087ZM11.379,29.743a12.989,12.989,0,1,1,18.365,0A13,13,0,0,1,11.379,29.743ZM42.493,36.4l-1.416-1.416L35,41.076l1.416,1.416a4.3,4.3,0,1,0,6.08-6.087Z" fill="#fff"/>
  </g>
</svg>
