<svg xmlns="http://www.w3.org/2000/svg" width="24.716" height="24.716" viewBox="0 0 24.716 24.716">
  <g id="Group_36268" data-name="Group 36268" transform="translate(0 0)">
    <path id="Rectangle_4880" data-name="Rectangle 4880" d="M10,0h4.716a10,10,0,0,1,10,10v4.716a10,10,0,0,1-10,10H0a0,0,0,0,1,0,0V10A10,10,0,0,1,10,0Z" transform="translate(0 0)" fill="#3a266b"/>
    <path id="XMLID_75_" d="M9.241,13.562a14.086,14.086,0,0,1-5.41-1.106.594.594,0,0,1-.251-.486V6.206A.6.6,0,0,1,3.8,5.749,20.277,20.277,0,0,1,5.954,4.3,5.552,5.552,0,0,0,8.445,1.887C8.711,1.091,9.094,0,10.3,0a1.393,1.393,0,0,1,1.3.884c.5,1.15-.029,2.742-.914,3.995.59.133,1.327.324,1.769.457A1.992,1.992,0,0,1,13.914,6.9a2.22,2.22,0,0,1-1.047,2.064c-.575,1.548-1.563,3.995-2.285,4.393a3.189,3.189,0,0,1-1.341.206ZM4.76,11.616a14.2,14.2,0,0,0,5.218.708,18.432,18.432,0,0,0,1.813-3.951.628.628,0,0,1,.221-.295c.486-.324.737-.708.693-1.032a.851.851,0,0,0-.634-.6c-.737-.236-2.565-.634-2.594-.634a.6.6,0,0,1-.442-.4.55.55,0,0,1,.133-.575c1.327-1.43,1.563-2.889,1.312-3.479-.059-.177-.133-.177-.177-.177-.295,0-.427.206-.737,1.091A6.633,6.633,0,0,1,6.529,5.336,15.333,15.333,0,0,0,4.76,6.5v5.115Zm-2.329.413v-5.9a.956.956,0,0,0-.958-.958A.969.969,0,0,0,.5,6.132v5.882a.956.956,0,0,0,.958.958.966.966,0,0,0,.973-.943Z" transform="translate(5.142 5.577)" fill="#fff"/>
  </g>
</svg>
