<svg xmlns="http://www.w3.org/2000/svg" width="65.799" height="65.799" viewBox="0 0 65.799 65.799">
  <g id="Submark_Violet" transform="translate(-13.92 -12.87)">
    <rect id="Rectangle_5" data-name="Rectangle 5" width="65.799" height="65.799" rx="17.81" transform="translate(13.92 12.87)" fill="#39246f"/>
    <path id="Path_11" data-name="Path 11" d="M53.794,66.368v5.646a.644.644,0,0,1-.528.644c-.921.174-1.8.3-2.64.386a22.936,22.936,0,0,1-2.807.174q-5.389,0-7.6-2.4c-1.461-1.61-2.183-4.79-2.183-9.567V48.141A.644.644,0,0,0,37.4,47.5h-3.9a.644.644,0,0,1-.644-.644v-5.26a.644.644,0,0,1,.644-.644h3.9a.644.644,0,0,0,.644-.644V34.827a.367.367,0,0,1,.264-.348l8.479-2.64a.361.361,0,0,1,.476.348v8.119a.644.644,0,0,0,.644.644h3.444a.277.277,0,0,1,.193.47l-8.6,8.479a.277.277,0,0,0,.2.47h3.863a.277.277,0,0,1,.277.277V60.708c0,2.337.245,3.863.766,4.578a3.218,3.218,0,0,0,2.775,1.088,7.885,7.885,0,0,0,1.288-.109c.367-.064.8-.148,1.288-.258h.084A.373.373,0,0,1,53.794,66.368Z" transform="translate(-6.742 -6.75)" fill="#72cdce"/>
    <path id="Path_12" data-name="Path 12" d="M85.117,45.129v8.466a3.09,3.09,0,0,1-.373-.052,9.838,9.838,0,0,0-1.848-.309,5.945,5.945,0,0,0-5.048,2.105q-1.593,2.1-1.6,6.754v14.57a.644.644,0,0,1-.644.644h-7.99a.644.644,0,0,1-.644-.644V55.3a.27.27,0,0,1,.27-.27h4.732a.277.277,0,0,0,.187-.476L63.5,46.184a.286.286,0,0,1,.187-.541H74.152l.238.039a1.436,1.436,0,0,1,.818.94,2.741,2.741,0,0,0,.045.592c.077,1.127.161,2.524.161,2.955v.959a9.464,9.464,0,0,1,3.219-4.507A7.951,7.951,0,0,1,83.52,45a14.028,14.028,0,0,1,1.442.084A.367.367,0,0,0,85.117,45.129Z" transform="translate(-17.592 -11.444)" fill="#72cdce"/>
  </g>
</svg>
