<svg xmlns="http://www.w3.org/2000/svg" width="180.71" height="52.26" viewBox="0 0 180.71 52.26">
  <g id="Group_35691" data-name="Group 35691" transform="translate(-609.29 -62.257)">
    <path id="Path_37724" data-name="Path 37724" d="M125.663,135.384v10.65a2.94,2.94,0,0,1-.466-.072,12.958,12.958,0,0,0-2.319-.382c-2.893,0-5.02.9-6.359,2.653s-2.008,4.59-2.008,8.5v18.718a.418.418,0,0,1-.418.418H103.252a.418.418,0,0,1-.418-.418V144.695a.406.406,0,0,0-.418-.418H92.1a.418.418,0,0,0-.418.418V160.95c0,2.94.311,4.853.968,5.761a3.98,3.98,0,0,0,3.49,1.375,10.268,10.268,0,0,0,1.578-.143c.478-.084,1.028-.191,1.661-.335a.43.43,0,0,1,.526.406v7.494a.418.418,0,0,1-.347.406c-1.279.251-2.486.43-3.586.55a28.422,28.422,0,0,1-3.586.215q-6.777,0-9.562-3.012c-1.853-2.008-2.761-6.1-2.761-12.1V144.695a.418.418,0,0,0-.418-.418H73.968a.418.418,0,0,1-.418-.418v-7.387a.418.418,0,0,1,.418-.418h5.7a.418.418,0,0,0,.418-.418V128.3a.418.418,0,0,1,.3-.406l10.757-3.347a.418.418,0,0,1,.538.406v10.686a.418.418,0,0,0,.418.418h20.63a.406.406,0,0,1,.418.382c0,.562.12,1.53.131,1.685.12,1.578.179,2.785.179,3.586v1.2a11.953,11.953,0,0,1,4.052-5.654,10.028,10.028,0,0,1,6.156-2.068,17.135,17.135,0,0,1,1.8.108Z" transform="translate(535.74 -62.269)" fill="#67bec5"/>
    <path id="Path_37725" data-name="Path 37725" d="M148.918,151.761l-6.825,1.47a.418.418,0,0,1-.442-.633l6.825-10.686V141.8a11.283,11.283,0,0,0-2.462-4.566q-3.586-3.789-12.682-3.789a33.945,33.945,0,0,0-6.622.681,51.012,51.012,0,0,0-6.813,1.948.442.442,0,0,0-.287.43l.538,7.769a.418.418,0,0,0,.669.3,17.356,17.356,0,0,1,4.351-2.271,16.35,16.35,0,0,1,5.391-.932h.586s6.885-.418,7.638,4.638l.382,2.391a.418.418,0,0,1-.406.49h-4.41c-6.12,0-10.757,1.2-14.032,3.586a11.881,11.881,0,0,0-4.913,10.315,12.443,12.443,0,0,0,3.179,8.857,10.913,10.913,0,0,0,8.367,3.383,13.937,13.937,0,0,0,6.5-1.518,14.8,14.8,0,0,0,4.781-3.849l3.394-4.076a.418.418,0,0,1,.729.179l1.458,6.586.323,1.482a.406.406,0,0,0,.406.335h9.144a.43.43,0,0,0,.406-.514l-4.626-21.515a.418.418,0,0,0-.55-.382Zm-10.7,5.976c0,3.155-.538,5.474-1.637,6.968a5.833,5.833,0,0,1-5.032,2.235,5.128,5.128,0,0,1-3.837-1.422,5.259,5.259,0,0,1-1.387-3.885,5.5,5.5,0,0,1,2.14-4.673,10.375,10.375,0,0,1,6.3-1.614h1.972l1.1.084a.406.406,0,0,1,.382.418Z" transform="translate(543.908 -60.526)" fill="#67bec5"/>
    <path id="Path_37726" data-name="Path 37726" d="M192.4,134.505l-5.307,27.216a.418.418,0,0,1-.825,0l-5.223-27.216a.406.406,0,0,0-.406-.335H168.255a.406.406,0,0,0-.406.335l-5.474,27.168a.418.418,0,0,1-.825,0l-5.092-27.168a.406.406,0,0,0-.406-.335H145.067a.406.406,0,0,0-.394.514l1.4,5.5.108.371,11.271,7.171a.418.418,0,0,1-.143.765L150.481,150a.418.418,0,0,0-.311.5l4.96,23.128a.418.418,0,0,0,.406.335h11.857a.43.43,0,0,0,.406-.335l5.952-27.706a.418.418,0,0,1,.813,0l5.761,27.79a.418.418,0,0,0,.406.335h12.024a.418.418,0,0,0,.406-.311l10.47-39.037a.418.418,0,0,0-.394-.526H192.877a.43.43,0,0,0-.478.335Z" transform="translate(549.624 -60.386)" fill="#39246f"/>
    <path id="Path_37727" data-name="Path 37727" d="M226.019,138.877q-4.781-5.367-13.638-5.367c-5.881,0-10.411,1.8-13.59,5.379s-4.781,8.713-4.781,15.371,1.59,11.725,4.781,15.335,7.721,5.426,13.566,5.426,10.423-1.8,13.6-5.414,4.781-8.713,4.781-15.347S229.174,142.462,226.019,138.877Zm-9.12,24.55a4.924,4.924,0,0,1-4.518,3.179c-1.924,0-3.418-1.064-4.482-3.215a20.976,20.976,0,0,1-1.59-9.132,21.108,21.108,0,0,1,1.59-9.168c1.064-2.151,2.558-3.215,4.482-3.215a4.889,4.889,0,0,1,4.518,3.167,21.514,21.514,0,0,1,1.566,9.215,21.264,21.264,0,0,1-1.566,9.132Z" transform="translate(559.26 -60.514)" fill="#39246f"/>
  </g>
</svg>
