<svg xmlns="http://www.w3.org/2000/svg" width="79.615" height="21.5" viewBox="0 0 79.615 21.5">
  <g id="b2f8f208b4147c4175ff758979f8c445" transform="translate(-94.545 -85.3)">
    <path id="Path_38706" data-name="Path 38706" d="M174.451,106.7h-4.265l5.926-21.4h4.265ZM172.236,85.97a1.568,1.568,0,0,0-1.37-.612H147.433l-1.156,4.2h21.315l-1.244,4.479H149.3v-.01h-4.265L141.5,106.8h4.265l2.371-8.569H167.3a2.7,2.7,0,0,0,1.69-.612,2.846,2.846,0,0,0,1.04-1.516l2.371-8.569A1.738,1.738,0,0,0,172.236,85.97ZM139.01,105.362a1.965,1.965,0,0,1-1.885,1.438H115.139a1.537,1.537,0,0,1-1.341-.612,1.682,1.682,0,0,1-.185-1.516l5.363-19.314h4.265l-4.79,17.254h17.06l4.79-17.254h4.265l-5.557,20Z" transform="translate(-18.974)" fill="#70706e"/>
    <path id="Path_38707" data-name="Path 38707" d="M822.246,85.7l5.392,10.726L816.3,107.151Z" transform="translate(-653.478 -0.361)" fill="#098041"/>
    <path id="Path_38708" data-name="Path 38708" d="M783.155,85.7l5.392,10.726L777.2,107.151Z" transform="translate(-618.176 -0.361)" fill="#e97626"/>
  </g>
</svg>
