<svg xmlns="http://www.w3.org/2000/svg" width="22.345" height="17.516" viewBox="0 0 22.345 17.516">
  <path id="_8baaacf50071f580d4b9cadc489157f0" data-name="8baaacf50071f580d4b9cadc489157f0" d="M11.978,11.972A4.78,4.78,0,0,0,13.63,8.358a4.858,4.858,0,0,0-9.715,0,4.78,4.78,0,0,0,1.652,3.614A7.772,7.772,0,0,0,1,19.044a.972.972,0,0,0,1.943,0,5.829,5.829,0,0,1,11.658,0,.972.972,0,1,0,1.943,0,7.772,7.772,0,0,0-4.566-7.073Zm-3.206-.7a2.915,2.915,0,1,1,2.915-2.915A2.915,2.915,0,0,1,8.772,11.272Zm9.463.311A4.858,4.858,0,0,0,14.6,3.5a.972.972,0,0,0,0,1.943,2.91,2.91,0,0,1,1.457,5.431.97.97,0,0,0-.049,1.652l.379.253.126.068a6.8,6.8,0,0,1,3.886,6.2.972.972,0,0,0,1.943,0A8.744,8.744,0,0,0,18.235,11.583Z" transform="translate(-0.5 -3)" fill="#3a266b" stroke="#3a266b" stroke-width="1"/>
</svg>
