<svg xmlns="http://www.w3.org/2000/svg" width="63" height="19.1" viewBox="0 0 63 19.1">
  <g id="_36fbcff9ef1c5eeb5742671c8af0e2df" data-name="36fbcff9ef1c5eeb5742671c8af0e2df" transform="translate(-0.5 -22.4)">
    <path id="Path_38769" data-name="Path 38769" d="M23.6,41l3.2-18h5L28.7,41Z" fill="#3c58bf"/>
    <path id="Path_38770" data-name="Path 38770" d="M23.6,41l4.1-18h4.1L28.7,41Z" fill="#293688"/>
    <path id="Path_38771" data-name="Path 38771" d="M46.8,23.2a12.684,12.684,0,0,0-4.6-.8c-5,0-8.6,2.5-8.6,6.1,0,2.7,2.5,4.1,4.5,5s2.6,1.5,2.6,2.3c0,1.2-1.6,1.8-3,1.8a10.869,10.869,0,0,1-4.8-1l-.7-.3-.7,4.1a16.214,16.214,0,0,0,5.7,1c5.3,0,8.8-2.5,8.8-6.3,0-2.1-1.3-3.7-4.3-5-1.8-.9-2.9-1.4-2.9-2.3,0-.8.9-1.6,2.9-1.6a9.172,9.172,0,0,1,3.8.7l.5.2.8-3.9Z" fill="#3c58bf"/>
    <path id="Path_38772" data-name="Path 38772" d="M46.8,23.2a12.684,12.684,0,0,0-4.6-.8c-5,0-7.7,2.5-7.7,6.1,0,2.7,1.6,4.1,3.6,5s2.6,1.5,2.6,2.3c0,1.2-1.6,1.8-3,1.8a10.869,10.869,0,0,1-4.8-1l-.7-.3-.7,4.1a16.214,16.214,0,0,0,5.7,1c5.3,0,8.8-2.5,8.8-6.3,0-2.1-1.3-3.7-4.3-5-1.8-.9-2.9-1.4-2.9-2.3,0-.8.9-1.6,2.9-1.6a9.172,9.172,0,0,1,3.8.7l.5.2.8-3.9Z" fill="#293688"/>
    <path id="Path_38773" data-name="Path 38773" d="M55.4,23c-1.2,0-2.1.1-2.6,1.3L45.3,41h5.4l1-3h6.4l.6,3h4.8L59.3,23H55.4ZM53.1,35c.3-.9,2-5.3,2-5.3s.4-1.1.7-1.8l.3,1.7s1,4.5,1.2,5.5H53.1Z" fill="#3c58bf"/>
    <path id="Path_38774" data-name="Path 38774" d="M56.6,23c-1.2,0-2.1.1-2.6,1.3L45.3,41h5.4l1-3h6.4l.6,3h4.8L59.3,23ZM53.1,35c.4-1,2-5.3,2-5.3s.4-1.1.7-1.8l.3,1.7s1,4.5,1.2,5.5H53.1Z" fill="#293688"/>
    <path id="Path_38775" data-name="Path 38775" d="M14.4,35.6,13.9,33a14.5,14.5,0,0,0-7-7.9l4.5,16h5.4l8.1-18H19.5Z" fill="#3c58bf"/>
    <path id="Path_38776" data-name="Path 38776" d="M14.4,35.6,13.9,33a14.5,14.5,0,0,0-7-7.9l4.5,16h5.4l8.1-18H20.5Z" fill="#293688"/>
    <path id="Path_38777" data-name="Path 38777" d="M.5,23l.9.2c6.4,1.5,10.8,5.3,12.5,9.8l-1.8-8.5c-.3-1.2-1.2-1.5-2.3-1.5Z" fill="#ffbc00"/>
    <path id="Path_38778" data-name="Path 38778" d="M.5,23c6.4,1.5,11.7,5.4,13.4,9.9l-1.7-7.1a2.441,2.441,0,0,0-2.4-1.9Z" fill="#f7981d"/>
    <path id="Path_38779" data-name="Path 38779" d="M.5,23c6.4,1.5,11.7,5.4,13.4,9.9L12.7,29c-.3-1.2-.7-2.4-2.1-2.9Z" fill="#ed7c00"/>
    <path id="Path_38780" data-name="Path 38780" d="M19.4,35,16,31.6l-1.6,3.8L14,32.9A14.5,14.5,0,0,0,7,25l4.5,16h5.4Zm9.3,6-4.3-4.4L23.6,41h5.1Zm11.5-6.2c.4.4.6.7.5,1.1,0,1.2-1.6,1.8-3,1.8a10.869,10.869,0,0,1-4.8-1l-.7-.3-.7,4.1a16.214,16.214,0,0,0,5.7,1c3.2,0,5.8-.9,7.3-2.5l-4.3-4.2ZM46,41h4.7l1-3h6.4l.6,3h4.8l-1.7-7.3-6-5.8.3,1.6s1,4.5,1.2,5.5H53.1c.4-1,2-5.3,2-5.3s.4-1.1.7-1.8" fill="#051244"/>
  </g>
</svg>
