<svg xmlns="http://www.w3.org/2000/svg" width="89" height="89" viewBox="0 0 89 89">
  <g id="Group_36150" data-name="Group 36150" transform="translate(-1378.5 -288.5)">
    <circle id="Ellipse_35" data-name="Ellipse 35" cx="44.5" cy="44.5" r="44.5" transform="translate(1378.5 288.5)" fill="#6bcece"/>
    <g id="Layer_2" data-name="Layer 2" transform="translate(1400.25 310.25)">
      <path id="Path_38788" data-name="Path 38788" d="M18,37.345H33.345v1.534H18Zm0-3.836h5.371v1.534H18Zm0-3.836h3.836v1.534H18Zm0-3.836h3.836v1.534H18ZM18,22h3.836v1.534H18Z" transform="translate(-6.491 -7.422)" fill="#fff" stroke="#fff" stroke-width="1"/>
      <path id="Path_38789" data-name="Path 38789" d="M43.664,9.138h-8.44v-2.3A3.836,3.836,0,0,0,31.388,3H6.836A3.836,3.836,0,0,0,3,6.836v7.672a.767.767,0,0,0,.767.767H9.138V43.664A3.836,3.836,0,0,0,12.974,47.5H37.526a3.836,3.836,0,0,0,3.836-3.836v-4.6a.767.767,0,0,0-1.228-.614L36.5,41.17l-1.274-.959V29.086h8.44A3.836,3.836,0,0,0,47.5,25.25V12.974A3.836,3.836,0,0,0,43.664,9.138Zm2.3,3.836v2.3H21.414v-2.3a2.3,2.3,0,0,1,2.3-2.3H43.664a2.3,2.3,0,0,1,2.3,2.3Zm0,6.138H21.414v-2.3H45.966ZM4.534,13.741V6.836a2.3,2.3,0,0,1,4.6,0v6.905Zm32.424,29,2.869-2.148v3.069a2.3,2.3,0,0,1-2.3,2.3H16.043a3.836,3.836,0,0,0,.767-2.3V40.595l2.862,2.148a.767.767,0,0,0,.921,0l3.629-2.724,3.629,2.724a.767.767,0,0,0,.921,0l3.637-2.724,3.629,2.724A.767.767,0,0,0,36.958,42.743ZM33.69,39.06l-.829-.621a.767.767,0,0,0-.913,0L28.319,41.17l-3.637-2.724a.767.767,0,0,0-.921,0L20.132,41.17,16.5,38.447a.767.767,0,0,0-1.228.614v4.6a2.3,2.3,0,1,1-4.6,0V6.836a4.051,4.051,0,0,0-.767-2.3H31.388a2.3,2.3,0,0,1,2.3,2.3v2.3H23.716a3.836,3.836,0,0,0-3.836,3.836V25.25a3.836,3.836,0,0,0,3.836,3.836H33.69Zm9.974-11.509H23.716a2.3,2.3,0,0,1-2.3-2.3v-4.6H45.966v4.6a2.3,2.3,0,0,1-2.3,2.3Z" transform="translate(-3 -3)" fill="#fff" stroke="#fff" stroke-width="0.5"/>
      <path id="Path_38790" data-name="Path 38790" d="M52.3,28a2.3,2.3,0,1,0,2.3,2.3A2.3,2.3,0,0,0,52.3,28Zm0,3.069a.767.767,0,1,1,.767-.767A.767.767,0,0,1,52.3,31.069Z" transform="translate(-13.94 -8.819)" fill="#fff" stroke="#fff" stroke-width="1"/>
    </g>
  </g>
</svg>
