<svg xmlns="http://www.w3.org/2000/svg" width="15.879" height="15.908" viewBox="0 0 15.879 15.908">
  <path id="Icon_feather-phone-call" data-name="Icon feather-phone-call" d="M12.351,4.339a3.549,3.549,0,0,1,2.8,2.8M12.351,1.5a6.388,6.388,0,0,1,5.643,5.636m-.71,5.664v2.129a1.42,1.42,0,0,1-1.547,1.42,14.046,14.046,0,0,1-6.125-2.179A13.841,13.841,0,0,1,5.353,9.911,14.046,14.046,0,0,1,3.174,3.757,1.42,1.42,0,0,1,4.586,2.21H6.715a1.42,1.42,0,0,1,1.42,1.221,9.113,9.113,0,0,0,.5,1.994,1.42,1.42,0,0,1-.319,1.5l-.9.9a11.356,11.356,0,0,0,4.259,4.259l.9-.9a1.42,1.42,0,0,1,1.5-.319,9.113,9.113,0,0,0,1.994.5A1.42,1.42,0,0,1,17.284,12.8Z" transform="translate(-2.667 -0.948)" fill="none" stroke="#39246f" stroke-linecap="round" stroke-linejoin="round" stroke-width="1"/>
</svg>
