<svg xmlns="http://www.w3.org/2000/svg" width="47.574" height="38.737" viewBox="0 0 47.574 38.737">
  <g id="_5807db021fddcb210af1925ed76637e1" data-name="5807db021fddcb210af1925ed76637e1" transform="translate(0.5 -2.5)">
    <path id="Path_68" data-name="Path 68" d="M43.1,24.305H3.472A3.116,3.116,0,0,1,.5,21.064V16.742A3.116,3.116,0,0,1,3.472,13.5H43.1a3.116,3.116,0,0,1,2.972,3.242v4.322A3.116,3.116,0,0,1,43.1,24.305Z" transform="translate(0 11.61)" fill="none" stroke="#989898" stroke-linecap="round" stroke-linejoin="round" stroke-width="2"/>
    <path id="Path_69" data-name="Path 69" d="M1.5,25.294V6.742A3.1,3.1,0,0,1,4.447,3.5H39.805a3.1,3.1,0,0,1,2.947,3.242V25.3" transform="translate(1.161 0)" fill="none" stroke="#989898" stroke-linecap="round" stroke-linejoin="round" stroke-width="2"/>
    <path id="Path_70" data-name="Path 70" d="M2.5,18.5v4.322H4.661L6.822,18.5" transform="translate(2.322 17.415)" fill="none" stroke="#989898" stroke-linecap="round" stroke-linejoin="round" stroke-width="2"/>
    <path id="Path_71" data-name="Path 71" d="M23.822,18.5v4.322H21.661L19.5,18.5" transform="translate(17.93 17.415)" fill="none" stroke="#989898" stroke-linecap="round" stroke-linejoin="round" stroke-width="2"/>
    <path id="Path_72" data-name="Path 72" d="M3.5,13.661A4.549,4.549,0,0,1,7.152,11.5h7.823a4.549,4.549,0,0,1,3.652,2.161,4.549,4.549,0,0,1-3.652,2.161H7.152A4.549,4.549,0,0,1,3.5,13.661Z" transform="translate(3.483 6.448)" fill="none" stroke="#989898" stroke-linecap="round" stroke-linejoin="round" stroke-width="2"/>
    <path id="Path_73" data-name="Path 73" d="M13.5,13.661A4.549,4.549,0,0,1,17.152,11.5h7.823a4.549,4.549,0,0,1,3.652,2.161,4.549,4.549,0,0,1-3.652,2.161H17.152A4.549,4.549,0,0,1,13.5,13.661Z" transform="translate(10.963 6.448)" fill="none" stroke="#989898" stroke-linecap="round" stroke-linejoin="round" stroke-width="2"/>
  </g>
</svg>
