<svg xmlns="http://www.w3.org/2000/svg" width="22.463" height="33.468" viewBox="0 0 22.463 33.468">
  <g id="Group_36228" data-name="Group 36228" transform="translate(-94.918 -16)">
    <g id="Group_36226" data-name="Group 36226" transform="translate(94.918 16)">
      <g id="Group_36225" data-name="Group 36225" transform="translate(0 0)">
        <g id="Group_36223" data-name="Group 36223">
          <path id="Path_38852" data-name="Path 38852" d="M105.287,43.714a2.384,2.384,0,0,1-2.381-2.381V36.281a2.382,2.382,0,0,1,2.907-2.323h.016l.194,0a6.6,6.6,0,0,0,3.147-.8.7.7,0,0,1,.667,1.225,8,8,0,0,1-3.814.969h0q-.116,0-.233,0l-.076,0-.031,0a.7.7,0,0,1-.147-.022.988.988,0,0,0-1.236.955v5.052a.987.987,0,0,0,1.973,0V37.984a.7.7,0,0,1,.636-.695l.194-.019a.7.7,0,0,1,.564,1.19v2.872A2.384,2.384,0,0,1,105.287,43.714Zm5.235-5.985a.7.7,0,0,1-.3-1.329,9.922,9.922,0,0,0,5.756-8.753q0-.147,0-.293a9.991,9.991,0,0,0-3.2-7.322.7.7,0,0,1,.946-1.025,11.39,11.39,0,0,1,3.648,8.347c0,.11,0,.222,0,.333a11.361,11.361,0,0,1-6.56,9.976A.7.7,0,0,1,110.522,37.729Zm1.539-5.577a.7.7,0,0,1-.576-1.089,6.579,6.579,0,0,0,1.13-3.453c0-.082,0-.164,0-.246a6.6,6.6,0,0,0-10.857-5.045.7.7,0,0,1-.9-1.065,8,8,0,0,1,5.154-1.887q.116,0,.232,0a8.052,8.052,0,0,1,7.766,7.993c0,.1,0,.2-.006.3a7.972,7.972,0,0,1-1.369,4.184A.7.7,0,0,1,112.06,32.152ZM97.3,27.584h-.069a2.369,2.369,0,0,1-2.314-2.378,2.4,2.4,0,0,1,.07-.573A11.366,11.366,0,0,1,106.013,16c.132,0,.267,0,.4.007a11.347,11.347,0,0,1,4.231.969.7.7,0,1,1-.566,1.275,9.961,9.961,0,0,0-3.713-.85c-.117,0-.236-.006-.352-.006a9.938,9.938,0,0,0-9.671,7.571.985.985,0,0,0,.93,1.224H97.3a.993.993,0,0,0,.96-.761,7.965,7.965,0,0,1,.368-1.121.7.7,0,0,1,1.289.533,6.562,6.562,0,0,0-.3.924A2.385,2.385,0,0,1,97.3,27.584Z" transform="translate(-94.918 -16)" fill="#f7f5fc"/>
        </g>
        <g id="Group_36224" data-name="Group 36224" transform="translate(8.129 28.732)">
          <path id="Path_38853" data-name="Path 38853" d="M213.868,432.819a2.368,2.368,0,1,1,2.368-2.368A2.37,2.37,0,0,1,213.868,432.819Zm0-3.341a.973.973,0,1,0,.973.973A.974.974,0,0,0,213.868,429.478Z" transform="translate(-211.5 -428.083)" fill="#f7f5fc"/>
        </g>
      </g>
    </g>
  </g>
</svg>
