<svg xmlns="http://www.w3.org/2000/svg" width="44" height="44" viewBox="0 0 44 44">
  <g id="Group_36126" data-name="Group 36126" transform="translate(-226 -362)">
    <rect id="Rectangle_4761" data-name="Rectangle 4761" width="44" height="44" rx="10" transform="translate(226 362)" fill="#3a266b"/>
    <g id="_58af46e52f0ca78aea1b132e4d156ae2" data-name="58af46e52f0ca78aea1b132e4d156ae2" transform="translate(233.536 369.536)">
      <path id="Path_54" data-name="Path 54" d="M0,0H28.929V28.929H0Z" fill="none"/>
      <path id="Path_55" data-name="Path 55" d="M8.232,15.848a3.616,3.616,0,1,0-3.616-3.616A3.611,3.611,0,0,0,8.232,15.848Zm0-4.821a1.205,1.205,0,1,1-1.205,1.205A1.209,1.209,0,0,1,8.232,11.027ZM22.7,7.411H13.054v9.643H3.411V5H1V23.08H3.411V19.464h21.7V23.08h2.411V12.232A4.82,4.82,0,0,0,22.7,7.411Zm2.411,9.643H15.464V9.821H22.7a2.418,2.418,0,0,1,2.411,2.411Z" transform="translate(0.205 1.027)" fill="#fff"/>
    </g>
  </g>
</svg>
