<svg id="layer1" xmlns="http://www.w3.org/2000/svg" width="28.095" height="32.463" viewBox="0 0 28.095 32.463">
  <path id="path29592-5" d="M23.626,1043.37a.626.626,0,0,0-.363.125l-4.611,3.419a.624.624,0,0,0,.48,1.117l10.114-1.783a.624.624,0,0,0,.068-1.214l-5.5-1.636a.627.627,0,0,0-.185-.027Zm.129,1.314,2.665.792-4.9.863Z" transform="translate(-1.669 -1018.385)" fill="#f5654b" fill-rule="evenodd"/>
  <path id="path29594-2" d="M22.257,1037.71l-1.229.217,1.336,7.584,1.229-.217Z" transform="translate(-1.015 -1019.792)" fill="#f5654b" fill-rule="evenodd"/>
  <path id="rect29596-20" d="M26.5,1025.36a.644.644,0,0,0-.1.012l-11.377,2.007a.624.624,0,0,0-.507.722l.09.514a.624.624,0,0,0,1.241-.115L26,1026.711l1.339,7.6a5.152,5.152,0,0,1-8.029,5.114.624.624,0,1,0-.714,1.022,6.38,6.38,0,0,0,4.542,1.056.62.62,0,0,0,.132.015v-.012c.037-.012.071.012.107,0a6.409,6.409,0,0,0,5.193-7.413l-1.451-8.215a.625.625,0,0,0-.617-.515ZM23.373,1041.5l-.107.012a.621.621,0,0,0,.107-.012Z" transform="translate(-2.638 -1022.863)" fill="#f5654b" fill-rule="evenodd"/>
  <path id="path29670-2" d="M11.091,1045.62a.625.625,0,0,0-.139.025l-5.5,1.636a.624.624,0,0,0,.068,1.215l10.114,1.783a.624.624,0,0,0,.48-1.117l-4.611-3.419a.626.626,0,0,0-.41-.123Zm-.083,1.312,2.233,1.656-4.9-.863Z" transform="translate(-5 -1017.825)" fill="#f5654b" fill-rule="evenodd"/>
  <path id="path29672-0" d="M10.754,1039.96l-1.336,7.584,1.229.217,1.336-7.584Z" transform="translate(-3.901 -1019.233)" fill="#f5654b" fill-rule="evenodd"/>
  <path id="path29674-8" d="M8.8,1027.611a.624.624,0,0,0-.6.515l-1.451,8.215a6.41,6.41,0,0,0,5.193,7.413c.037.012.071-.013.107,0v.012a.62.62,0,0,0,.137-.018,6.383,6.383,0,0,0,7.171-5.184l1.448-8.215a.624.624,0,0,0-.507-.722L8.926,1027.62a.617.617,0,0,0-.124-.013Zm3.253,16.153-.107-.013A.621.621,0,0,0,12.055,1043.763Zm-2.731-14.807,10.15,1.79-1.341,7.6a5.152,5.152,0,0,1-10.148-1.787Z" transform="translate(-4.588 -1022.304)" fill="#f5654b" fill-rule="evenodd"/>
  <path id="path29692-6" d="M15.615,1023.36a.624.624,0,0,0-.614.634v1.232a.624.624,0,1,0,1.248,0v-1.232a.624.624,0,0,0-.634-.634Z" transform="translate(-2.513 -1023.36)" fill="#f5654b" fill-rule="evenodd"/>
  <path id="path29694-1" d="M12.125,1024.36a.624.624,0,0,0-.434,1.071l1.234,1.236a.624.624,0,1,0,.883-.883l-1.234-1.236a.624.624,0,0,0-.449-.188Z" transform="translate(-3.383 -1023.111)" fill="#f5654b" fill-rule="evenodd"/>
  <path id="path22833-8" d="M7.631,1032.12l-.215,1.232,11.377,2,.217-1.229Z" transform="translate(-4.399 -1021.182)" fill="#f5654b" fill-rule="evenodd"/>
  <path id="path22837-1" d="M26.3,1029.92a.644.644,0,0,0-.1.012l-7.161,1.246a.624.624,0,1,0,.215,1.229l7.161-1.243a.624.624,0,0,0-.11-1.241Z" transform="translate(-1.645 -1021.729)" fill="#f5654b" fill-rule="evenodd"/>
</svg>
