<svg xmlns="http://www.w3.org/2000/svg" xmlns:xlink="http://www.w3.org/1999/xlink" width="21.043" height="21.043" viewBox="0 0 21.043 21.043">
  <defs>
    <clipPath id="clip-path">
      <path id="Path_25" data-name="Path 25" d="M0-47.5H21.043v21.043H0Z"/>
    </clipPath>
  </defs>
  <g id="_85bea0006ec1b4e0d722a992bbe3026f" data-name="85bea0006ec1b4e0d722a992bbe3026f" transform="translate(0 47.5)" clip-path="url(#clip-path)">
    <path id="Path_24" data-name="Path 24" d="M21.2-38.328a5.464,5.464,0,0,0-5.464-5.465,5.454,5.454,0,0,0-4.44,2.286,5.453,5.453,0,0,0-4.44-2.286,5.465,5.465,0,0,0-5.465,5.465,5.456,5.456,0,0,0,.147,1.241c.759,4.714,6,9.688,9.757,11.053,3.756-1.366,9-6.34,9.756-11.053a5.4,5.4,0,0,0,.148-1.241" transform="translate(-0.776 -2.065)" fill="#be1931"/>
  </g>
</svg>
