<svg xmlns="http://www.w3.org/2000/svg" width="19.884" height="18.981" viewBox="0 0 19.884 18.981">
  <path id="_6c8a01acce8d142c65301ac8f47dc0e1" data-name="6c8a01acce8d142c65301ac8f47dc0e1" d="M9.882.427l2.241,4.5a.769.769,0,0,0,.578.423l5.017.725a.773.773,0,0,1,.511.3.744.744,0,0,1-.082,1l-3.633,3.52a.735.735,0,0,0-.219.673l.875,4.961a.761.761,0,0,1-.63.863.834.834,0,0,1-.5-.078L9.566,14.975a.754.754,0,0,0-.718,0l-4.5,2.356a.785.785,0,0,1-1.042-.319.767.767,0,0,1-.079-.483L4.1,11.566a.761.761,0,0,0-.219-.673L.224,7.373a.76.76,0,0,1,0-1.079.88.88,0,0,1,.438-.216l5.017-.725a.787.787,0,0,0,.578-.423L8.5.427A.758.758,0,0,1,8.941.04a.772.772,0,0,1,.59.042A.791.791,0,0,1,9.882.427Z" transform="translate(0.75 0.755)" fill="none" stroke="#f8b84e" stroke-linecap="round" stroke-linejoin="round" stroke-width="1.5" fill-rule="evenodd"/>
</svg>
