<svg xmlns="http://www.w3.org/2000/svg" width="21.093" height="23" viewBox="0 0 21.093 23">
  <g id="Group_36165" data-name="Group 36165" transform="translate(-1627.808 -485)">
    <g id="Group_36164" data-name="Group 36164" transform="translate(1627.808 485)">
      <g id="Group_36147" data-name="Group 36147">
        <path id="Path_38739" data-name="Path 38739" d="M31.653,28.7H23.761a.259.259,0,0,1-.261-.261V5.961a.259.259,0,0,1,.261-.261h7.891a.259.259,0,0,1,.261.261V28.439A.266.266,0,0,1,31.653,28.7Zm-7.63-.523h7.369V6.223H24.023Z" transform="translate(-23.5 -5.7)" fill="#989898"/>
      </g>
      <g id="Group_36148" data-name="Group 36148" transform="translate(7.891 5.911)">
        <path id="Path_38740" data-name="Path 38740" d="M187.44,135.889H174.761a.261.261,0,1,1,0-.523h12.417V119.323h-1.766a.261.261,0,1,1,0-.523h2.028a.259.259,0,0,1,.261.261v16.567A.266.266,0,0,1,187.44,135.889Zm-10.651-16.567h-2.028a.261.261,0,1,1,0-.523h2.028a.261.261,0,0,1,0,.523Z" transform="translate(-174.5 -118.8)" fill="#989898"/>
      </g>
      <g id="Group_36149" data-name="Group 36149" transform="translate(10.342 17.34)">
        <path id="Path_38741" data-name="Path 38741" d="M229.438,343.16a.259.259,0,0,1-.261-.261v-4.876h-7.254V342.9a.261.261,0,0,1-.523,0v-5.137a.259.259,0,0,1,.261-.261h7.776a.259.259,0,0,1,.261.261V342.9A.266.266,0,0,1,229.438,343.16Z" transform="translate(-221.4 -337.5)" fill="#989898"/>
      </g>
      <g id="Group_36150" data-name="Group 36150" transform="translate(14.231 17.34)">
        <path id="Path_38742" data-name="Path 38742" d="M296.061,343.16a.259.259,0,0,1-.261-.261v-5.137a.261.261,0,1,1,.523,0V342.9A.266.266,0,0,1,296.061,343.16Z" transform="translate(-295.8 -337.5)" fill="#989898"/>
      </g>
      <g id="Group_36151" data-name="Group 36151" transform="translate(10.342 12.647)">
        <path id="Path_38743" data-name="Path 38743" d="M229.438,250.58h-7.776a.259.259,0,0,1-.261-.261v-2.357a.259.259,0,0,1,.261-.261h7.776a.259.259,0,0,1,.261.261v2.357A.262.262,0,0,1,229.438,250.58Zm-7.515-.523h7.254v-1.834h-7.254Z" transform="translate(-221.4 -247.7)" fill="#989898"/>
      </g>
      <g id="Group_36152" data-name="Group 36152" transform="translate(9.914 1.866)">
        <path id="Path_38744" data-name="Path 38744" d="M217.778,50.556a4.578,4.578,0,1,1,4.578-4.578A4.583,4.583,0,0,1,217.778,50.556Zm0-8.639a4.055,4.055,0,1,0,4.055,4.055A4.059,4.059,0,0,0,217.778,41.917Z" transform="translate(-213.2 -41.4)" fill="#989898"/>
      </g>
      <g id="Group_36153" data-name="Group 36153" transform="translate(1.312 2.42)">
        <path id="Path_38745" data-name="Path 38745" d="M50.805,54.467H48.861a.259.259,0,0,1-.261-.261V52.261A.259.259,0,0,1,48.861,52h1.944a.259.259,0,0,1,.261.261v1.944A.266.266,0,0,1,50.805,54.467Zm-1.683-.523h1.421V52.523H49.123Z" transform="translate(-48.6 -52)" fill="#989898"/>
      </g>
      <g id="Group_36154" data-name="Group 36154" transform="translate(4.63 2.42)">
        <path id="Path_38746" data-name="Path 38746" d="M114.305,54.467h-1.944a.259.259,0,0,1-.261-.261V52.261a.259.259,0,0,1,.261-.261h1.944a.259.259,0,0,1,.261.261v1.944A.262.262,0,0,1,114.305,54.467Zm-1.678-.523h1.422V52.523h-1.422Z" transform="translate(-112.1 -52)" fill="#989898"/>
      </g>
      <g id="Group_36155" data-name="Group 36155" transform="translate(1.312 6.339)">
        <path id="Path_38747" data-name="Path 38747" d="M50.805,129.467H48.861a.259.259,0,0,1-.261-.261v-1.944a.259.259,0,0,1,.261-.261h1.944a.259.259,0,0,1,.261.261v1.944A.262.262,0,0,1,50.805,129.467Zm-1.683-.523h1.421v-1.422H49.123Z" transform="translate(-48.6 -127)" fill="#989898"/>
      </g>
      <g id="Group_36156" data-name="Group 36156" transform="translate(4.63 6.339)">
        <path id="Path_38748" data-name="Path 38748" d="M114.305,129.467h-1.944a.259.259,0,0,1-.261-.261v-1.944a.259.259,0,0,1,.261-.261h1.944a.259.259,0,0,1,.261.261v1.944A.259.259,0,0,1,114.305,129.467Zm-1.678-.523h1.422v-1.422h-1.422Z" transform="translate(-112.1 -127)" fill="#989898"/>
      </g>
      <g id="Group_36157" data-name="Group 36157" transform="translate(1.312 10.264)">
        <path id="Path_38749" data-name="Path 38749" d="M50.805,204.567H48.861a.259.259,0,0,1-.261-.261v-1.944a.259.259,0,0,1,.261-.261h1.944a.259.259,0,0,1,.261.261v1.944A.262.262,0,0,1,50.805,204.567Zm-1.683-.523h1.421v-1.421H49.123Z" transform="translate(-48.6 -202.1)" fill="#989898"/>
      </g>
      <g id="Group_36158" data-name="Group 36158" transform="translate(4.63 10.264)">
        <path id="Path_38750" data-name="Path 38750" d="M114.305,204.567h-1.944a.259.259,0,0,1-.261-.261v-1.944a.259.259,0,0,1,.261-.261h1.944a.259.259,0,0,1,.261.261v1.944A.259.259,0,0,1,114.305,204.567Zm-1.678-.523h1.422v-1.421h-1.422Z" transform="translate(-112.1 -202.1)" fill="#989898"/>
      </g>
      <g id="Group_36159" data-name="Group 36159" transform="translate(1.312 14.189)">
        <path id="Path_38751" data-name="Path 38751" d="M50.805,279.667H48.861a.259.259,0,0,1-.261-.261v-1.944a.259.259,0,0,1,.261-.261h1.944a.259.259,0,0,1,.261.261v1.944A.262.262,0,0,1,50.805,279.667Zm-1.683-.523h1.421v-1.421H49.123Z" transform="translate(-48.6 -277.2)" fill="#989898"/>
      </g>
      <g id="Group_36160" data-name="Group 36160" transform="translate(4.63 14.189)">
        <path id="Path_38752" data-name="Path 38752" d="M114.305,279.667h-1.944a.259.259,0,0,1-.261-.261v-1.944a.259.259,0,0,1,.261-.261h1.944a.259.259,0,0,1,.261.261v1.944A.259.259,0,0,1,114.305,279.667Zm-1.678-.523h1.422v-1.421h-1.422Z" transform="translate(-112.1 -277.2)" fill="#989898"/>
      </g>
      <g id="Group_36161" data-name="Group 36161" transform="translate(1.312 18.114)">
        <path id="Path_38753" data-name="Path 38753" d="M50.805,354.767H48.861a.259.259,0,0,1-.261-.261v-1.944a.259.259,0,0,1,.261-.261h1.944a.259.259,0,0,1,.261.261v1.944A.266.266,0,0,1,50.805,354.767Zm-1.683-.523h1.421v-1.421H49.123Z" transform="translate(-48.6 -352.3)" fill="#989898"/>
      </g>
      <g id="Group_36162" data-name="Group 36162" transform="translate(4.63 18.114)">
        <path id="Path_38754" data-name="Path 38754" d="M114.305,354.767h-1.944a.259.259,0,0,1-.261-.261v-1.944a.259.259,0,0,1,.261-.261h1.944a.259.259,0,0,1,.261.261v1.944A.262.262,0,0,1,114.305,354.767Zm-1.678-.523h1.422v-1.421h-1.422Z" transform="translate(-112.1 -352.3)" fill="#989898"/>
      </g>
      <g id="Group_36163" data-name="Group 36163" transform="translate(11.973 3.92)">
        <path id="Path_38755" data-name="Path 38755" d="M253.75,85.733a.245.245,0,0,1-.183-.078l-.888-.888a.266.266,0,0,1-.078-.183.245.245,0,0,1,.078-.183l1.181-1.181-1.181-1.181a.259.259,0,0,1,0-.371l.888-.888a.259.259,0,0,1,.371,0l1.181,1.181,1.181-1.181a.259.259,0,0,1,.371,0l.888.888a.266.266,0,0,1,.078.183.245.245,0,0,1-.078.183l-1.181,1.181,1.181,1.181a.266.266,0,0,1,.078.183.245.245,0,0,1-.078.183l-.888.888a.259.259,0,0,1-.371,0l-1.181-1.171-1.181,1.181A.284.284,0,0,1,253.75,85.733Zm1.369-1.887h0a.245.245,0,0,1,.183.078l1.181,1.181.517-.517-1.181-1.181a.266.266,0,0,1-.078-.183.245.245,0,0,1,.078-.183L257,81.86l-.517-.517L255.3,82.524a.266.266,0,0,1-.183.078.245.245,0,0,1-.183-.078l-1.181-1.181-.517.517,1.181,1.181a.266.266,0,0,1,.078.183.245.245,0,0,1-.078.183l-1.181,1.181.517.517,1.181-1.181A.237.237,0,0,1,255.119,83.846Z" transform="translate(-252.6 -80.7)" fill="#989898"/>
      </g>
    </g>
  </g>
</svg>
