<svg xmlns="http://www.w3.org/2000/svg" width="23.414" height="31.237" viewBox="0 0 23.414 31.237">
  <g id="Group_36087" data-name="Group 36087" transform="translate(-69.709 -222.157)">
    <g id="_93a650aa1cf6ffbdf09ae3ce8b0b3504" data-name="93a650aa1cf6ffbdf09ae3ce8b0b3504" transform="translate(69.709 222.157)">
      <path id="Path_38827" data-name="Path 38827" d="M3.87,4.762A1.111,1.111,0,0,0,2.646,5.7a1.113,1.113,0,0,0,1.224.93h13.5A1.115,1.115,0,0,0,18.6,5.7a.839.839,0,0,0-.362-.662,1.451,1.451,0,0,0-.872-.272Z" transform="translate(1.131 13.298)" fill="#fff"/>
      <path id="Path_38828" data-name="Path 38828" d="M6.036.533A4.474,4.474,0,0,0,1.574,4.991V30.634a1.117,1.117,0,0,0,1.812.864l4.82-3.86,4.129,3.826a1.117,1.117,0,0,0,1.534-.017l3.969-3.826,5.372,3.927a1.117,1.117,0,0,0,1.778-.9V4.991A4.478,4.478,0,0,0,20.526.529Zm0,2.229H20.53a2.2,2.2,0,0,1,2.229,2.229V28.452l-4.365-3.185a1.117,1.117,0,0,0-1.433.1l-3.881,3.742L9.023,25.35A1.117,1.117,0,0,0,7.566,25.3L3.807,28.313V4.991A2.2,2.2,0,0,1,6.036,2.758Z" transform="translate(-1.574 -0.529)" fill="#fff"/>
      <path id="Path_38829" data-name="Path 38829" d="M3.87,2.117a1.113,1.113,0,0,0-1.224.93,1.111,1.111,0,0,0,1.224.934H9.992a1.111,1.111,0,0,0,1.224-.934,1.113,1.113,0,0,0-1.224-.93Zm0,4.658a1.11,1.11,0,0,0-1.224.937,1.113,1.113,0,0,0,1.224.93h13.5a1.115,1.115,0,0,0,1.234-.93.837.837,0,0,0-.36-.664,1.45,1.45,0,0,0-.874-.273Z" transform="translate(1.131 4.939)" fill="#fff"/>
    </g>
  </g>
</svg>
