<svg id="_2db1cb08a4bf7689af990b7d27cf1d51" data-name="2db1cb08a4bf7689af990b7d27cf1d51" xmlns="http://www.w3.org/2000/svg" width="194" height="194" viewBox="0 0 194 194">
  <rect id="Rectangle_4859" data-name="Rectangle 4859" width="194" height="194" fill="none"/>
  <path id="Path_38798" data-name="Path 38798" d="M662.927,249.934v-6.067a42.461,42.461,0,0,0-42.464-42.461h0A42.461,42.461,0,0,0,578,243.867v6.067" transform="translate(-523.404 -171.072)" fill="#6bcece" fill-rule="evenodd"/>
  <path id="Path_38799" data-name="Path 38799" d="M586.747,320.729H651.9a6.067,6.067,0,0,1,0,12.134H576.067a6.067,6.067,0,0,1-4.953-9.569S588.2,299.221,588.2,272.2V247.934a48.529,48.529,0,0,1,48.53-48.528h0a48.529,48.529,0,0,1,48.53,48.528V272.2c0,27.02,17.086,51.092,17.086,51.092a6.067,6.067,0,0,1-4.953,9.569h-18.2a6.067,6.067,0,0,1,0-12.134h7.519c-5.7-10.626-13.585-28.9-13.585-48.528V247.934a36.4,36.4,0,0,0-36.4-36.4h0a36.4,36.4,0,0,0-36.4,36.4V272.2C600.332,291.83,592.443,310.1,586.747,320.729Z" transform="translate(-539.67 -175.139)" fill="#3a266b" fill-rule="evenodd"/>
  <path id="Path_38800" data-name="Path 38800" d="M621.36,210a18.2,18.2,0,1,1-34.323,0Z" transform="translate(-507.139 -58.344)" fill="#6bcece" fill-rule="evenodd"/>
  <path id="Path_38801" data-name="Path 38801" d="M631.144,301.5a6.064,6.064,0,0,0-5.718-4.043H591.1a6.064,6.064,0,0,0-5.717,4.043,24.265,24.265,0,1,0,45.758,0Zm-35,8.714a12.133,12.133,0,0,0,24.25-.625H596.132ZM602.2,170.066V182.2a6.066,6.066,0,0,0,12.132,0V170.066a6.066,6.066,0,0,0-12.132,0Z" transform="translate(-511.205 -151.868)" fill="#3a266b" fill-rule="evenodd"/>
  <circle id="Ellipse_36" data-name="Ellipse 36" cx="12" cy="12" r="12" transform="translate(146 24)" fill="#6bcece"/>
  <path id="Path_38802" data-name="Path 38802" d="M786.2,166a18.2,18.2,0,1,0,18.2,18.2A18.209,18.209,0,0,0,786.2,166Zm0,12.132a6.066,6.066,0,1,1-6.066,6.066A6.068,6.068,0,0,1,786.2,178.132Z" transform="translate(-628.477 -147.801)" fill="#3a266b" fill-rule="evenodd"/>
</svg>
