<svg xmlns="http://www.w3.org/2000/svg" xmlns:xlink="http://www.w3.org/1999/xlink" width="494.135" height="498.714" viewBox="0 0 494.135 498.714">
  <defs>
    <clipPath id="clip-path">
      <rect id="Rectangle_5219" data-name="Rectangle 5219" width="494.135" height="498.509" fill="none"/>
    </clipPath>
    <clipPath id="clip-path-2">
      <rect id="Rectangle_5218" data-name="Rectangle 5218" width="494.135" height="361.393" fill="#f1e6dc"/>
    </clipPath>
  </defs>
  <g id="Group_36393" data-name="Group 36393" transform="translate(0 0.029)">
    <g id="Group_36394" data-name="Group 36394">
      <g id="Group_36389" data-name="Group 36389">
        <g id="Group_36388" data-name="Group 36388" clip-path="url(#clip-path)">
          <g id="Group_36387" data-name="Group 36387" transform="translate(0 92.791)" opacity="0.62">
            <g id="Group_36386" data-name="Group 36386">
              <g id="Group_36385" data-name="Group 36385" clip-path="url(#clip-path-2)">
                <path id="Path_39052" data-name="Path 39052" d="M348.51,129.168c-25.159,30.044-44.022,66.383-78.283,86.707-22.586,13.4-50.9,12.182-76.674,7.125C126.875,209.918,54.587,200.108,14.9,270.589c-41.919,74.445,9.319,170.538,94.969,175.63,24.532,1.458,50.548-5.6,67.43-23.462,17.572-18.593,22.246-44.614,35.21-65.98a105.486,105.486,0,0,1,60.232-46.192c32.884-9.568,64.946,3.212,98.035,3.308,64.271.186,112.714-58.894,121.846-118.819,6.981-45.815-9.63-99.7-60.73-109.188-16.22-3.013-33.126,2.054-47.186,10.685-14.192,8.71-25.737,20.11-36.195,32.6" transform="translate(0 -85.011)" fill="#f1e6dc"/>
              </g>
            </g>
          </g>
        </g>
      </g>
      <path id="Path_39053" data-name="Path 39053" d="M378.053,138.983v46.049l61.1-39.735Z" transform="translate(34.599 12.719)" fill="#f06743"/>
      <g id="Group_36391" data-name="Group 36391" transform="translate(34.89 0.84)">
        <g id="Group_36395" data-name="Group 36395">
          <path id="Path_39054" data-name="Path 39054" d="M70.563,305.214a124.46,124.46,0,0,1,18.995-68.9c8.538-13.55,21.517-26.274,37.523-26.822,10.683-.366,20.939,4.911,28.784,12.17s13.651,16.406,19.365,25.44c2.421-24.772,12.355-50.872,32.191-65.907,34.356-26.039,80.821-15.047,114.334,6.287,8.03,5.112,15.741,10.91,21.851,18.209.983-10.065,5.871-19.43,12.228-27.293s18.848-17.363,42.318-19.205" transform="translate(-28.436 13.728)" fill="none" stroke="#472a1c" stroke-linecap="round" stroke-linejoin="round" stroke-width="1.614" stroke-dasharray="7.621 7.621"/>
          <path id="Path_39055" data-name="Path 39055" d="M54.187,353.277a6.391,6.391,0,1,1-6.392-6.392A6.392,6.392,0,0,1,54.187,353.277Z" transform="translate(-31.101 30.906)" fill="none" stroke="#472a1c" stroke-linecap="round" stroke-linejoin="round" stroke-width="1.614"/>
          <path id="Path_39056" data-name="Path 39056" d="M368.417,243.247a6.391,6.391,0,1,1-6.392-6.392A6.391,6.391,0,0,1,368.417,243.247Z" transform="translate(-2.344 20.836)" fill="none" stroke="#472a1c" stroke-linecap="round" stroke-linejoin="round" stroke-width="1.614"/>
          <path id="Path_39057" data-name="Path 39057" d="M38.735,333.909a3.385,3.385,0,1,1-3.385-3.385,3.384,3.384,0,0,1,3.385,3.385" transform="translate(-31.965 29.408)" fill="#2d1a14"/>
          <path id="Path_39058" data-name="Path 39058" d="M392.358,226.364a3.385,3.385,0,1,1-3.385-3.385,3.385,3.385,0,0,1,3.385,3.385" transform="translate(0.398 19.566)" fill="#2d1a14"/>
          <line id="Line_223" data-name="Line 223" y2="19.625" transform="translate(135.569 164.073)" fill="none" stroke="#472a1c" stroke-linecap="round" stroke-linejoin="round" stroke-width="1.541"/>
          <line id="Line_224" data-name="Line 224" x1="19.625" transform="translate(125.756 173.886)" fill="none" stroke="#472a1c" stroke-linecap="round" stroke-linejoin="round" stroke-width="1.541"/>
          <line id="Line_225" data-name="Line 225" y2="19.625" transform="translate(443.947 309.13)" fill="none" stroke="#472a1c" stroke-linecap="round" stroke-linejoin="round" stroke-width="1.541"/>
          <line id="Line_226" data-name="Line 226" x1="19.625" transform="translate(434.134 318.943)" fill="none" stroke="#472a1c" stroke-linecap="round" stroke-linejoin="round" stroke-width="1.541"/>
          <line id="Line_227" data-name="Line 227" y2="19.625" transform="translate(80.937 328.073)" fill="none" stroke="#472a1c" stroke-linecap="round" stroke-linejoin="round" stroke-width="1.541"/>
          <line id="Line_228" data-name="Line 228" x1="19.625" transform="translate(71.124 337.885)" fill="none" stroke="#472a1c" stroke-linecap="round" stroke-linejoin="round" stroke-width="1.541"/>
          <path id="Path_39059" data-name="Path 39059" d="M107.7,469.354c-.756-2.769,43.417-172.358,43.484-169.239S185.174,469,185.174,469Z" transform="translate(-25.035 26.621)" fill="#f06743"/>
          <path id="Path_39060" data-name="Path 39060" d="M147.2,469.158,181.559,469s-33.921-165.765-33.988-168.886c0-.165-.132.159-.37.914Z" transform="translate(-21.419 26.622)" fill="#2d1a14"/>
          <path id="Path_39061" data-name="Path 39061" d="M349.192,428.411c-.756-2.769,43.417-172.358,43.484-169.239s33.988,168.886,33.988,168.886Z" transform="translate(-2.934 22.874)" fill="#f06743"/>
          <path id="Path_39062" data-name="Path 39062" d="M388.69,428.215l34.358-.157S389.127,262.293,389.06,259.172c0-.165-.132.159-.37.914Z" transform="translate(0.682 22.875)" fill="#2d1a14"/>
          <path id="Path_39063" data-name="Path 39063" d="M54.04,465.168C53.324,463.4,95.1,355.208,95.164,357.2s32.143,107.744,32.143,107.744Z" transform="translate(-29.946 31.847)" fill="#39246f"/>
          <path id="Path_39064" data-name="Path 39064" d="M91.951,358.212V464.945l31.885-.1S94.964,369.667,91.951,358.212" transform="translate(-26.475 31.942)" fill="#2d1a14"/>
          <path id="Path_39065" data-name="Path 39065" d="M305.338,465.352c-.716-1.767,41.062-109.959,41.124-107.969S378.6,465.127,378.6,465.127Z" transform="translate(-6.947 31.864)" fill="#39246f"/>
          <path id="Path_39066" data-name="Path 39066" d="M343.249,358.4V465.13l31.885-.1S346.262,369.852,343.249,358.4" transform="translate(-3.477 31.959)" fill="#2d1a14"/>
          <path id="Path_39067" data-name="Path 39067" d="M327.126,344.162H173.935a8.342,8.342,0,0,1-8.318-8.318V315.066a8.342,8.342,0,0,1,8.318-8.318h153.19a8.343,8.343,0,0,1,8.318,8.318v20.777a8.343,8.343,0,0,1-8.318,8.318" transform="translate(-19.733 27.232)" fill="#524e9a"/>
          <rect id="Rectangle_5220" data-name="Rectangle 5220" width="133.089" height="123.293" transform="translate(165.292 371.394)" fill="#67bec5"/>
          <path id="Path_39068" data-name="Path 39068" d="M256.24,369.407c.982,13.48,5.193,27.09,15.4,36.439,8.157,7.47,18.93,11.21,29.7,12.9,2.826.443,5.664.76,8.509.97V341.025H258.1a104.842,104.842,0,0,0-1.856,28.382" transform="translate(-11.464 30.369)" fill="#2d1a14"/>
          <path id="Path_39069" data-name="Path 39069" d="M259.068,374.648a143.918,143.918,0,0,0,54.514,14.614V341.025H215.146c12.5,13.619,26.971,25.27,43.922,33.623" transform="translate(-15.201 30.369)" fill="#2d1a14"/>
          <path id="Path_39070" data-name="Path 39070" d="M183.4,393.706s61-11.091,74.169-52.681" transform="translate(-18.106 30.369)" fill="none" stroke="#fff" stroke-linecap="round" stroke-linejoin="round" stroke-width="1.498"/>
          <path id="Path_39071" data-name="Path 39071" d="M311.453,385.218s-56.69,6.443-73.054,74.414" transform="translate(-13.073 34.414)" fill="none" stroke="#fff" stroke-linecap="round" stroke-linejoin="round" stroke-width="1.498"/>
          <path id="Path_39072" data-name="Path 39072" d="M208.553,334.057h-30.2a2.577,2.577,0,0,1,0-5.154h30.2a2.577,2.577,0,0,1,0,5.154" transform="translate(-18.803 29.26)" fill="#fff"/>
          <path id="Path_39073" data-name="Path 39073" d="M446.534,462.577a61.5,61.5,0,1,0-118.07,0Z" transform="translate(-5.056 34.282)" fill="#67bec5"/>
          <path id="Path_39074" data-name="Path 39074" d="M425.084,399.756a58.588,58.588,0,0,0-18.456,12.306c-12.471,12.408-18.727,29.586-22.055,46.531-.165.839-.318,1.68-.469,2.521h57.113a61.564,61.564,0,0,0-16.132-61.359" transform="translate(0.262 35.744)" fill="#2d1a14"/>
          <path id="Path_39075" data-name="Path 39075" d="M326.944,433.6c27.614-4.112,52.432-23.57,63.013-49.406" transform="translate(-4.969 34.32)" fill="none" stroke="#fff" stroke-linecap="round" stroke-linejoin="round" stroke-width="1.498"/>
          <path id="Path_39076" data-name="Path 39076" d="M349.166,458.469A54.869,54.869,0,0,1,362.7,440.274c2.307-2.032,4.914-3.926,7.944-4.448s6.55.71,7.816,3.511c1.052,2.329.355,5.036-.357,7.49,16.415-17.495,44.15-23.211,66.145-13.631" transform="translate(-2.936 38.382)" fill="none" stroke="#fff" stroke-linecap="round" stroke-linejoin="round" stroke-width="1.498"/>
          <path id="Path_39077" data-name="Path 39077" d="M72.863,406.452c7.807,3.467,8.268,14.148,12.234,21.714,6.264,11.952,22.5,15.792,35.372,11.727s22.891-14.114,31.516-24.49c6.32-7.6,13.67-16.332,23.555-16.255" transform="translate(-28.222 35.689)" fill="none" stroke="#fff" stroke-linecap="round" stroke-linejoin="round" stroke-width="1.498"/>
          <circle id="Ellipse_407" data-name="Ellipse 407" cx="5.434" cy="5.434" r="5.434" transform="translate(110.532 428.928)" fill="none" stroke="#fff" stroke-linecap="round" stroke-linejoin="round" stroke-width="1.498"/>
          <path id="Path_39078" data-name="Path 39078" d="M129.42,368.653a44.955,44.955,0,0,0,32.119-26.53" transform="translate(-23.046 30.47)" fill="none" stroke="#fff" stroke-linecap="round" stroke-linejoin="round" stroke-width="1.498"/>
          <path id="Path_39079" data-name="Path 39079" d="M370.684,323.147c6.167,1.574,10.946,6.466,14.536,11.722s6.349,11.083,10.381,16.007,9.782,9,16.147,8.936" transform="translate(-0.966 28.733)" fill="none" stroke="#fff" stroke-linecap="round" stroke-linejoin="round" stroke-width="1.498"/>
          <circle id="Ellipse_408" data-name="Ellipse 408" cx="5.392" cy="5.392" r="5.392" transform="translate(371.658 384.183)" fill="none" stroke="#fff" stroke-linecap="round" stroke-linejoin="round" stroke-width="1.498"/>
          <path id="Path_39080" data-name="Path 39080" d="M245.675,59.09c-5.921-3.785-12-7.638-18.952-9.36s-15.087-.919-20.259,3.711-5.756,13.544-.035,17.584c-7.891-1.894-16.371-3.769-24.026-1.183s-13.215,11.653-8.656,17.9c-8.862.644-17.2,5.738-21.305,13.021a23.164,23.164,0,0,0,.653,23.592c6.187,9.722,18.722,14.254,30.641,16.694,18.509,3.79,37.625,4.186,56.582,3.968,26.906-.31,56.043-2.635,76.182-19.12,4.517-3.7,8.517-8.161,10.36-13.47s1.214-11.568-2.679-15.828-11.326-5.768-16.249-2.544c3.009-4.354,5.8-8.857,7.272-13.84s1.132-10.689-2.22-14.824c-4.22-5.205-12.365-6.687-19.135-4.906S281.5,66.707,276.816,71.564c2.236-3.678,3.681-9,4.434-13.165s-.3-8.859-3.8-11.573c-3.385-2.625-8.335-2.866-12.6-1.788-7.945,2.008-17.548,6.593-19.179,14.052" transform="translate(-21.206 3.226)" fill="#2d1a14"/>
          <path id="Path_39081" data-name="Path 39081" d="M223.183,134.974a146.072,146.072,0,0,1-4.605,18.172c16.313,1.724,27.359,4.018,43.329.077,2.273-15.87.079-30.559,3.849-45.216,1.114-4.333,2.711-8.539,3.408-12.971,2.992-19.043-24.991-20.173-36.277-17.967-5.262,1.029-10.8,3.146-13.713,7.93-2.792,4.582-2.519,10.591-1.126,15.851s3.781,10.187,4.994,15.5a47.981,47.981,0,0,1,.142,18.627" transform="translate(-15.029 6.138)" fill="#ff8775"/>
          <path id="Path_39082" data-name="Path 39082" d="M259.871,105.183c-1.517-6.712-1.527-13.647-1.411-20.541l-34.748.073c-1.848,8.626-1.347,17.742-2,26.629.457,1.394.873,2.8,1.2,4.237a47.954,47.954,0,0,1,.141,18.626,145.883,145.883,0,0,1-4.605,18.172c16.314,1.724,27.359,4.018,43.329.077,1.845-12.883.747-24.99,2.285-36.933a34.479,34.479,0,0,1-4.189-10.34" transform="translate(-14.899 6.906)" fill="#ffbf80"/>
          <path id="Path_39083" data-name="Path 39083" d="M254.7,80.668c-5.228-2.8-9.419-14.522-8.062-23.756l-8.3,4.642c.866,5.674-3.484,12.206-5.721,15.567a7.467,7.467,0,0,1-4.682,3.1c2.958,3.891,8.07,5.829,13,5.942s10.63-1.742,13.768-5.493" transform="translate(-14.031 4.368)" fill="#f7c79f"/>
          <path id="Path_39084" data-name="Path 39084" d="M239.561,60.272a10.386,10.386,0,0,0,1.586,6.449,5.956,5.956,0,0,0,5.407,2.626,30.821,30.821,0,0,1-.985-12.435Z" transform="translate(-12.968 4.368)" fill="#2d1a14"/>
          <path id="Path_39085" data-name="Path 39085" d="M231.771,312.119c.29-12.157,4.773-140.175,4.189-144.2l-19.175-.034c0,11.8,4.388,131.207,4.921,143.976Z" transform="translate(-15.051 14.524)" fill="#ff8775"/>
          <path id="Path_39086" data-name="Path 39086" d="M288.978,332.608a25.015,25.015,0,0,0-8.241-4.017c-1.025-.278-2.072-.493-3.121-.7-7.07-1.411-12.3-5.784-14.475-12.656-2.645-8.359-.943-17.483-.733-26.053.168-6.9.238-13.793.277-20.692.092-15.938,0-31.877-.04-47.814-.011-3.972-1.04-59.751,1-59.886l-19.188,1.279c-.311,22.855,6,46.117,2.686,68.724-8.356,56.991,3.877,67.865,4.272,101.9Z" transform="translate(-12.539 13.874)" fill="#ff8775"/>
          <path id="Path_39087" data-name="Path 39087" d="M196.487,332.8a25.014,25.014,0,0,1,8.223-4.052c1.023-.283,2.07-.5,3.117-.716,7.063-1.441,12.276-5.835,14.42-12.716,2.609-8.37.868-17.486.621-26.056-.2-6.9-.3-13.793-.366-20.692-.16-15.937-.143-31.876-.167-47.814-.005-3.971.784-59.754-1.255-59.882l19.194,1.2c.408,22.854-4.344,45.974-2.392,68.735,3.46,40.336-3.583,67.88-3.832,101.914Z" transform="translate(-16.908 13.883)" fill="#ff8775"/>
          <path id="Path_39088" data-name="Path 39088" d="M225.394,127.506s-23.08,30.1-2.484,117.587l13.162-13.449,4.062-78.786,6.045-.4,5.149,90.681,10.9-.752s22.249-69.487-.248-115.248c0,0-37.331.37-36.584.369" transform="translate(-15.273 10.795)" fill="#ff8775"/>
          <path id="Path_39089" data-name="Path 39089" d="M245.835,156.607c4.974-1.274,9.916-4.59,13.547-8.012a34.84,34.84,0,0,0,7.01-8.73,85.492,85.492,0,0,0-4.993-12.728s-37.33.37-36.583.369a36.926,36.926,0,0,0-4.131,8.1,71.187,71.187,0,0,0,7.43,9.765,61.876,61.876,0,0,0,11.3,10.2l.14-2.711,6.046-.4Z" transform="translate(-14.694 10.795)" fill="#ffbf80"/>
          <path id="Path_39090" data-name="Path 39090" d="M222.992,106.725s-2.764-24.524,4.155-28.238" transform="translate(-14.533 6.342)" fill="none" stroke="#ffbf80" stroke-linecap="round" stroke-linejoin="round" stroke-width="1.211"/>
          <path id="Path_39091" data-name="Path 39091" d="M257.242,78.223S252.6,86.33,256.2,107.766" transform="translate(-11.569 6.318)" fill="none" stroke="#ffbf80" stroke-linecap="round" stroke-linejoin="round" stroke-width="1.211"/>
          <path id="Path_39092" data-name="Path 39092" d="M227.689,208.285a30.27,30.27,0,0,1-4.9,10.952" transform="translate(-14.501 18.221)" fill="none" stroke="#362f36" stroke-linecap="round" stroke-linejoin="round" stroke-width="0.404"/>
          <path id="Path_39093" data-name="Path 39093" d="M252.855,208.5a30.278,30.278,0,0,0,4.943,10.932" transform="translate(-11.75 18.241)" fill="none" stroke="#362f36" stroke-linecap="round" stroke-linejoin="round" stroke-width="0.404"/>
          <path id="Path_39094" data-name="Path 39094" d="M224.243,116.68l39.62-.083c-.534,16.127,7.339,24.668,7.894,40.8-7.406,15.607-14.733,17.227-24.69,19.364l-.026-12.439-6.438.013-.884,13.764s-17.223-9.135-24.7-26.086c0,0,1.877-12.071,8.347-20.725Z" transform="translate(-15.212 9.83)" fill="#39246f"/>
          <path id="Path_39095" data-name="Path 39095" d="M231.084,91.292a18.68,18.68,0,0,1,.242-7.56,9.474,9.474,0,0,1,.761-1.854,7.407,7.407,0,0,1,4.136-3.64c.183-.312.361-.62.528-.922.07-.123.14-.242.2-.361.194-.353.38-.7.56-1.052-3.373.236-6.715.672-10.055,1.231a2.55,2.55,0,0,0,.1.242q-.817.177-1.618.393a28.538,28.538,0,0,0-6.826,2.879,32.8,32.8,0,0,0-15.12,20.857,43.271,43.271,0,0,0-.825,5.479c-.387.026-.809.048-1.277.081A22.524,22.524,0,0,0,181.891,123.5a15,15,0,0,0,.706,10.2,15.334,15.334,0,0,0,8.482,7.144,20.77,20.77,0,0,0,2.819.858,22.463,22.463,0,0,0,16.829-2.8,21.441,21.441,0,0,0,6.089-5.84,22.111,22.111,0,0,0,3.2-6.795,11.947,11.947,0,0,0,6.417,8.585c.032-.092.064-.189.092-.286v-.005a23.62,23.62,0,0,0,.663-5.84v-.038c.055-2.6-.048-5.273-.053-6.966v-.086c0-.06,14.392.3,18.889-.8-.038-2.712-6.061-8.245-7.932-11.6-3.823-6.881-6.023-10.154-7-17.935" transform="translate(-18.296 6.106)" fill="#67bec5"/>
          <path id="Path_39096" data-name="Path 39096" d="M279.306,91.2a32.042,32.042,0,0,0-9.847-10.181,28.909,28.909,0,0,0-7.36-3.43c-.576-.183-1.159-.339-1.752-.475-.213-.053-.429-.1-.646-.147-3.2-.136-6.4-.384-9.6-.632.158.289.319.579.487.871.124.216.248.432.378.647a6.273,6.273,0,0,1,1.86.955,8.111,8.111,0,0,1,2.443,2.96,9.275,9.275,0,0,1,.62,1.553,13.054,13.054,0,0,1,.512,3.327,27.075,27.075,0,0,1-.242,4.232,32.6,32.6,0,0,1-4.011,12.656c-.836,1.6-1.806,3.3-2.912,5.306-1.849,3.364-7.851,8.924-7.877,11.636,4.5,1.089,18.889.664,18.889.723a31.022,31.022,0,0,0,.9,5.813c.55,2.41,1.256,4.928,1.838,6.724.152.458.286.863.416,1.213,2.766-1.207,4.167-4.237,4.453-7.473a14.34,14.34,0,0,0-.361-4.746,11.024,11.024,0,0,0-.448-1.434h.027a4.943,4.943,0,0,0,4.13-2.577c.134-.253.27-.506.41-.761.49-.873,1.013-1.73,1.558-2.577,1.187-1.839,2.481-3.628,3.758-5.43.389-.539.766-1.077,1.144-1.618a30.155,30.155,0,0,0,4.648-9.56,33.04,33.04,0,0,0-3.413-7.576" transform="translate(-12.801 6.146)" fill="#d7d7ff"/>
          <line id="Line_229" data-name="Line 229" y1="0.08" x2="38.286" transform="translate(209.357 133.766)" fill="none" stroke="#f5e9e1" stroke-linecap="round" stroke-linejoin="round" stroke-width="0.423"/>
          <path id="Path_39097" data-name="Path 39097" d="M226.814,87.053,256.8,86.99" transform="translate(-14.133 7.121)" fill="none" stroke="#362f36" stroke-linecap="round" stroke-linejoin="round" stroke-width="0.404"/>
          <path id="Path_39098" data-name="Path 39098" d="M246.02,66.774v0a7.291,7.291,0,0,1-1.648.3,7.192,7.192,0,0,1-6.723-3.678,6.919,6.919,0,0,1-.844-2.883l-.017-.271-.3-4.649-.341-5.244a6.749,6.749,0,0,1,.048-1.364,6.939,6.939,0,0,1,1.719-3.718c.1-.109.2-.218.306-.324.087-.087.179-.175.275-.258l.013-.013c.093-.083.189-.162.285-.24.013-.009.022-.017.031-.022.109-.088.214-.167.327-.246,0,0,.009,0,.013-.009v0a.1.1,0,0,1,.022-.013,6.225,6.225,0,0,1,.679-.41,7.221,7.221,0,0,1,.745-.346l.02-.009v0a7.14,7.14,0,0,1,9.346,4.2,6.8,6.8,0,0,1,.39,1.868l.17,2.593.49,7.571a7.06,7.06,0,0,1-5,7.159" transform="translate(-13.28 3.083)" fill="#f7c79f"/>
          <path id="Path_39099" data-name="Path 39099" d="M236.521,56.061c3.7-3.188,6.269-8.245,4.11-12.727a7.123,7.123,0,0,0-2.719,1.892,6.964,6.964,0,0,0-1.718,3.721,6.732,6.732,0,0,0-.047,1.362Z" transform="translate(-13.28 3.125)" fill="#2d1a14"/>
          <path id="Path_39100" data-name="Path 39100" d="M232.817,57.139a2.75,2.75,0,0,0,4.277,2.064,2.684,2.684,0,0,0,1.2-2.41,2.132,2.132,0,0,0-.057-.382,2.7,2.7,0,0,0-1.444-1.858.228.228,0,0,0-.053-.028,2.748,2.748,0,0,0-1.359-.259,2.717,2.717,0,0,0-2.562,2.873" transform="translate(-13.584 4.125)" fill="#f7c79f"/>
          <path id="Path_39101" data-name="Path 39101" d="M248.376,54.829c.022.167.039.336.05.508.194,3-1.29,5.533-3.314,5.66s-3.824-2.2-4.018-5.2c-.011-.172-.015-.342-.015-.51Z" transform="translate(-12.827 4.177)" fill="#fff"/>
          <path id="Path_39102" data-name="Path 39102" d="M219.618,136.383c-5.952,13.113-7.823,29.639-7.272,44.872h29.4V154.62c-5.831-6.64-14.842-13.187-22.129-18.237" transform="translate(-15.465 11.641)" fill="#39246f"/>
          <path id="Path_39103" data-name="Path 39103" d="M265.069,136.383a116.638,116.638,0,0,1,7.272,44.872h-29.4V154.62c5.831-6.64,14.842-13.187,22.129-18.237" transform="translate(-12.657 11.641)" fill="#39246f"/>
          <path id="Path_39104" data-name="Path 39104" d="M222.446,77.958c-5.515,4.486-1.839,10.631-3.676,17.5s-2.181,14.038-2.406,21.144c-.171,5.413-.08,11.4,3.534,15.433,3.324,3.711,8.7,4.679,13.67,5.024a123.644,123.644,0,0,0,21.425-.288c4.27-.442,10.011.249,13.284-2.53s6.006-8.822,2.921-11.807c6.7-2.342,12.124-10.052,13.813-17.388,1.594-6.919-4.622-15.847-10.085-20.381s-10.052-7.729-17.056-8.893-23.762-2.041-35.425,2.186" transform="translate(-15.094 6.006)" fill="#67bec5"/>
          <path id="Path_39105" data-name="Path 39105" d="M218.659,143.7a150.859,150.859,0,0,0-4.4,64.749c1.351,8.952,3.508,18.122,1.431,26.934-2.011,8.526-7.91,16.331-7.153,25.059.688,7.924,6.844,14.838,6.484,22.784-.38,8.35-7.936,16.208-5.091,24.068,2.208,6.1,9.556,6.051,8.843,12.5h17.794c4.047-7.732,6.922-13.117,6.773-21.842-.081-4.737-1.44-9.36-1.847-14.081-.517-5.988.5-11.987,1.063-17.972a233.73,233.73,0,0,0,.56-24.644l-.449-36-.544-43.51c-.076-6.143-.329-12.8-4.191-17.575-4.41-5.451-13.623-4.619-19.275-.472" transform="translate(-15.811 12.003)" fill="#39246f"/>
          <path id="Path_39106" data-name="Path 39106" d="M257.875,135.583a9.978,9.978,0,0,1,8.049,5.491c7.314,14.045,8.565,43.92,5.555,63.861-1.351,8.952-3.508,18.122-1.43,26.934,2.009,8.527,7.91,16.331,7.153,25.059-.688,7.924-6.845,14.838-6.484,22.784.379,8.351,7.935,16.208,5.09,24.068-2.207,6.1-10.231,9.969-9.519,16.415H249.823c-4.047-7.732-7.574-17.033-7.426-25.76.082-4.736,1.44-9.36,1.848-14.079.516-5.989-.505-11.987-1.064-17.972a233.734,233.734,0,0,1-.56-24.645c.151-12,.681-24,.45-36-.26-13.438-.26-28.895.542-43.51.337-6.134.33-12.8,4.193-17.573,2.834-3.5,6.39-5.326,10.069-5.077" transform="translate(-12.707 11.566)" fill="#39246f"/>
          <path id="Path_39107" data-name="Path 39107" d="M170.557,78.586a171.472,171.472,0,0,1,34.476,31.556c2.428,2.924,4.8,6.009,6,9.615s1.05,7.868-1.275,10.875a10.806,10.806,0,0,1-8.908,3.84,17.614,17.614,0,0,1-9.315-3.454c-6.766-4.747-10.843-12.407-14.043-20.028s-4.817-19.156-9.708-25.819c1.983-2.658,1.912-3.383,2.77-6.585" transform="translate(-19.535 6.352)" fill="#f7c79f"/>
          <path id="Path_39108" data-name="Path 39108" d="M213.595,197.057h18.7v34.915c-.14,4.676-3.046,7.742-6.865,10.446a15.422,15.422,0,0,1-13.38,2.075" transform="translate(-15.484 17.194)" fill="none" stroke="#fff" stroke-linecap="round" stroke-linejoin="round" stroke-width="0.865"/>
          <path id="Path_39109" data-name="Path 39109" d="M270.339,163.794H257.8V186.4a12.57,12.57,0,0,0,.528,3.686A15.907,15.907,0,0,0,268.722,201" transform="translate(-11.297 14.15)" fill="none" stroke="#fff" stroke-linecap="round" stroke-linejoin="round" stroke-width="0.865"/>
          <line id="Line_230" data-name="Line 230" x2="17.794" transform="translate(199.009 223.237)" fill="none" stroke="#fff" stroke-linecap="round" stroke-linejoin="round" stroke-width="0.865"/>
          <line id="Line_231" data-name="Line 231" x2="12.941" transform="translate(246.64 186.93)" fill="none" stroke="#fff" stroke-linecap="round" stroke-linejoin="round" stroke-width="0.865"/>
          <line id="Line_232" data-name="Line 232" x2="47.544" transform="translate(204.153 148.024)" fill="none" stroke="#fff" stroke-linecap="round" stroke-linejoin="round" stroke-width="0.865"/>
          <path id="Path_39110" data-name="Path 39110" d="M228.944,144.352l3.594-7.729-.179,15.278" transform="translate(-13.938 11.663)" fill="none" stroke="#fff" stroke-linecap="round" stroke-linejoin="round" stroke-width="0.865"/>
          <path id="Path_39111" data-name="Path 39111" d="M250.918,152.256l-.6-16.017,4.708,8.148" transform="translate(-11.982 11.628)" fill="none" stroke="#fff" stroke-linecap="round" stroke-linejoin="round" stroke-width="0.865"/>
          <line id="Line_233" data-name="Line 233" x2="20.131" transform="translate(202.245 328.205)" fill="none" stroke="#2d1a14" stroke-width="0.494"/>
          <line id="Line_234" data-name="Line 234" x2="19.592" transform="translate(234.957 328.384)" fill="none" stroke="#2d1a14" stroke-width="0.494"/>
          <path id="Path_39112" data-name="Path 39112" d="M250.279,52.044a10.208,10.208,0,0,1-9.249-3.67,10.678,10.678,0,0,1-2.064-3.962c-.026-.1-.045-.179-.058-.253v0a.1.1,0,0,1,.022-.013,6.234,6.234,0,0,1,.679-.411,6.993,6.993,0,0,1,.745-.345l.02-.009h0a7.063,7.063,0,0,1,2.169-.487,7.143,7.143,0,0,1,7.177,4.692,6.8,6.8,0,0,1,.39,1.868Z" transform="translate(-13.026 3.083)" fill="#2d1a14"/>
          <path id="Path_39113" data-name="Path 39113" d="M275.257,109.132a124.638,124.638,0,0,1,19.295-1.809c1.482,5.946,9.241,10,15.365,9.8s11.748-3.752,15.826-8.326c2.609-2.927,4.794-6.616,4.491-10.527-.384-4.957-4.67-8.792-9.231-10.772a26.991,26.991,0,0,0-20.928-.126c-7.177-5.608-26.074-11.8-35.182-11.8-6.606,0-7.259-.815-21.482.759,11.308,7.672,31.846,32.8,31.846,32.8" transform="translate(-12.614 6.057)" fill="#67bec5"/>
          <path id="Path_39114" data-name="Path 39114" d="M318.592,100.643a19.335,19.335,0,0,0,4.725-2.04A23.627,23.627,0,0,0,327,95.865a31.261,31.261,0,0,0,5.3-6.308,37.036,37.036,0,0,0,3.529-7,28.765,28.765,0,0,0,1.167-3.9,16.258,16.258,0,0,0,.411-4.8,4.244,4.244,0,0,0-8.047-1.571l-.891,1.833c-.059.12-.14.386-.248.682-.128.319-.26.658-.442,1.027a19.982,19.982,0,0,1-1.277,2.262,26.084,26.084,0,0,1-3.463,4.247,18.374,18.374,0,0,1-4.017,3.082,6.5,6.5,0,0,1-3.413.989,7.518,7.518,0,1,0,1.182,14.729Z" transform="translate(-6.768 5.558)" fill="#f7c79f"/>
          <path id="Path_39115" data-name="Path 39115" d="M156.9,74.578h10.71a2.281,2.281,0,0,0,0-4.561H156.9a2.281,2.281,0,0,0,0,4.561" transform="translate(-20.74 5.567)" fill="#f7c79f"/>
          <path id="Path_39116" data-name="Path 39116" d="M173.274,84.337a55.856,55.856,0,0,0-3.84-14.428H157.05a2.729,2.729,0,0,0-.742,2.865A2.534,2.534,0,0,0,158.64,74.4a15.459,15.459,0,0,0,.821,14.448h15.328a13.746,13.746,0,0,1-1.515-4.515" transform="translate(-20.598 5.557)" fill="#f7c79f"/>
          <path id="Path_39117" data-name="Path 39117" d="M325.47,76.91a12.519,12.519,0,0,1,1.016-8.085c5.344-.591,11.085-1.3,16.39-2.183a28.442,28.442,0,0,1-6.938,10,10.117,10.117,0,0,1-5.166,2.812c-1.971.275-4.889-.595-5.3-2.542" transform="translate(-5.128 5.258)" fill="#f7c79f"/>
          <path id="Path_39118" data-name="Path 39118" d="M214.81,111.318a29.388,29.388,0,0,0,11.863,10.708" transform="translate(-15.231 9.347)" fill="none" stroke="#472a1c" stroke-linecap="round" stroke-linejoin="round" stroke-width="0.865"/>
          <path id="Path_39119" data-name="Path 39119" d="M279.89,91.586c.255,6.109-.106,12.429-2.724,17.954" transform="translate(-9.525 7.541)" fill="none" stroke="#472a1c" stroke-linecap="round" stroke-linejoin="round" stroke-width="0.865"/>
          <path id="Path_39120" data-name="Path 39120" d="M285.425,87.639c-.163,6-2.741,16.117-7.233,19.449" transform="translate(-9.431 7.18)" fill="none" stroke="#472a1c" stroke-linecap="round" stroke-linejoin="round" stroke-width="0.865"/>
          <path id="Path_39121" data-name="Path 39121" d="M240.819,301.48l1.008,25.652h-61.6c-1.786-5.712,2.435-12.1,8.108-13.86a26.2,26.2,0,0,1,7.585-.687,78.044,78.044,0,0,0,18.071-2.292c2.206-.548,4.489-1.249,6.1-2.865s2.278-4.415.882-6.225Z" transform="translate(-18.434 26.725)" fill="#2d1a14"/>
          <path id="Path_39122" data-name="Path 39122" d="M247.141,301.48l-1.007,25.652h61.6c1.786-5.712-2.435-12.1-8.108-13.86a26.2,26.2,0,0,0-7.585-.687,78.044,78.044,0,0,1-18.071-2.292c-2.206-.548-4.489-1.249-6.1-2.865s-2.278-4.415-.882-6.225Z" transform="translate(-12.365 26.725)" fill="#2d1a14"/>
          <line id="Line_235" data-name="Line 235" x2="60.998" transform="translate(162.394 346.686)" fill="none" stroke="#fff" stroke-linecap="round" stroke-linejoin="round" stroke-width="0.945"/>
          <line id="Line_236" data-name="Line 236" x2="62.875" transform="translate(234.957 348.193)" fill="none" stroke="#fff" stroke-linecap="round" stroke-linejoin="round" stroke-width="0.945"/>
          <line id="Line_237" data-name="Line 237" x2="9.347" y2="6.471" transform="translate(202.964 331.799)" fill="none" stroke="#fff" stroke-linecap="round" stroke-linejoin="round" stroke-width="0.945"/>
          <line id="Line_238" data-name="Line 238" x2="9.347" y2="6.471" transform="translate(198.56 335.035)" fill="none" stroke="#fff" stroke-linecap="round" stroke-linejoin="round" stroke-width="0.945"/>
          <line id="Line_239" data-name="Line 239" x1="9.347" y2="6.471" transform="translate(245.898 333.597)" fill="none" stroke="#fff" stroke-linecap="round" stroke-linejoin="round" stroke-width="0.945"/>
          <line id="Line_240" data-name="Line 240" x1="9.347" y2="6.471" transform="translate(250.302 336.832)" fill="none" stroke="#fff" stroke-linecap="round" stroke-linejoin="round" stroke-width="0.945"/>
          <path id="Path_39123" data-name="Path 39123" d="M162.329,2.018c-.285,5.045-4.343,9.042-8.539,11.859-9.617,6.457-21.078,9.454-32.288,12.383S98.84,32.276,89.316,38.872s-16.9,17.5-16.081,29.062c.985,13.893,13.217,27.3,7.813,40.133-3.459,8.216-12.694,11.978-19.977,17.118a49.376,49.376,0,0,0-14.135,15.469v50.988c4.757-6.421,13.4-9.859,21.4-13.383,10.419-4.593,21.8-7.422,30.974-14.165,13.906-10.22,20.6-29.312,16.123-45.977-1.606-5.977-4.523-12.058-3.063-18.072,1.327-5.459,5.974-9.425,10.656-12.527,15.048-9.968,31.272-11.876,49.3-11.1Z" transform="translate(-30.595 -0.656)" fill="#f06743"/>
          <line id="Line_241" data-name="Line 241" x2="43.61" y2="313.114" transform="translate(131.184)" fill="none" stroke="#472a1c" stroke-linecap="round" stroke-linejoin="round" stroke-width="1.541"/>
          <path id="Path_39124" data-name="Path 39124" d="M78.554,44.985c9.053,6.442,20.465,10.449,31.341,8.178A35.055,35.055,0,0,0,128.981,41.4c4.948-5.781,9.061-15.926,11.046-23.272" transform="translate(-27.701 0.819)" fill="none" stroke="#fff" stroke-linecap="round" stroke-linejoin="round" stroke-width="1.27"/>
          <path id="Path_39125" data-name="Path 39125" d="M57.66,171.746c1.18-8.965,3.124-17.911,6.89-26.131S74.008,129.9,81.6,124.991s17.194-7.013,25.925-4.662a14.856,14.856,0,0,1,6.055,2.979" transform="translate(-29.613 10.084)" fill="none" stroke="#fff" stroke-linecap="round" stroke-linejoin="round" stroke-width="1.27"/>
          <path id="Path_39126" data-name="Path 39126" d="M72.09,68.938q3.094,8.329,6.19,16.659A86.1,86.1,0,0,1,81.717,96.23a43.233,43.233,0,0,1,.036,19.121" transform="translate(-28.293 5.469)" fill="none" stroke="#472a1c" stroke-linecap="round" stroke-linejoin="round" stroke-width="0.865"/>
          <path id="Path_39127" data-name="Path 39127" d="M201.92,98.582c11.5-.5,23.384,1.207,33.348,6.973s17.724,16.051,18.484,27.537" transform="translate(-16.411 8.174)" fill="none" stroke="#fff" stroke-linecap="round" stroke-linejoin="round" stroke-width="1.27"/>
          <path id="Path_39128" data-name="Path 39128" d="M364.6,151.11l14.684,17.951,50.936-20.3Z" transform="translate(-1.523 12.774)" fill="#2d1a14"/>
          <path id="Path_39129" data-name="Path 39129" d="M264.677,54.376h-17.5a2.43,2.43,0,0,1,0-4.861h17.5a2.43,2.43,0,1,1,0,4.861" transform="translate(-12.492 3.691)" fill="#f06743"/>
          <path id="Path_39130" data-name="Path 39130" d="M259.228,49.571,353.961,34.8V76.645L259.228,59.4Z" transform="translate(-11.166 2.344)" fill="#f06743"/>
          <path id="Path_39131" data-name="Path 39131" d="M319.344,70.613s-7.382-19.153,5.647-32.434" transform="translate(-5.855 2.654)" fill="none" stroke="#472a1c" stroke-linecap="round" stroke-linejoin="round" stroke-width="0.865"/>
          <path id="Path_39132" data-name="Path 39132" d="M380.206,55.944a23.568,23.568,0,1,1-23.568-23.568,23.568,23.568,0,0,1,23.568,23.568" transform="translate(-4.408 2.122)" fill="#2d1a14"/>
          <path id="Path_39133" data-name="Path 39133" d="M376.187,55.633a19.86,19.86,0,1,1-19.86-19.86,19.86,19.86,0,0,1,19.86,19.86" transform="translate(-4.098 2.433)" fill="#d7d7ff"/>
          <path id="Path_39134" data-name="Path 39134" d="M356.156,40.064a16.093,16.093,0,0,1,9.057,24.266" transform="translate(-2.296 2.826)" fill="none" stroke="#fff" stroke-linecap="round" stroke-linejoin="round" stroke-width="1.27"/>
          <path id="Path_39135" data-name="Path 39135" d="M285.073,63.605s-6.355-10.7-.649-19.17" transform="translate(-9.078 3.226)" fill="none" stroke="#472a1c" stroke-linecap="round" stroke-linejoin="round" stroke-width="0.865"/>
          <path id="Path_39136" data-name="Path 39136" d="M221.459,78.75a44.351,44.351,0,0,0,58.431-.968" transform="translate(-14.623 6.278)" fill="none" stroke="#fff" stroke-linecap="round" stroke-linejoin="round" stroke-width="1.27"/>
          <path id="Path_39137" data-name="Path 39137" d="M265.173,131.324a24.557,24.557,0,0,1-5.046-15.289,19.946,19.946,0,0,1,6.718-14.453,20.984,20.984,0,0,1,10.495-4.59,24.84,24.84,0,0,1,27.469,17.4" transform="translate(-11.085 8.012)" fill="none" stroke="#fff" stroke-linecap="round" stroke-linejoin="round" stroke-width="1.27"/>
          <path id="Path_39138" data-name="Path 39138" d="M38.7,455.195c130.78-.005,312.913-.011,443.892,0" transform="translate(-31.348 40.817)" fill="none" stroke="#2d1a14" stroke-linecap="round" stroke-linejoin="round" stroke-width="2.014"/>
        </g>
      </g>
    </g>
  </g>
</svg>
