<svg xmlns="http://www.w3.org/2000/svg" width="13.409" height="22.111" viewBox="0 0 13.409 22.111">
  <g id="_82eb58e54ca8b1d68d5f5c6b9359e2e4" data-name="82eb58e54ca8b1d68d5f5c6b9359e2e4" transform="translate(-14.14 -1.25)">
    <path id="Path_22" data-name="Path 22" d="M26.836,6.874V4.025h.182a.532.532,0,0,0,.53-.533V1.783a.532.532,0,0,0-.53-.533H14.673a.535.535,0,0,0-.533.533V3.492a.534.534,0,0,0,.533.533h.182V6.874a5.981,5.981,0,0,0,3.464,5.432,5.987,5.987,0,0,0-3.464,5.435V20.59h-.182a.532.532,0,0,0-.533.53v1.712a.532.532,0,0,0,.533.53H27.019a.529.529,0,0,0,.53-.53V21.12a.529.529,0,0,0-.53-.53h-.182V17.741a5.983,5.983,0,0,0-3.464-5.435A5.978,5.978,0,0,0,26.836,6.874ZM22.61,12.066a.255.255,0,0,0,0,.483,5.473,5.473,0,0,1,3.72,5.192v2.846H15.362V17.741a5.481,5.481,0,0,1,3.717-5.2.252.252,0,0,0,.172-.24.258.258,0,0,0-.172-.24,5.478,5.478,0,0,1-3.717-5.192V4.028H26.33V6.874A5.476,5.476,0,0,1,22.61,12.066Z" transform="translate(0 0)"/>
    <path id="Path_23" data-name="Path 23" d="M29.153,21.62h-7.92a.251.251,0,0,0-.236.344,4.489,4.489,0,0,0,2.744,2.657l.55.186V26.8l-.547.186A4.488,4.488,0,0,0,20.7,31.234v1.6a.255.255,0,0,0,.253.253H29.43a.255.255,0,0,0,.253-.253v-1.6a4.489,4.489,0,0,0-3.045-4.253l-.547-.186V24.807l.547-.186a4.486,4.486,0,0,0,2.751-2.657.251.251,0,0,0-.236-.344Z" transform="translate(-4.345 -13.494)" fill="#d8d28c"/>
  </g>
</svg>
