<svg xmlns="http://www.w3.org/2000/svg" width="190.239" height="47.56" viewBox="0 0 190.239 47.56">
  <path id="Path_1" data-name="Path 1" d="M17,45.958a34.571,34.571,0,0,0,6.861-3.534l.556-.336a51.52,51.52,0,0,0,6.471-4.768c4.827-4.129,7.726-8.183,9.387-13.13.672-2.009,1.623-5.915.461-9.589a12.418,12.418,0,0,0-4.917-6.54c-.276-.223-3.282-2.58-8.947-2.58-5.178,0-10.865,1.956-16.884,5.823l-.19.119-.024.024q-.273.159-.538.333a4.944,4.944,0,0,1-.467.3,34.6,34.6,0,0,0-3.5,2.654c-2.536,2.4-5.44,6.43-5.261,9.845a4.534,4.534,0,0,0,1.834,3.508,6.116,6.116,0,0,0,3.826,1.189c3.08,0,6.462-1.644,8.778-3.026.149-.1.3-.2.443-.288.4-.262.8-.517,1.207-.788l.4-.262A47.614,47.614,0,0,1,27,19.223a8.427,8.427,0,0,1,2.66-.493,5.19,5.19,0,0,1,1.15.119,3.557,3.557,0,0,1,2.527,1.926c.892,1.778.672,4.566-.535,7.125a31.121,31.121,0,0,1-8.418,10.208,33.28,33.28,0,0,1-5.505,3.84l-.149.077a20.726,20.726,0,0,1-2.55,1.219l-.128.045c-.268.1-.5.187-.713.256-3.852,1.008-1.51-2.31-1.51-2.31a29.258,29.258,0,0,1,2.628-2.6c.517-.482,1.055-.969,1.6-1.5l.119-.119a3.875,3.875,0,0,0,1.537-2.848c-.077-1.712-1.855-2.788-3.531-2.833h-.119a7.21,7.21,0,0,0-4.126,1.694A13.381,13.381,0,0,0,9.175,36.08C8.153,37.671,6,41.725,8.1,44.959a4.616,4.616,0,0,0,4.17,1.95A14.58,14.58,0,0,0,17,45.958ZM91.757,0A5.457,5.457,0,0,0,86.22,5.354a5.466,5.466,0,0,0,10.93.039,5.134,5.134,0,0,0-1.5-3.778A5.374,5.374,0,0,0,91.757,0ZM87.376,46.877H95.97V13.4l-8.594,1.367V46.883ZM68.646,12.794a25.974,25.974,0,0,0-11.587,2.981l-.966.49,2.31,5.041,1.3-.6a19.022,19.022,0,0,1,8.115-1.858c3.112.125,4.393,1.519,4.393,4.441V25h-5.1c-8.186,0-13.281,4.251-13.421,10.835,0,6.269,5.333,11.661,12.755,11.661,5.993,0,11.064-1.9,14.485-5.255V24.36c.006-8.709-6.349-11.566-12.285-11.566ZM72.2,40.56a8.641,8.641,0,0,1-4.462,1.082c-3.454,0-5.015-2.595-4.955-5.618.062-2.5,1.656-5.336,5.966-5.336H72.2V40.56Zm87.023,1.02a6.558,6.558,0,0,1-4.988-1.852c-1.546-1.638-2.229-5-2.045-8.561h18.531v-.841c-.158-11.866-4.289-17.27-13.35-17.27-10.107,0-14.042,9.1-14.113,17.633-.065,5.4,2.021,10.85,5.838,13.944a14.478,14.478,0,0,0,9.259,2.928,21.076,21.076,0,0,0,6.094-.883,24.528,24.528,0,0,0,6.465-3.071l-2.432-4.878a16.864,16.864,0,0,1-9.256,2.854Zm-1.861-22.264c3.82,0,4.382,4.054,4.382,6.575h-9.3c.149-3.24,1.528-6.572,4.925-6.572Zm-54.51.077L102.839,46.9h8.769v-25.9a9.98,9.98,0,0,1,5.877-2.14,11.537,11.537,0,0,1,3.522.351l2.423-5.324a15.1,15.1,0,0,0-5.787-1.02,20.2,20.2,0,0,0-14.788,6.519Zm86.09,22.214c-3.576-.268-4.325-1.8-4.325-4.361V4.117L176,5.556V36.7c0,7.381,4.1,10.546,10.957,10.546a21.608,21.608,0,0,0,3.285-.339V41.624C190.245,41.618,189.437,41.642,188.943,41.606ZM134.556,4.162l-8.811,1.382V36.838c0,7.015,4.188,10.326,11.206,10.326a19.224,19.224,0,0,0,3.276-.312V41.645c-.1-.006-.746-.006-1.24-.024-3.7-.125-4.426-2.122-4.426-4.429V19.58h5.675V13.4h-5.675V4.162Z" transform="translate(0 0)" fill="#e90000"/>
</svg>
