<svg id="Group_40" data-name="Group 40" xmlns="http://www.w3.org/2000/svg" width="60" height="60" viewBox="0 0 60 60">
  <circle id="Ellipse_7" data-name="Ellipse 7" cx="30" cy="30" r="30" fill="#354c9e"/>
  <path id="_7d49ad97c43e67ae0188338c853bb634" data-name="7d49ad97c43e67ae0188338c853bb634" d="M.012,11.852a9.287,9.287,0,0,1,1.464-5.5l.272-.4.023-.022.189-.222h0l.2-.227.023-.023A7.169,7.169,0,0,1,3.43,4.438l.128-.081h0l.128-.075.3-.173c.122-.058.254-.126.375-.184.089-.034.177-.079.266-.114.167-.07.344-.139.521-.2a.907.907,0,0,1,.188-.069l.072-.029h0l.078-.029a12.664,12.664,0,0,1,2.477-.484l-.087.01V1.275a1.26,1.26,0,1,1,2.52,0v5.5a1.26,1.26,0,1,1-2.52,0V5.5a8.3,8.3,0,0,0-2.408.614c-1.987.894-2.934,2.6-3.024,5.293l-.007.434v.678H29.065v-.695a7.719,7.719,0,0,0-.731-3.615A4.608,4.608,0,0,0,26.021,6.1a8.022,8.022,0,0,0-1.958-.562l-.437-.053V6.77a1.26,1.26,0,0,1-2.52,0V5.392h-10.7V2.89H21.1V1.267a1.26,1.26,0,0,1,2.52-.019V3.006a12.156,12.156,0,0,1,1.815.319l.594.168a.986.986,0,0,1,.15.045c.066.023.122.047.188.069.176.058.339.126.509.2.1.034.188.079.264.114.132.058.267.126.375.184s.218.121.311.173.165.109.243.156a7.581,7.581,0,0,1,.965.74l.295.281.013.023.206.218h0l.194.23.011.022A9.266,9.266,0,0,1,31.5,11.358l-.012.488v.678H31.5v13.57C31.5,32.01,28.2,35,21.646,35H9.839C3.3,35,0,32.01,0,26.093H0V12.523H.012ZM22.953,24.931A1.468,1.468,0,0,0,21.5,26.418a1.488,1.488,0,0,0,1.457,1.487,1.488,1.488,0,0,0,0-2.974Zm-7.2-.016a1.5,1.5,0,0,0,0,2.99A1.469,1.469,0,0,0,17.2,26.4a1.5,1.5,0,0,0-1.442-1.487Zm-7.21,0a1.5,1.5,0,0,0,0,2.99,1.5,1.5,0,0,0,0-2.99ZM22.953,18.58a1.488,1.488,0,1,0,1.442,1.487A1.456,1.456,0,0,0,22.953,18.58Zm-7.2-.016a1.5,1.5,0,0,0,0,2.99,1.469,1.469,0,0,0,1.442-1.5,1.486,1.486,0,0,0-1.442-1.487Zm-7.2,0a1.482,1.482,0,0,0-1.457,1.5,1.443,1.443,0,1,0,1.457-1.5Z" transform="translate(14.25 12.5)" fill="#fff"/>
</svg>
