<svg id="Group_44277" data-name="Group 44277" xmlns="http://www.w3.org/2000/svg" width="26.594" height="37.231" viewBox="0 0 26.594 37.231">
  <path id="Path_51107" data-name="Path 51107" d="M48.978,378.793a6.648,6.648,0,1,1,10.638,0V388.1a1.329,1.329,0,0,1-1.8,1.245L54.3,388.025l-3.522,1.322a1.329,1.329,0,0,1-1.8-1.245Zm2.659,2.106v5.284l2.193-.823a1.327,1.327,0,0,1,.933,0l2.193.823V380.9a6.654,6.654,0,0,1-5.319,0Zm-5.319,3.214h-1.33A3.99,3.99,0,0,1,41,380.124V356.189a3.991,3.991,0,0,1,3.989-3.989H63.6a3.991,3.991,0,0,1,3.989,3.989v23.935a3.99,3.99,0,0,1-3.989,3.989h-1.33V379.6a9.308,9.308,0,1,0-15.956,0Zm1.33-21.275h13.3a1.33,1.33,0,1,0,0-2.659h-13.3a1.33,1.33,0,1,0,0,2.659Zm2.659-5.319h7.978a1.33,1.33,0,1,0,0-2.659H50.308a1.33,1.33,0,1,0,0,2.659Z" transform="translate(-41 -352.2)" fill="#ff0083" fill-rule="evenodd"/>
</svg>
