<svg xmlns="http://www.w3.org/2000/svg" width="11.227" height="14.033" viewBox="0 0 11.227 14.033">
  <path id="Path_52997" data-name="Path 52997" d="M7.157,6.912h1.4a.351.351,0,0,0,0-.7h-1.4a.351.351,0,0,0,0,.7ZM15.2,6.426a.351.351,0,0,0-.076-.113L10.914,2.1a.353.353,0,0,0-.248-.1H6.1A2.107,2.107,0,0,0,4,4.1v9.823a2.107,2.107,0,0,0,2.1,2.1h7.017a2.107,2.107,0,0,0,2.1-2.1V6.561A.35.35,0,0,0,15.2,6.426ZM11.017,3.2,14.029,6.21H11.952a.936.936,0,0,1-.935-.935Zm3.508,10.731a1.405,1.405,0,0,1-1.4,1.4H6.1a1.405,1.405,0,0,1-1.4-1.4V4.1A1.405,1.405,0,0,1,6.1,2.7h4.21V5.275a1.639,1.639,0,0,0,1.637,1.637h2.573ZM6.807,9.367a.351.351,0,0,0,.351.351h4.912a.351.351,0,0,0,0-.7H7.157A.351.351,0,0,0,6.807,9.367Zm5.262,2.456H7.157a.351.351,0,0,0,0,.7h4.912a.351.351,0,0,0,0-.7Z" transform="translate(-4 -2)" fill="#707070"/>
</svg>
