<svg id="Group_44367" data-name="Group 44367" xmlns="http://www.w3.org/2000/svg" width="42" height="42" viewBox="0 0 42 42">
  <rect id="Rectangle_1" data-name="Rectangle 1" width="42" height="42" rx="11"/>
  <g id="Layer_2" data-name="Layer 2" transform="translate(7 7)">
    <g id="cloud-download">
      <rect id="Rectangle_19389" data-name="Rectangle 19389" width="28" height="28" fill="#fff" opacity="0"/>
      <path id="Path_51154" data-name="Path 51154" d="M25.516,12.464a1.6,1.6,0,0,0-.106-.39A4.928,4.928,0,0,0,25.2,11.4c-.059-.142-.142-.284-.213-.437a4.591,4.591,0,0,0-.284-.52c-.106-.165-.248-.248-.248-.343s-.236-.3-.366-.437-.248-.236-.378-.355l-.437-.39-.425-.284a4.349,4.349,0,0,0-.52-.272l-.461-.213a4.881,4.881,0,0,0-.591-.177,3.545,3.545,0,0,0-.485-.106h-.213a7.09,7.09,0,0,0-13.46-.13H6.9a3.545,3.545,0,0,0-.485.106,4.88,4.88,0,0,0-.591.177l-.461.213a4.349,4.349,0,0,0-.52.272l-.425.414-.437.366c-.13.118-.26.225-.378.355s-.248.3-.366.437a3.525,3.525,0,0,0-.307.425c-.095.154-.189.343-.284.52a4.791,4.791,0,0,0-.213.437,4.928,4.928,0,0,0-.213.674,2.392,2.392,0,0,1-.106.39A6.18,6.18,0,0,0,2,13.646a6.5,6.5,0,0,0,.106,1.075,1.807,1.807,0,0,0,.083.343,6.594,6.594,0,0,0,.213.685l.142.343a5.909,5.909,0,0,0,.355.662l.165.26a.662.662,0,0,0,.059.095l.059.083a5.909,5.909,0,0,0,4.727,2.363,2.381,2.381,0,0,1,2.363-2.363,2.269,2.269,0,0,1,1.182.319V13.646a2.363,2.363,0,0,1,4.727,0v3.982a2.363,2.363,0,0,1,1.182-.319,2.423,2.423,0,0,1,1.7.721,2.363,2.363,0,0,1,.662,1.524,5.909,5.909,0,0,0,4.727-2.363l.059-.059a.662.662,0,0,0,.059-.095l.165-.26a5.908,5.908,0,0,0,.355-.662l.142-.343a6.594,6.594,0,0,0,.213-.685,1.807,1.807,0,0,1,.083-.343,6.5,6.5,0,0,0,.106-1.1,6.181,6.181,0,0,0-.118-1.182Z" transform="translate(0.363 0.535)" fill="#fff"/>
      <path id="Path_51155" data-name="Path 51155" d="M15.457,17.358l-1.548,1.489V12.182a1.182,1.182,0,0,0-2.363,0v6.606l-1.524-1.536a1.187,1.187,0,1,0-1.678,1.678l3.545,3.545a1.184,1.184,0,0,0,1.654.012l3.545-3.427a1.182,1.182,0,1,0-1.631-1.7Z" transform="translate(1.453 1.999)" fill="#fff"/>
      <rect id="Rectangle_19390" data-name="Rectangle 19390" width="28" height="28" fill="#fff" opacity="0"/>
      <path id="Path_51156" data-name="Path 51156" d="M25.516,12.464a1.6,1.6,0,0,0-.106-.39A4.928,4.928,0,0,0,25.2,11.4c-.059-.142-.142-.284-.213-.437a4.591,4.591,0,0,0-.284-.52c-.106-.165-.248-.248-.248-.343s-.236-.3-.366-.437-.248-.236-.378-.355l-.437-.39-.425-.284a4.349,4.349,0,0,0-.52-.272l-.461-.213a4.881,4.881,0,0,0-.591-.177,3.545,3.545,0,0,0-.485-.106h-.213a7.09,7.09,0,0,0-13.46-.13H6.9a3.545,3.545,0,0,0-.485.106,4.88,4.88,0,0,0-.591.177l-.461.213a4.349,4.349,0,0,0-.52.272l-.425.414-.437.366c-.13.118-.26.225-.378.355s-.248.3-.366.437a3.525,3.525,0,0,0-.307.425c-.095.154-.189.343-.284.52a4.791,4.791,0,0,0-.213.437,4.928,4.928,0,0,0-.213.674,2.392,2.392,0,0,1-.106.39A6.18,6.18,0,0,0,2,13.646a6.5,6.5,0,0,0,.106,1.075,1.807,1.807,0,0,0,.083.343,6.594,6.594,0,0,0,.213.685l.142.343a5.909,5.909,0,0,0,.355.662l.165.26a.662.662,0,0,0,.059.095l.059.083a5.909,5.909,0,0,0,4.727,2.363,2.381,2.381,0,0,1,2.363-2.363,2.269,2.269,0,0,1,1.182.319V13.646a2.363,2.363,0,0,1,4.727,0v3.982a2.363,2.363,0,0,1,1.182-.319,2.423,2.423,0,0,1,1.7.721,2.363,2.363,0,0,1,.662,1.524,5.909,5.909,0,0,0,4.727-2.363l.059-.059a.662.662,0,0,0,.059-.095l.165-.26a5.908,5.908,0,0,0,.355-.662l.142-.343a6.594,6.594,0,0,0,.213-.685,1.807,1.807,0,0,1,.083-.343,6.5,6.5,0,0,0,.106-1.1,6.181,6.181,0,0,0-.118-1.182Z" transform="translate(0.363 0.535)" fill="#fff"/>
      <path id="Path_51157" data-name="Path 51157" d="M15.457,17.358l-1.548,1.489V12.182a1.182,1.182,0,0,0-2.363,0v6.606l-1.524-1.536a1.187,1.187,0,1,0-1.678,1.678l3.545,3.545a1.184,1.184,0,0,0,1.654.012l3.545-3.427a1.182,1.182,0,1,0-1.631-1.7Z" transform="translate(1.453 1.999)" fill="#fff"/>
    </g>
  </g>
</svg>
