<svg id="_4522db8c827747c0024effa4b1986d7a" data-name="4522db8c827747c0024effa4b1986d7a" xmlns="http://www.w3.org/2000/svg" width="37.566" height="38.262" viewBox="0 0 37.566 38.262">
  <g id="e109e4622943716395c2e1473fd71bfd">
    <path id="Path_51115" data-name="Path 51115" d="M2.5,33.859V24.12l9.739-4.87L18.5,30.729l1.044-6.609-.7-2.435,2.435-2.435,2.435,2.435-.7,2.435,1.044,6.609L30.327,19.25l9.739,4.87v9.739Z" transform="translate(-2.5 4.403)" fill="#00407e" fill-rule="evenodd"/>
    <path id="Path_51116" data-name="Path 51116" d="M18.722,2.25A10.435,10.435,0,0,0,9.044,8.806l2.486,1.245a1.387,1.387,0,0,1,1.28-.842h2.783a1.368,1.368,0,0,1,1.32,1.041h3.618A1.368,1.368,0,0,1,21.853,9.21h2.783a1.388,1.388,0,0,1,1.28.842L28.4,8.806A10.435,10.435,0,0,0,18.722,2.25Z" transform="translate(0.061 -2.25)" fill="#00407e"/>
    <path id="Path_51117" data-name="Path 51117" d="M8.827,7.927a10.435,10.435,0,1,0,20.22,0l-2.806,1.4v.44a1.388,1.388,0,0,1-1.391,1.391H22.067a1.388,1.388,0,0,1-1.391-1.391V9.42H17.2v.351a1.388,1.388,0,0,1-1.391,1.391H13.023a1.388,1.388,0,0,1-1.391-1.391v-.44Zm14.938,6.364a.7.7,0,0,1,.584,1.128,6.8,6.8,0,0,1-10.826.019.7.7,0,0,1,1.1-.854,5.407,5.407,0,0,0,8.626-.015.7.7,0,0,1,.516-.278Z" transform="translate(-0.152 -0.028)" fill="#00407e"/>
  </g>
</svg>
