<svg id="_0b17448518a87f99fd968a48f45cfcf3" data-name="0b17448518a87f99fd968a48f45cfcf3" xmlns="http://www.w3.org/2000/svg" width="28" height="32.938" viewBox="0 0 28 32.938">
  <path id="Path_18456" data-name="Path 18456" d="M0,19.619v-.337A6.166,6.166,0,0,1,.99,16.251a8.413,8.413,0,0,0,1.96-3.88c.074-1.1,0-2.225.074-3.338C3.554,3.689,8.844,0,13.913,0h.147c5.157,0,10.315,3.689,10.875,9.033.1,1.1,0,2.24.088,3.338a8.252,8.252,0,0,0,1.96,3.88A5.834,5.834,0,0,1,28,19.282v.337A6.025,6.025,0,0,1,26.526,23.6a7.386,7.386,0,0,1-4.7,2.3,62.12,62.12,0,0,1-15.811,0,7.384,7.384,0,0,1-4.642-2.3A5.934,5.934,0,0,1,0,19.619Z" transform="translate(0 0)" fill="#fff"/>
  <path id="Path_18457" data-name="Path 18457" d="M12.316,17.108c-1.046-.073-1.9,0-2.755,0a10.448,10.448,0,0,0-2.52.264c-.707.161-1.474.542-1.474,1.347a2.6,2.6,0,0,0,1.149,1.918,6.129,6.129,0,0,0,4.421,1.215A5.135,5.135,0,0,0,14.953,19.7a1.458,1.458,0,0,0-.25-2.035h0A5.481,5.481,0,0,0,12.316,17.108Z" transform="translate(3.601 11.046)" fill="#fff" opacity="0.7"/>
</svg>
