<svg xmlns="http://www.w3.org/2000/svg" width="40.729" height="26.311" viewBox="0 0 40.729 26.311">
  <path id="_79c5fa8438915b0e5059337d6c85d60b" data-name="79c5fa8438915b0e5059337d6c85d60b" d="M30.467,17.175s-1.1,4.846-2.177,8.35a15.939,15.939,0,0,1-1.462,3.633,5.209,5.209,0,0,1-8.534-5.977,16.073,16.073,0,0,1,2.915-2.616c2.923-2.209,7.1-4.9,7.1-4.9a1.422,1.422,0,0,1,2.156,1.51Zm-16.61,1.987a9.911,9.911,0,0,0-2.188,6.223,1.421,1.421,0,0,1-1.421,1.421H2.671A1.421,1.421,0,0,1,1.25,25.385,20.29,20.29,0,0,1,6.469,11.776l7.388,7.386ZM8.513,9.8a20.278,20.278,0,0,1,11.681-4.73V15.54a9.866,9.866,0,0,0-4.258,1.682L8.513,9.8Zm14.522-4.73a20.269,20.269,0,0,1,11.936,4.95L30.9,14.089a3.317,3.317,0,0,0-3.614-.017s-1.18.762-2.732,1.809a9.87,9.87,0,0,0-1.519-.341Zm13.946,6.958a20.289,20.289,0,0,1,5,13.359,1.421,1.421,0,0,1-1.421,1.421H32.98a1.421,1.421,0,0,1-1.421-1.421,9.924,9.924,0,0,0-.439-2.932c.674-2.578,1.193-4.859,1.193-4.859a3.322,3.322,0,0,0,.074-.974l4.594-4.594Z" transform="translate(-1.25 -5.068)" fill="#25d500" fill-rule="evenodd"/>
</svg>
