<svg xmlns="http://www.w3.org/2000/svg" width="25.996" height="29.71" viewBox="0 0 25.996 29.71">
  <path id="_67932cca3e46efd3320b0cc1d91408ba" data-name="67932cca3e46efd3320b0cc1d91408ba" d="M24.561,17.083a4.672,4.672,0,0,0-2.6-.65c-.928,0-1.95.093-3.157.186A8.414,8.414,0,0,1,17.319,15.6a10.3,10.3,0,0,1-2.6-4.085c0-.186.093-.279.093-.371a24.131,24.131,0,0,0,.464-4.735.558.558,0,0,0-.093-.371l-.093-.186c-.093-.279-.464-.743-.928-.65h-.279a1.244,1.244,0,0,0-1.207.743c-.371,1.393,0,3.528.743,6.221l-.279.464c-.464,1.207-1.114,2.507-1.671,3.621l-.093.186C10.82,17.547,10.263,18.569,9.8,19.4l-.464.279-1.114.557C6.456,21.261,5.342,22.468,5.157,23.4a.749.749,0,0,0,.279.836l.464.279a1.721,1.721,0,0,0,.65.186c1.207,0,2.692-1.485,4.642-4.921A38.881,38.881,0,0,1,18.248,18.1a12.955,12.955,0,0,0,5.2,1.671,1.377,1.377,0,0,0,.65-.093,1.5,1.5,0,0,0,.65-.371,2.52,2.52,0,0,0,.279-1.485A2.57,2.57,0,0,0,24.561,17.083Zm-18.29,6.5A7.468,7.468,0,0,1,8.685,20.7l.464-.464C7.756,22.468,6.921,23.3,6.271,23.582Zm7.8-17.826c.371,0,.65,1.021.65,1.95a3.9,3.9,0,0,1-.464,2.043,12.539,12.539,0,0,1-.371-2.6c0,.093,0-1.393.186-1.393Zm-2.321,12.72c.279-.464.557-1.021.836-1.578a29,29,0,0,0,1.485-3.25,10.093,10.093,0,0,0,2.507,3.064c.093.093.279.186.371.279a40.067,40.067,0,0,0-5.2,1.485Zm12.441-.093c-.093.093-.464.093-.65.093a10.079,10.079,0,0,1-2.878-.836c.464,0,.928-.093,1.3-.093a5.141,5.141,0,0,1,1.671.186c.65.186.65.557.557.65ZM20.569,0H2V29.71H28V7.427Zm5.571,27.853H3.857v-26H20.569V7.427h5.571Z" transform="translate(-2)"/>
</svg>
