<svg xmlns="http://www.w3.org/2000/svg" width="24" height="24" viewBox="0 0 24 24">
  <path id="_2b2900e6a3fdb038737b6ec0c31e92f0" data-name="2b2900e6a3fdb038737b6ec0c31e92f0" d="M22.4,2H5.6A3.6,3.6,0,0,0,2,5.6V22.4A3.6,3.6,0,0,0,5.6,26H22.4a3.372,3.372,0,0,0,.588-.06l.36-.084h.144l.444-.168.156-.084c.12-.072.252-.132.372-.216A4.548,4.548,0,0,0,24.92,25L25,24.9a3.228,3.228,0,0,0,.324-.384l.108-.156a2.772,2.772,0,0,0,.216-.42,1.2,1.2,0,0,0,.084-.18c.06-.144.1-.3.144-.456v-.18A3.12,3.12,0,0,0,26,22.4V5.6A3.6,3.6,0,0,0,22.4,2ZM5.6,23.6a1.2,1.2,0,0,1-1.2-1.2V17.228l3.948-3.96h0a1.2,1.2,0,0,1,1.7,0L20.372,23.6Zm18-1.2a.975.975,0,0,1-.18.6,1.128,1.128,0,0,1-.108.144l-6.42-6.42,1.056-1.056a1.2,1.2,0,0,1,1.7,0h0l3.948,3.96Zm0-6.168L21.344,14a3.7,3.7,0,0,0-5.088,0L15.2,15.056,11.744,11.6a3.7,3.7,0,0,0-5.088,0L4.4,13.832V5.6A1.2,1.2,0,0,1,5.6,4.4H22.4a1.2,1.2,0,0,1,1.2,1.2Z" transform="translate(-2 -2)"/>
</svg>
