<svg xmlns="http://www.w3.org/2000/svg" width="23.51" height="27.845" viewBox="0 0 23.51 27.845">
  <g id="_70fade71b5a52d187d0046af3cc3b5d2" data-name="70fade71b5a52d187d0046af3cc3b5d2" transform="translate(-6.24 -1.46)">
    <path id="Path_18436" data-name="Path 18436" d="M27.056,6.5V4.118h1.368a1.329,1.329,0,0,0,0-2.658H7.567a1.329,1.329,0,0,0,0,2.658H8.911V6.5a13.4,13.4,0,0,0,2.548,7.481,11.611,11.611,0,0,0,1.176,1.4,12.031,12.031,0,0,0-1.176,1.409,13.4,13.4,0,0,0-2.548,7.481v2.375H7.567a1.329,1.329,0,0,0,0,2.658H28.4a1.329,1.329,0,0,0,0-2.658H27.033V24.272a13.4,13.4,0,0,0-2.548-7.481,12.031,12.031,0,0,0-1.153-1.409,11.611,11.611,0,0,0,1.176-1.4A13.4,13.4,0,0,0,27.056,6.5ZM21.6,16.75a11.183,11.183,0,0,1,3.278,7.522v2.375h-13.8V24.272a11.183,11.183,0,0,1,3.25-7.495,1.9,1.9,0,0,0,0-2.735,11.16,11.16,0,0,1-3.26-7.49V4.118h13.8V6.5a11.16,11.16,0,0,1-3.25,7.49A1.9,1.9,0,0,0,21.6,16.75Z" transform="translate(0 0)" fill="currentColor"/>
    <path id="Path_18437" data-name="Path 18437" d="M30.964,33.266H20v-.255c0-3.032,2.439-6.97,5.471-6.97s5.471,3.939,5.471,6.97ZM21.468,15.3h8.005v.155c0,1.846-1.792,4.267-4,4.267s-4-2.4-4-4.244Z" transform="translate(-7.487 -7.531)" fill="currentColor"/>
    <circle id="Ellipse_589" data-name="Ellipse 589" cx="0.821" cy="0.821" r="0.821" transform="translate(17.163 13.017)" fill="currentColor"/>
    <circle id="Ellipse_590" data-name="Ellipse 590" cx="1.076" cy="1.076" r="1.076" transform="translate(16.908 15.506)" fill="currentColor"/>
  </g>
</svg>
