<svg id="Quis" xmlns="http://www.w3.org/2000/svg" width="34.282" height="34.328" viewBox="0 0 34.282 34.328">
  <path id="Path_51103" data-name="Path 51103" d="M29.026,22.931l-.343.343a5.318,5.318,0,0,0-1.543,3.771v.514a5.34,5.34,0,0,1-5.314,5.314h-.514a5.318,5.318,0,0,0-3.771,1.543l-.343.343A5.489,5.489,0,0,1,10,35.1c.171,0,.171-.171.343-.343l.343-.343a5.318,5.318,0,0,1,3.771-1.543h.514a5.34,5.34,0,0,0,5.314-5.314v-.514a5.318,5.318,0,0,1,1.543-3.771l.343-.343a5.38,5.38,0,0,0,0-7.542l-.343-.343a5.318,5.318,0,0,1-1.543-3.771v-.514a5.34,5.34,0,0,0-5.314-5.314h-.514A5.318,5.318,0,0,1,10.686,3.9l-.343-.343L10,3.219a5.3,5.3,0,0,1,7.2.343l.343.343a5.318,5.318,0,0,0,3.771,1.543h.514a5.34,5.34,0,0,1,5.314,5.314v.514a5.318,5.318,0,0,0,1.543,3.771l.343.343A5.38,5.38,0,0,1,29.026,22.931Z" transform="translate(3.713 -1.973)" fill="#ffd1a5"/>
  <path id="Path_51104" data-name="Path 51104" d="M19.141,5.428a1.946,1.946,0,0,1,1.371.514l.343.343a8.416,8.416,0,0,0,6.171,2.571h.514a1.9,1.9,0,0,1,1.886,1.886v.514A8.416,8.416,0,0,0,32,17.427l.343.343a2.085,2.085,0,0,1,0,2.743L32,20.855a8.416,8.416,0,0,0-2.571,6.171v.514a1.9,1.9,0,0,1-1.886,1.886h-.514A8.416,8.416,0,0,0,20.855,32l-.343.343a2.085,2.085,0,0,1-2.743,0L17.427,32a8.416,8.416,0,0,0-6.171-2.571h-.514A1.9,1.9,0,0,1,8.856,27.54v-.514a8.416,8.416,0,0,0-2.571-6.171l-.343-.343a2.085,2.085,0,0,1,0-2.743l.343-.343a8.416,8.416,0,0,0,2.571-6.171v-.514a1.9,1.9,0,0,1,1.886-1.886h.514a8.416,8.416,0,0,0,6.171-2.571l.343-.343a1.946,1.946,0,0,1,1.371-.514m0-3.428A5.318,5.318,0,0,0,15.37,3.543l-.343.343a5.318,5.318,0,0,1-3.771,1.543h-.514a5.34,5.34,0,0,0-5.314,5.314v.514a5.318,5.318,0,0,1-1.543,3.771l-.343.343a5.38,5.38,0,0,0,0,7.542l.343.343a5.318,5.318,0,0,1,1.543,3.771v.514a5.34,5.34,0,0,0,5.314,5.314h.514A5.318,5.318,0,0,1,15.027,34.4l.343.343a5.38,5.38,0,0,0,7.542,0l.343-.343a5.318,5.318,0,0,1,3.771-1.543h.514a5.34,5.34,0,0,0,5.314-5.314v-.514A5.318,5.318,0,0,1,34.4,23.255l.343-.343a5.38,5.38,0,0,0,0-7.542l-.343-.343a5.318,5.318,0,0,1-1.543-3.771v-.514A5.34,5.34,0,0,0,27.54,5.428h-.514a5.318,5.318,0,0,1-3.771-1.543l-.343-.343A5.318,5.318,0,0,0,19.141,2Z" transform="translate(-2 -1.954)" fill="#ff7c00"/>
  <path id="Path_51105" data-name="Path 51105" d="M10,12.457v-1.2A3.2,3.2,0,0,1,12.914,8h1.543a2.983,2.983,0,0,1,2.914,3.257h0a2.839,2.839,0,0,1-.857,2.057l-1.886,1.2a3.246,3.246,0,0,0-1.543,2.743v1.028" transform="translate(3.713 2.33)" fill="none" stroke="#ff7c00" stroke-linecap="round" stroke-width="2"/>
  <path id="Path_51106" data-name="Path 51106" d="M12.714,19.428h0A1.619,1.619,0,0,1,11,17.714h0A1.619,1.619,0,0,1,12.714,16h0a1.619,1.619,0,0,1,1.714,1.714h0A1.619,1.619,0,0,1,12.714,19.428Z" transform="translate(4.427 8.043)" fill="#ff7c00" stroke="#ff7c00"/>
</svg>
