<svg xmlns="http://www.w3.org/2000/svg" xmlns:xlink="http://www.w3.org/1999/xlink" width="137" height="105" viewBox="0 0 137 105">
  <defs>
    <clipPath id="clip-path">
      <path id="Bg" d="M10,0h95a0,0,0,0,1,0,0V127a10,10,0,0,1-10,10H10A10,10,0,0,1,0,127V10A10,10,0,0,1,10,0Z" fill="#ffe7ce"/>
    </clipPath>
    <clipPath id="clip-path-2">
      <path id="Path_51121" data-name="Path 51121" d="M71.441,157.824c38.319,41.653,73.829-36.962,74.747-80.505S135.244,2.915,74.765.137.936,37.1.018,80.643,33.122,116.171,71.441,157.824Z" transform="matrix(0.259, 0.966, -0.966, 0.259, 163.846, 0)" fill="#ffe7ce" stroke="#707070" stroke-width="1"/>
    </clipPath>
  </defs>
  <g id="Mask_Group_23" data-name="Mask Group 23" transform="translate(0 105) rotate(-90)" clip-path="url(#clip-path)">
    <g id="Mask_Group_22" data-name="Mask Group 22" transform="translate(4.401 -14.224)" clip-path="url(#clip-path-2)">
      <rect id="Bg-2" data-name="Bg" width="275" height="137" rx="10" transform="translate(-148.401 14.224)" fill="#ffe7ce"/>
    </g>
  </g>
</svg>
