<svg id="Group_44289" data-name="Group 44289" xmlns="http://www.w3.org/2000/svg" width="58" height="58" viewBox="0 0 58 58">
  <rect id="Rectangle_19272" data-name="Rectangle 19272" width="58" height="58" rx="10" fill="#ff7c00"/>
  <path id="_5b1fd0053bf9127edcf72c7a2558a68f" data-name="5b1fd0053bf9127edcf72c7a2558a68f" d="M18.045,2A16.045,16.045,0,1,0,34.09,18.045,16.092,16.092,0,0,0,18.045,2Zm5.616,19.254a1.776,1.776,0,0,1-2.246.642l-4.172-2.407a1.685,1.685,0,0,1-.8-1.444V10.022a1.516,1.516,0,0,1,1.6-1.6,1.516,1.516,0,0,1,1.6,1.6v7.06l3.369,1.925A1.776,1.776,0,0,1,23.661,21.254Z" transform="translate(10.955 10.955)" fill="#fff"/>
</svg>
