<svg xmlns="http://www.w3.org/2000/svg" width="16" height="20" viewBox="0 0 16 20">
  <path id="_0af5248c7abc1cf410fbd2458b209a04" data-name="0af5248c7abc1cf410fbd2458b209a04" d="M15,8h4.4L14,2.6V7A.945.945,0,0,0,15,8Zm0,2a2.946,2.946,0,0,1-3-3V2H7A2.946,2.946,0,0,0,4,5V19a2.946,2.946,0,0,0,3,3H17a2.946,2.946,0,0,0,3-3V10ZM9,8h1a.945.945,0,0,1,1,1,.945.945,0,0,1-1,1H9A.945.945,0,0,1,8,9,.945.945,0,0,1,9,8Zm6.8,5.6-2.3,3a1.075,1.075,0,0,1-1.4.2H12l-.9-.8L9.8,17.7a1.075,1.075,0,0,1-1.4.2,1.075,1.075,0,0,1-.2-1.4h0l2-2.5a1.612,1.612,0,0,1,.7-.4,1.33,1.33,0,0,1,.8.3l.9.8,1.7-2.2a1.075,1.075,0,0,1,1.4-.2A1.033,1.033,0,0,1,15.8,13.6Z" transform="translate(-4 -2)" fill="#fff"/>
</svg>
