<svg xmlns="http://www.w3.org/2000/svg" width="20.985" height="21.001" viewBox="0 0 20.985 21.001">
  <g id="_59e2628216d8fa9be7fae50783433c9e" data-name="59e2628216d8fa9be7fae50783433c9e" transform="translate(-2.5 -2.481)">
    <path id="Path_51129" data-name="Path 51129" d="M8.7,34.319a4.678,4.678,0,0,0-3.209,5.067.738.738,0,0,0,.684.692,5.011,5.011,0,0,0,3.971-1.341,4.515,4.515,0,0,0,1.106-1.866L8.7,34.319Z" transform="translate(-1.676 -17.919)" fill="#f9b938"/>
    <path id="Path_51130" data-name="Path 51130" d="M11.167,37.806l-.978-.978a2.708,2.708,0,0,0-1.9-.792,2.522,2.522,0,0,0-2.246,1.277A4.42,4.42,0,0,1,9.02,34.318l2.553,2.553A5.173,5.173,0,0,1,11.167,37.806Z" transform="translate(-1.994 -17.919)" fill="#e5a320"/>
    <path id="Path_51131" data-name="Path 51131" d="M12.126,35.735a2.412,2.412,0,0,0-1.655,2.613.38.38,0,0,0,.353.357,2.585,2.585,0,0,0,2.048-.692,2.327,2.327,0,0,0,.571-.963Z" transform="translate(-4.482 -18.716)" fill="#f7f363"/>
    <path id="Path_51132" data-name="Path 51132" d="M13.366,37.911l-.286-.285a2.708,2.708,0,0,0-1.9-.792,2.288,2.288,0,0,1,1.35-1.1l1.316,1.316a2.334,2.334,0,0,1-.481.861Z" transform="translate(-4.885 -18.716)" fill="#f7e839"/>
    <path id="Path_51133" data-name="Path 51133" d="M6.78,19.118a5.438,5.438,0,0,0-.654.013,6.553,6.553,0,0,0-2.376.619.854.854,0,0,1-.983-.177l0,0a.876.876,0,0,1-.164-1.03,8.189,8.189,0,0,1,1.576-2.2,8.422,8.422,0,0,1,5.011-2.406c.294-.026.584-.048.879-.048A15.639,15.639,0,0,0,6.78,19.118ZM13.864,29.8a.882.882,0,0,1-1.03-.165l-.009-.009a.865.865,0,0,1-.177-.982,6.5,6.5,0,0,0,.615-2.38,4.834,4.834,0,0,0,.017-.667,15.474,15.474,0,0,0,5.228-3.271,7.525,7.525,0,0,1-.056.887,8.153,8.153,0,0,1-1.632,4.141A8.468,8.468,0,0,1,13.864,29.8Z" transform="translate(0 -6.419)" fill="#fc6559"/>
    <path id="Path_51134" data-name="Path 51134" d="M11.734,13.886A15.652,15.652,0,0,0,8.45,19.118a4.283,4.283,0,0,0-.472,0c-.061,0-.125,0-.182.009a16.552,16.552,0,0,1,.661-1.569,1.217,1.217,0,0,0-1.609-1.65,6.175,6.175,0,0,0-1.381.839c.117-.143.247-.281.377-.411a8.422,8.422,0,0,1,5.011-2.406c.294-.026.584-.048.879-.048Zm5.583,14.723c.126-.143.247-.29.368-.446a5.418,5.418,0,0,0,.585-1.03,1.215,1.215,0,0,0-1.66-1.583,17.021,17.021,0,0,1-1.678.717,1.323,1.323,0,0,0,.013-.186,4.4,4.4,0,0,0,0-.48,15.474,15.474,0,0,0,5.228-3.271,7.524,7.524,0,0,1-.056.887,8.153,8.153,0,0,1-1.632,4.141,8.952,8.952,0,0,1-1.173,1.251Z" transform="translate(-1.67 -6.419)" fill="#f05543"/>
    <path id="Path_51135" data-name="Path 51135" d="M23.4,15.625a15.947,15.947,0,0,1-7.807,4.25,1.468,1.468,0,0,1-1.338-.4L11.09,16.3a1.457,1.457,0,0,1-.4-1.342A15.92,15.92,0,0,1,26.618,2.481a1.459,1.459,0,0,1,1.458,1.458A16.308,16.308,0,0,1,23.4,15.624Z" transform="translate(-4.591)" fill="#e4e3ff"/>
    <path id="Path_51136" data-name="Path 51136" d="M14.373,20.482a13.688,13.688,0,0,1,1.163-2.74.459.459,0,1,1,.8.45,12.741,12.741,0,0,0-1.084,2.555.459.459,0,1,1-.879-.265Zm2.452-3.973a.459.459,0,0,1-.031-.614q.269-.33.558-.641a.459.459,0,0,1,.672.625q-.269.289-.519.6a.459.459,0,0,1-.681.034Z" transform="translate(-6.671 -7.107)" fill="#fff" opacity="0.6"/>
    <path id="Path_51137" data-name="Path 51137" d="M26.866,15.731a15.947,15.947,0,0,1-7.807,4.25,1.468,1.468,0,0,1-1.338-.4l-.908-.909a1.466,1.466,0,0,0,1.337.4,15.95,15.95,0,0,0,7.807-4.249A16.312,16.312,0,0,0,30.631,3.138a1.4,1.4,0,0,0-.078-.468,1.448,1.448,0,0,1,.987,1.376,16.308,16.308,0,0,1-4.674,11.685Z" transform="translate(-8.056 -0.106)" fill="#d0d0f7"/>
    <path id="Path_51138" data-name="Path 51138" d="M10.961,28.74c-.1.331-.194.661-.271,1a1.458,1.458,0,0,0,.4,1.342l3.168,3.168a1.467,1.467,0,0,0,1.337.4q.512-.116,1.016-.265L10.961,28.74Z" transform="translate(-4.59 -14.779)" fill="#fc6559"/>
    <path id="Path_51139" data-name="Path 51139" d="M20.037,40.276c-.337.1-.671.186-1.017.264a1.468,1.468,0,0,1-1.338-.4l-.939-.939a1.467,1.467,0,0,0,1.337.4q.512-.118,1.017-.264Z" transform="translate(-8.017 -20.666)" fill="#e24b40"/>
    <path id="Path_51140" data-name="Path 51140" d="M41.389,9a17.336,17.336,0,0,0,.735-5.062,1.459,1.459,0,0,0-1.458-1.458,17.32,17.32,0,0,0-5.047.75L41.39,9Z" transform="translate(-18.64 -0.001)" fill="#fc6559"/>
    <path id="Path_51141" data-name="Path 51141" d="M47.68,9.121,46.8,8.239a17.306,17.306,0,0,0,.736-5.063,1.375,1.375,0,0,0-.087-.485,1.44,1.44,0,0,1,.97,1.367,17.3,17.3,0,0,1-.736,5.064Z" transform="translate(-24.931 -0.118)" fill="#e24b40"/>
    <path id="Path_51142" data-name="Path 51142" d="M31.458,17.271a3.7,3.7,0,1,1,1.085-2.616,3.695,3.695,0,0,1-1.085,2.616Z" transform="translate(-12.748 -4.771)" fill="#474646"/>
    <path id="Path_51143" data-name="Path 51143" d="M29.391,13.163a.153.153,0,0,1,.019-.233,3.084,3.084,0,0,1,2.627-.475.153.153,0,1,1-.08.3,2.782,2.782,0,0,0-2.368.428A.153.153,0,0,1,29.391,13.163Zm3.371-.047a.153.153,0,0,1,.2-.234,3.126,3.126,0,0,1,.437.364.155.155,0,0,1,0,.218.157.157,0,0,1-.237-.026,3.132,3.132,0,0,0-.376-.3A.149.149,0,0,1,32.762,13.116Z" transform="translate(-15.11 -5.552)" fill="#fff" opacity="0.3"/>
    <path id="Path_51144" data-name="Path 51144" d="M31.46,21.661a3.69,3.69,0,0,1-6.288-2.9,3.62,3.62,0,0,0,1.073,2.5A3.7,3.7,0,0,0,32.542,19a3.653,3.653,0,0,1-1.082,2.657Z" transform="translate(-12.753 -9.161)" fill="#2d2c2c"/>
    <path id="Path_51145" data-name="Path 51145" d="M32.363,18.171a2.139,2.139,0,0,1-3.03,0,2.029,2.029,0,0,1-.45-.675,1.815,1.815,0,0,1-.156-.563,1.917,1.917,0,0,1,.013-.61,2.138,2.138,0,0,1,3.622-1.182,1.928,1.928,0,0,1,.242.295,2.121,2.121,0,0,1,.381,1.116,2.084,2.084,0,0,1-.2,1.017A2.041,2.041,0,0,1,32.363,18.171Z" transform="translate(-14.751 -6.774)" fill="#a2a2f9"/>
    <path id="Path_51146" data-name="Path 51146" d="M32.878,17.159l-4.151.957a1.917,1.917,0,0,1,.013-.61l3.865-.887A1.882,1.882,0,0,1,32.878,17.159Zm-.1,1.593L29.5,19.5q-.087-.072-.169-.151a2.029,2.029,0,0,1-.45-.675l4.1-.944A2.084,2.084,0,0,1,32.782,18.752Z" transform="translate(-14.751 -7.957)" fill="#fff" opacity="0.3"/>
    <path id="Path_51147" data-name="Path 51147" d="M32.933,17.158a2.1,2.1,0,0,0-.623-1.489,2.14,2.14,0,0,0-3.025,0,2.111,2.111,0,0,0-.562,1.013,2.136,2.136,0,1,1,4.211.472Z" transform="translate(-14.758 -6.774)" fill="#5e5eef"/>
  </g>
</svg>
