<svg xmlns="http://www.w3.org/2000/svg" width="22.805" height="24" viewBox="0 0 22.805 24">
  <path id="ecec16d258374996df925a33c046925c" d="M12.257,0a2.419,2.419,0,0,1,1.752.684,2.324,2.324,0,0,1,.72,1.7,2.417,2.417,0,0,0,2.449,2.389,2.552,2.552,0,0,0,1.212-.325,2.457,2.457,0,0,1,3.275.888h0l.817,1.4A2.416,2.416,0,0,1,22.8,7.932,2.365,2.365,0,0,1,21.582,10a2.4,2.4,0,0,0-.9.877,2.352,2.352,0,0,0,.9,3.2,2.373,2.373,0,0,1,.9,3.239h0l-.817,1.357a2.43,2.43,0,0,1-2.1,1.2,2.388,2.388,0,0,1-1.223-.325,2.632,2.632,0,0,0-1.225-.324,2.442,2.442,0,0,0-1.727.708,2.322,2.322,0,0,0-.721,1.692A2.412,2.412,0,0,1,12.221,24H10.578a2.416,2.416,0,0,1-1.705-.708,2.36,2.36,0,0,1-.695-1.68,2.406,2.406,0,0,0-2.436-2.388,2.377,2.377,0,0,0-1.249.349,2.579,2.579,0,0,1-1.86.239A2.5,2.5,0,0,1,1.145,18.7h0L.378,17.34a2.339,2.339,0,0,1-.3-1.872,2.43,2.43,0,0,1,1.187-1.5,2.329,2.329,0,0,0,.9-.876,2.375,2.375,0,0,0-.9-3.2,2.336,2.336,0,0,1-.887-3.2h0L1.145,5.34a2.446,2.446,0,0,1,1.5-1.14,2.479,2.479,0,0,1,1.872.252,2.614,2.614,0,0,0,1.225.312,2.48,2.48,0,0,0,1.727-.7,2.353,2.353,0,0,0,.709-1.68A2.414,2.414,0,0,1,10.625,0h1.632Zm.481,8.977a3.423,3.423,0,0,0-3.685.707,3.235,3.235,0,0,0-.732,3.589,3.353,3.353,0,0,0,3.108,2.039h.013a3.3,3.3,0,0,0,2.375-.96,3.233,3.233,0,0,0,1-2.328A3.27,3.27,0,0,0,12.738,8.978Z" transform="translate(0 0)" fill="#858997"/>
</svg>
