<svg xmlns="http://www.w3.org/2000/svg" width="30.019" height="33.206" viewBox="0 0 30.019 33.206">
  <g id="db13ea3989a32026c71eadc424b7faf9" transform="translate(-19.39)">
    <path id="Path_18438" data-name="Path 18438" d="M327.259,263l2.5.828a13.448,13.448,0,0,0,.5-2.038l-2.6-.428a10.8,10.8,0,0,1-.4,1.638Z" transform="translate(-282.564 -239.876)"/>
    <path id="Path_18439" data-name="Path 18439" d="M48.956,9.144,44.81,5.007a1.315,1.315,0,0,0-1.858,0l-2.591,2.6a12.894,12.894,0,0,0-1.641-.689v-5.6A1.337,1.337,0,0,0,37.38,0H31.517a1.341,1.341,0,0,0-1.345,1.315V6.849a17.112,17.112,0,0,0-1.821.744L25.768,5.007a1.311,1.311,0,0,0-1.854,0L19.771,9.144a1.328,1.328,0,0,0,0,1.862l2.537,2.531A13.525,13.525,0,0,0,46.376,25.885l-2.337-1.207a10.863,10.863,0,1,1,1.2-4.951h2.63a13.418,13.418,0,0,0-1.482-6.152l2.563-2.563a1.189,1.189,0,0,0,0-1.868Zm-26.392.931L24.847,7.8l1.229,1.227a13.637,13.637,0,0,0-2.3,2.261ZM32.8,6.285V2.63H36.09V6.309A14.005,14.005,0,0,0,32.8,6.285ZM42.635,9.04,43.882,7.8l2.284,2.278-1.234,1.231a13.635,13.635,0,0,0-2.3-2.266Z" transform="translate(0)"/>
    <path id="Path_18440" data-name="Path 18440" d="M171.2,165.795a2.823,2.823,0,0,0-3.144-2.809,4.653,4.653,0,0,0-2.831.91l.691,1.809a2.786,2.786,0,0,1,1.837-.748c.779.012,1.175.355,1.175,1.018a3.317,3.317,0,0,1-1.06,2,4.165,4.165,0,0,0-1.111,3.119l.06.773h2.061l-.033-.833a2.84,2.84,0,0,1,.846-2.131,4.763,4.763,0,0,0,1.508-3.106Zm-3.391,6.963a1.422,1.422,0,1,0,1.367,1.429A1.361,1.361,0,0,0,167.8,172.758Z" transform="translate(-133.844 -149.59)"/>
  </g>
</svg>
