<svg xmlns="http://www.w3.org/2000/svg" width="32" height="39.098" viewBox="0 0 32 39.098">
  <g id="_775dda99f80ac411a8f18e13c481570f" data-name="775dda99f80ac411a8f18e13c481570f" transform="translate(-23.15 -10)">
    <circle id="Ellipse_591" data-name="Ellipse 591" cx="15" cy="15" r="15" transform="translate(24.15 18.098)" fill="#fff"/>
    <path id="Path_18441" data-name="Path 18441" d="M61.511,14.755h-6.76A.753.753,0,0,1,54,14V11h7.511Z" transform="translate(-18.667)" fill="#fff"/>
    <path id="Path_18442" data-name="Path 18442" d="M68,11h2.253v3.755H68Z" transform="translate(-27.409)" fill="#00407e"/>
    <circle id="Ellipse_592" data-name="Ellipse 592" cx="15" cy="15" r="15" transform="translate(24.15 18.098)" fill="none" stroke="#4a4a4a" stroke-linecap="round" stroke-linejoin="round" stroke-width="2"/>
    <path id="Path_18443" data-name="Path 18443" d="M54,12.878V11h7.511v3.755H57.755v3.38" transform="translate(-18.667)" fill="none" stroke="#4a4a4a" stroke-linecap="round" stroke-linejoin="round" stroke-width="2"/>
    <path id="Path_18444" data-name="Path 18444" d="M75.266,51.379A11.3,11.3,0,0,0,65.239,40.188,1.115,1.115,0,0,0,64,41.315V51.379l7.135,7.135a1.158,1.158,0,0,0,1.69-.075A11.507,11.507,0,0,0,75.266,51.379Z" transform="translate(-24.912 -18.222)" fill="#00407e"/>
    <path id="Path_18445" data-name="Path 18445" d="M49.1,63.6A10.308,10.308,0,0,1,42.718,44" transform="translate(-7.197 -20.607)" fill="none" stroke="#4a4a4a" stroke-linecap="round" stroke-linejoin="round" stroke-width="2" stroke-dasharray="0.1 6"/>
  </g>
</svg>
