<svg xmlns="http://www.w3.org/2000/svg" width="34.334" height="34.327" viewBox="0 0 34.334 34.327">
  <g id="Layer_x0020_1" transform="translate(0)">
    <path id="Path_51101" data-name="Path 51101" d="M.853.853H35.18V35.18H.853Z" transform="translate(-0.846 -0.853)" fill="none" fill-rule="evenodd"/>
    <path id="Path_51102" data-name="Path 51102" d="M.853.853H35.18V35.18H.853Z" transform="translate(-0.846 -0.853)" fill="none" fill-rule="evenodd"/>
    <g id="_509095240" transform="translate(0 2.353)">
      <path id="_509095792" d="M.853,1.555H33.216A1.972,1.972,0,0,1,35.18,3.519V26.865a1.971,1.971,0,0,1-1.964,1.971H2.824A1.971,1.971,0,0,1,.853,26.865Z" transform="translate(-0.846 0.798)" fill="#ffb300" fill-rule="evenodd"/>
      <path id="_509096104" d="M2.133,1.2H16.112a1.3,1.3,0,0,1,1.274,1.314V3.557H.852V2.518A1.3,1.3,0,0,1,2.126,1.2Z" transform="translate(-0.852 -1.204)" fill="#ffa000" fill-rule="evenodd"/>
      <path id="_509095192" d="M4.29,1.723H19.851V25.672H2.084V3.714Z" transform="translate(6.176 1.757)" fill="#fff" fill-rule="evenodd"/>
      <path id="_509095528" d="M2.764,4.31H15.4L18.07,2.165H33.216a1.944,1.944,0,0,1,1.9,1.964V23.385a1.944,1.944,0,0,1-1.9,1.971H2.764A1.944,1.944,0,0,1,.853,23.385V6.288A1.944,1.944,0,0,1,2.764,4.317Z" transform="translate(-0.846 4.278)" fill="#ffd54f" fill-rule="evenodd"/>
      <path id="_509095624" d="M4.27,3.748,2.084,3.721l2.186-2Z" transform="translate(6.176 1.757)" fill="#bdbdbd" fill-rule="evenodd"/>
    </g>
  </g>
</svg>
