<svg xmlns="http://www.w3.org/2000/svg" width="24.294" height="24" viewBox="0 0 24.294 24">
  <g id="noun-training-4301950" transform="translate(-120.918 -53.68)">
    <path id="Path_17887" data-name="Path 17887" d="M253.635,56.407v3.508a6.548,6.548,0,0,1,5.506,8.963.557.557,0,0,1-.523.354.566.566,0,0,1-.516-.767,5.576,5.576,0,0,0,.391-2.042,5.422,5.422,0,1,0-3.383,5.027.563.563,0,0,1,.413,1.047,6.51,6.51,0,0,1-1.887.442v4.739l11.587-2.727V53.68Zm2.344,10.5-2.617,1.57L251.5,69.6a.59.59,0,0,1-.295.081.632.632,0,0,1-.273-.074.567.567,0,0,1-.287-.487V63.734a.568.568,0,0,1,.287-.487.577.577,0,0,1,.568.007l4.482,2.69a.564.564,0,0,1,0,.966Z" transform="translate(-120.01)" fill="#858997"/>
    <path id="Path_17888" data-name="Path 17888" d="M126.527,66.432a6.551,6.551,0,0,1,5.978-6.516v-3.5l-11.587-2.727V74.96l11.587,2.727V72.956a6.553,6.553,0,0,1-5.978-6.523Z" transform="translate(0 -0.008)" fill="#858997"/>
    <path id="Path_17889" data-name="Path 17889" d="M325.4,265.466l2.83-1.7-2.83-1.7Z" transform="translate(-193.64 -197.339)" fill="#858997"/>
  </g>
</svg>
