<svg id="Group_44257" data-name="Group 44257" xmlns="http://www.w3.org/2000/svg" width="58" height="58" viewBox="0 0 58 58">
  <rect id="Rectangle_19272" data-name="Rectangle 19272" width="58" height="58" rx="10" fill="#ff7c00"/>
  <path id="Path_51015" data-name="Path 51015" d="M37.866,15.561,26.441,13.855,21.323,3.213a.755.755,0,0,0-1.354,0L14.851,13.855,3.426,15.561a.729.729,0,0,0-.6.486A.709.709,0,0,0,3,16.78l8.294,8.3L9.339,36.793a.724.724,0,0,0,.305.711.769.769,0,0,0,.788.044l10.213-5.51,10.213,5.509a.785.785,0,0,0,.357.087.754.754,0,0,0,.431-.131.724.724,0,0,0,.305-.711L30,25.077l8.294-8.3a.709.709,0,0,0,.171-.733A.729.729,0,0,0,37.866,15.561Z" transform="translate(8.354 8.786)" fill="#fff"/>
</svg>
