<svg xmlns="http://www.w3.org/2000/svg" width="22.782" height="22.782" viewBox="0 0 22.782 22.782">
  <g id="_97ce6997eac8896cd920ae941e71448d" data-name="97ce6997eac8896cd920ae941e71448d" transform="translate(-1 -1)">
    <path id="Path_17892" data-name="Path 17892" d="M48.679,29.339a4.339,4.339,0,1,0-4.339,4.339A4.352,4.352,0,0,0,48.679,29.339Z" transform="translate(-31.949 -19.661)" fill="#858997"/>
    <path id="Path_17893" data-name="Path 17893" d="M3.025,17.905a.561.561,0,0,0,.235-.741,10.135,10.135,0,0,1-1.175-4.773,10.306,10.306,0,1,1,18.207,6.618,11.315,11.315,0,0,0-1.645-1.3l-.054-.054a11.231,11.231,0,0,0-5.551-1.808h-.108c-.181,0-.362-.018-.542-.018a11.509,11.509,0,0,0-8.317,3.6.626.626,0,0,0-.145.289.532.532,0,0,0,.145.452A11.391,11.391,0,1,0,2.3,17.67.53.53,0,0,0,3.025,17.905ZM12.391,22.7A10.078,10.078,0,0,1,5.7,20.22a.538.538,0,0,1,.705-.814,9.068,9.068,0,0,0,5.985,2.206.542.542,0,1,1,0,1.085Z" fill="#858997"/>
  </g>
</svg>
