<svg id="Group_27046" data-name="Group 27046" xmlns="http://www.w3.org/2000/svg" width="50" height="50" viewBox="0 0 50 50">
  <rect id="Rectangle_19064" data-name="Rectangle 19064" width="50" height="50" rx="15" fill="#ccc"/>
  <g id="_443f52e527ff2247d7e46d8fc6499dd4" data-name="443f52e527ff2247d7e46d8fc6499dd4" transform="translate(9.281 11.171)">
    <path id="Path_20421" data-name="Path 20421" d="M22.6,11.858l.846-1.241A1.056,1.056,0,1,0,21.7,9.433l-.846,1.241a10.513,10.513,0,0,0-5.134-1.3A10.683,10.683,0,1,0,22.6,11.858Zm-5.867,8.18a1.015,1.015,0,1,1-2.031,0V14.284a1.015,1.015,0,1,1,2.031,0Z" transform="translate(0 -3.642)" fill="#fff"/>
    <path id="Path_20422" data-name="Path 20422" d="M18.885,2.857h1.241v.677a7.945,7.945,0,0,1,1.128-.056,7.193,7.193,0,0,1,1.128.056V2.857h1.185a1.128,1.128,0,0,0,0-2.257H18.828A1.132,1.132,0,0,0,17.7,1.728,1.181,1.181,0,0,0,18.885,2.857Z" transform="translate(-5.535 0)" fill="#fff"/>
  </g>
</svg>
