<svg xmlns="http://www.w3.org/2000/svg" width="74.942" height="74.942" viewBox="0 0 74.942 74.942">
  <path id="_38ac84c187a695d2c7d226afaa1c7a36" data-name="38ac84c187a695d2c7d226afaa1c7a36" d="M39.471,2A37.471,37.471,0,1,0,76.942,39.471,37.581,37.581,0,0,0,39.471,2ZM57.083,43.218a5.9,5.9,0,0,1-2.623,2.623L35.724,56.708a7.265,7.265,0,0,1-10.117-2.623,6.33,6.33,0,0,1-1.124-3.747V28.6a7.516,7.516,0,0,1,7.494-7.494,6.33,6.33,0,0,1,3.747,1.124L54.46,33.1C58.207,34.975,59.331,39.471,57.083,43.218Z" transform="translate(-2 -2)" fill="#fff"/>
</svg>
