<svg xmlns="http://www.w3.org/2000/svg" width="16.966" height="12.142" viewBox="0 0 16.966 12.142">
  <g id="Group_56148" data-name="Group 56148" transform="translate(-83.75 -205.64)">
    <path id="Path_52995" data-name="Path 52995" d="M97.6,217.532H86.862A2.865,2.865,0,0,1,84,214.67v-5.917a2.865,2.865,0,0,1,2.862-2.862H97.6a2.865,2.865,0,0,1,2.862,2.862v5.917A2.865,2.865,0,0,1,97.6,217.532ZM86.862,206.523a2.231,2.231,0,0,0-2.229,2.229v5.917a2.231,2.231,0,0,0,2.229,2.229H97.6a2.231,2.231,0,0,0,2.229-2.229v-5.917a2.231,2.231,0,0,0-2.229-2.229Z" transform="translate(0)" fill="#707070" stroke="#707070" stroke-width="0.5"/>
    <path id="Path_52996" data-name="Path 52996" d="M402.187,368.768a.317.317,0,0,1-.317-.317V363.7a.317.317,0,0,1,.474-.275l4.151,2.375a.317.317,0,0,1,0,.55l-4.151,2.375A.317.317,0,0,1,402.187,368.768Zm.317-4.521v3.658l3.2-1.829Z" transform="translate(-311.579 -154.378)" fill="#707070" stroke="#707070" stroke-width="0.5"/>
  </g>
</svg>
