<svg xmlns="http://www.w3.org/2000/svg" width="29.83" height="24" viewBox="0 0 29.83 24">
  <g id="_4ca472a7403ad7fb703f985124805b80" data-name="4ca472a7403ad7fb703f985124805b80" transform="translate(-2.17 -8)">
    <path id="Path_18434" data-name="Path 18434" d="M27,32H7.17a5,5,0,0,1-5-5V13a5,5,0,0,1,5-5H27a5,5,0,0,1,5,5V27A5,5,0,0,1,27,32ZM7.17,10a3,3,0,0,0-3,3V27a3,3,0,0,0,3,3H27a3,3,0,0,0,3-3V13a3,3,0,0,0-3-3Z" transform="translate(0)"/>
    <path id="Path_18435" data-name="Path 18435" d="M22.88,32a1,1,0,0,1-1-1V20.533a1,1,0,0,1,1.47-.88l9.765,5.235a1,1,0,0,1,0,1.76L23.35,31.883A1,1,0,0,1,22.88,32Zm1-9.8v7.13l6.645-3.565Z" transform="translate(-9.855 -5.768)"/>
  </g>
</svg>
