<svg id="Group_27049" data-name="Group 27049" xmlns="http://www.w3.org/2000/svg" width="50" height="50" viewBox="0 0 50 50">
  <rect id="Rectangle_19064" data-name="Rectangle 19064" width="50" height="50" rx="15" fill="#ff8d8d"/>
  <path id="_082fd92456d615301af80a940f0d7712" data-name="082fd92456d615301af80a940f0d7712" d="M13.121,2A11.121,11.121,0,1,0,24.242,13.121,11.121,11.121,0,0,0,13.121,2Zm4.123,13.671a1.112,1.112,0,1,1-1.573,1.573l-2.55-2.55-2.55,2.55A1.112,1.112,0,1,1,9,15.671l2.55-2.55L9,10.571A1.112,1.112,0,1,1,10.571,9l2.55,2.55L15.671,9a1.112,1.112,0,1,1,1.573,1.573l-2.55,2.55Z" transform="translate(11.879 11.879)" fill="#fff"/>
</svg>
