<svg xmlns="http://www.w3.org/2000/svg" width="32.347" height="31.938" viewBox="0 0 32.347 31.938">
  <g id="exit" transform="translate(-3 -3.152)">
    <path id="Path_51148" data-name="Path 51148" d="M28.271,24.538A1.357,1.357,0,0,0,26.909,25.9v2.709a.964.964,0,0,1-.97.957H20.764V8.662h5.175a.964.964,0,0,1,.97.957V12.5a1.369,1.369,0,0,0,2.736,0V9.618a3.7,3.7,0,0,0-3.706-3.693H20.71a3.334,3.334,0,0,0-4-2.7L5.6,5.71A3.315,3.315,0,0,0,3,8.958V29.282A3.3,3.3,0,0,0,5.6,32.53l11.106,2.48a3.336,3.336,0,0,0,4-2.709h5.229a3.7,3.7,0,0,0,3.706-3.693V25.9A1.369,1.369,0,0,0,28.271,24.538ZM13.391,19.12a1.8,1.8,0,0,1,1.793-1.793,1.715,1.715,0,0,1,.593.108,1.783,1.783,0,0,1,0,3.369,1.715,1.715,0,0,1-.593.108A1.8,1.8,0,0,1,13.391,19.12Z" transform="translate(0)" fill="#00407e"/>
    <path id="Path_51149" data-name="Path 51149" d="M29.3,14.862,26.1,12.45a1.4,1.4,0,0,0-1.439-.123,1.356,1.356,0,0,0-.753,1.22V14.6h-3.77a1.371,1.371,0,0,0,0,2.741H23.9v1.042a1.364,1.364,0,0,0,2.193,1.1l3.221-2.426a1.36,1.36,0,0,0-.013-2.193Z" transform="translate(5.481 3.141)" fill="#00407e"/>
  </g>
</svg>
