<svg id="_8795ce837fdc729c2a54bc50600261af" data-name="8795ce837fdc729c2a54bc50600261af" xmlns="http://www.w3.org/2000/svg" width="31.279" height="21.801" viewBox="0 0 31.279 21.801">
  <g id="Layer_x0020_1" transform="translate(0 0)">
    <path id="Path_20418" data-name="Path 20418" d="M20.014,3.13H17.976l-1.8,2.945L14.385,3.13H12.252S7.334,3.071,6.979,7.313V7.87L5.059,6.555,4.834,6.4A1.649,1.649,0,1,0,2.5,8.729l1.067.723,1.487,1,2.832,1.884a1.626,1.626,0,0,0,2.358-1.44V7.983H11.7v6.962h8.846V8.024h1.564V13.6a1.629,1.629,0,0,0,3.259,0V7.313s.2-4.076-5.35-4.183Z" transform="translate(5.908 6.586)" fill="#858997" fill-rule="evenodd"/>
    <path id="Path_20419" data-name="Path 20419" d="M10.854,8.99a4.165,4.165,0,0,1-5.9,0,4.471,4.471,0,0,1,0-6.275,4.165,4.165,0,0,1,5.9,0,4.471,4.471,0,0,1,0,6.275Z" transform="translate(14.179 -1.49)" fill="#858997"/>
    <path id="Path_20420" data-name="Path 20420" d="M1.176,2.578,8.784,8.562,8.251,9.629.655,3.65Z" transform="translate(-0.655 3.867)" fill="#858997"/>
  </g>
</svg>
