<svg xmlns="http://www.w3.org/2000/svg" width="32" height="31.938" viewBox="0 0 32 31.938">
  <path id="option" d="M13.145,31.938H1a1,1,0,0,1,0-2H13.145a1,1,0,0,1,0,2Zm1-7.052a1,1,0,0,0-1-1H1a1,1,0,0,0,0,2H13.145A1,1,0,0,0,14.145,24.886Zm.189-6.052a1,1,0,0,0-1-1H1a1,1,0,0,0,0,2H13.334a1,1,0,0,0,1-1Zm0-7.456V3.044a3,3,0,0,0-3-3H3a3,3,0,0,0-3,3v8.334a3,3,0,0,0,3,3h8.334a3,3,0,0,0,3-3Zm17.666,0V3.044a3,3,0,0,0-3-3H20.666a3,3,0,0,0-3,3v8.334a3,3,0,0,0,3,3H29a3,3,0,0,0,3-3Zm0,17.6V20.647a3,3,0,0,0-3-3H20.666a3,3,0,0,0-3,3v8.334a3,3,0,0,0,3,3H29A3,3,0,0,0,32,28.981Z" transform="translate(0 -0.044)" fill="#00407e"/>
</svg>
