<svg id="Group_44290" data-name="Group 44290" xmlns="http://www.w3.org/2000/svg" width="58" height="58" viewBox="0 0 58 58">
  <rect id="Rectangle_19272" data-name="Rectangle 19272" width="58" height="58" rx="10" fill="#ff0083"/>
  <path id="Path_51150" data-name="Path 51150" d="M18.737,11.015V23.549c0,.3-.686.8-.832,1.012a.438.438,0,0,1-.629,0c-.146-.2-.854-.686-.809-.989V11.015a1.124,1.124,0,1,1,2.248,0ZM32.227,7.5V27.73a4.5,4.5,0,0,1-4.5,4.5H7.5A4.5,4.5,0,0,1,3,27.73V7.5A4.5,4.5,0,0,1,7.5,3H27.73A4.5,4.5,0,0,1,32.227,7.5ZM23.638,18.861l-2.653,2.63V11a3.372,3.372,0,1,0-6.745,0V21.491L11.588,18.85A1.124,1.124,0,0,0,10,20.435l6.812,6.823a1.124,1.124,0,0,0,1.6,0l6.812-6.823a1.124,1.124,0,0,0-1.585-1.574Z" transform="translate(11.387 11.387)" fill="#fff"/>
</svg>
