<svg xmlns="http://www.w3.org/2000/svg" xmlns:xlink="http://www.w3.org/1999/xlink" width="209" height="99" viewBox="0 0 209 99">
  <defs>
    <clipPath id="clip-path">
      <path id="Bg" d="M10,0H99a0,0,0,0,1,0,0V199a10,10,0,0,1-10,10H10A10,10,0,0,1,0,199V10A10,10,0,0,1,10,0Z" fill="#cbffc0"/>
    </clipPath>
    <clipPath id="clip-path-2">
      <path id="Path_51124" data-name="Path 51124" d="M59.9,196.567c33.5,36.808,109.671,60.133,111.072-6.319S187.055,4.362,94.758.123-13.191,102.42,8.884,134.378,26.4,159.759,59.9,196.567Z" transform="translate(122.077 286.4) rotate(-135)" fill="#cbffc0" stroke="#707070" stroke-width="1"/>
    </clipPath>
  </defs>
  <g id="Mask_Group_27" data-name="Mask Group 27" transform="translate(209) rotate(90)" clip-path="url(#clip-path)">
    <g id="Mask_Group_26" data-name="Mask Group 26" transform="translate(-32.648 -32.826)" clip-path="url(#clip-path-2)">
      <rect id="Bg-2" data-name="Bg" width="420" height="209" rx="10" transform="translate(-248.353 32.826)" fill="#cbffc0"/>
    </g>
  </g>
</svg>
