<svg xmlns="http://www.w3.org/2000/svg" width="13.797" height="8.25" viewBox="0 0 13.797 8.25">
  <path id="Path_17935" data-name="Path 17935" d="M14.049,19.24a1.464,1.464,0,0,0,.143-.047.771.771,0,0,0,.249-.179l6.135-6.607a1.116,1.116,0,0,0,.166-.267.888.888,0,0,0-.282-1,.738.738,0,0,0-.852,0c-.042.03-.077.069-.117.1L13.9,17.262,8.306,11.24l-.117-.1c-.044-.026-.087-.055-.133-.076a.755.755,0,0,0-.931.3.9.9,0,0,0,0,.918c.028.045.064.083.1.125l6.135,6.607c.039.034.074.073.117.1a.74.74,0,0,0,.276.124.986.986,0,0,0,.3,0Z" transform="translate(-7 -11.002)" fill="#9e9a9a"/>
</svg>
