<svg id="Group_44251" data-name="Group 44251" xmlns="http://www.w3.org/2000/svg" width="58" height="58" viewBox="0 0 58 58">
  <rect id="Rectangle_19272" data-name="Rectangle 19272" width="58" height="58" rx="10" fill="#ff7c00"/>
  <path id="_93c14ef0a1dd1b7095ff9dd07f46e6ab" data-name="93c14ef0a1dd1b7095ff9dd07f46e6ab" d="M283.247,301.653a2.022,2.022,0,0,0,1.108,1.809c.11.055.225.11.335.162v-6.591a4.791,4.791,0,0,1,.173-1.281l-1.616-.792Zm13.73-1.187a2.806,2.806,0,0,1-2.468,0l-7.447-3.639c-.012.21,0,1.765-.008,7.809a24.32,24.32,0,0,0,20.089-1.171,2.031,2.031,0,0,0,1.112-1.809v-6.7Zm15.28-11.972-15.627-7.632a2,2,0,0,0-1.774,0l-15.615,7.632a2.019,2.019,0,0,0,0,3.631l5.905,2.886a4.684,4.684,0,0,1,2.014-2.125l5.07-2.744c.106-1.49,1.612-2.637,3.516-2.637,1.943,0,3.524,1.258,3.524,2.8,0,1.577-1.549,2.811-3.524,2.811a3.985,3.985,0,0,1-2.515-.828l-4.947,2.677a2.326,2.326,0,0,0-1.013,1.084l7.585,3.706a2.02,2.02,0,0,0,1.774,0l15.627-7.632A2.02,2.02,0,0,0,312.258,288.494Zm-16.51-.2c-1.822,0-2.925,1.177-2.7,2.306l-5.511,2.98a3.922,3.922,0,0,0-2.058,3.453v8.5a2.048,2.048,0,0,0-1.687,2.042,2.081,2.081,0,1,0,2.476-2.042v-8.5a3.138,3.138,0,0,1,1.644-2.759l5.464-2.957a2.97,2.97,0,0,0,2.373,1.013c1.533,0,2.736-.891,2.736-2.022C298.484,289.2,297.254,288.293,295.748,288.293Z" transform="translate(-266.99 -265.656)" fill="#fff"/>
</svg>
