<svg xmlns="http://www.w3.org/2000/svg" width="62" height="61" viewBox="0 0 62 61">
  <g id="Group_27042" data-name="Group 27042" transform="translate(0.001 0.31)">
    <g id="Rectangle_19064" data-name="Rectangle 19064" transform="translate(-0.001 -0.31)" fill="none" stroke="#00407e" stroke-width="2">
      <rect width="62" height="61" rx="30.5" stroke="none"/>
      <rect x="1" y="1" width="60" height="59" rx="29.5" fill="none"/>
    </g>
    <g id="_8795ce837fdc729c2a54bc50600261af" data-name="8795ce837fdc729c2a54bc50600261af" transform="translate(11.126 16.195)">
      <g id="Layer_x0020_1" transform="translate(0 0)">
        <path id="Path_20418" data-name="Path 20418" d="M25.16,3.13h-2.62L20.224,6.915l-2.3-3.785H15.182S8.86,3.054,8.4,8.507v.716L5.936,7.532l-.289-.2c-2.46-1.9-4.852,1.142-3,2.993l1.371.929,1.912,1.28,3.641,2.422A2.09,2.09,0,0,0,12.6,13.108V9.368h1.874v8.949H25.845v-8.9h2.011v7.167a2.1,2.1,0,0,0,4.189,0V8.507s.259-5.24-6.878-5.377Z" transform="translate(8.162 9.359)" fill="#00407e" fill-rule="evenodd"/>
        <path id="Path_20419" data-name="Path 20419" d="M12.906,11.131a5.354,5.354,0,0,1-7.586,0,5.747,5.747,0,0,1,0-8.066,5.354,5.354,0,0,1,7.586,0,5.747,5.747,0,0,1,0,8.066Z" transform="translate(19.273 -1.49)" fill="#00407e"/>
        <path id="Path_20420" data-name="Path 20420" d="M1.325,2.578,11.1,10.271l-.685,1.371L.655,3.957Z" transform="translate(-0.655 5.707)" fill="#00407e"/>
      </g>
    </g>
  </g>
</svg>
