<svg xmlns="http://www.w3.org/2000/svg" width="28.231" height="37.642" viewBox="0 0 28.231 37.642">
  <g id="_4522db8c827747c0024effa4b1986d7a" data-name="4522db8c827747c0024effa4b1986d7a" transform="translate(0 0)">
    <g id="Id_Tag" data-name="Id Tag" transform="translate(0 0)">
      <path id="Path_51118" data-name="Path 51118" d="M11.353,12.547h4.705a2.353,2.353,0,0,0,2.353-2.353V4.705a4.705,4.705,0,0,0-9.41,0v5.489A2.353,2.353,0,0,0,11.353,12.547Zm2.353-9.41a1.568,1.568,0,1,1-1.568,1.568A1.568,1.568,0,0,1,13.705,3.137Z" transform="translate(0.41)" fill="#00407e"/>
      <path id="Path_51119" data-name="Path 51119" d="M28.095,4H24.174a.784.784,0,0,0-.784.784V7.921a3.921,3.921,0,0,1-3.921,3.921H14.763a3.921,3.921,0,0,1-3.921-3.921V4.784A.784.784,0,0,0,10.058,4H6.137A3.137,3.137,0,0,0,3,7.137V32.231a3.137,3.137,0,0,0,3.137,3.137H28.095a3.137,3.137,0,0,0,3.137-3.137V7.137A3.137,3.137,0,0,0,28.095,4ZM17.116,14.979A3.921,3.921,0,1,1,13.195,18.9,3.921,3.921,0,0,1,17.116,14.979Zm7.058,13.865A1.757,1.757,0,0,1,22.5,30.663H11.736a1.757,1.757,0,0,1-1.678-1.819v-.5A3.607,3.607,0,0,1,11.752,25.2a10.885,10.885,0,0,1,5.364-1.568A10.885,10.885,0,0,1,22.48,25.2a3.607,3.607,0,0,1,1.694,3.137Z" transform="translate(-3 2.274)" fill="#00407e"/>
    </g>
  </g>
</svg>
