<svg xmlns="http://www.w3.org/2000/svg" width="58" height="58" viewBox="0 0 58 58">
  <path id="Path_51014" data-name="Path 51014" d="M47.571,2H14.429A12.441,12.441,0,0,0,2,14.429V47.571A12.441,12.441,0,0,0,14.429,60H47.571A12.441,12.441,0,0,0,60,47.571V14.429A12.441,12.441,0,0,0,47.571,2ZM44.464,14.429a3.107,3.107,0,1,1-3.107,3.107A3.111,3.111,0,0,1,44.464,14.429ZM31,51.714a20.714,20.714,0,1,1,0-41.429,20.513,20.513,0,0,1,9.207,2.154,2.072,2.072,0,0,1-1.846,3.71A16.4,16.4,0,0,0,31,14.429,16.571,16.571,0,1,0,47.571,31a16.379,16.379,0,0,0-1.728-7.374,2.072,2.072,0,0,1,3.71-1.848A20.525,20.525,0,0,1,51.714,31,20.738,20.738,0,0,1,31,51.714Z" transform="translate(-2 -2)" fill="#ff7c00"/>
</svg>
