<svg xmlns="http://www.w3.org/2000/svg" xmlns:xlink="http://www.w3.org/1999/xlink" width="1954.473" height="1074" viewBox="0 0 1954.473 1074">
  <defs>
    <linearGradient id="linear-gradient" x1="0.628" y1="0.422" x2="0" y2="0.735" gradientUnits="objectBoundingBox">
      <stop offset="0" stop-color="#fff"/>
      <stop offset="1" stop-color="#67bec5"/>
    </linearGradient>
    <clipPath id="clip-path">
      <rect id="Rectangle_5187" data-name="Rectangle 5187" width="1034.197" height="977.356" fill="none"/>
    </clipPath>
    <linearGradient id="linear-gradient-2" x1="0.144" y1="0.04" x2="0.967" y2="1" gradientUnits="objectBoundingBox">
      <stop offset="0" stop-color="#524e9a"/>
      <stop offset="1" stop-color="#39246f"/>
    </linearGradient>
    <clipPath id="clip-path-2">
      <path id="Path_38979" data-name="Path 38979" d="M199.148,529.819,336.024,497.7C272.675,161.125,90.765,67.878,90.765,67.878,265.114,295.527,199.148,529.819,199.148,529.819" transform="translate(-90.765 -67.878)" fill="none"/>
    </clipPath>
    <linearGradient id="linear-gradient-3" x1="0.524" y1="0.287" x2="0.413" gradientUnits="objectBoundingBox">
      <stop offset="0" stop-color="#67bec5"/>
      <stop offset="1" stop-color="#2f9aa2"/>
    </linearGradient>
    <clipPath id="clip-path-4">
      <path id="Path_38994" data-name="Path 38994" d="M194.042,83.831l-57.9,483.325,594.031-9.164V83.831Z" transform="translate(-136.139 -83.831)" fill="#39246f"/>
    </clipPath>
    <linearGradient id="linear-gradient-4" x1="0.653" y1="0.761" x2="0.106" y2="0.255" gradientUnits="objectBoundingBox">
      <stop offset="0" stop-color="#39246f"/>
      <stop offset="1" stop-color="#1d1238"/>
    </linearGradient>
    <clipPath id="clip-path-6">
      <path id="Path_38996" data-name="Path 38996" d="M175.594,214.856h99.387s8.347-110.641-49.493-110.641c-54.338,0-49.894,110.641-49.894,110.641" transform="translate(-175.507 -104.215)" fill="none"/>
    </clipPath>
    <linearGradient id="linear-gradient-5" x1="0.724" y1="0.859" x2="0.095" y2="0.317" xlink:href="#linear-gradient-4"/>
    <clipPath id="clip-path-8">
      <path id="Path_38998" data-name="Path 38998" d="M231.418,214.856H330.8s8.344-110.641-49.5-110.641c-54.338,0-49.891,110.641-49.891,110.641" transform="translate(-231.33 -104.215)" fill="#67bec5"/>
    </clipPath>
    <linearGradient id="linear-gradient-6" x1="0.682" y1="0.603" x2="0.114" y2="0.313" xlink:href="#linear-gradient-4"/>
    <clipPath id="clip-path-10">
      <path id="Path_39000" data-name="Path 39000" d="M289.641,206.946H380.5S388.127,105.8,335.249,105.8c-49.673,0-45.608,101.143-45.608,101.143" transform="translate(-289.56 -105.803)" fill="none"/>
    </clipPath>
    <clipPath id="clip-path-12">
      <path id="Path_39009" data-name="Path 39009" d="M311.4,51.663,134.9,137.395c-6.1,2.1-4.486,10.473,2.022,10.473H740.237v-96.2Z" transform="translate(-131.082 -51.663)" fill="none"/>
    </clipPath>
    <linearGradient id="linear-gradient-7" x1="0.291" y1="0.048" x2="0.981" y2="1.265" xlink:href="#linear-gradient-2"/>
    <clipPath id="clip-path-14">
      <path id="Path_39013" data-name="Path 39013" d="M155.006,175.355V574.966H692.612V173.985Z" transform="translate(-155.006 -173.985)" fill="#39246f"/>
    </clipPath>
    <clipPath id="clip-path-15">
      <rect id="Rectangle_5201" data-name="Rectangle 5201" width="523.08" height="401.789" fill="#524e9a"/>
    </clipPath>
    <linearGradient id="linear-gradient-8" x1="0.845" y1="-0.782" x2="0.183" y2="0.793" gradientUnits="objectBoundingBox">
      <stop offset="0" stop-color="#f1e6dc"/>
      <stop offset="1" stop-color="#ffb4a0"/>
    </linearGradient>
    <linearGradient id="linear-gradient-9" x1="0.5" x2="0" y2="1" gradientUnits="objectBoundingBox">
      <stop offset="0" stop-color="#524e9a"/>
      <stop offset="1" stop-color="#29274d"/>
    </linearGradient>
    <linearGradient id="linear-gradient-10" x2="0.073" y2="0.766" xlink:href="#linear-gradient-9"/>
    <linearGradient id="linear-gradient-11" x1="0.5" x2="0.418" y2="0.812" gradientUnits="objectBoundingBox">
      <stop offset="0" stop-color="#524e9a"/>
      <stop offset="1" stop-color="#282146"/>
    </linearGradient>
    <clipPath id="clip-path-17">
      <path id="Path_39029" data-name="Path 39029" d="M147.954,201.7,87.35,516.312a18.017,18.017,0,0,0,15.321,21.27l193.7,25.711a118.6,118.6,0,0,0,37.62-1.035l103.2-19.535a8.713,8.713,0,0,0,7.025-9.666l-41.4-324.695a8.72,8.72,0,0,0-10.055-7.5l-78.682,10.01a25.27,25.27,0,0,1-7.124-.111l-140.2-22.242a16.759,16.759,0,0,0-2.6-.206A16.514,16.514,0,0,0,147.954,201.7" transform="translate(-87.021 -188.31)" fill="#39246f"/>
    </clipPath>
    <linearGradient id="linear-gradient-12" x1="0.785" y1="0.5" x2="0.261" y2="0.037" gradientUnits="objectBoundingBox">
      <stop offset="0" stop-color="#67bec5"/>
      <stop offset="1" stop-color="#19b5c4"/>
    </linearGradient>
    <linearGradient id="linear-gradient-13" x1="0.957" y1="0.274" x2="0.017" y2="0.601" xlink:href="#linear-gradient-8"/>
    <clipPath id="clip-path-19">
      <path id="Path_39039" data-name="Path 39039" d="M266.648,265.948a84.882,84.882,0,0,0,0,169.764H478.6a84.882,84.882,0,0,0,0-169.764Z" transform="translate(-181.766 -265.948)" fill="#f06743"/>
    </clipPath>
  </defs>
  <g id="Group_36384" data-name="Group 36384" transform="translate(2.472)">
    <rect id="Rectangle_5217" data-name="Rectangle 5217" width="1920" height="1074" fill="url(#linear-gradient)"/>
    <path id="Path_39051" data-name="Path 39051" d="M363-3.6V290H-1559.472Z" transform="translate(1557 784)" fill="#a9d9dd"/>
    <g id="Group_36383" data-name="Group 36383" transform="translate(917.803 96.644)">
      <g id="Group_36344" data-name="Group 36344">
        <g id="Group_36343" data-name="Group 36343" clip-path="url(#clip-path)">
          <path id="Path_38974" data-name="Path 38974" d="M199.148,529.819S265.117,295.527,90.765,67.878c0,0,181.91,93.247,245.259,429.827Z" transform="translate(180.686 135.125)" fill="url(#linear-gradient-2)"/>
        </g>
      </g>
      <g id="Group_36346" data-name="Group 36346" transform="translate(271.451 203.003)">
        <g id="Group_36345" data-name="Group 36345" clip-path="url(#clip-path-2)">
          <path id="Path_38975" data-name="Path 38975" d="M207.574,115.864c-36.989-22.3-84.206,3.64-92.589,43.9a1.758,1.758,0,0,0,3.359,1.032c14.233-38.493,50.02-52.209,88.259-42.8a1.19,1.19,0,0,0,.972-2.138" transform="translate(-42.643 11.297)" fill="#67bec5"/>
          <path id="Path_38976" data-name="Path 38976" d="M223.3,128.516c-37.276-29.267-89.569-1.116-105.117,37.922-.706,1.776,2.12,3.054,3.045,1.385,21.617-39.062,59.688-51.386,100.864-36.651,1.693.6,2.431-1.7,1.208-2.656" transform="translate(-36.398 28.726)" fill="#67bec5"/>
          <path id="Path_38977" data-name="Path 38977" d="M243.147,161.755c-38.335-29.707-98.1-9.394-121.019,29.662-1.032,1.756,1.418,3.149,2.62,1.627,14.179-17.95,32.661-31.737,55.4-36.451,21.707-4.5,41.212,1.271,61.671,8.078,1.854.616,2.695-1.854,1.325-2.916" transform="translate(-28.824 90.75)" fill="#67bec5"/>
          <path id="Path_38978" data-name="Path 38978" d="M253.462,168.808c-23.061-10.034-50.342-16.527-75.378-10.775-24.2,5.557-40.787,23.432-54.512,43.042-1.008,1.444,1.259,3.356,2.428,1.977,16.344-19.23,34.357-36.8,60.657-39.767,22.517-2.539,44.349,4.579,66.349,8.189,1.651.269,1.741-2.105.455-2.665" transform="translate(-25.956 107.302)" fill="#67bec5"/>
        </g>
      </g>
      <g id="Group_36348" data-name="Group 36348">
        <g id="Group_36347" data-name="Group 36347" clip-path="url(#clip-path)">
          <path id="Path_38980" data-name="Path 38980" d="M165.611,266.409S267.005,134.163,131.646,0L98.306,80.372l27.317,9.448L89.486,107.878s2.258,47.872,20.6,73.015l22.819,12.573-16.577,12.023Z" transform="translate(178.14)" fill="#524e9a"/>
          <path id="Path_38981" data-name="Path 38981" d="M129.041,12.629a.448.448,0,0,0-.834.326c2.9,7.563,5.793,15.157,8.589,22.789-6.849-5.311-14.281-10.061-22.529-12.836a.511.511,0,0,0-.41.936c7.946,4.594,16.078,8.775,23.68,13.952,6.657,18.336,12.612,36.926,16.1,56.049-10.734-15.268-26.8-28.72-42.348-38.682a.255.255,0,0,0-.314.4C125.808,68.2,139.35,81.974,153.84,94.9c.763,4.316,1.418,8.655,1.911,13.025-13.772-17.822-31.83-34.064-48.39-48.838-.559-.5-1.456.353-.951.927,15.537,17.591,34,32.593,49.58,50.064.281,2.763.523,5.536.682,8.326a175.5,175.5,0,0,1-5.488,54.024,242.879,242.879,0,0,0-37.333-70.458.544.544,0,0,0-.873.649,474.789,474.789,0,0,1,37.381,72.925c-.927,3.3-1.908,6.586-3.018,9.83-8.574-16.386-20.486-34.085-33.041-47.424a.609.609,0,0,0-.975.727c9.307,16.467,21.554,33.571,33.433,48.327a182.585,182.585,0,0,1-16.081,34.052c-.583.963.778,2.088,1.4,1.11a169.346,169.346,0,0,0,20.014-43.951.778.778,0,0,0,.679-1.02c-.069-.209-.147-.419-.209-.628,5.88-21.013,7.4-42.507,5.649-64.022.051.063.114.123.167.185a.415.415,0,0,0,.664-.5c-.317-.434-.667-.855-.987-1.286-2.982-33.322-13.829-66.666-29.016-98.316" transform="translate(211.535 24.612)" fill="#fff"/>
          <path id="Path_38982" data-name="Path 38982" d="M244.22,94.105S86.9,80.243,46.947,259.025l81.407-14.469-6.122-26.988,32.679,19.942s37.381-26.528,48.4-54.341l-1.346-24.96,18,7.223Z" transform="translate(93.458 186.838)" fill="#67bec5"/>
          <path id="Path_38983" data-name="Path 38983" d="M223.741,95.293a431.51,431.51,0,0,0-47.071,25.765.588.588,0,0,0-.664-.41c-19.948,2.757-38.389,9.762-57.87,14.358-.362.084-.23.652.126.628,18.982-1.256,37.3-9.9,56.147-13.156-10.916,6.962-21.608,14.424-31.938,22.382C117.66,152.568,93.3,161.914,70.533,174.5c-.317.173-.048.712.287.571,22.233-9.262,44.319-18.554,66.995-26.581-3.984,3.158-7.9,6.406-11.759,9.7A464.937,464.937,0,0,0,72.48,181.354c-.434.218-.066.945.38.763,16.234-6.544,32.5-13.108,48.638-19.927q-14.629,12.862-27.823,27C80.955,195.254,67.88,200.733,55.5,207.426c-.4.215-.063.837.347.7,11.9-3.987,23.307-9.645,34.519-15.408a332.73,332.73,0,0,0-26.925,33.636.826.826,0,0,0,1.256,1.071c9.576-10.647,19.114-21.18,28.881-31.456-3.388,8.6-4.627,19.371-2.907,27.7.176.852,1.552.7,1.66-.117.736-5.518.649-11.078,1.591-16.592.87-5.093,2.455-10.01,3.541-15.046,1.441-1.492,2.913-2.955,4.366-4.435q-.39,3.2-.476,6.457c-.09,3.679-.371,7.806,1.427,11.128.419.775,1.591.395,1.753-.362.706-3.338-.239-6.941-.383-10.324a86.681,86.681,0,0,1,.227-9.492,457.736,457.736,0,0,1,33.81-31.133.578.578,0,0,0-.1.365c2.656,19.224,3.6,39.316,8.012,58.211.317,1.361,2.189.748,2.231-.449.661-19.272-4.214-39.42-8.781-58.056a.682.682,0,0,0-.912-.446c.449-.368.879-.754,1.331-1.121,2.437-1.983,4.917-3.912,7.393-5.838,3.176,14.475,6.164,29.088,9.49,43.521.2.864,1.486.523,1.465-.29-.359-14.487-4.2-30.762-9.821-44.128,10.793-8.347,21.961-16.192,33.376-23.662q-.951,15.266-.413,30.559c.015.437.745.5.781.045a314.462,314.462,0,0,0,.984-31.5c13.377-8.7,27.1-16.883,41.027-24.655.559-.311.081-1.292-.505-1.017" transform="translate(110.13 189.604)" fill="#fff"/>
          <path id="Path_38984" data-name="Path 38984" d="M269.483,258.148S275.443,46.974,36.731,9.662L62.167,117l35.084-10.584L73.532,151.807s37.877,47.507,75.393,59.718l32.784-4.031-8.1,24.664Z" transform="translate(73.121 19.234)" fill="#67bec5"/>
          <path id="Path_38985" data-name="Path 38985" d="M158.254,105.507a231.378,231.378,0,0,0-20.824-19.679c-1.582-7.572-3.472-15.348-6.469-22.367a.721.721,0,0,0-1.382.335,108.683,108.683,0,0,0,4.4,19.236c-1.51-1.217-3.006-2.455-4.546-3.643-5.6-11.311-10.5-23.031-16.577-34.064a.753.753,0,0,0-1.4.547c3.466,10.515,8.622,20.585,13.859,30.43A288.819,288.819,0,0,0,98.655,58.825c-1.208-6.693-4.83-13.016-7.486-19.224-3.018-7.067-5.73-14.34-9.938-20.8-.577-.885-1.711-.036-1.492.828,2.007,7.907,5.826,15.309,9.155,22.738,2.2,4.9,4,10.219,6.837,14.807a341.438,341.438,0,0,0-42.489-20.31.753.753,0,0,0-.6,1.379c29.294,16.853,58.094,30.972,83.5,51.512l.018.051a.91.91,0,0,0,.819.625,197.381,197.381,0,0,1,23.923,23c2.4,2.742,4.71,5.539,6.986,8.365C148,114.56,127.192,108.6,106.081,106.85a.574.574,0,0,0-.179,1.133c21.68,4.393,42.923,8.718,63.831,16.1q4.683,5.935,9.074,12.07c-9.726-3.006-20.429-3.643-30.374-5.6-12.444-2.455-24.721-5.733-37.183-8.066a.719.719,0,0,0-.4,1.364c11.269,4.3,23.079,7.064,34.887,9.427,10.979,2.2,22.96,5.317,34.226,4.471,17.8,25.113,32.365,52.394,47.956,78.987.649,1.1,2.566.051,1.989-1.107-19.5-38.993-41.789-78.072-71.651-110.127" transform="translate(103.956 36.686)" fill="#fff"/>
          <path id="Path_38986" data-name="Path 38986" d="M337.462,154.51S208.455-12.781,0,109.372l87.616,67.022L108.084,146l10.357,50.157s59.389,12.821,96.166-1.462l22.837-23.866,9.328,24.228Z" transform="translate(0 128.871)" fill="#524e9a"/>
          <path id="Path_38987" data-name="Path 38987" d="M305.192,127.9c-18.826-16.287-46.323-26.333-69.513-34.435a368.975,368.975,0,0,0-78.03-18.016C106.621,69.372,50.18,72.312,1.928,91.234c-.7.275-.371,1.486.383,1.295C35.038,84.224,67.191,78.245,99.94,76.66,76.265,82.349,53.2,91.518,33.591,106.107c-.7.52.048,1.782.825,1.331,23.743-13.778,46.9-25,73.855-31.085,9.959-.248,19.975-.1,30.1.55-24.643,6.047-48.524,17.3-70.829,28.992-.446.233-.141.939.32.721C91.64,95.37,116.3,87.026,140.55,77.07c5.554.4,11.128.906,16.748,1.6A366.265,366.265,0,0,1,216.335,91,295.268,295.268,0,0,0,151.6,95.7a.5.5,0,0,0,.15.993c23.354-2.6,46.787-3.616,70.264-3.936,4.142,1.3,8.269,2.656,12.364,4.109,1.214.431,2.39.927,3.592,1.385-34.937,8.057-68.338,24.524-101.3,38.182-.559.233-.179,1.053.38.852,34.707-12.423,69.549-28.555,105.365-37.261.03-.006.045-.024.072-.033,21.279,8.691,40.677,20.72,61.857,29.479.993.41,1.573-.933.84-1.567" transform="translate(3.069 144.529)" fill="#fff"/>
          <path id="Path_38988" data-name="Path 38988" d="M69.646,43.757C61.7,52.457,56.463,65.9,54.36,77.414c-.377,2.073,2.662,3.783,3.685,1.552,2.671-5.823,4.728-11.921,7.291-17.8,2.345-5.38,4.866-10.512,6.4-16.195a1.258,1.258,0,0,0-2.088-1.214" transform="translate(108.151 86.36)" fill="#fff"/>
          <path id="Path_38989" data-name="Path 38989" d="M42.151,19.179c-.634-.87-2.4-.386-1.914.807,7.931,19.425,15.656,37.949,17.451,59.105.147,1.738,2.853,1.773,2.739,0C59.09,57.957,54.811,36.537,42.151,19.179" transform="translate(79.933 37.297)" fill="#fff"/>
          <path id="Path_38990" data-name="Path 38990" d="M45.06,109c-2.473-3.451-6.747-5.509-10.225-7.839A119.229,119.229,0,0,1,21.511,90.874c-1.038-.933-2.557.562-1.54,1.537C23.906,96.18,27.9,99.9,32.113,103.357c3.4,2.787,7.339,6.442,11.762,7.184.8.132,1.773-.718,1.184-1.54" transform="translate(39.087 180.317)" fill="#fff"/>
          <path id="Path_38991" data-name="Path 38991" d="M46.089,108.9q-1.292-3.548-2.581-7.094c-.634-1.753-3.466-.966-2.8.769l2.907,7.528c.787,2.031,1.349,4.274,2.817,5.922a.9.9,0,0,0,1.513-.628c.024-2.255-1.1-4.4-1.86-6.5" transform="translate(80.842 200.711)" fill="#fff"/>
          <path id="Path_38992" data-name="Path 38992" d="M146.15,567.155l57.9-483.325H710.239V557.992Z" transform="translate(290.942 166.882)" fill="url(#linear-gradient-3)"/>
        </g>
      </g>
      <g id="Group_36350" data-name="Group 36350" transform="translate(407.151 250.714)">
        <g id="Group_36349" data-name="Group 36349" clip-path="url(#clip-path-4)">
          <path id="Path_38993" data-name="Path 38993" d="M165.511,94.263,694.6,149.689v-71.1Z" transform="translate(-77.667 -94.262)" fill="#39246f"/>
        </g>
      </g>
      <g id="Group_36352" data-name="Group 36352">
        <g id="Group_36351" data-name="Group 36351" clip-path="url(#clip-path)">
          <path id="Path_38995" data-name="Path 38995" d="M274.913,214.856H175.666c-.039,0-.072-.009-.075-.048-.1-2.641-3.777-110.593,49.9-110.593,57.146,0,49.685,108,49.5,110.593,0,.039-.036.048-.075.048" transform="translate(349.381 207.461)" fill="url(#linear-gradient-4)"/>
        </g>
      </g>
      <g id="Group_36354" data-name="Group 36354" transform="translate(524.888 311.676)">
        <g id="Group_36353" data-name="Group 36353" clip-path="url(#clip-path-6)">
          <rect id="Rectangle_5190" data-name="Rectangle 5190" width="4.636" height="147.962" transform="translate(45.258 -19.472)" fill="#67bec5"/>
          <rect id="Rectangle_5191" data-name="Rectangle 5191" width="4.636" height="147.962" transform="translate(-15.704 77.513) rotate(-89.932)" fill="#67bec5"/>
        </g>
      </g>
      <g id="Group_36356" data-name="Group 36356">
        <g id="Group_36355" data-name="Group 36355" clip-path="url(#clip-path)">
          <path id="Path_38997" data-name="Path 38997" d="M330.8,214.856H231.418s-4.447-110.641,49.891-110.641c57.84,0,49.5,110.641,49.5,110.641" transform="translate(460.509 207.461)" fill="url(#linear-gradient-5)"/>
        </g>
      </g>
      <g id="Group_36358" data-name="Group 36358" transform="translate(691.838 311.676)">
        <g id="Group_36357" data-name="Group 36357" clip-path="url(#clip-path-8)">
          <rect id="Rectangle_5193" data-name="Rectangle 5193" width="4.636" height="147.962" transform="translate(45.256 -19.472)" fill="#67bec5"/>
          <rect id="Rectangle_5194" data-name="Rectangle 5194" width="4.636" height="147.961" transform="translate(-15.706 77.513) rotate(-89.932)" fill="#67bec5"/>
        </g>
      </g>
      <g id="Group_36360" data-name="Group 36360">
        <g id="Group_36359" data-name="Group 36359" clip-path="url(#clip-path)">
          <path id="Path_38999" data-name="Path 38999" d="M380.5,206.949H289.641c0-.024-4.058-101.146,45.611-101.146,52.876,0,45.246,101.146,45.246,101.146" transform="translate(576.428 210.622)" fill="url(#linear-gradient-6)"/>
        </g>
      </g>
      <g id="Group_36362" data-name="Group 36362" transform="translate(865.988 316.425)">
        <g id="Group_36361" data-name="Group 36361" clip-path="url(#clip-path-10)">
          <rect id="Rectangle_5196" data-name="Rectangle 5196" width="4.238" height="135.264" transform="translate(41.372 -17.802)" fill="#67bec5"/>
          <rect id="Rectangle_5197" data-name="Rectangle 5197" width="4.238" height="135.262" transform="matrix(0.001, -1, 1, 0.001, -14.358, 70.859)" fill="#67bec5"/>
        </g>
      </g>
      <g id="Group_36364" data-name="Group 36364">
        <g id="Group_36363" data-name="Group 36363" clip-path="url(#clip-path)">
          <path id="Path_39001" data-name="Path 39001" d="M740.237,147.868H136.922c-6.508,0-8.129-8.38-2.025-10.473L311.406,51.663H740.237Z" transform="translate(260.946 102.846)" fill="#524e9a"/>
        </g>
      </g>
      <g id="Group_36366" data-name="Group 36366" transform="translate(392.028 154.509)">
        <g id="Group_36365" data-name="Group 36365" clip-path="url(#clip-path-12)">
          <path id="Path_39002" data-name="Path 39002" d="M356.013,43.124C317.34,66.033,280.9,91.66,245.6,118.822c-17.9,13.775-35.332,28.053-52.439,42.671-16.132,13.784-35.4,27.538-47.05,44.932-2,2.982,2,6.732,5.231,4.845,17.9-10.452,32.294-26.821,47.684-40.189,16.966-14.735,34.321-29.076,51.862-43.216,34.991-28.2,71.472-54.832,107.9-81.4,2.052-1.5-.6-4.624-2.775-3.338" transform="translate(-102.231 -69.266)" fill="#f1e6dc"/>
          <path id="Path_39003" data-name="Path 39003" d="M317.544,43.542c-25.893,25.559-47.651,55.821-69.893,84.111q-16.733,21.282-33.391,42.615c-10.734,13.709-26.1,28.352-31,44.849-.754,2.533,2.488,5.171,5.024,3.58,13.3-8.344,21.817-23.052,31-35q17.437-22.682,34.779-45.432c22.9-29.91,48.079-60,66.767-92.374,1.086-1.884-1.6-4.011-3.287-2.351" transform="translate(-27.434 -69.02)" fill="#f1e6dc"/>
          <path id="Path_39004" data-name="Path 39004" d="M294.609,43.4c-16.891,28.25-30.254,58.657-43.8,88.39-13.829,30.356-33.17,63.065-38.694,95.8a3.355,3.355,0,0,0,6.1,2.387c18.862-26.459,28.355-60.346,40.892-89.67,13.488-31.549,28.313-63.035,39.394-95.388.733-2.135-2.727-3.478-3.9-1.522" transform="translate(30.134 -70.004)" fill="#f1e6dc"/>
          <path id="Path_39005" data-name="Path 39005" d="M261.314,138.159c-.828-31.241-.251-62.892-3.472-94a1.983,1.983,0,0,0-3.942,0c-4.052,31-3.84,62.8-4.393,94-.494,27.876-5.563,61.8,4.839,88.295a2.373,2.373,0,0,0,4.423,0c9.268-26.764,3.284-60.472,2.545-88.295" transform="translate(101.348 -70.114)" fill="#f1e6dc"/>
          <path id="Path_39006" data-name="Path 39006" d="M298.44,122.729c-11.61-26.258-21.566-53.54-34.887-79.086-.933-1.785-3.72-.482-3.308,1.292,6.762,29.267,18.605,58.106,29.384,86.288,8.969,23.45,16.88,54.547,35.533,73.012,1.292,1.28,3.843.311,3.777-1.45-1.011-26.587-19.712-55.657-30.5-80.055" transform="translate(125.962 -69.327)" fill="#f1e6dc"/>
          <path id="Path_39007" data-name="Path 39007" d="M393.606,192.405c-4.345-11.885-13.9-21.378-22.1-31.178q-17.348-20.73-33.923-42.007c-19.491-25-37.471-51.539-58.941-75.129-1.675-1.842-4.618.505-3.475,2.485C291.671,75.17,312.486,102.257,332,129.155c15.244,21.01,33.684,53.459,58.947,65.144,1.31.607,3.2-.413,2.659-1.893" transform="translate(155.233 -68.067)" fill="#f1e6dc"/>
          <path id="Path_39008" data-name="Path 39008" d="M448.049,172.6c-17.941-24.868-50.459-42.872-74.7-62.374-26.827-21.59-51.434-45.423-78.153-67.055a1.863,1.863,0,0,0-2.73,2.53c22.212,26.531,49.511,50.3,75.71,73.419,22.472,19.831,47.6,46.371,77.28,56.6,1.857.64,3.664-1.633,2.59-3.122" transform="translate(189.237 -69.581)" fill="#f1e6dc"/>
        </g>
      </g>
      <g id="Group_36368" data-name="Group 36368">
        <g id="Group_36367" data-name="Group 36367" clip-path="url(#clip-path)">
          <path id="Path_39010" data-name="Path 39010" d="M200.679,69.523c-18.91,4.223-38.254,15.142-54.993,24.59-1.483.837-.493,3.368,1.178,2.8C165.057,90.757,186.21,83.579,201.89,72.4a1.58,1.58,0,0,0-1.211-2.874" transform="translate(288.573 138.304)" fill="#fff"/>
          <path id="Path_39011" data-name="Path 39011" d="M179.135,64.529c-4.77,1.235-9.11,4.779-12.725,7.991-1.932,1.717.556,4.842,2.737,3.544,4.13-2.458,8.793-5.554,11.4-9.7a1.264,1.264,0,0,0-1.412-1.836" transform="translate(329.891 128.381)" fill="#fff"/>
          <rect id="Rectangle_5199" data-name="Rectangle 5199" width="523.08" height="401.789" transform="translate(478.103 519.53)" fill="url(#linear-gradient-7)"/>
        </g>
      </g>
      <g id="Group_36370" data-name="Group 36370" transform="translate(463.577 520.338)">
        <g id="Group_36369" data-name="Group 36369" clip-path="url(#clip-path-14)">
          <path id="Path_39012" data-name="Path 39012" d="M159.863,175.408v25.846l523.08.47V176.473Z" transform="translate(-145.338 -171.152)" fill="#39246f"/>
        </g>
      </g>
      <g id="Group_36372" data-name="Group 36372" transform="translate(478.103 519.53)">
        <g id="Group_36371" data-name="Group 36371" clip-path="url(#clip-path-15)">
          <path id="Path_39014" data-name="Path 39014" d="M153.319,529.571s530,69.609,549.811-349.927h33.017V577.192H149.721Z" transform="translate(-180.053 -161.912)" fill="#524e9a"/>
        </g>
      </g>
      <g id="Group_36374" data-name="Group 36374">
        <g id="Group_36373" data-name="Group 36373" clip-path="url(#clip-path)">
          <path id="Path_39015" data-name="Path 39015" d="M150.924,206.916,290.713,156.19H700.735v50.725Z" transform="translate(300.446 310.929)" fill="url(#linear-gradient-8)"/>
          <path id="Path_39016" data-name="Path 39016" d="M707.2,173.152H157.389a9.709,9.709,0,1,0,0,19.419H707.2Z" transform="translate(293.983 344.694)" fill="#f06743"/>
          <path id="Path_39017" data-name="Path 39017" d="M289.172,141.683v48.988h10.064V141.39Z" transform="translate(575.655 281.466)" fill="#4f418c"/>
          <path id="Path_39018" data-name="Path 39018" d="M432.976,166.924c-2.94-1.346-8.084-3.487-11.278-13.374a3.785,3.785,0,0,0-4.872-2.408c-7.943,2.832-29.291,7.925-68.493,9.211-39.217-.775-60.633-5.59-68.613-8.317a3.782,3.782,0,0,0-4.839,2.47c-3.066,9.929-8.177,12.139-11.1,13.521a3.792,3.792,0,0,0-2.216,3.436l.039,6.014a3.724,3.724,0,0,0,1.328,2.853c4.292,3.583,28.792,15.372,85.663,15v0c63.98-2.817,81.147-12.477,85.394-16.114a3.736,3.736,0,0,0,1.286-2.871l-.039-6.014a3.787,3.787,0,0,0-2.258-3.406" transform="translate(520.696 300.439)" fill="url(#linear-gradient-9)"/>
          <path id="Path_39019" data-name="Path 39019" d="M316.957,124.242c-3.221-2.225-8.072-4.247-15.064-4.247-7.226,0-12.1,2.037-15.283,4.274a3.188,3.188,0,0,0,1.917,5.745H297.1a1.724,1.724,0,0,1,1.726,1.726v4.181a1.786,1.786,0,0,1-1.11,1.609,8.371,8.371,0,0,0-5.195,7.525c0,4.669,4.2,8.452,9.385,8.452s9.385-3.783,9.385-8.452a8.374,8.374,0,0,0-5.2-7.525,1.786,1.786,0,0,1-1.11-1.609V131.74a1.724,1.724,0,0,1,1.726-1.726h8.362a3.191,3.191,0,0,0,1.89-5.772" transform="translate(567.956 238.874)" fill="#4f418c"/>
          <path id="Path_39020" data-name="Path 39020" d="M266.678,186.834a4.082,4.082,0,0,0,2.614,5.129c7.854,2.632,28.747,8.993,71.307,8.374,40.132-.583,59.524-7.608,67.372-10.153a4.122,4.122,0,0,0,2.551-5.47,21.458,21.458,0,0,0-3.8-6.49,4.2,4.2,0,0,1-1.175-2.727c-.266-8.257-4.938-47.534-66.753-47.534-61.857,0-66.881,40.748-67.252,49.4a4.145,4.145,0,0,1-1.062,2.608,19.385,19.385,0,0,0-3.8,6.861" transform="translate(530.467 254.734)" fill="url(#linear-gradient-10)"/>
          <path id="Path_39021" data-name="Path 39021" d="M310.606,132.161c-7.4-5.425-20.908,4.172-26.456,8.685-5.874,4.785-16.03,14.8-12.094,23.229a1.962,1.962,0,0,0,2.183.888c4.432-.855,7.536-5.371,10.563-8.434a54.6,54.6,0,0,1,13.982-10.569c3.433-1.765,20.361-7.543,11.822-13.8" transform="translate(539.825 259.875)" fill="#fff"/>
          <path id="Path_39022" data-name="Path 39022" d="M274.9,145.429c-2.689-1.567-4.713,2-5.626,3.888a3.314,3.314,0,0,0,1.157,4.411,3.253,3.253,0,0,0,4.411-1.157c.969-2.007,2.757-5.566.057-7.142" transform="translate(535.277 288.734)" fill="#fff"/>
          <path id="Path_39023" data-name="Path 39023" d="M275.889,154.977c-.685-2.443-3.759-2.058-4.588,0a13.441,13.441,0,0,1-2.6,4.046c-1.6,1.654-3.152,2.7-3.912,5.021-1.089,3.332,2.228,5.6,5.147,5.144,5.9-.921,7.255-9.531,5.951-14.212" transform="translate(526.699 305.146)" fill="#fff"/>
          <path id="Path_39024" data-name="Path 39024" d="M188.464,329.119a18.873,18.873,0,1,1-18.874-18.871,18.874,18.874,0,0,1,18.874,18.871" transform="translate(300.035 617.612)" fill="#2e0c37"/>
          <path id="Path_39025" data-name="Path 39025" d="M144.23,323.882a18.871,18.871,0,1,1-18.871-18.871,18.871,18.871,0,0,1,18.871,18.871" transform="translate(211.984 607.186)" fill="#2e0c37"/>
          <path id="Path_39026" data-name="Path 39026" d="M356.365,211.842,164.479,182.9,111.02,199.087a4.748,4.748,0,0,0,.006,9.325l164.118,23.42Z" transform="translate(213.352 364.096)" fill="#67bec5"/>
          <path id="Path_39027" data-name="Path 39027" d="M166.75,188.516l140.2,22.239a25.159,25.159,0,0,0,7.124.111l78.685-10.007a8.717,8.717,0,0,1,10.052,7.5l41.406,324.695a8.717,8.717,0,0,1-7.028,9.669l-103.2,19.532a118.41,118.41,0,0,1-37.617,1.038l-193.7-25.711a18.019,18.019,0,0,1-15.321-21.27l60.6-314.613a16.507,16.507,0,0,1,18.8-13.183" transform="translate(173.233 374.869)" fill="url(#linear-gradient-11)"/>
        </g>
      </g>
      <g id="Group_36376" data-name="Group 36376" transform="translate(260.254 563.179)">
        <g id="Group_36375" data-name="Group 36375" clip-path="url(#clip-path-17)">
          <path id="Path_39028" data-name="Path 39028" d="M267,184.886s23.345,348.9-114.933,412.2h170v-412.2Z" transform="translate(42.464 -195.126)" fill="#39246f"/>
        </g>
      </g>
      <g id="Group_36378" data-name="Group 36378">
        <g id="Group_36377" data-name="Group 36377" clip-path="url(#clip-path)">
          <path id="Path_39030" data-name="Path 39030" d="M81.7,494.966l55.092-277.848a35.9,35.9,0,0,1,40.991-28.451l119.32,19.448a35.9,35.9,0,0,1,30.125,35.434V525.6a35.9,35.9,0,0,1-40.724,35.577L112.094,537.523A35.9,35.9,0,0,1,81.7,494.966" transform="translate(161.265 374.638)" fill="#524e9a"/>
          <path id="Path_39031" data-name="Path 39031" d="M91.88,409.955l30.8-155.319a65.543,65.543,0,0,1,74.833-51.943l32.772,5.341a65.546,65.546,0,0,1,55,64.689v158.6a65.542,65.542,0,0,1-74.349,64.946l-63.564-8.619a65.543,65.543,0,0,1-55.483-77.7" transform="translate(180.385 401.785)" fill="url(#linear-gradient-12)"/>
          <path id="Path_39032" data-name="Path 39032" d="M253.149,271.156a4.834,4.834,0,0,1-4.833-4.83V183.384L131.858,167.277v78.156a4.832,4.832,0,0,1-9.663,0V156.187l135.784,18.779v91.36a4.832,4.832,0,0,1-4.83,4.83" transform="translate(243.254 310.922)" fill="#39246f"/>
          <path id="Path_39033" data-name="Path 39033" d="M120.672,162.421v.508a6.207,6.207,0,0,0,5.512,5.975L258.056,188.12c3.957.574,7.537-2.261,7.537-5.978V177.73a6.228,6.228,0,0,0-5.715-6L128.005,156.419c-3.894-.452-7.333,2.363-7.333,6" transform="translate(240.222 311.288)" fill="#524e9a"/>
          <path id="Path_39034" data-name="Path 39034" d="M162.864,319.739a.172.172,0,0,0,0-.344.172.172,0,0,0,0,.344" transform="translate(323.884 635.821)" fill="#512d0a"/>
          <path id="Path_39035" data-name="Path 39035" d="M157.413,312.357a.172.172,0,0,0,0,.344.172.172,0,0,0,0-.344" transform="translate(313.033 621.81)" fill="#512d0a"/>
          <path id="Path_39036" data-name="Path 39036" d="M397.824,312.721c-1.983-18.453-6.125-56.88-105.916-54.3-68.388,1.741-74.645,48.518-74.7,48.991l-9.6-1.122c.066-.556,7.384-55.576,84.054-57.532C387.933,246.3,404.149,281.1,407.43,311.69Z" transform="translate(413.288 494.966)" fill="#39246f"/>
          <path id="Path_39037" data-name="Path 39037" d="M478.6,435.712H266.648a84.882,84.882,0,0,1,0-169.764H478.6a84.882,84.882,0,0,1,0,169.764" transform="translate(361.842 529.424)" fill="url(#linear-gradient-13)"/>
        </g>
      </g>
      <g id="Group_36380" data-name="Group 36380" transform="translate(543.608 795.372)">
        <g id="Group_36379" data-name="Group 36379" clip-path="url(#clip-path-19)">
          <path id="Path_39038" data-name="Path 39038" d="M181.766,412.209S513.049,455.323,573.722,266.75V446.336H181.766Z" transform="translate(-181.766 -264.351)" fill="#f06743"/>
        </g>
      </g>
      <g id="Group_36382" data-name="Group 36382">
        <g id="Group_36381" data-name="Group 36381" clip-path="url(#clip-path)">
          <path id="Path_39040" data-name="Path 39040" d="M302.566,272.021a145.643,145.643,0,0,0-19.454,34.549,116.575,116.575,0,0,0-8.613,38.284,95.1,95.1,0,0,0,5.679,38.374,106.205,106.205,0,0,0,8.467,17.591c1.573,2.862,3.454,5.542,5.027,8.443a71.557,71.557,0,0,1,4.639,8.945l.048.123a1.653,1.653,0,0,1-.945,2.141,1.673,1.673,0,0,1-1.588-.215,50.211,50.211,0,0,1-13.482-15.734,105.284,105.284,0,0,1-13.8-39.205,110.1,110.1,0,0,1-.694-20.86,122.613,122.613,0,0,1,10.294-39.977,140.984,140.984,0,0,1,9.711-18.118,119.551,119.551,0,0,1,12.3-16.473,1.608,1.608,0,0,1,2.473,2.052Z" transform="translate(532.788 536.216)" fill="#39246f"/>
          <path id="Path_39041" data-name="Path 39041" d="M445.005,293.069a1.781,1.781,0,0,1-.428-.054c-.691-.176-69.914-17.693-136.355-18.441-68.248-.757-117.7,12.9-118.19,13.036a1.72,1.72,0,0,1-.936-3.311c.5-.138,50.336-13.868,119.168-13.165,66.863.751,136.472,18.372,137.169,18.548a1.72,1.72,0,0,1-.428,3.385" transform="translate(373.945 539.698)" fill="#39246f"/>
          <path id="Path_39042" data-name="Path 39042" d="M210.772,305.455a134.361,134.361,0,0,1-3.7-14.146c-.5-2.5-.694-5.105-1.172-7.617a6.99,6.99,0,0,0,2.177-3.475,7.087,7.087,0,0,0-1.2-6.059c-1.522-1.806-4.145-1.474-6.1-.538a3.131,3.131,0,0,0-1.235.114,5.882,5.882,0,0,0-3.912,4.7,7.559,7.559,0,0,0,.577,4.938c-1.122,3.595-1.977,7.333-2.763,11.072a.861.861,0,0,0-.215,1.047c-.679,3.269-1.325,6.535-2.061,9.69a2.085,2.085,0,0,0,1.974,2.59,75.688,75.688,0,0,0,15.656.275,2.073,2.073,0,0,0,1.974-2.59m-10.814-19.849a6.859,6.859,0,0,0,1.98-.009c.266,1.947.718,3.894,1.065,5.754.269,1.436.61,2.853.936,4.277-1.971-.4-3.93-.813-5.9-1.089.733-2.967,1.415-5.951,1.923-8.933m-4.265,18.24c.52-2.138,1.077-4.3,1.63-6.475,2.135.712,4.328,1.247,6.529,1.845a1.819,1.819,0,0,0,.948-.012c.422,1.615.846,3.227,1.316,4.83a79.734,79.734,0,0,1-10.423-.188" transform="translate(380.43 543.181)" fill="#524e9a"/>
          <path id="Path_39043" data-name="Path 39043" d="M243.358,260.371c-20.441-8.544-44.167-10.473-66.026-12.866a688.856,688.856,0,0,0-73.464-3.771c-2.967-.009-2.811,4.465.111,4.576q37.889,1.409,75.461,6.277c20.92,2.719,42.118,8.314,63.229,8.592,1.415.021,2.079-2.225.688-2.808" transform="translate(202.484 485.202)" fill="#fff"/>
          <path id="Path_39044" data-name="Path 39044" d="M105.569,255.938a1.966,1.966,0,0,1-.227-.015,1.611,1.611,0,0,1-1.37-1.818l1.11-7.976a1.632,1.632,0,0,1,1.818-1.373,1.609,1.609,0,0,1,1.37,1.818l-1.11,7.976a1.611,1.611,0,0,1-1.591,1.388" transform="translate(206.947 487.21)" fill="#fff"/>
          <path id="Path_39045" data-name="Path 39045" d="M222.831,338.688a1.61,1.61,0,0,1-.3-3.191,12.473,12.473,0,0,0,9.531-8.655,1.61,1.61,0,1,1,3.089.906,15.721,15.721,0,0,1-12.017,10.913,1.733,1.733,0,0,1-.305.027m-15.142-1.549a1.4,1.4,0,0,1-.251-.021l-15.118-2.375a1.611,1.611,0,0,1-1.343-1.839,1.631,1.631,0,0,1,1.842-1.343l15.115,2.375a1.611,1.611,0,0,1-.245,3.2m-30.233-4.749a1.7,1.7,0,0,1-.251-.021l-15.118-2.375a1.609,1.609,0,0,1-1.343-1.839,1.637,1.637,0,0,1,1.839-1.343l15.118,2.375a1.611,1.611,0,0,1-.245,3.2m-30.236-4.752a1.734,1.734,0,0,1-.251-.018l-15.118-2.375a1.611,1.611,0,0,1-1.343-1.839,1.638,1.638,0,0,1,1.842-1.343l15.115,2.375a1.61,1.61,0,0,1-.245,3.2m-30.233-4.749a1.811,1.811,0,0,1-.254-.018l-3.335-.526a15.6,15.6,0,0,1-10.767-7.094,1.61,1.61,0,1,1,2.722-1.72,12.377,12.377,0,0,0,8.547,5.631l3.335.526a1.61,1.61,0,0,1-.248,3.2M233.7,313.673a1.612,1.612,0,0,1-1.609-1.543l-.664-15.288a1.613,1.613,0,0,1,1.54-1.681,1.63,1.63,0,0,1,1.681,1.54l.664,15.291a1.618,1.618,0,0,1-1.543,1.681Zm-130.954-12.51a1.414,1.414,0,0,1-.224-.018,1.609,1.609,0,0,1-1.373-1.815l2.114-15.157a1.639,1.639,0,0,1,1.818-1.37,1.61,1.61,0,0,1,1.37,1.818l-2.111,15.154a1.612,1.612,0,0,1-1.594,1.388m129.626-18.07a1.61,1.61,0,0,1-1.609-1.54l-.661-15.286a1.612,1.612,0,0,1,3.221-.141l.661,15.288a1.615,1.615,0,0,1-1.543,1.678Zm-125.4-12.244a1.94,1.94,0,0,1-.227-.015,1.611,1.611,0,0,1-1.37-1.818l2.114-15.154a1.634,1.634,0,0,1,1.815-1.373,1.61,1.61,0,0,1,1.373,1.818l-2.114,15.154a1.611,1.611,0,0,1-1.591,1.388" transform="translate(201.319 502.609)" fill="#fff"/>
          <path id="Path_39046" data-name="Path 39046" d="M145.874,259.958a1.61,1.61,0,0,1-1.609-1.54l-.35-8.048a1.613,1.613,0,0,1,1.54-1.678,1.641,1.641,0,0,1,1.681,1.54l.347,8.045a1.613,1.613,0,0,1-1.54,1.681Z" transform="translate(286.489 495.072)" fill="#fff"/>
          <path id="Path_39047" data-name="Path 39047" d="M124.713,191.759c-10.907,6.352-23.495,20.083-21.668,33.855a1.75,1.75,0,0,0,3.23.873c3.326-5.054,5.3-10.967,8.577-16.129a62.926,62.926,0,0,1,13.084-14.421c2.372-1.95-.673-5.664-3.224-4.178" transform="translate(204.779 381.053)" fill="#fff"/>
          <path id="Path_39048" data-name="Path 39048" d="M104.165,207.219c-2.611,2.8-3.921,5.925-3.006,9.717a.9.9,0,0,0,1.711,0,19.514,19.514,0,0,1,3.8-7.208c1.552-1.669-.948-4.184-2.509-2.509" transform="translate(200.8 411.414)" fill="#fff"/>
          <path id="Path_39049" data-name="Path 39049" d="M203.2,345.642c-3.457-9-6.394-17.645-6.759-27.416-.425-11.317,4.86-22.248,3.5-33.31a1.513,1.513,0,0,0-2.545-1.056c-15.264,14.723-20.459,53.728,1.9,64.788,1.863.918,4.812-.655,3.909-3.006" transform="translate(366.705 564.219)" fill="#fff"/>
          <path id="Path_39050" data-name="Path 39050" d="M201.091,309.917a35.784,35.784,0,0,1-4.528-12.1c-.58-3.23-6.1-2.527-5.781.784.772,7.961,4.6,22.481,14.4,23.36a1.672,1.672,0,0,0,1.594-2.094c-.73-3.864-3.747-6.666-5.688-9.953" transform="translate(379.764 588.706)" fill="#fff"/>
        </g>
      </g>
    </g>
  </g>
</svg>
