<svg xmlns="http://www.w3.org/2000/svg" width="22.311" height="18.443" viewBox="0 0 22.311 18.443">
  <path id="_621cd82ffbab60aa6cd28145403e75e4" data-name="621cd82ffbab60aa6cd28145403e75e4" d="M25.919,9.421a.454.454,0,0,0,0-.489.46.46,0,0,0-.445-.2L14.719,10.292l-.042.019L4.2,8.691a.459.459,0,0,0-.446.2.453.453,0,0,0-.007.488l4.313,6.95L7.048,22.873l-2.237-.347a.453.453,0,0,0-.139.894l5.369.831a.464.464,0,0,0,.069.005.453.453,0,0,0,.068-.9l-2.236-.346,1.012-6.546,5.9-5.061,5.791,5.057.951,6.554-2.24.325a.453.453,0,0,0,.064.9.557.557,0,0,0,.067,0l5.376-.78a.454.454,0,0,0,.383-.514.462.462,0,0,0-.513-.382l-2.24.325-.952-6.553Zm-7.473,3.916a2.255,2.255,0,0,0,.76-.5,2.231,2.231,0,0,0,2.687-.39,2.254,2.254,0,0,0,.872.265l-1.794,2.834ZM8.637,15.544l-1.768-2.85a2.257,2.257,0,0,0,.874-.256,2.231,2.231,0,0,0,2.684.415,2.257,2.257,0,0,0,.756.51Zm3.391-2.908a1.437,1.437,0,0,1-.192-.015A1.337,1.337,0,0,1,10.9,12a.453.453,0,0,0-.674-.1,1.335,1.335,0,0,1-2.01-.311.454.454,0,0,0-.675-.1,1.364,1.364,0,0,1-1.078.309,1.277,1.277,0,0,1-.192-.054l-1.241-2,8.791,1.359Zm12.6-2.867-1.266,2a1.311,1.311,0,0,1-.187.041,1.329,1.329,0,0,1-1.076-.32.469.469,0,0,0-.359-.1.454.454,0,0,0-.315.2,1.349,1.349,0,0,1-.939.611,1.333,1.333,0,0,1-1.074-.318.464.464,0,0,0-.36-.105.454.454,0,0,0-.314.2,1.24,1.24,0,0,1-1.141.617l-1.773-1.548ZM14.783,7.625a.453.453,0,0,0,.453-.453V6.267a.453.453,0,1,0-.905,0v.905A.453.453,0,0,0,14.783,7.625Zm2.256.905a.451.451,0,0,0,.32-.132l.64-.64a.453.453,0,1,0-.64-.64l-.64.64a.453.453,0,0,0,.32.772ZM11.927,8.4a.453.453,0,0,0,.639-.64l-.64-.64a.453.453,0,1,0-.64.64Z" transform="translate(-3.678 -5.814)" fill="#3a266b"/>
</svg>
