<svg xmlns="http://www.w3.org/2000/svg" width="26.777" height="26.784" viewBox="0 0 26.777 26.784">
  <g id="_6e7789d7816f71d2e285bc064451b813" data-name="6e7789d7816f71d2e285bc064451b813" transform="translate(0 0)">
    <path id="Path_38836" data-name="Path 38836" d="M15.394,28.853a13.388,13.388,0,1,1,9.471-3.917,13.357,13.357,0,0,1-9.471,3.917Zm0-24.64a11.252,11.252,0,1,0,7.956,3.3,11.176,11.176,0,0,0-7.956-3.3Z" transform="translate(-2.006 -2.07)"/>
    <path id="Path_38837" data-name="Path 38837" d="M12.274,20.968a1.07,1.07,0,0,1-.758-1.829l4.167-4.167L11.516,10.8a1.071,1.071,0,0,1,1.515-1.515l4.925,4.925a1.07,1.07,0,0,1,0,1.515l-4.925,4.925a1.068,1.068,0,0,1-.758.314Z" transform="translate(-1.348 -1.576)"/>
  </g>
</svg>
