<svg xmlns="http://www.w3.org/2000/svg" width="76" height="76" viewBox="0 0 76 76">
  <g id="Group_67" data-name="Group 67" transform="translate(-451 -329)">
    <circle id="Ellipse_27" data-name="Ellipse 27" cx="38" cy="38" r="38" transform="translate(451 329)" fill="#6bcece"/>
    <g id="noun-payment-3849506" transform="translate(467.829 343.526)">
      <g id="Group_66" data-name="Group 66" transform="translate(0 0)">
        <path id="Path_64" data-name="Path 64" d="M41.517,27.212h-1.1v-4.4a4.279,4.279,0,0,0-.33-1.673l-.02-.033a12.887,12.887,0,0,0,4.708-6.491,1.1,1.1,0,0,0-.359-1.156L31.994,3.252a1.1,1.1,0,0,0-1.723.44,32.436,32.436,0,0,1-7.556,10.314H7.4a4.415,4.415,0,0,0-4.4,4.4v22.01a4.415,4.415,0,0,0,4.4,4.4H36.015a4.415,4.415,0,0,0,4.4-4.4v-4.4h1.1a1.1,1.1,0,0,0,1.1-1.1v-6.6A1.1,1.1,0,0,0,41.517,27.212Zm-9.8-21.339,8.971,7.371s.26,2.009-2.474,3.522S21.18,18.408,21.18,18.408A43.579,43.579,0,0,0,31.718,5.873Zm6.5,21.339h-4.4a4.4,4.4,0,1,0,0,8.8h4.4v4.4a2.2,2.2,0,0,1-2.2,2.2H7.4a2.236,2.236,0,0,1-2.2-2.2V18.408a2.236,2.236,0,0,1,2.2-2.2H20.339c-1.239,1.087-2.2,1.858-2.641,2.2H8.5a1.1,1.1,0,0,0,0,2.2H36.015a2.168,2.168,0,0,1,1.739.858,2.2,2.2,0,0,1,.462,1.343Zm-3.323,4.4a1.12,1.12,0,0,1-.33.77,1.032,1.032,0,0,1-.77.33,1.118,1.118,0,0,1-.792-.33,1.1,1.1,0,0,1-.308-.77.894.894,0,0,1,.088-.418.957.957,0,0,1,.22-.352,1.129,1.129,0,0,1,1.563,0,1.006,1.006,0,0,1,.242.352.953.953,0,0,1,.088.418Z" transform="translate(-3 -2.999)" fill="#fff"/>
      </g>
    </g>
  </g>
</svg>
