<svg xmlns="http://www.w3.org/2000/svg" width="35.931" height="36.436" viewBox="0 0 35.931 36.436">
  <g id="Hotel_B_White" data-name="Hotel B_White" transform="translate(-30.002 -28.5)">
    <path id="Path_38842" data-name="Path 38842" d="M72.288,30.582a6.218,6.218,0,0,1,5.295,3.187,8.285,8.285,0,0,1,.7,6.815l-3.318,9.947-2.676,8.013-2.731-8.188L66.3,40.584a8.294,8.294,0,0,1,.7-6.81,6.227,6.227,0,0,1,5.289-3.192m0-2.082A7.988,7.988,0,0,0,65.5,32.594a10.639,10.639,0,0,0-.9,8.732L67.862,51.1l2.731,8.188a1.742,1.742,0,0,0,3.39,0l2.674-8.013,3.318-9.95a10.621,10.621,0,0,0-.895-8.74A7.971,7.971,0,0,0,72.288,28.5Z" transform="translate(-24.725 0)" fill="#f7f5fc"/>
    <path id="Path_38843" data-name="Path 38843" d="M47.909,122.907a.852.852,0,0,1-.485-.137L30.415,111.127a1,1,0,0,1,0-1.616l6.03-4.109a.864.864,0,0,1,1.241.289,1,1,0,0,1-.271,1.325l-4.847,3.29,15.344,10.506,15.4-10.479L57.585,106.7a1,1,0,0,1-.265-1.283.868.868,0,0,1,1.183-.361l6.982,4.43a.993.993,0,0,1,.023,1.644L48.391,122.77A.845.845,0,0,1,47.909,122.907Z" transform="translate(0 -57.971)" fill="#f7f5fc"/>
    <path id="Path_38844" data-name="Path 38844" d="M87.189,53.776l-2.682,1.411L85.02,52.2l-2.17-2.118,3-.436,1.34-2.718,1.342,2.718,3,.436L89.359,52.2l.512,2.986Z" transform="translate(-39.556 -13.381)" fill="#f7f5fc"/>
  </g>
</svg>
