<svg id="_790dd825ecb695034d939a55b8e21f71" data-name="790dd825ecb695034d939a55b8e21f71" xmlns="http://www.w3.org/2000/svg" width="35.714" height="25" viewBox="0 0 35.714 25">
  <path id="Path_38784" data-name="Path 38784" d="M35.929,11H3.786A1.788,1.788,0,0,0,2,12.786V34.214A1.788,1.788,0,0,0,3.786,36H35.929a1.788,1.788,0,0,0,1.786-1.786V12.786A1.788,1.788,0,0,0,35.929,11Z" transform="translate(-2 -11)" fill="#4d4d4d"/>
  <path id="Path_38785" data-name="Path 38785" d="M10.929,40.847A35.015,35.015,0,0,1,2,39.7v.552a1.788,1.788,0,0,0,1.786,1.786H35.929a1.788,1.788,0,0,0,1.786-1.786V25.915C33.672,34.634,23.206,40.847,10.929,40.847Z" transform="translate(-2 -17.037)" fill="#3e3e3e"/>
  <path id="Path_38786" data-name="Path 38786" d="M2,21H37.714v5.952H2Z" transform="translate(-2 -15.048)" fill="#3ebbdd"/>
  <path id="Path_38787" data-name="Path 38787" d="M6,15H7.19v1.19H6Zm2.381,0h1.19v1.19H8.381Zm2.381,0h1.19v1.19h-1.19Zm2.381,0h1.19v1.19h-1.19ZM36.357,31.667H31.6a.6.6,0,0,0-.6.6v2.381a.6.6,0,0,0,.6.6h4.762a.6.6,0,0,0,.6-.6V32.262A.6.6,0,0,0,36.357,31.667Zm-7.143,0H24.452a.6.6,0,0,0-.6.6v2.381a.6.6,0,0,0,.6.6h4.762a.6.6,0,0,0,.6-.6V32.262A.6.6,0,0,0,29.214,31.667ZM6.6,32.857h8.929v1.19H6.6Z" transform="translate(-3.619 -12.619)" fill="#fff"/>
</svg>
