<svg xmlns="http://www.w3.org/2000/svg" width="72.708" height="74.84" viewBox="0 0 72.708 74.84">
  <path id="Path_37817" data-name="Path 37817" d="M73.838,95.695a7.229,7.229,0,0,0-2.6-5.566,117.619,117.619,0,0,0-19.591-12.8L46.4,105.96H73.838ZM36.318,81.742l-4.1,5.187,2.747,4.428-2.151,14.549H42.12L39.969,91.357l2.765-4.428L38.65,81.724,49.493,73.79V68.856A16.482,16.482,0,0,0,51.5,63.434c.777,0,1.807-1.175,2.946-5.115,1.482-5.205,0-6.127-1.319-6.073,3.38-15.326-5.241-15.38-5.241-15.38a8.657,8.657,0,0,0-9.506-5.639C34.149,32.1,25.4,31.12,25.4,31.12a4.121,4.121,0,0,0,1.464,3.127c-7.663,4.681-5.91,14.983-5.223,17.946-1.3,0-2.657.994-1.229,6.073,1.121,3.94,2.151,5.042,2.946,5.115a16.5,16.5,0,0,0,2.06,5.476V73.79ZM23.306,77.315A117.619,117.619,0,0,0,3.733,90.11a7.229,7.229,0,0,0-2.6,5.566v10.247H28.565Z" transform="translate(-1.13 -31.12)" fill="#67bec5"/>
</svg>
