<svg xmlns="http://www.w3.org/2000/svg" width="20.376" height="20.376" viewBox="0 0 20.376 20.376">
  <g id="_Group_2" data-name=" Group 2" transform="translate(-84.24 -84.24)">
    <path id="Path_30" data-name="Path 30" d="M94.428,84.24A10.188,10.188,0,1,1,84.24,94.428,10.188,10.188,0,0,1,94.428,84.24Zm7.565,10.188a7.565,7.565,0,1,0-7.565,7.565,7.565,7.565,0,0,0,7.565-7.565Z" fill="#f4b844"/>
    <circle id="Ellipse_1" data-name="Ellipse 1" cx="7.565" cy="7.565" r="7.565" transform="translate(86.863 86.863)" fill="#fedb41"/>
    <path id="Path_33" data-name="Path 33" d="M209.21,182.254h-1.073a2.5,2.5,0,0,0-.628-1.3h1.7a.475.475,0,0,0,0-.949h-5.285a.475.475,0,1,0,0,.949h1.513a1.77,1.77,0,0,1,1.728,1.3h-3.241a.475.475,0,1,0,0,.949h3.242a1.784,1.784,0,0,1-1.729,1.3h-1.513a.478.478,0,0,0-.326.825l3.78,3.572a.476.476,0,1,0,.652-.693l-2.913-2.755h.319a2.718,2.718,0,0,0,1.939-.8,2.766,2.766,0,0,0,.761-1.457h1.072a.475.475,0,0,0,0-.949Z" transform="translate(-112.139 -90.08)" fill="#00acea"/>
  </g>
</svg>
