<svg xmlns="http://www.w3.org/2000/svg" width="35.2" height="36.421" viewBox="0 0 35.2 36.421">
  <g id="Dashboard_White" transform="translate(-30.6 -29.867)">
    <path id="Path_38839" data-name="Path 38839" d="M56.624,46.159a1.414,1.414,0,0,1-1.032-.439L42.738,32.206a.408.408,0,0,0-.606.018l-7.716,9.21a.9.9,0,0,1-1.272.111h0a.9.9,0,0,1-.111-1.272l8.286-9.889a1.422,1.422,0,0,1,1.032-.516,1.406,1.406,0,0,1,1.071.441L56.353,43.886a.41.41,0,0,0,.573.018l8.715-8.093a.9.9,0,0,1,1.275.046h0a.9.9,0,0,1-.044,1.275l-9.28,8.637A1.414,1.414,0,0,1,56.624,46.159Z" transform="translate(-1.648)" fill="#f7f5fc"/>
    <rect id="Rectangle_5160" data-name="Rectangle 5160" width="6.044" height="18.839" rx="2.05" transform="translate(35.743 42.03)" fill="#f7f5fc"/>
    <rect id="Rectangle_5161" data-name="Rectangle 5161" width="6.044" height="12.111" rx="2.05" transform="translate(47.374 48.758)" fill="#f7f5fc"/>
    <rect id="Rectangle_5162" data-name="Rectangle 5162" width="35.2" height="1.806" rx="0.903" transform="translate(30.6 64.482)" fill="#f7f5fc"/>
  </g>
</svg>
