<svg xmlns="http://www.w3.org/2000/svg" width="14.281" height="16.894" viewBox="0 0 14.281 16.894">
  <path id="d290b9d29c0d24d47379ca466299d551" d="M20.183,16.015V18.7a.62.62,0,0,1-.62.62H18.075v8.521a.62.62,0,1,1-1.24,0V19.322H15.35a.62.62,0,0,1-.62-.62V16.015a.62.62,0,0,1,.62-.62h1.484v-3.2a.62.62,0,1,1,1.24,0v3.2h1.488a.62.62,0,0,1,.62.62Zm8.207,3.1H26.906V12.19a.62.62,0,1,0-1.24,0v6.925H24.177a.62.62,0,0,0-.62.62v2.687a.62.62,0,0,0,.62.62h1.488v4.8a.62.62,0,1,0,1.24,0v-4.8h1.484a.62.62,0,0,0,.62-.62V19.736A.62.62,0,0,0,28.391,19.116Z" transform="translate(-14.73 -11.57)" fill="#222"/>
</svg>
