<svg xmlns="http://www.w3.org/2000/svg" width="36" height="36" viewBox="0 0 36 36">
  <g id="_7c8fe940fc076ca9574f8c251c352408" data-name="7c8fe940fc076ca9574f8c251c352408" transform="translate(-0.396 -0.396)">
    <rect id="Rectangle_5224" data-name="Rectangle 5224" width="36" height="36" transform="translate(0.396 0.396)" fill="none"/>
    <path id="Path_39139" data-name="Path 39139" d="M56.1,59.694V52.8a1.15,1.15,0,0,0-1.15-1.15h-4.6A1.15,1.15,0,0,0,49.2,52.8v6.9a1.15,1.15,0,0,1-1.15,1.15h-6.9A1.15,1.15,0,0,1,40,59.695V46.407a1.15,1.15,0,0,1,.376-.851L51.873,35.1a1.15,1.15,0,0,1,1.547,0l11.5,10.453a1.15,1.15,0,0,1,.376.851V59.695a1.15,1.15,0,0,1-1.15,1.15h-6.9a1.15,1.15,0,0,1-1.15-1.15Z" transform="translate(-34.251 -29.802)" fill="none" stroke="#39246f" stroke-linecap="round" stroke-linejoin="round" stroke-width="3"/>
  </g>
</svg>
