<svg xmlns="http://www.w3.org/2000/svg" width="87.991" height="61.601" viewBox="0 0 87.991 61.601">
  <g id="Group_35735" data-name="Group 35735" transform="translate(-679.56 -9005)">
    <g id="Group_35734" data-name="Group 35734" transform="translate(679.56 9005)">
      <path id="Path_37818" data-name="Path 37818" d="M2.783,65.9a1.314,1.314,0,0,0,.278,1.763l9.556,6.958a1.314,1.314,0,0,0,1.763-.278l3.711-5.1L6.494,60.8Z" transform="translate(-2.56 -19.98)" fill="#67bec5"/>
      <path id="Path_37819" data-name="Path 37819" d="M52.41,47.087l-8.628,2.876v.649a5.435,5.435,0,0,1-4.175,5.1l-.557.093a48.291,48.291,0,0,1-9.556,1.3l-2.6.093a1.487,1.487,0,0,1-.186-2.969l2.6-.093a49.941,49.941,0,0,0,9.092-1.3l.557-.093a2.375,2.375,0,0,0,1.855-2.319,2.449,2.449,0,0,0-.649-1.763,2.535,2.535,0,0,0-1.763-.742l-13.823-.278a6.922,6.922,0,0,0-4.268,1.392L8.9,57.571l12.06,8.813,11.689.928a7.822,7.822,0,0,0,5.659-1.763L55.1,52a2.864,2.864,0,0,0-2.69-4.917Z" transform="translate(-3.018 -18.977)" fill="#67bec5"/>
      <path id="Path_37820" data-name="Path 37820" d="M89.09,45.335a2.336,2.336,0,0,0-1.855-.835H69.7a2.336,2.336,0,0,0-1.855.835C63.206,50.809,62,59.344,62,66.209,62,77.527,68.216,80.4,78.421,80.4s16.421-2.876,16.421-14.194C94.934,59.344,93.821,50.809,89.09,45.335ZM87.234,68.064a2.494,2.494,0,0,1-2.5,2.5H72.3a2.494,2.494,0,0,1-2.5-2.5V56.56a2.494,2.494,0,0,1,2.5-2.5H84.729a2.494,2.494,0,0,1,2.5,2.5Z" transform="translate(-6.856 -18.802)" fill="#67bec5"/>
      <path id="Path_37821" data-name="Path 37821" d="M51.049,26.356h2.69a.52.52,0,0,0,.557-.464,3.586,3.586,0,0,1,3.525-3.062H69.511v.557a1.761,1.761,0,0,0,1.763,1.763h4.453v6.123H68.583a2.1,2.1,0,0,0-2.134,2.134v4.824a.93.93,0,0,0,.928.928h20.6a.93.93,0,0,0,.928-.928V33.406a2.158,2.158,0,0,0-2.134-2.134H79.623V25.15h4.453a1.761,1.761,0,0,0,1.763-1.763V18.563A1.761,1.761,0,0,0,84.077,16.8h-12.8a1.761,1.761,0,0,0-1.763,1.763v.371H57.822A7.461,7.461,0,0,0,50.4,25.706.7.7,0,0,0,51.049,26.356Z" transform="translate(-6.017 -16.8)" fill="#67bec5"/>
      <path id="Path_37822" data-name="Path 37822" d="M51.824,41.835a4.628,4.628,0,0,0,4.917-4.824c0-2.969-3.433-6.4-4.546-7.422a.448.448,0,0,0-.649,0C50.432,30.61,47,34.135,47,37.011,46.907,40.444,49.412,41.835,51.824,41.835Z" transform="translate(-5.772 -17.714)" fill="#67bec5"/>
      <path id="Path_37823" data-name="Path 37823" d="M83.848,61.447h-2.69v-2.69A.6.6,0,0,0,80.6,58.2H78a.6.6,0,0,0-.557.557v2.69h-2.69A.6.6,0,0,0,74.2,62v2.6a.6.6,0,0,0,.557.557h2.69v2.69a.6.6,0,0,0,.557.557h2.6a.6.6,0,0,0,.557-.557v-2.69h2.69a.6.6,0,0,0,.557-.557V62C84.5,61.633,84.219,61.447,83.848,61.447Z" transform="translate(-7.737 -19.792)" fill="#67bec5"/>
    </g>
  </g>
</svg>
