<svg xmlns="http://www.w3.org/2000/svg" width="26.784" height="26.784" viewBox="0 0 26.784 26.784">
  <path id="_665ba654c89cb50b27ba0eb187da680b" data-name="665ba654c89cb50b27ba0eb187da680b" d="M17.9,20.425h-.807V13.986a1.071,1.071,0,0,0-1.071-1.071H12.889a1.071,1.071,0,1,0,0,2.143h2.057v5.367H12.889a1.071,1.071,0,0,0,0,2.143H17.9a1.071,1.071,0,1,0,0-2.143Zm-2.5-9.84a1.607,1.607,0,1,0-1.607-1.607A1.607,1.607,0,0,0,15.392,10.585Zm0-8.585A13.392,13.392,0,1,0,28.784,15.392,13.407,13.407,0,0,0,15.392,2Zm7.853,21.433a11.239,11.239,0,1,1,3.4-8.041,11.239,11.239,0,0,1-3.4,8.041Z" transform="translate(-2 -2)"/>
</svg>
