<svg id="f444943d99e3329a8991fa0e3b31e830" xmlns="http://www.w3.org/2000/svg" width="37.213" height="37.213" viewBox="0 0 37.213 37.213">
  <path id="Path_56" data-name="Path 56" d="M0,0H37.213V37.213H0Z" fill="none" fill-rule="evenodd"/>
  <path id="Path_57" data-name="Path 57" d="M14.629,20.213V5.326A2.326,2.326,0,0,0,12.3,3H5.326A2.326,2.326,0,0,0,3,5.326V31.491M25.677,20.444V15.211a2.326,2.326,0,0,0-2.326-2.326h-6.4a2.326,2.326,0,0,0-2.326,2.326v5.233" transform="translate(0.489 0.489)" fill="none" stroke="#989898" stroke-linecap="round" stroke-linejoin="round" stroke-width="2" fill-rule="evenodd"/>
  <path id="Path_58" data-name="Path 58" d="M17.539,31.479V26.87l4.652-3.545,4.652,3.545v4.609M12.962,27.99V23.435L16.209,21l1.33,1M31.494,27.99V23.435L28.247,21l-1.33,1" transform="translate(2.112 3.421)" fill="none" stroke="#989898" stroke-linecap="round" stroke-linejoin="round" stroke-width="2" fill-rule="evenodd"/>
</svg>
