<svg xmlns="http://www.w3.org/2000/svg" width="41.333" height="41.333" viewBox="0 0 41.333 41.333">
  <path id="Path_38690" data-name="Path 38690" d="M22.667,2A20.667,20.667,0,1,0,43.333,22.667,20.689,20.689,0,0,0,22.667,2Zm11.81,28.092H10.857a1.476,1.476,0,1,1,0-2.952H34.476a1.476,1.476,0,1,1,0,2.952Zm-25.1-7.425a1.481,1.481,0,0,1,1.476-1.476H22.667a1.476,1.476,0,0,1,0,2.952H10.857A1.481,1.481,0,0,1,9.381,22.667Zm25.1-4.473H10.857a1.476,1.476,0,1,1,0-2.952H34.476a1.476,1.476,0,1,1,0,2.952Z" transform="translate(-2 -2)" fill="#fff"/>
</svg>
