<svg xmlns="http://www.w3.org/2000/svg" width="28.423" height="29.533" viewBox="0 0 28.423 29.533">
  <g id="CreditW_White" transform="translate(-34 -29)">
    <path id="Path_38849" data-name="Path 38849" d="M65.535,66.313H45.175A6.184,6.184,0,0,1,39,60.137V55.321a.777.777,0,0,1,1.554,0v4.816a4.628,4.628,0,0,0,4.621,4.621H64.758v-24.2H56.973a.777.777,0,0,1,0-1.554h8.562a.777.777,0,0,1,.777.777V65.535a.777.777,0,0,1-.777.777Z" transform="translate(-3.89 -7.779)" fill="#f7f5fc"/>
    <rect id="Rectangle_5165" data-name="Rectangle 5165" width="10" height="6" rx="1.99" transform="translate(49.212 44.267)" fill="#f7f5fc"/>
    <path id="Path_38850" data-name="Path 38850" d="M42.327,45.654a8.327,8.327,0,1,1,8.327-8.327A8.327,8.327,0,0,1,42.327,45.654Zm0-15.1A6.773,6.773,0,1,0,49.1,37.327,6.773,6.773,0,0,0,42.327,30.554Z" fill="#f7f5fc"/>
    <path id="Path_38851" data-name="Path 38851" d="M69.664,52.342a.771.771,0,0,1-.555-.222l-2.887-2.887A.777.777,0,0,1,66,48.682V43.8a.777.777,0,1,1,1.554,0v4.559l2.665,2.654a.777.777,0,0,1-.548,1.332Z" transform="translate(-24.894 -10.907)" fill="#f7f5fc"/>
  </g>
</svg>
