<svg xmlns="http://www.w3.org/2000/svg" width="27.726" height="28.801" viewBox="0 0 27.726 28.801">
  <g id="Invoice_White" transform="translate(-34 -26)">
    <path id="Path_38845" data-name="Path 38845" d="M60.974,54.8H40.34a.752.752,0,0,1-.752-.752V30.256a2.747,2.747,0,0,0-2.05-2.661h-.015a1.6,1.6,0,0,0-1.257.4,1.687,1.687,0,0,0-.572,1.249L35.5,46.418h2.687a.752.752,0,1,1,0,1.5H34.752A.752.752,0,0,1,34,47.162l.189-17.938a3.194,3.194,0,0,1,1.075-2.364A3.125,3.125,0,0,1,37.7,26.1a1.268,1.268,0,0,1,.191.032,4.249,4.249,0,0,1,3.2,4.125V53.3H60.221V32.418A4.918,4.918,0,0,0,55.308,27.5H45.714a.752.752,0,0,1,0-1.5h9.595a6.426,6.426,0,0,1,6.418,6.418V54.049A.752.752,0,0,1,60.974,54.8ZM37.516,27.588Z" fill="#f7f5fc"/>
    <path id="Path_38846" data-name="Path 38846" d="M97.3,96H89.752a.752.752,0,0,1,0-1.5H97.3a.752.752,0,0,1,0,1.5Z" transform="translate(-43.179 -53.777)" fill="#f7f5fc"/>
    <path id="Path_38847" data-name="Path 38847" d="M97.3,115H89.752a.752.752,0,0,1,0-1.5H97.3a.752.752,0,0,1,0,1.5Z" transform="translate(-43.179 -68.694)" fill="#f7f5fc"/>
    <rect id="Rectangle_5163" data-name="Rectangle 5163" width="8" height="3" transform="translate(45.363 33.4)" fill="#f7f5fc"/>
  </g>
</svg>
