<svg id="ca05ea4a892f20de4c3db01a1ed7da13" xmlns="http://www.w3.org/2000/svg" width="82.956" height="23.891" viewBox="0 0 82.956 23.891">
  <g id="Group_36142" data-name="Group 36142" transform="translate(26.056 0.229)">
    <path id="Path_38767" data-name="Path 38767" d="M-1182.57,369.145l-2.979-4.074q-.189-.259-.33-.474-.129-.2-.248-.4h-.023q.037.7.036,1.4v3.544h-2.355V360.7h2.4l2.855,3.874c.035.052.079.112.13.182q.154.215.3.437a1.265,1.265,0,0,1,.1.188h.023a3.882,3.882,0,0,1-.032-.463V360.7h2.355v8.443Zm3.9,0V360.7h5.257v1.99h-2.714v1.23h2.55v1.99h-2.55v1.243h2.909v1.989Zm10.93-6.452v6.452h-2.555v-6.452h-2.361V360.7h7.307v1.99Zm-13.521,18.934a2.71,2.71,0,0,1-.192,1.027,2.1,2.1,0,0,1-.6.822,2.908,2.908,0,0,1-1.042.544,5.2,5.2,0,0,1-1.53.2h-3.85v-8.443h3.585a4.941,4.941,0,0,1,2.526.511,1.682,1.682,0,0,1,.836,1.532,1.574,1.574,0,0,1-.332.988,1.792,1.792,0,0,1-.342.339,2.71,2.71,0,0,1-1.133.5v.023a2.677,2.677,0,0,1,.88.25,2.393,2.393,0,0,1,.651.46,1.894,1.894,0,0,1,.4.591,1.652,1.652,0,0,1,.138.654Zm-2.967-3.368a.631.631,0,0,0-.33-.6,1.861,1.861,0,0,0-.9-.182h-.471v1.595h.736a1.21,1.21,0,0,0,.4-.061.924.924,0,0,0,.307-.171.74.74,0,0,0,.194-.259.775.775,0,0,0,.067-.321Zm.265,3.357a.8.8,0,0,0-.577-.777,1.225,1.225,0,0,0-.388-.059h-1V382.5h.847a1.646,1.646,0,0,0,.454-.059,1.055,1.055,0,0,0,.353-.171.783.783,0,0,0,.312-.659Zm9.122,2.6-.371-1.555h-2.52l-.4,1.555h-2.749l2.908-8.443h3.157l2.737,8.443Zm-1.431-5.658q-.035-.142-.065-.286c-.019-.1-.038-.186-.053-.271s-.026-.153-.036-.23-.014-.122-.017-.161h-.059c-.01.079-.029.2-.061.365s-.074.344-.121.536l-.612,2.342h1.613Zm11.084,5.658-2.98-4.074c-.125-.173-.235-.33-.33-.474s-.168-.263-.246-.4h-.023c.011.208.021.426.027.653s.01.477.01.749v3.544h-2.355v-8.443h2.4l2.856,3.874.13.182q.154.214.3.436a1.547,1.547,0,0,1,.1.188h.023a3.867,3.867,0,0,1-.032-.462v-4.218h2.355v8.443Zm8.569,0-1.871-3.568-.06-.132a3.068,3.068,0,0,1-.165-.451h-.029v4.151h-2.544v-8.443h2.543v4.015h.03a5.032,5.032,0,0,1,.253-.589l1.684-3.426h3.014l-2.4,4.027,2.625,4.416Zm3.637,0v-8.443h2.543v8.443Zm10.114,0-2.98-4.074c-.125-.173-.235-.33-.329-.474s-.169-.263-.248-.4h-.023q.038.7.036,1.4v3.545h-2.355v-8.443h2.4l2.856,3.874.13.182q.154.214.3.436a1.561,1.561,0,0,1,.1.188h.023a3.867,3.867,0,0,1-.033-.462v-4.218h2.355v8.443Zm11.295-.554a3.542,3.542,0,0,1-.47.209,7.231,7.231,0,0,1-.748.23,9.489,9.489,0,0,1-.945.184,7.155,7.155,0,0,1-1.068.077,6.235,6.235,0,0,1-2-.292,3.925,3.925,0,0,1-1.451-.839,3.521,3.521,0,0,1-.886-1.331,4.892,4.892,0,0,1-.3-1.76,5.152,5.152,0,0,1,.125-1.133,4.418,4.418,0,0,1,.379-1.057,3.953,3.953,0,0,1,1.6-1.663,4.939,4.939,0,0,1,1.251-.484,6.581,6.581,0,0,1,1.574-.173c.252,0,.491.01.72.029a9.3,9.3,0,0,1,1.192.18c.167.038.313.072.439.1v2.22q-.2-.092-.412-.171a4.392,4.392,0,0,0-.489-.151,5.027,5.027,0,0,0-.609-.108,6.538,6.538,0,0,0-.78-.041,2.712,2.712,0,0,0-.893.144,2.013,2.013,0,0,0-.726.439,2.06,2.06,0,0,0-.491.739,2.766,2.766,0,0,0-.18,1.039,2.807,2.807,0,0,0,.18,1.083,1.914,1.914,0,0,0,.461.689,1.615,1.615,0,0,0,.636.365,2.413,2.413,0,0,0,.7.106c.145,0,.276,0,.391-.014a2,2,0,0,0,.25-.032v-1.207h-1.618v-1.925h4.162Z" transform="translate(1188.476 -360.703)"/>
  </g>
  <path id="Path_38768" data-name="Path 38768" d="M-1211.171,360.509a.7.7,0,0,0-.564.667c-.126,2.9.387,4.568,1.513,5.285a2.094,2.094,0,0,0,1.8.18,3.3,3.3,0,0,0,1.436-1.027,2.979,2.979,0,0,1,2.438-.8,1.567,1.567,0,0,1,1.053.642,3.121,3.121,0,0,1,.41,1.95.7.7,0,0,0,.287.681.7.7,0,0,0,.738.041.7.7,0,0,0,.361-.645,4.516,4.516,0,0,0-.667-2.822,2.96,2.96,0,0,0-1.9-1.206,4.062,4.062,0,0,0-3.8,1.257,1.913,1.913,0,0,1-.8.59.643.643,0,0,1-.616-.026c-.374-.238-.99-1.33-.872-4.028a.7.7,0,0,0-.227-.574.7.7,0,0,0-.594-.169Zm6.158,8.776a2.941,2.941,0,0,0-2.089.861,2.942,2.942,0,0,0-.861,2.089v1h4.618v-3.951Zm3.207,0v3.951h5.132v-1a2.941,2.941,0,0,0-.861-2.089,2.942,2.942,0,0,0-2.089-.861Zm-6.158,5.491v6.362a2.941,2.941,0,0,0,.861,2.09,2.941,2.941,0,0,0,2.09.862h5.388a2.941,2.941,0,0,0,2.089-.861,2.942,2.942,0,0,0,.861-2.089v-6.363h-11.29Z" transform="translate(1211.754 -360.498)" fill-rule="evenodd"/>
</svg>
