<svg xmlns="http://www.w3.org/2000/svg" width="30.5" height="30.5" viewBox="0 0 30.5 30.5">
  <path id="fc2661159a42e1590d6ece47933129d9" d="M17.25,8.862H12.674a.762.762,0,0,0-.762.763V24.876a.762.762,0,0,0,.762.762h0a.762.762,0,0,0,.762-.762V19.537H17.25a5.337,5.337,0,0,0,0-10.675Zm0,9.15H13.438V10.387H17.25a3.812,3.812,0,1,1,0,7.625ZM28.687,2H5.812A3.816,3.816,0,0,0,2,5.812V28.687A3.816,3.816,0,0,0,5.812,32.5H28.687A3.816,3.816,0,0,0,32.5,28.687V5.812A3.816,3.816,0,0,0,28.687,2Zm2.287,26.687a2.29,2.29,0,0,1-2.287,2.287H5.812a2.29,2.29,0,0,1-2.287-2.287V5.812A2.29,2.29,0,0,1,5.812,3.525H28.687a2.29,2.29,0,0,1,2.287,2.287Z" transform="translate(-2 -2)" fill="#f5654b"/>
</svg>
