<svg xmlns="http://www.w3.org/2000/svg" width="115.953" height="31.503" viewBox="0 0 115.953 31.503">
  <g id="Group_36114" data-name="Group 36114" transform="translate(-208.151 -256.001)">
    <path id="Path_38709" data-name="Path 38709" d="M223.34,287.5c-.473-.046-.949-.078-1.42-.14a15.77,15.77,0,0,1-13.254-11.635,15.165,15.165,0,0,1-.461-5.192,15.76,15.76,0,0,1,25.748-10.912,15.115,15.115,0,0,1,5.543,9.818,15.281,15.281,0,0,1-3.585,12.5,15.437,15.437,0,0,1-9.826,5.406c-.494.076-1,.1-1.494.156Zm-2.9-20.866h-3.817c-.339,0-.46.1-.488.437a4.28,4.28,0,0,0,.018.976,1.121,1.121,0,0,0,1.12.983c.293.006.586,0,.879,0,.366,0,.366,0,.366.36v4.088a6.183,6.183,0,0,0,.211,1.611,3.872,3.872,0,0,0,2.728,2.949,6.128,6.128,0,0,0,3.7-.122c.287-.094.292-.094.293.21,0,.844-.006,1.689,0,2.533a1.351,1.351,0,0,0,1.373,1.369c.4,0,.8.007,1.206,0a.512.512,0,0,0,.523-.525V269.395c0-.449,0-.449.437-.449h1.531c.378,0,.488-.116.488-.5v-.753a1.1,1.1,0,0,0-1.157-1.145q-.9-.007-1.807,0a.488.488,0,0,1-.416-.184c-.226-.268-.46-.531-.691-.794q-1.969-2.276-3.947-4.544a1.622,1.622,0,0,0-1.293-.61,7.5,7.5,0,0,0-2.287.619.333.333,0,0,0-.093.549,2.451,2.451,0,0,0,.178.177q2.431,2.307,4.863,4.612c.059.055.166.107.139.192-.034.11-.157.065-.244.065h-3.817M324.1,276.866a.771.771,0,0,1-.738.372c-1.666-.012-3.331,0-5-.011-.244,0-.354.056-.344.316.009.19-.041.382-.044.574a1.51,1.51,0,0,0,1.5,1.606,5.332,5.332,0,0,0,2.643-.578c.6-.277.718-.244,1.085.317a1.411,1.411,0,0,1,.307,1.309,1.22,1.22,0,0,1-.582.694,7.153,7.153,0,0,1-4.063.747,5.154,5.154,0,0,1-1.924-.528,3.861,3.861,0,0,1-2.185-3.471c-.056-1.293-.029-2.592-.007-3.888a4.065,4.065,0,0,1,3.783-4.089,7.027,7.027,0,0,1,2.4.082,3.8,3.8,0,0,1,3.12,3.395c.01.065.028.129.043.194Zm-4.505-1.516H321c.17,0,.244-.061.244-.234v-.8a1.474,1.474,0,0,0-1.365-1.533,1.52,1.52,0,0,0-1.894,1.561c0,.244.009.488,0,.732s.082.288.3.282c.443-.011.886,0,1.33,0m-69.636,4.326v1.756a.572.572,0,0,1-.61.642q-.941.022-1.882,0a.578.578,0,0,1-.61-.571,2.238,2.238,0,0,1-.016-.3V267.869c0-.122.011-.234.022-.35a.771.771,0,0,1,.57-.692,12.344,12.344,0,0,1,4.237-.694,5.747,5.747,0,0,1,3.173.962,4.277,4.277,0,0,1,1.915,3.107,13.992,13.992,0,0,1-.021,3.923,4.539,4.539,0,0,1-3.98,3.757,5.462,5.462,0,0,1-2.577-.2c-.187-.068-.216.016-.216.173v1.83m.1-7.733c0,.869.007,1.736,0,2.605a.389.389,0,0,0,.273.412,2.961,2.961,0,0,0,1.428.187,1.987,1.987,0,0,0,1.952-2.04,14.391,14.391,0,0,0-.092-2.541,1.882,1.882,0,0,0-1.058-1.509,3.118,3.118,0,0,0-2.3-.072c-.176.054-.2.171-.2.327v2.631m53.573,2.558v-6.648c0-.694.156-.9.811-1.108a12.211,12.211,0,0,1,3.949-.622,5.649,5.649,0,0,1,3.551,1.193,4.316,4.316,0,0,1,1.612,2.911,13.947,13.947,0,0,1,0,3.752,4.457,4.457,0,0,1-3.7,3.835,5.247,5.247,0,0,1-2.825-.122c-.222-.078-.273-.018-.272.2.007,1.146,0,2.292,0,3.436,0,.538-.206.75-.732.753s-1.071,0-1.607,0-.775-.227-.781-.779v-6.8Zm3.224-2.562c0,.877.006,1.756,0,2.633a.366.366,0,0,0,.244.381,2.9,2.9,0,0,0,1.426.2,2,2,0,0,0,1.978-2.048v-1.682a4.859,4.859,0,0,0-.216-1.3,1.6,1.6,0,0,0-.864-1.025,3.131,3.131,0,0,0-2.3-.143.322.322,0,0,0-.277.366c.012.87,0,1.739,0,2.609m-48.391,2.118v-7.275c0-.55.2-.755.758-.752a7.2,7.2,0,0,1,1.2.033,1.331,1.331,0,0,1,1.131,1.177c.082.809.017,1.622.033,2.432,0,.217.007.434,0,.652-.007.184.04.262.244.205a8.483,8.483,0,0,1,1.681-.262,3.93,3.93,0,0,1,4.307,3.173,6.645,6.645,0,0,1,.166,1.464v6.447c0,.5-.212.722-.711.732q-.478.007-.954,0a1.454,1.454,0,0,1-1.464-1.474q-.007-2.734,0-5.468a3.573,3.573,0,0,0-.122-1.068,1.362,1.362,0,0,0-1.19-1.008,4.456,4.456,0,0,0-1.666.112c-.232.052-.3.167-.3.4q.011,3.763,0,7.525v.3a.628.628,0,0,1-.7.676q-.866.011-1.733,0c-.472,0-.686-.227-.686-.7v-7.321m11.165,2.057c.028-.584-.051-1.342.04-2.088a3.883,3.883,0,0,1,2.961-3.5,6.5,6.5,0,0,1,4.285.138,3.849,3.849,0,0,1,2.576,3.539c.1,1.251.046,2.506.033,3.759a4.125,4.125,0,0,1-1.4,3.256,4.846,4.846,0,0,1-2.613,1.062,6.678,6.678,0,0,1-3.071-.286,4.049,4.049,0,0,1-2.806-3.878c-.009-.61,0-1.22,0-2m3.287.03c0,.676-.009,1.22,0,1.762a1.468,1.468,0,0,0,1.395,1.627c1.1.14,2.051-.244,2.085-1.579.028-1.11.02-2.222,0-3.334a1.548,1.548,0,0,0-1.289-1.644,3.008,3.008,0,0,0-.726-.023,1.436,1.436,0,0,0-1.428,1.32c-.087.666-.013,1.336-.042,1.871m25.657,1.077c-.863,0-1.724.007-2.587,0-.217,0-.308.081-.315.284a5.091,5.091,0,0,0-.046.854,1.534,1.534,0,0,0,1.474,1.359,5.073,5.073,0,0,0,2.62-.552c.654-.312.785-.276,1.174.344a1.333,1.333,0,0,1,.244,1.342,1.057,1.057,0,0,1-.454.552,6.669,6.669,0,0,1-6.156.229,3.613,3.613,0,0,1-2.089-3.155,32.113,32.113,0,0,1,0-4.533,3.884,3.884,0,0,1,2.928-3.529,6.334,6.334,0,0,1,3.567-.009,3.686,3.686,0,0,1,2.755,3.173,17.087,17.087,0,0,1,.085,3.029c-.009.428-.244.616-.687.617H298.59m-1.318-1.882H298.7c.156,0,.232-.051.227-.217-.007-.259.007-.519-.006-.776a1.646,1.646,0,0,0-3.265-.239c-.046.333-.012.667-.027,1-.009.176.068.234.238.232.469-.006.936,0,1.4,0m-15.927,1.17v-4.69a.811.811,0,0,1,.675-.914,12.131,12.131,0,0,1,3.891-.665,5.182,5.182,0,0,1,3.539,1.1,4.2,4.2,0,0,1,1.359,2.665,6.565,6.565,0,0,1,.055,1.025v6.3c0,.538-.2.743-.744.739a7.642,7.642,0,0,1-1.228-.029,1.271,1.271,0,0,1-1.123-1.3c-.007-1.781,0-3.562,0-5.343a5.956,5.956,0,0,0-.091-1.2,1.457,1.457,0,0,0-1.472-1.256,7.447,7.447,0,0,0-1.425.084c-.244.038-.311.145-.31.38q.009,3.836,0,7.675v.3a.61.61,0,0,1-.61.587c-.644.012-1.29.013-1.934,0a.576.576,0,0,1-.583-.643v-4.816" transform="translate(0)" fill="#5f259f"/>
    <path id="Path_38710" data-name="Path 38710" d="M321.67,365.881c0,.929-.006,1.856,0,2.783a.366.366,0,0,1-.282.4,4.467,4.467,0,0,1-1.856.225,1.793,1.793,0,0,1-1.755-1.815c-.083-.993-.022-1.988-.039-2.982-.007-.488,0-.969,0-1.453,0-.2.066-.283.277-.282,1.121.007,2.243.01,3.363,0,.244,0,.3.1.294.315-.007.936,0,1.872,0,2.806" transform="translate(-96.211 -93.732)" fill="#5f259f"/>
  </g>
</svg>
