<svg xmlns="http://www.w3.org/2000/svg" width="95.112" height="88.426" viewBox="0 0 95.112 88.426">
  <g id="Group_35733" data-name="Group 35733" transform="translate(-1453.69 -8794.81)">
    <g id="Group_35732" data-name="Group 35732" transform="translate(1451.198 8788.936)">
      <path id="Path_37812" data-name="Path 37812" d="M39.6,47.1l.6-5.1a16.89,16.89,0,0,1,5.5-30.1l3.5-5.2a21.563,21.563,0,0,0-9.6,40.4Z" fill="#67bec5"/>
      <path id="Path_37813" data-name="Path 37813" d="M71.5,28.2A21.591,21.591,0,0,0,60.3,9.3l-.6,5.1a17.041,17.041,0,0,1,7.2,13.8A16.836,16.836,0,0,1,54.3,44.5l-3.5,5.2A21.506,21.506,0,0,0,71.5,28.2Z" fill="#67bec5"/>
      <path id="Path_37814" data-name="Path 37814" d="M60.3,24H54.9L56.8,7.9a1.8,1.8,0,0,0-3.3-1.2L38.2,29.6a1.812,1.812,0,0,0,1.5,2.8H45L43.1,48.5a1.8,1.8,0,0,0,3.3,1.2L61.8,26.8A1.757,1.757,0,0,0,60.3,24Z" fill="#67bec5"/>
      <path id="Path_37815" data-name="Path 37815" d="M39.4,64.1a71.177,71.177,0,0,0-7.2-9.2,82.715,82.715,0,0,1-6.8-8.3,3.735,3.735,0,0,0-5.2-.9c-2,1.2-3.5,3.9-1.3,8.1C20,56,22.7,58.9,25.5,62c.2.2.3.4.5.6a1.572,1.572,0,0,1-.3,2.4,1.827,1.827,0,0,1-2.1-.3l-.5-.5a70.811,70.811,0,0,1-5.6-6.6A15.762,15.762,0,0,1,16,55.2a9.662,9.662,0,0,1-.8-8.3,69.98,69.98,0,0,1-3.4-8.3C10,33,2.2,34.4,2.5,40.5,2.8,46.7,5,67.2,11,74.2A71.242,71.242,0,0,0,23.8,85.3a3.127,3.127,0,0,1,1.3,2.5V92a2.263,2.263,0,0,0,2.3,2.3H42A2.263,2.263,0,0,0,44.3,92c-.1-2.5-.2-6.7-.4-10.3C43.4,74.1,41.1,67.1,39.4,64.1Z" fill="#67bec5"/>
      <path id="Path_37816" data-name="Path 37816" d="M88.2,38.7A77.613,77.613,0,0,1,84.8,47c.9,2.2.8,5.1-.8,8.3a22.863,22.863,0,0,1-1.5,2.4c-1.5,2-3.4,4.2-5.6,6.6-.1.2-.3.3-.4.5a1.552,1.552,0,0,1-2.1.3,1.572,1.572,0,0,1-.3-2.4c.2-.2.3-.4.5-.6,2.8-3.1,5.5-6,6.6-8.2,2.1-4.1.7-6.9-1.3-8.1-1.7-1-4-1-5.2.9A70.908,70.908,0,0,1,67.9,55a71.177,71.177,0,0,0-7.2,9.2c-1.8,3-4,10-4.5,17.4-.2,3.6-.3,7.8-.4,10.3a2.263,2.263,0,0,0,2.3,2.3H72.7A2.263,2.263,0,0,0,75,91.9V87.7a3.127,3.127,0,0,1,1.3-2.5A71.242,71.242,0,0,0,89.1,74.1c6-7,8.1-27.5,8.5-33.6C97.8,34.4,90,33,88.2,38.7Z" fill="#67bec5"/>
    </g>
  </g>
</svg>
