<svg xmlns="http://www.w3.org/2000/svg" width="148.102" height="112.029" viewBox="0 0 148.102 112.029">
  <g id="GST_creds" data-name="GST creds" transform="translate(-21.287 -66.885)">
    <path id="Path_38655" data-name="Path 38655" d="M96,70.61s11.757,2.24,11.757,16.842v82.293s1.586,6.358,7.617,5.722l68.632.045V83.957S183.37,72.2,171.295,70.61Z" transform="translate(-39.305 -0.104)" fill="none" stroke="#76c7cb" stroke-width="7"/>
    <path id="Path_38656" data-name="Path 38656" d="M129.42,281.757s11.461,2.567,10.027-18.657h73.265s2.169,18.657-7.7,20.333Z" transform="translate(-57.751 -106.349)" fill="#76c7cb"/>
    <path id="Path_38657" data-name="Path 38657" d="M26.019,98.59l-.049.327" transform="translate(-0.652 -15.548)" fill="none" stroke="#963d8f" stroke-width="1"/>
    <path id="Path_38658" data-name="Path 38658" d="M35.816,83.042H24.825c-.663,11.649,7.935,10.708,7.935,10.708,6.555.049,8.065-10.381,8.065-10.381l.027-.233a12.322,12.322,0,0,1,.694-3.006C45.8,68.888,58.581,70.5,58.581,70.5" fill="none" stroke="#76c7cb" stroke-width="7"/>
    <path id="Path_38659" data-name="Path 38659" d="M52.8,100.445s6.322-2.514,6.582-11.484c0,0,.739-5.861,5.291-9.019a9.742,9.742,0,0,1,13.186,2.393,13.361,13.361,0,0,1,2.688,7.527v10.444Z" transform="translate(-15.461 -4.365)" fill="#c6e6ed"/>
    <rect id="Rectangle_5123" data-name="Rectangle 5123" width="41.149" height="4.601" rx="0.56" transform="translate(76.839 89.198)" fill="#352c55"/>
    <rect id="Rectangle_5124" data-name="Rectangle 5124" width="41.149" height="4.601" rx="0.56" transform="translate(76.839 97.026)" fill="#352c55"/>
    <rect id="Rectangle_5125" data-name="Rectangle 5125" width="25.006" height="4.601" rx="0.56" transform="translate(76.839 104.374)" fill="#352c55"/>
    <path id="Path_38660" data-name="Path 38660" d="M252.411,157.267l9.535-5.937,3.49,10.677,11.121,1.582-4.194,10.426,7.5,8.361-9.911,5.287.376,11.228-11-2.316-6.927,8.84-6.931-8.84-10.991,2.316.372-11.228-9.911-5.287,7.5-8.361-4.194-10.426,11.125-1.582,3.486-10.677Z" transform="translate(-110.479 -44.658)" fill="#352c55"/>
    <path id="Path_38661" data-name="Path 38661" d="M254.862,206.975a7.052,7.052,0,0,1-3.307-.771,5.645,5.645,0,0,1-2.352-2.29,7.5,7.5,0,0,1-.869-3.777,8.064,8.064,0,0,1,.511-2.962,6.362,6.362,0,0,1,1.411-2.2,6.133,6.133,0,0,1,2.079-1.371,6.68,6.68,0,0,1,2.509-.448,5.516,5.516,0,0,1,4.194,1.738l-1.577,1.774a3.889,3.889,0,0,0-1.075-.708,3.584,3.584,0,0,0-1.443-.255,3.239,3.239,0,0,0-1.819.524,3.468,3.468,0,0,0-1.25,1.483,5.377,5.377,0,0,0-.448,2.294,5.937,5.937,0,0,0,.421,2.343,3.137,3.137,0,0,0,1.263,1.488,3.894,3.894,0,0,0,2.079.511,3.186,3.186,0,0,0,.8-.1,1.657,1.657,0,0,0,.636-.309v-2.294H254.41v-2.455h4.875v6.143a5.538,5.538,0,0,1-1.833,1.147A6.793,6.793,0,0,1,254.862,206.975Z" transform="translate(-123.383 -67.742)" fill="#fff"/>
    <path id="Path_38662" data-name="Path 38662" d="M281.923,206.971a7.389,7.389,0,0,1-2.617-.484,6.694,6.694,0,0,1-2.316-1.461l1.6-1.967a5.484,5.484,0,0,0,1.626.963,4.965,4.965,0,0,0,1.792.345,2.321,2.321,0,0,0,1.4-.345,1.129,1.129,0,0,0,.448-.941.972.972,0,0,0-.237-.686,2.105,2.105,0,0,0-.663-.448c-.287-.139-.632-.287-1.026-.448l-1.738-.717a6.215,6.215,0,0,1-1.3-.789,3.626,3.626,0,0,1-1-1.187,3.737,3.737,0,0,1,.224-3.683,4.337,4.337,0,0,1,1.68-1.434,5.376,5.376,0,0,1,2.464-.542,6.474,6.474,0,0,1,2.334.448,5.672,5.672,0,0,1,1.967,1.25l-1.6,1.945a5.518,5.518,0,0,0-1.344-.757,3.7,3.7,0,0,0-1.344-.269,2.141,2.141,0,0,0-1.237.318,1.017,1.017,0,0,0-.448.9.928.928,0,0,0,.264.663,2.2,2.2,0,0,0,.739.475c.314.13.654.273,1.022.448l1.721.694a5.138,5.138,0,0,1,1.4.82,3.432,3.432,0,0,1,.9,1.178,3.723,3.723,0,0,1,.332,1.626,3.786,3.786,0,0,1-.6,2.048,4.225,4.225,0,0,1-1.72,1.514A5.955,5.955,0,0,1,281.923,206.971Z" transform="translate(-139.202 -67.739)" fill="#fff"/>
    <path id="Path_38663" data-name="Path 38663" d="M304.674,207.01V196.2H301V193.68h10.359V196.2h-3.638V207.01Z" transform="translate(-152.455 -68.033)" fill="#fff"/>
  </g>
</svg>
