<svg xmlns="http://www.w3.org/2000/svg" width="150.533" height="125.866" viewBox="0 0 150.533 125.866">
  <g id="Simplified_Processes" data-name="Simplified Processes" transform="translate(-18.45 -53.93)">
    <path id="Path_38674" data-name="Path 38674" d="M166.41,113.634,128.263,126.84l14.176,14.574c-34.05,22.731-71.9,33.849-100.97,39.282V158.157H97.089a9.682,9.682,0,0,0,9.682-9.686V107.288A9.682,9.682,0,0,0,97.089,97.6H41.47V92.15H166.41Z" transform="translate(-12.725 -21.128)" fill="#c9e7ec"/>
    <path id="Path_38675" data-name="Path 38675" d="M106.771,114.021v41.187a9.682,9.682,0,0,1-9.682,9.686H41.47V104.33H97.089a9.682,9.682,0,0,1,9.682,9.691Z" transform="translate(-12.725 -27.861)" fill="#c9e7ec"/>
    <path id="Path_38676" data-name="Path 38676" d="M249.731,184.294h0L235.55,169.72Z" transform="translate(-120.012 -64.008)" fill="#c9e7ec"/>
    <path id="Path_38677" data-name="Path 38677" d="M221.037,218.96v41.823a7.272,7.272,0,0,1-7.267,7.267H140.29c20.446-10.5,44.635-35.195,61.661-54.469l15.411,15.84Z" transform="translate(-67.353 -88.254)" fill="#c9e7ec"/>
    <path id="Path_38678" data-name="Path 38678" d="M293.581,229.442,278.17,213.62h0Z" transform="translate(-143.572 -88.276)" fill="#c9e7ec"/>
    <path id="Path_38679" data-name="Path 38679" d="M293.581,229.442,278.17,213.62h0Z" transform="translate(-143.572 -88.276)" fill="#76c7cb"/>
    <rect id="Rectangle_5129" data-name="Rectangle 5129" width="72.291" height="57.251" rx="17.96" transform="translate(20.105 78.124)" fill="#fbfdfd"/>
    <path id="Path_38680" data-name="Path 38680" d="M84.363,104.33H28.132a9.686,9.686,0,0,0-9.682,9.691v41.187a9.686,9.686,0,0,0,9.682,9.682H84.363a9.682,9.682,0,0,0,9.682-9.686V114.021A9.682,9.682,0,0,0,84.363,104.33ZM90.741,155.2a6.386,6.386,0,0,1-6.377,6.382H28.132a6.391,6.391,0,0,1-6.377-6.382V114.021a6.382,6.382,0,0,1,6.377-6.382H84.363a6.382,6.382,0,0,1,6.377,6.382Z" transform="translate(0 -27.861)" fill="#76c7cb"/>
    <circle id="Ellipse_216" data-name="Ellipse 216" cx="19.538" cy="19.538" r="19.538" transform="translate(36.709 87.211)" fill="#c6e6ed"/>
    <path id="Path_38681" data-name="Path 38681" d="M79.351,172.247h-.058a2.683,2.683,0,0,1-1.959-.894l-7.254-8.233,4.025-3.578,5.331,6.06,16.1-16.761,3.873,3.725L81.287,171.424A2.683,2.683,0,0,1,79.351,172.247Z" transform="translate(-28.541 -52.466)" fill="#362d56"/>
    <path id="Path_38682" data-name="Path 38682" d="M42.515,53.93H165.407a1.011,1.011,0,0,1,1.011,1.011V71.018H41.5V54.941a1.011,1.011,0,0,1,1.015-1.011Z" transform="translate(-12.742 0)" fill="#352c55"/>
    <circle id="Ellipse_217" data-name="Ellipse 217" cx="2.066" cy="2.066" r="2.066" transform="translate(141.95 61.049)" fill="#76c7cb"/>
    <circle id="Ellipse_218" data-name="Ellipse 218" cx="2.066" cy="2.066" r="2.066" transform="translate(134.231 61.049)" fill="#fff"/>
    <circle id="Ellipse_219" data-name="Ellipse 219" cx="2.066" cy="2.066" r="2.066" transform="translate(126.19 61.049)" fill="#fff"/>
    <path id="Path_38683" data-name="Path 38683" d="M288.99,128.35l-15.3,43.5-3.676,10.46-15.4-15.836c5.062-5.733,9.476-10.979,12.969-15.236l.863-1.055c2.173-2.683,3.944-4.879,5.241-6.52V142.8a200.42,200.42,0,0,1-23.966,18.639L235.54,146.869l38.147-13.206Z" transform="translate(-120.006 -41.139)" fill="#76c7cb"/>
    <path id="Path_38684" data-name="Path 38684" d="M235.55,169.72l14.181,14.574h0Z" transform="translate(-120.012 -64.008)" fill="#fbfdfd"/>
  </g>
</svg>
