<svg xmlns="http://www.w3.org/2000/svg" xmlns:xlink="http://www.w3.org/1999/xlink" width="167.216" height="114.786" viewBox="0 0 167.216 114.786">
  <defs>
    <clipPath id="clip-path">
      <path id="Path_38672" data-name="Path 38672" d="M187.577,139.457l-8.138,7.03-1.05.924a12.076,12.076,0,0,1-4.048,2,18.991,18.991,0,0,1-7.613.41c-6.878-.95-14.875-4.967-21.821-11.577s-11.409-14.355-12.7-21.165c-.735-4.032-.41-7.713,1.15-10.643a10.139,10.139,0,0,1,1.769-2.5l6.647-7.078c-1.407,2.893-1.129,2.5-1.386,3.938a19.353,19.353,0,0,0,.184,7.172,34.427,34.427,0,0,0,4.148,10.4,51.029,51.029,0,0,0,8.973,11.225,52.506,52.506,0,0,0,7.23,5.775,38.079,38.079,0,0,0,15.048,6.243,19.99,19.99,0,0,0,6.353-.047A12.2,12.2,0,0,0,187.577,139.457Z" transform="translate(-131.835 -96.85)" fill="#352c55"/>
    </clipPath>
  </defs>
  <g id="Reduced_Cost" data-name="Reduced Cost" transform="translate(-25.32 -81.799)">
    <rect id="Rectangle_5126" data-name="Rectangle 5126" width="140.565" height="4.489" transform="translate(32.77 91.592)" fill="#c9e7ec"/>
    <rect id="Rectangle_5127" data-name="Rectangle 5127" width="138.738" height="4.783" transform="translate(53.798 128.502)" fill="#c9e7ec"/>
    <rect id="Rectangle_5128" data-name="Rectangle 5128" width="148.015" height="4.851" transform="translate(25.32 165.765)" fill="#c9e7ec"/>
    <circle id="Ellipse_213" data-name="Ellipse 213" cx="11.504" cy="11.504" r="11.504" transform="translate(57.127 82.33)" fill="#c9e7ec"/>
    <circle id="Ellipse_214" data-name="Ellipse 214" cx="11.504" cy="11.504" r="11.504" transform="translate(146.947 119.246)" fill="#c9e7ec"/>
    <circle id="Ellipse_215" data-name="Ellipse 215" cx="11.504" cy="11.504" r="11.504" transform="translate(41.187 156.503)" fill="#c9e7ec"/>
    <path id="Path_38664" data-name="Path 38664" d="M164.911,275.291v9.593c-19.868,0-35.971-3.381-35.971-7.571V267.73c0,1.827,3.04,3.481,8.122,4.8C143.673,274.214,153.691,275.291,164.911,275.291Z" transform="translate(-49.215 -88.309)" fill="#76c7cb"/>
    <path id="Path_38665" data-name="Path 38665" d="M200.752,261.266c0,1.37-2.924,2.625-7.792,3.6-6.3,1.265-15.925,2.074-26.672,2.074s-20.356-.809-26.672-2.074c-4.862-.987-7.776-2.226-7.776-3.6,0-3.15,15.421-5.686,34.448-5.686S200.752,258.121,200.752,261.266Z" transform="translate(-50.592 -82.538)" fill="#352c55"/>
    <path id="Path_38666" data-name="Path 38666" d="M233.442,267.73v9.593c0,4.2-16.119,7.571-35.992,7.571v-9.6c11.225,0,21.259-1.076,27.854-2.762C230.381,271.211,233.442,269.557,233.442,267.73Z" transform="translate(-81.754 -88.309)" fill="#352c55"/>
    <path id="Path_38667" data-name="Path 38667" d="M177.066,237.55v9.593c-19.868,0-35.976-3.381-35.976-7.571V230c0,1.822,3.045,3.481,8.122,4.794C155.807,236.474,165.841,237.55,177.066,237.55Z" transform="translate(-54.986 -70.389)" fill="#76c7cb"/>
    <path id="Path_38668" data-name="Path 38668" d="M212.907,222.961c0,1.37-2.924,2.625-7.792,3.6-6.3,1.26-15.925,2.069-26.672,2.069s-20.356-.809-26.672-2.069c-4.867-.992-7.781-2.231-7.781-3.6,0-3.15,15.426-5.681,34.453-5.681S212.907,219.816,212.907,222.961Z" transform="translate(-56.363 -64.347)" fill="#352c55"/>
    <path id="Path_38669" data-name="Path 38669" d="M201.138,127.358l-1.407,1.229-.068.053a11.766,11.766,0,0,1-5.04,2.021,19.258,19.258,0,0,1-6.148,0,36.767,36.767,0,0,1-14.523-6.022,51.491,51.491,0,0,1-6.978-5.571,49.45,49.45,0,0,1-8.663-10.837,33.2,33.2,0,0,1-4-10.039,18.586,18.586,0,0,1-.179-6.925,11.7,11.7,0,0,1,1.339-3.8,10.249,10.249,0,0,1,1.517-2.1,10.841,10.841,0,0,1,1.885-1.533l.068-.068h0c7.4-4.725,21.075-.751,32.212,9.818C203.348,105.211,207.832,120.306,201.138,127.358Z" transform="translate(-61.064 0)" fill="#352c55"/>
    <path id="Path_38670" data-name="Path 38670" d="M187.577,139.457l-8.138,7.03-1.05.924a12.076,12.076,0,0,1-4.048,2,18.991,18.991,0,0,1-7.613.41c-6.878-.95-14.875-4.967-21.821-11.577s-11.409-14.355-12.7-21.165c-.735-4.032-.41-7.713,1.15-10.643a10.139,10.139,0,0,1,1.769-2.5l6.647-7.078c-1.407,2.893-1.129,2.5-1.386,3.938a19.353,19.353,0,0,0,.184,7.172,34.427,34.427,0,0,0,4.148,10.4,51.029,51.029,0,0,0,8.973,11.225,52.506,52.506,0,0,0,7.23,5.775,38.079,38.079,0,0,0,15.048,6.243,19.99,19.99,0,0,0,6.353-.047A12.2,12.2,0,0,0,187.577,139.457Z" transform="translate(-50.59 -7.148)" fill="#352c55"/>
    <g id="Group_36093" data-name="Group 36093" transform="translate(81.245 89.702)" clip-path="url(#clip-path)">
      <path id="Path_38671" data-name="Path 38671" d="M146,160.4l27.014-23.333,38.46,9.225-4.883,30.022-34.726,2.531Z" transform="translate(-138.563 -115.953)" fill="#76c7cb"/>
    </g>
    <path id="Path_38673" data-name="Path 38673" d="M245.6,230v9.577c0,4.2-16.119,7.571-35.987,7.571v-9.6c11.22,0,21.254-1.05,27.827-2.762C242.541,233.476,245.6,231.817,245.6,230Z" transform="translate(-87.53 -70.389)" fill="#352c55"/>
  </g>
</svg>
