<svg xmlns="http://www.w3.org/2000/svg" width="163.762" height="146" viewBox="0 0 163.762 146">
  <g id="Customer_Support" data-name="Customer Support" transform="translate(-38.07 -61.396)">
    <path id="Path_38650" data-name="Path 38650" d="M105.459,281.992c.63-3.106,1.277-6.189,1.964-9.289a2.357,2.357,0,0,1,2.813-1.806c3.072.619,6.138,1.272,9.2,1.935a2.487,2.487,0,0,1-.563,4.912,9.783,9.783,0,0,1-1.688-.236c-.563-.09-1.069-.219-1.784-.366.208.366.321.563.456.793a35.552,35.552,0,0,0,17.8,13.869,36.362,36.362,0,0,0,38.528-8.839h6.656a40.621,40.621,0,0,1-31.209,16.023c-15.106.349-27.158-5.784-35.935-18.184-.152-.219-.321-.45-.636-.906-.231,1.125-.377,2-.613,2.869a2.528,2.528,0,0,1-3.871,1.722A2.307,2.307,0,0,1,105.459,281.992Z" transform="translate(-29.451 -91.607)" fill="#c6e6ed"/>
    <path id="Path_38651" data-name="Path 38651" d="M208.477,78.412c-.63,3.106-1.277,6.189-1.964,9.283a2.369,2.369,0,0,1-2.813,1.812q-4.6-.94-9.193-1.935a2.487,2.487,0,0,1,.563-4.912,9.864,9.864,0,0,1,1.688.236c.563.09,1.069.219,1.783.366-.214-.366-.321-.563-.456-.793a35.552,35.552,0,0,0-17.8-13.869,36.368,36.368,0,0,0-38.528,8.833H135.1a40.638,40.638,0,0,1,31.2-16.023c15.112-.343,27.163,5.789,35.94,18.19l.636.906c.231-1.125.377-2,.613-2.869a2.532,2.532,0,0,1,3.871-1.727A2.318,2.318,0,0,1,208.477,78.412Z" transform="translate(-42.439 0)" fill="#c6e6ed"/>
    <path id="Path_38652" data-name="Path 38652" d="M147.252,119.424v6.369h-45.7a8.9,8.9,0,0,0-8.9,8.884v51.418H67.287v17.948L50.408,186.094H46.971a8.889,8.889,0,0,1-8.9-8.878V119.424a8.889,8.889,0,0,1,8.9-8.884h91.381a8.9,8.9,0,0,1,8.9,8.884Z" transform="translate(0 -21.495)" fill="#352c55"/>
    <path id="Path_38653" data-name="Path 38653" d="M244.284,146.534v57.793a8.884,8.884,0,0,1-8.884,8.912h-9.565L207.044,233.2V213.238H144.031a8.9,8.9,0,0,1-8.9-8.884v-6.4h45.7a8.9,8.9,0,0,0,8.9-8.878V137.65h45.7a8.884,8.884,0,0,1,8.856,8.884Z" transform="translate(-42.452 -33.352)" fill="#76c7cb"/>
    <path id="Path_38654" data-name="Path 38654" d="M189.682,137.65v51.424a8.9,8.9,0,0,1-8.9,8.878h-45.7V146.534a8.9,8.9,0,0,1,8.9-8.884Z" transform="translate(-42.43 -33.352)" fill="#c6e6ed"/>
    <circle id="Ellipse_210" data-name="Ellipse 210" cx="4.287" cy="4.287" r="4.287" transform="translate(104.094 132.39)" fill="#352c55"/>
    <circle id="Ellipse_211" data-name="Ellipse 211" cx="4.287" cy="4.287" r="4.287" transform="translate(115.971 132.39)" fill="#352c55"/>
    <circle id="Ellipse_212" data-name="Ellipse 212" cx="4.287" cy="4.287" r="4.287" transform="translate(127.864 132.39)" fill="#352c55"/>
  </g>
</svg>
