<svg xmlns="http://www.w3.org/2000/svg" xmlns:xlink="http://www.w3.org/1999/xlink" width="191.751" height="114.229" viewBox="0 0 191.751 114.229">
  <defs>
    <clipPath id="clip-path">
      <rect id="Rectangle_5166" data-name="Rectangle 5166" width="191.751" height="114.229" transform="translate(0 0)" fill="none"/>
    </clipPath>
  </defs>
  <g id="Group_36232" data-name="Group 36232" transform="translate(870.503 -15539.6)">
    <g id="Group_36231" data-name="Group 36231" transform="translate(-870.503 15539.6)">
      <g id="Group_36230" data-name="Group 36230" transform="translate(0 0)" clip-path="url(#clip-path)">
        <path id="Path_38854" data-name="Path 38854" d="M392.527,414.516a1.051,1.051,0,0,0-2.1,0,1.051,1.051,0,0,0,2.1,0m30.778.2a1.051,1.051,0,0,0-2.1,0,1.051,1.051,0,0,0,2.1,0Zm-15.646,14.619a1.051,1.051,0,0,0-2.1,0,1.051,1.051,0,0,0,2.1,0m-8.173-27.182a.607.607,0,0,0-1.214,0,.607.607,0,0,0,1.214,0m-5.744,5.681a.607.607,0,0,0-1.214,0,.607.607,0,0,0,1.214,0Zm5.955,19.633a.607.607,0,0,0-1.214,0,.607.607,0,0,0,1.214,0m15.506-.373a.608.608,0,0,0-1.215,0A.608.608,0,0,0,415.2,427.091Zm5.371-5.89a.607.607,0,0,0-1.214,0,.607.607,0,0,0,1.214,0m-.14-13.977a.607.607,0,0,0-1.214,0,.607.607,0,0,0,1.214,0m-5.394-5.4a.607.607,0,0,0-1.214,0A.607.607,0,0,0,415.038,401.823Zm-7.628-2.429a1.051,1.051,0,0,0-2.1,0,1.051,1.051,0,0,0,2.1,0m-12.167,25.617-4.715,2.882a.958.958,0,0,1-1.453-.923l.551-5a.959.959,0,0,1,1.388-.749l4.163,2.117a.959.959,0,0,1,.065,1.672Z" transform="translate(-258.261 -371.027)" fill="#67bec5"/>
        <path id="Path_38855" data-name="Path 38855" d="M787.294,780.387q.569.747,1.206,1.438l1.858-1.252a18.247,18.247,0,0,1-1.254-1.524,1.125,1.125,0,0,0-1.809,1.338Zm3.676.824-1.859,1.255c.264.269.538.53.823.777l1.874-1.265c-.287-.245-.571-.5-.838-.766" transform="translate(-654.083 -725.146)" fill="#67bec5"/>
        <path id="Path_38856" data-name="Path 38856" d="M481.271,388.964a.257.257,0,0,0,.513,0c-.193-10.763,10.661-19.6,21.144-17.172,27.019,6.9,9.709,46.506-13.566,30.7l-1.888,1.273a18.955,18.955,0,0,0,10.254,4.125c13.316,1.394,24.075-12.14,19.607-24.784-7-19.71-35.822-15.138-36.063,5.856ZM430.447,420.6c3.8-3.336,6.552,3.716,6.045,6.821a39.484,39.484,0,0,0,4.775-4.675c-13.526-7.871.7-13.74.444-.522a40.666,40.666,0,0,0,3.909-5.568c-13.153-8.352.83-13.772.458-.806a39.085,39.085,0,0,0,2.632-5.811c-12.935-8.984.882-13.569.443-1.3a38.344,38.344,0,0,0,1.195-4.8c-7.3-14.411,8.3-10.907.4-.017a38.22,38.22,0,0,1-1.283,5.12c8.4-9.259,15.022,3.89-.379,1.1a39.975,39.975,0,0,1-2.651,5.868c10.605-7.2,13.74,7.434-.483.851a40.867,40.867,0,0,1-3.934,5.6c12.125-5.648,12.574,10.058-.364.431l-.061.07.012.042-.029-.022a40.511,40.511,0,0,1-4.6,4.543c12.99-.826,8.2,13.406-.8.657-.636.471-6.368,4.869-6.174,3.581a38.558,38.558,0,0,0,5.852-3.829C433.842,425.97,428.8,424.082,430.447,420.6Zm-69.88,31.091c.1-2.349,6.792-2.1,7.44-.045a15.658,15.658,0,0,0,5.25-1.872,36.245,36.245,0,0,1-3.1-4.415c-2.386,1.05-5.237.615-7.771.39-.73,2.546-8.092-.382-7.056-2.7.806-2.15,6.843,0,7.063,2.088,2.421.217,5.153.652,7.448-.3-1-1.673-1.934-3.389-2.907-5.081a10.549,10.549,0,0,1-5.917-.734c-1.507,1.513-7.577-1.1-6.671-3.251.834-2.358,7.92.422,7.05,2.719a10.178,10.178,0,0,0,5.214.711,37.224,37.224,0,0,0-4.715-6.662c-1.907,1.132-6.841-3.755-5.146-5.446,1.637-1.835,7,3.175,5.6,5.054a37.738,37.738,0,0,1,4.612,6.448,32.392,32.392,0,0,0,1-7.189c-1.856-.96-1.776-7.316.51-7.328,2.534-.173,2.737,7.764.093,7.551a26.847,26.847,0,0,1-1.223,7.614c1,1.717,1.939,3.462,2.956,5.166a22.567,22.567,0,0,0,2.87-6.832c-1.872-1.056-.818-7.64,1.5-7.283,2.491.233,1.522,7.79-.923,7.5a20.241,20.241,0,0,1-3.133,7.142,35.217,35.217,0,0,0,3.238,4.591,19.475,19.475,0,0,0,3.59-5.859c-1.509-1.451.443-7.535,2.637-6.871,2.47.586.331,8.209-2.134,7.249a18.271,18.271,0,0,1-3.715,5.916,33.491,33.491,0,0,0,3.64,3.567,19.193,19.193,0,0,0,1.86-2.54c-1.28-1.593.638-7.329,2.765-6.687,2.517.581.252,8.612-2.335,7.147a17.184,17.184,0,0,1-1.831,2.465c9.271,6.513,7.019,6.419-.564.32a17.1,17.1,0,0,1-2.274,1.366c.531,2.658-7.466,3.18-7.521.633-.194-2.274,6.112-2.932,7.245-1.18a16.059,16.059,0,0,0,2.066-1.228,34.815,34.815,0,0,1-3.63-3.587,15.113,15.113,0,0,1-5.543,2.018c-.212,2.44-7.787,1.927-7.536-.558Z" transform="translate(-350.928 -345.089)" fill="#67bec5"/>
        <path id="Path_38857" data-name="Path 38857" d="M2170.351,675.228c-1.214-4.745-6.623.208-8.056,2.494a69.049,69.049,0,0,0,1.367-7.5c13.087.6,8.054-11.667.091-.759a59.4,59.4,0,0,0,.358-9.34c12.791-1.5,6.084-12.686-.046-.908a26.251,26.251,0,0,0-2.176-9.84c12.871-3.544,3.911-13.485-.25-.513-1.7-3.409-4.036-6.519-5.616-9.98,13.078-3.507,3.984-13.614-.184-.4a15.919,15.919,0,0,1-1.374-8.511c13.674.163,7.621-12.255.045-.368a20.2,20.2,0,0,1,3.455-8.777c12.633-1.155,6.21-12.082-.264-.96a20.393,20.393,0,0,0-3.868,8.968c-3.577-12.947-12.512-3.413-.142.89a15.967,15.967,0,0,0,1.335,8.926c-9.106-10.187-12.991,2.575.31.693,1.662,3.579,4.082,6.757,5.76,10.3-8.837-10.934-14.072,1.976.112.238a26.841,26.841,0,0,1,2.06,9.626c-7.328-11.247-13.15.5.041.8a57.623,57.623,0,0,1-.376,9.129c-4.451-12.942-13.286-2.777-.069.568a66.85,66.85,0,0,1-1.406,7.731c-4.527-12.677-13.082-2.621-.173.685a51.6,51.6,0,0,1-2.409,7.184c.75,2.631,2.94-6.225,3.192-6.97,2.786.085,7.2-.431,8.282-3.4Z" transform="translate(-2127.315 -572.699)" fill="#57c3cc"/>
        <path id="Path_38858" data-name="Path 38858" d="M1512.318,553.239c-.025,5.694-8.688,5.7-8.711,0,.092-5.709,8.6-5.741,8.711,0" transform="translate(-1423.78 -511.264)" fill="#67bec5"/>
        <path id="Path_38859" data-name="Path 38859" d="M1521.86,429.763c1.808,10.141,12.108,3.218,8.54,14.224-3.392,11.2,1.947,20.222,14.318,16.012,5.273-2.417,2.333-5.165,7.137-8.5,4.629-3.21,12.432.073,15.747-4.625.8-1.141,1.521-7.209,1.883-8.584a22.342,22.342,0,0,0,.835-9.461c-.364-2.093,13.761-1.441,12.108-11.364-2.06-12.357-10.911-11.419-3.68-18.6,8.322-7.37,6.044-22.03-6.249-17.666-1.113.377-2.223.819-3.375,1.159-2.768,1.843-3.5,5.886-3.5,8.752a1.406,1.406,0,0,1,.9,1.253,5.167,5.167,0,0,1,.748.141c.058.013.117.029.175.047a5.16,5.16,0,0,1,3.616,4.22c.867,4.819-4.572,7.69-8.3,5.391,0,0,0,0,0,0-3.776-2.292-2.748-8.516,1.11-9.5a1.348,1.348,0,0,1,.559-1.406,13.053,13.053,0,0,1,1.672-7.02c-.392-.487.266-.984.517-1.375-9.824-2.359-16.825,4.454-17.346,15.047C1547.713,418.493,1521.641,410.475,1521.86,429.763Z" transform="translate(-1496.4 -354.295)" fill="#0b2d50"/>
        <path id="Path_38860" data-name="Path 38860" d="M941.3,933.084c14.919,14.568,4.994,22.884,27.955,40.834,4.981-1.876,9.933.317,13.258,3.1,4.883,4.085-6.077.531-13.546,2.914-13.44-5.572-23.838-12.816-28.513-28.935,0,0,.845-17.911.845-17.911Z" transform="translate(-856.532 -869.034)" fill="#64b9c0"/>
        <path id="Path_38861" data-name="Path 38861" d="M1704.786,425.051c.013.071.028.142.042.214s.031.139.05.208.031.121.048.179.036.128.055.19c.04.126.082.25.13.369.022.058.046.115.07.172s.042.1.064.144q.081.18.176.353.042.076.087.152.071.121.148.236a1.321,1.321,0,0,0,.08.115q.066.1.137.186.036.048.075.093a4.864,4.864,0,0,0,.646.651q.063.053.128.1c.042.033.086.064.128.1q.131.093.267.179s0,0,0,0a5.056,5.056,0,0,0,1,.481l-.009,0h0a.054.054,0,0,0,.017.005c.066.024.13.046.2.066l.037.013c.07.02.139.04.21.059s.156.039.234.055.141.03.212.042a.32.32,0,0,1,.046.007c.073.011.144.022.218.031l.194.022c.113.009.227.015.34.02h.011a5.78,5.78,0,0,0,1.008-.055,6.1,6.1,0,0,0,.815-.174l.122-.036a5.609,5.609,0,0,0,.717-.274l.117-.055q.229-.113.448-.245a5.506,5.506,0,0,0,.722-.525c.064-.057.128-.113.19-.172a5.151,5.151,0,0,0,1.46-4.655c-.02-.113-.044-.225-.069-.333-.016-.072-.033-.141-.053-.21,0-.011-.005-.022-.007-.031-.018-.068-.038-.135-.058-.2l-.027-.086c-.018-.055-.036-.108-.055-.161a.6.6,0,0,0-.024-.064c-.024-.066-.049-.132-.077-.2q-.062-.157-.137-.309c-.029-.06-.06-.121-.091-.179s-.079-.145-.121-.216-.083-.138-.128-.205-.089-.131-.135-.2c-.032-.046-.066-.09-.1-.134a4.332,4.332,0,0,0-.325-.377c-.035-.035-.07-.07-.1-.1a.078.078,0,0,0-.02-.022c-.038-.038-.079-.075-.119-.112l-.035-.031q-.058-.053-.121-.1a4.459,4.459,0,0,0-.367-.278c-.04-.029-.082-.057-.124-.082q-.159-.1-.328-.192l-.1-.055c-.016-.009-.035-.016-.051-.024-.046-.024-.092-.046-.139-.066a4.471,4.471,0,0,0-.518-.2q-.087-.03-.175-.055h0c-.058-.018-.117-.035-.175-.047l-.007,0-.176-.042h-.005a5.308,5.308,0,0,0-.559-.095l-.035-.214a1.341,1.341,0,0,0-.861-1.038,13.963,13.963,0,0,1,1.346-6.278q.131-.248.28-.486a6.639,6.639,0,0,1,1.874-1.987,13.647,13.647,0,0,1-1.978.443c-.174.027-.351.047-.53.062q-.3.365-.559.759a.511.511,0,0,0,.042.616,13.052,13.052,0,0,0-1.673,7.02,1.335,1.335,0,0,0-.573,1.324l.013.082A5.124,5.124,0,0,0,1704.786,425.051Z" transform="translate(-1640.757 -380.823)" fill="#0b2d50"/>
        <path id="Path_38862" data-name="Path 38862" d="M1637.8,784.4h9.4c.452,0-.824-7.817-.824-7.817l-.011-3.677,0-1.5-6.715-1.629-1.75,6.648-.084,7.028Z" transform="translate(-1567.969 -716.937)" fill="#f9cbcb"/>
        <path id="Path_38863" data-name="Path 38863" d="M1651.379,783.452l1.309.344s.2-8.443,1.713-10.346c1.1-1.384,4.022-.909,5.53-.547l0-1.5-6.715-1.629-1.75,6.648Z" transform="translate(-1581.537 -716.937)" fill="#ebb0b0"/>
        <path id="Path_38864" data-name="Path 38864" d="M1467.949,919.967c11.388-1.035,24.941,3.276,33.349-1.475-14.3-21.069,12.585-38.173-12.622-51.717l-1.444,6.452-7.035-6.607c-5.487.214-9.805,1.168-12.856,2.943C1477.32,887.514,1473.53,908.35,1467.949,919.967Z" transform="translate(-1410.27 -807.131)" fill="#67bec5"/>
        <path id="Path_38865" data-name="Path 38865" d="M1621.867,866.775l-1.444,6.452,1.444.463,2.7-3.872Zm-9.929,2.612,7.033,4.6,1.452-.764-7.035-6.607Z" transform="translate(-1543.461 -807.131)" fill="#fff"/>
        <path id="Path_38866" data-name="Path 38866" d="M1641.36,1007.029a1.076,1.076,0,1,0-1.076,1.076,1.076,1.076,0,0,0,1.076-1.076Zm.774,4.106a1.075,1.075,0,1,0-1.075,1.076,1.075,1.075,0,0,0,1.075-1.076Zm.3,4.314a1.075,1.075,0,1,0-1.076,1.075h0a1.075,1.075,0,0,0,1.075-1.075" transform="translate(-1563.205 -936.901)" fill="#ccc"/>
        <path id="Path_38867" data-name="Path 38867" d="M1633.524,1007.034a1.075,1.075,0,1,0-1.075,1.076,1.075,1.075,0,0,0,1.075-1.076Zm.775,4.106a1.076,1.076,0,1,0-1.076,1.076,1.076,1.076,0,0,0,1.076-1.076Zm.3,4.314a1.075,1.075,0,1,0-1.076,1.075,1.075,1.075,0,0,0,1.076-1.075Z" transform="translate(-1554.832 -936.907)" fill="#fff"/>
        <path id="Path_38868" data-name="Path 38868" d="M1799.59,1112.48c2.443-.158,4.784-.157,7.033-.09.124-17.627,6.725-23.529,1.5-37.674l-5.349-1.395c6.162,15.26-1.2,36.121-3.182,39.159Z" transform="translate(-1741.911 -999.645)" fill="#ccc"/>
        <path id="Path_38869" data-name="Path 38869" d="M1569.8,928.877c.547,5.933,18.694,4.934,26.487,4.23,2.139-.194,3.5-.365,3.5-.365,4.587.881,8.083,6.8,9.364,4.731,4.152-6.691-2.223-9.275-8.392-9.411l-3.128-.9-15.154-4.362,7.728-9.7c5.56-6.642,1.748-25.14-6.646-19.237C1578.223,897.624,1569.105,921.316,1569.8,928.877Z" transform="translate(-1526.482 -831.443)" fill="#f9cbcb"/>
        <path id="Path_38870" data-name="Path 38870" d="M1756.942,927.817c.547,5.933,18.694,4.934,26.487,4.23l1.344-5.945-15.154-4.362,7.728-9.7c6.977-8.211,1.748-25.14-6.646-19.237-5.338,3.755-14.456,27.447-13.759,35.009" transform="translate(-1713.621 -830.382)" fill="#64b9c0"/>
        <path id="Path_38871" data-name="Path 38871" d="M1785.991,898.491a7.1,7.1,0,0,1,1.461-.805c-5.4,5.288-13.647,27.145-12.984,34.351.505,5.482,16.038,5.046,24.545,4.393l-.294,1.3c-7.794.7-25.941,1.7-26.487-4.23C1771.535,925.938,1780.652,902.246,1785.991,898.491Z" transform="translate(-1728.911 -836.066)" fill="#ccc"/>
        <path id="Path_38872" data-name="Path 38872" d="M206.561,1607.106a2.1,2.1,0,0,0,2.162,2.026H381.97a2.03,2.03,0,1,0,0-4.051H208.723a2.1,2.1,0,0,0-2.162,2.026Z" transform="translate(-206.561 -1494.901)" fill="#b7d8f2"/>
        <path id="Path_38873" data-name="Path 38873" d="M871.324,1096.017h47.193a3.389,3.389,0,0,0,3.37-3.031l3.284-30.909a3.388,3.388,0,0,0-3.37-3.747H874.609a3.389,3.389,0,0,0-3.37,3.03l-3.284,30.91a3.388,3.388,0,0,0,3.37,3.747Z" transform="translate(-793.017 -985.683)" fill="#51728d"/>
        <path id="Path_38874" data-name="Path 38874" d="M915.236,1092.27l3.284-30.91a3.389,3.389,0,0,1,3.37-3.03h2.757a29.49,29.49,0,0,0,26.746,32.493c9.632.845,17.833,1.617,17.833,1.617l-.058.546a3.389,3.389,0,0,1-3.37,3.031H918.606a3.388,3.388,0,0,1-3.37-3.747Z" transform="translate(-840.299 -985.683)" fill="#355d7d"/>
        <path id="Path_38875" data-name="Path 38875" d="M1251.532,1296.729a2.661,2.661,0,1,0-2.661,2.661h0a2.661,2.661,0,0,0,2.661-2.661Z" transform="translate(-1145.326 -1205.239)" fill="#355d7d"/>
        <path id="Path_38876" data-name="Path 38876" d="M427.326,1016.133a6.114,6.114,0,0,1,2.859-1.495,5.466,5.466,0,0,1-1.264-2.773.258.258,0,1,1,.511-.068c.377,4.16,5.4,4.023,7.5,6.792a11.242,11.242,0,0,0-.15-4.392,5.947,5.947,0,0,1-3.58-1.422,5.539,5.539,0,0,0-1.086-.931c-.3-.161-.126-.662.176-.5,1.3,1.026,2.555,2.269,4.34,2.295a11.084,11.084,0,0,0-2.586-4.441c-.159-1.689,2.306,2.155,2.382,2.542a5.3,5.3,0,0,0,.443-2.9.258.258,0,1,1,.512-.068,5.863,5.863,0,0,1-.677,3.585,11.32,11.32,0,0,1,.892,4.2,5.853,5.853,0,0,0,3.5-4.529c.278-1.983-.507-4.3.434-6.153.178-.287.605.041.427.326-.908,2.227.2,4.835-.636,7.092a6.77,6.77,0,0,1,5.921-.445c.308.147.133.647-.176.5-2.059-.994-4.207-.225-6.059.69a6.019,6.019,0,0,1-3.417,3.07c-.344,5.1-3.194,8.515.616,13.484a.258.258,0,1,1-.395.332c-2.88-3.269-2.23-7.821-1.018-11.589-.967-1.849-3.105-2.343-4.764-3.228-1.086-.618-1.465-1.38-2.764-.582a4.881,4.881,0,0,0-1.6,1.037C427.431,1016.8,427.1,1016.37,427.326,1016.133Z" transform="translate(-284.98 -936.722)" fill="#4d4d4d"/>
        <path id="Path_38877" data-name="Path 38877" d="M420.77,983.147a1.152,1.152,0,1,0-2.106.931A1.152,1.152,0,1,0,420.77,983.147Zm5.93,7.725a1.152,1.152,0,1,0-2.106.931,1.152,1.152,0,1,0,2.106-.931m-10.38-5.151a1.152,1.152,0,1,0-2.106.931,1.152,1.152,0,1,0,2.106-.931m-3.922.4a1.152,1.152,0,1,0-2.106.93,1.152,1.152,0,1,0,2.106-.93Zm-1.489,2.929a1.152,1.152,0,1,0-2.106.931,1.152,1.152,0,1,0,2.106-.931m-3.37-.053a1.152,1.152,0,1,0-2.106.931,1.152,1.152,0,1,0,2.106-.931m-1.571,5.186a1.152,1.152,0,1,0-2.106.93,1.152,1.152,0,1,0,2.106-.93m4.753,30.654a12.925,12.925,0,0,0,6.126,0c1.166-6.993,1.49-14.013,0-20.913a17.221,17.221,0,0,1-6.126,0,55.3,55.3,0,0,0,0,20.913Z" transform="translate(-262.788 -914.981)" fill="#f06743"/>
        <path id="Path_38878" data-name="Path 38878" d="M536.154,1343.136c2.562-1.3,5.124,3.934,7.686,2.247q-.025-.369-.054-.733c-2.511,1.56-5.02-3.438-7.531-2.329-.036.273-.07.544-.1.816Z" transform="translate(-388.892 -1250.028)" fill="#fff"/>
        <path id="Path_38879" data-name="Path 38879" d="M534.777,1375.143c2.665-1.739,5.329,3.994,7.993,2.058q-.009-.376-.023-.752c-2.637,1.872-5.274-3.723-7.91-2.112q-.034.4-.06.805Z" transform="translate(-387.728 -1279.723)" fill="#fff"/>
        <path id="Path_38880" data-name="Path 38880" d="M534.583,1407.09c2.7-1.966,5.4,3.954,8.1,1.98q.008-.387.007-.774c-2.7,1.985-5.391-3.9-8.086-1.994-.011.263-.018.525-.025.788" transform="translate(-387.639 -1309.408)" fill="#fff"/>
        <path id="Path_38881" data-name="Path 38881" d="M547.192,1317.978a12.935,12.935,0,0,0,6.125,0q.106-.632.2-1.261c-4.643-1.924-6-9.82-6.346-19.551a55.175,55.175,0,0,0,.02,20.812Z" transform="translate(-399.259 -1208.124)" fill="#ccc"/>
        <path id="Path_38882" data-name="Path 38882" d="M1542.416,494.12s1.268,4.746,4.365,7.053a6.721,6.721,0,0,0,.759.494,5.767,5.767,0,0,0,3.888.645c3.416-.588,7.407-3.234,8.467-10.477.974-6.635-.353-7.962-.921-8.228v0h0a.62.62,0,0,0-.233-.064s-4.939,2.335-10.1-3c0,0-2.068,6.457-4.839,9.051C1538.114,485.51,1540.282,493.187,1542.416,494.12Z" transform="translate(-1474.213 -447.559)" fill="#f9cbcb"/>
        <path id="Path_38883" data-name="Path 38883" d="M1560.832,494.12s1.267,4.746,4.365,7.053c-2.253-2.117-3.3-9.446-1.527-10.636,3.112-2.088,3.235-7.28,3.6-7.863s2.6,2.073,5.59,2.126a7.366,7.366,0,0,0,4.534-1.19l0,0h0a.618.618,0,0,0-.233-.064s-4.939,2.335-10.1-3c0,0-2.068,6.457-4.839,9.051C1556.53,485.51,1558.7,493.187,1560.832,494.12Z" transform="translate(-1492.629 -447.559)" fill="#ebb0b0"/>
        <path id="Path_38884" data-name="Path 38884" d="M1812.063,704.365h0a.054.054,0,0,0,.016.005A.022.022,0,0,1,1812.063,704.365Z" transform="translate(-1744.713 -656.015)" fill="#b7d8f2"/>
        <path id="Path_38885" data-name="Path 38885" d="M1640.862,386.169q.011.613.064,1.223.012.166.031.331c.051.523.126,1.058.225,1.611l.253-.042.04-.007.249-.042.031-.005.51-.088c-.006-.026-.106-.651-.165-1.614q-.008-.143-.016-.3c-.016-.369-.027-.781-.022-1.218a13.962,13.962,0,0,1,1.346-6.278q.131-.248.28-.486a6.475,6.475,0,0,1,4.223-2.991,6.9,6.9,0,0,1,1.026-.155,14.367,14.367,0,0,1,3.017-.731,7.624,7.624,0,0,0-8.37,2.333c-.042.047-.084.1-.126.146a9.67,9.67,0,0,0-.922,1.291A13.051,13.051,0,0,0,1640.862,386.169Z" transform="translate(-1572.835 -349.201)" fill="#fff"/>
        <path id="Path_38886" data-name="Path 38886" d="M1629.16,374.164a.481.481,0,0,0,.084.075l.613.439a.493.493,0,0,0,.176.08q.131-.248.28-.486a6.636,6.636,0,0,1,1.874-1.987c1.152-.34,2.262-.782,3.375-1.159a14.363,14.363,0,0,1,3.017-.731,7.579,7.579,0,0,1,.812-.051,7.558,7.558,0,0,0-4.532-.655,8.5,8.5,0,0,0-5.053,2.949c-.042.049-.084.1-.126.152q-.3.364-.559.759A.511.511,0,0,0,1629.16,374.164Z" transform="translate(-1559.46 -344.217)" fill="#67bec5"/>
        <path id="Path_38887" data-name="Path 38887" d="M1709.193,647.32h.007c-.017-.086-.067-1.147-.075-1.265a.916.916,0,0,0-.9.411c-5.581.284-9.535-1.848-8.2-7.319l-.893-.23c-1.777,6.2,3.8,9,9.211,8.466a.955.955,0,0,0,.86.225Z" transform="translate(-1634.069 -595.059)" fill="#fff"/>
        <path id="Path_38888" data-name="Path 38888" d="M1647.376,738c-.937-.026-3.135.593-3.184-.951-.117-1.54,2.139-1.158,3.065-1.283a1.119,1.119,0,0,1,1.177,1.057h0a1.119,1.119,0,0,1-1.057,1.177Z" transform="translate(-1569.547 -685.262)" fill="#b7d8f2"/>
        <path id="Path_38889" data-name="Path 38889" d="M1704.786,560.27c.013.071.028.142.042.214s.031.14.05.208.031.121.048.179.036.128.055.19c.04.126.082.25.13.369.022.058.046.115.07.172s.042.1.064.144q.081.18.176.353.042.076.087.152.071.121.148.236a1.321,1.321,0,0,0,.08.115q.066.1.137.186.036.048.075.093a4.86,4.86,0,0,0,.646.651q.063.053.128.1c.042.033.086.064.128.1q.131.093.267.179s0,0,0,0a5.053,5.053,0,0,0,1,.481.015.015,0,0,1-.009,0h0a.052.052,0,0,0,.017.005c.066.024.13.046.2.066l.037.013c.07.02.139.04.21.058s.156.039.234.055.141.03.212.042a.338.338,0,0,1,.046.007c.073.011.144.022.218.031l.194.022c.113.009.227.015.34.02h.011a5.771,5.771,0,0,0,1.008-.055,6.09,6.09,0,0,0,.815-.174l.122-.036a5.609,5.609,0,0,0,.717-.274l.117-.055q.229-.113.448-.245a5.488,5.488,0,0,0,.722-.525c.064-.057.128-.113.19-.172a5.151,5.151,0,0,0,1.46-4.655c-.02-.113-.044-.225-.069-.333-.016-.072-.033-.141-.053-.21,0-.011-.005-.022-.007-.031-.018-.068-.038-.135-.058-.2l-.027-.086c-.018-.055-.036-.108-.055-.161a.6.6,0,0,0-.024-.064c-.024-.066-.049-.132-.077-.2q-.062-.157-.137-.309c-.029-.06-.06-.121-.091-.179s-.079-.145-.121-.216-.083-.138-.128-.205-.089-.131-.135-.2c-.032-.046-.066-.09-.1-.134a4.345,4.345,0,0,0-.325-.376c-.035-.035-.07-.07-.1-.1a.08.08,0,0,0-.02-.022c-.038-.038-.079-.075-.119-.112l-.035-.031q-.058-.053-.121-.1a4.46,4.46,0,0,0-.367-.278c-.04-.029-.082-.057-.124-.082q-.159-.1-.328-.192l-.1-.055c-.016-.009-.035-.017-.051-.024-.046-.024-.092-.046-.139-.066a4.471,4.471,0,0,0-.518-.2q-.087-.03-.175-.055h0c-.058-.018-.117-.035-.175-.048l-.007,0-.176-.042h-.005a5.3,5.3,0,0,0-.559-.095,5.946,5.946,0,0,0-2.031.119,5.8,5.8,0,0,0-.623.183A5.124,5.124,0,0,0,1704.786,560.27Z" transform="translate(-1640.757 -516.043)" fill="#67bec5"/>
        <path id="Path_38890" data-name="Path 38890" d="M1704.715,565.7a.05.05,0,0,0,.017.005c.066.024.13.046.2.066l.037.013c.07.02.139.04.21.059s.155.039.234.055.141.03.212.042a.31.31,0,0,1,.046.007c.073.011.145.022.218.031l.194.022c.113.009.227.015.34.02h.011a5.976,5.976,0,0,0,1.008-.055,6.107,6.107,0,0,0,.815-.174l.122-.036a6.134,6.134,0,0,0,.717-.274l.117-.055q.229-.113.448-.245a5.505,5.505,0,0,0,.722-.525c.064-.057.128-.113.19-.172a5.151,5.151,0,0,0,1.46-4.655c-.02-.113-.044-.225-.069-.333-.016-.072-.033-.141-.053-.21,0-.011-.005-.022-.007-.031-.018-.068-.038-.135-.058-.2l-.028-.086c-.018-.055-.036-.108-.055-.161a.613.613,0,0,0-.024-.064c-.024-.066-.049-.132-.077-.2q-.062-.157-.137-.309c-.029-.06-.06-.121-.091-.179s-.079-.145-.121-.216-.083-.138-.128-.205-.089-.131-.135-.2c-.033-.046-.066-.09-.1-.134a4.336,4.336,0,0,0-.325-.377c-.035-.035-.07-.07-.1-.1a.078.078,0,0,0-.02-.022c-.038-.038-.079-.075-.119-.112-.011-.011-.022-.02-.035-.031q-.058-.053-.121-.1a4.427,4.427,0,0,0-.368-.278q-.06-.044-.124-.082-.159-.1-.327-.192l-.1-.055c-.016-.009-.035-.016-.051-.024-.046-.024-.092-.046-.139-.066a4.491,4.491,0,0,0-.518-.2q-.087-.03-.175-.055h0c-.058-.018-.117-.035-.175-.047l-.007,0-.176-.042h-.005q-.088-.02-.177-.037a5.114,5.114,0,0,1,3.318,4.123c.646,4.389-3.194,6.7-6.463,6.1a.015.015,0,0,1-.009,0Z" transform="translate(-1637.366 -517.353)" fill="#ccc"/>
        <path id="Path_38891" data-name="Path 38891" d="M1733.985,586.692c-.649-4.414,5.9-5.489,6.7-1.1.649,4.413-5.9,5.489-6.7,1.1" transform="translate(-1667.999 -542.786)" fill="#b7d8f2"/>
        <path id="Path_38892" data-name="Path 38892" d="M1736.385,585.457a3.258,3.258,0,0,1,1.81,2.486,3.409,3.409,0,0,1-4.594,3.718,3.425,3.425,0,0,0,4.91-3.59,3.23,3.23,0,0,0-2.125-2.614" transform="translate(-1665.804 -545.269)" fill="#ccc"/>
        <path id="Path_38893" data-name="Path 38893" d="M1771.649,536.79l.013.082.042.249.612-.1,1.143-.188.876-.144-.018-.117-.035-.214a1.328,1.328,0,0,0-1.313-1.117,1.274,1.274,0,0,0-.22.018,1.3,1.3,0,0,0-.528.208,1.334,1.334,0,0,0-.573,1.324Z" transform="translate(-1704.194 -498.499)" fill="#67bec5"/>
        <path id="Path_38894" data-name="Path 38894" d="M1041.345,350.486H1022.8a3.445,3.445,0,0,0-3.445,3.445v9.149a3.445,3.445,0,0,0,3.445,3.445v2.715l3.347-2.715h15.2a3.445,3.445,0,0,0,3.445-3.445v-9.149a3.445,3.445,0,0,0-3.445-3.445Z" transform="translate(-923.011 -326.428)" fill="#d1d3d4"/>
        <path id="Path_38895" data-name="Path 38895" d="M1023.02,335.906h-18.544a3.445,3.445,0,0,0-3.445,3.445V348.5a3.445,3.445,0,0,0,3.445,3.445v2.715l3.347-2.715h15.2a3.445,3.445,0,0,0,3.445-3.445v-9.149a3.445,3.445,0,0,0-3.445-3.445" transform="translate(-903.428 -312.848)" fill="#39246f"/>
        <path id="Path_38896" data-name="Path 38896" d="M1050.19,432.413a.914.914,0,1,1,.914.914h0a.914.914,0,0,1-.914-.914Zm2.924,0a.914.914,0,1,1,.914.914h0a.914.914,0,0,1-.914-.914Zm2.924,0a.914.914,0,1,1,.914.914h0a.914.914,0,0,1-.914-.914Zm2.924,0a.914.914,0,1,1,.914.914h0a.914.914,0,0,1-.914-.914Zm2.924,0a.914.914,0,1,1,.914.914.914.914,0,0,1-.914-.914h0Zm2.925,0a.914.914,0,1,1,.914.914.914.914,0,0,1-.914-.914Zm2.924,0a.914.914,0,1,1,.914.914h0a.914.914,0,0,1-.914-.914Z" transform="translate(-949.901 -401.88)" fill="#fff"/>
        <text id="_24" data-name="24" transform="translate(141.156 48.066)" fill="#67bec5" font-size="13" font-family="Poppins-Bold, Poppins" font-weight="700"><tspan x="0" y="0">24</tspan></text>
      </g>
    </g>
  </g>
</svg>
