<svg xmlns="http://www.w3.org/2000/svg" width="10.447" height="17.2" viewBox="0 0 10.447 17.2">
  <path id="Path_38716" data-name="Path 38716" d="M48.313,31.121A1.141,1.141,0,0,0,47.192,30H39a1.121,1.121,0,0,0,0,2.242,4.3,4.3,0,0,1,3.449,1.552H39a1.121,1.121,0,0,0,0,2.242h3.707A4.18,4.18,0,0,1,39,37.932a1.2,1.2,0,0,0-1.035.647,1.131,1.131,0,0,0,.172,1.207l6.078,7.026a1.085,1.085,0,0,0,.862.388,1.171,1.171,0,0,0,.733-.259,1.148,1.148,0,0,0,.129-1.595L41.2,39.828a5.449,5.449,0,0,0,3.88-3.837h2.112a1.121,1.121,0,1,0,0-2.242H44.95a5.361,5.361,0,0,0-.819-1.552h3.061A1.077,1.077,0,0,0,48.313,31.121Z" transform="translate(-37.866 -30)"/>
</svg>
