<svg xmlns="http://www.w3.org/2000/svg" width="33.999" height="34" viewBox="0 0 33.999 34">
  <g id="f43495c9778e386c3a4f8ff2008997d6" transform="translate(-2.5 -2.499)">
    <path id="Path_36" data-name="Path 36" d="M19.209,4.156V6.062a1.654,1.654,0,0,1-1.657,1.65H4.157A1.654,1.654,0,0,1,2.5,6.062V4.156A1.66,1.66,0,0,1,4.157,2.5H17.551A1.66,1.66,0,0,1,19.209,4.156Z" transform="translate(0 0)" fill="#fd982e"/>
    <path id="Path_37" data-name="Path 37" d="M19.209,11.515v1.905a1.654,1.654,0,0,1-1.657,1.65H4.157A1.654,1.654,0,0,1,2.5,13.421V11.515A1.66,1.66,0,0,1,4.157,9.858H17.551A1.66,1.66,0,0,1,19.209,11.515Z" transform="translate(0 -2.147)" fill="#fd982e"/>
    <path id="Path_38" data-name="Path 38" d="M21.689,4.156V6.062a1.654,1.654,0,0,1-1.657,1.65H6.637A1.654,1.654,0,0,1,4.98,6.062V4.156A1.66,1.66,0,0,1,6.637,2.5H20.031A1.66,1.66,0,0,1,21.689,4.156Zm0,5.213v1.905a1.654,1.654,0,0,1-1.657,1.65H6.637a1.654,1.654,0,0,1-1.657-1.65V9.37A1.66,1.66,0,0,1,6.637,7.712H20.031A1.66,1.66,0,0,1,21.689,9.37Z" transform="translate(-0.723 0)" fill="#fcb73e"/>
    <path id="Path_39" data-name="Path 39" d="M4.352,8.286A1.65,1.65,0,0,0,5.914,9.4H19.308a1.65,1.65,0,0,0,1.561-1.113H4.352Zm16.516,2.227A1.65,1.65,0,0,0,19.307,9.4H5.914a1.65,1.65,0,0,0-1.561,1.113H20.869Zm-1.66,5.757v1.905a1.654,1.654,0,0,1-1.657,1.65H4.157A1.654,1.654,0,0,1,2.5,18.175V16.27a1.66,1.66,0,0,1,1.657-1.657H17.551A1.66,1.66,0,0,1,19.209,16.27Z" transform="translate(0 -1.688)" fill="#fd982e"/>
    <path id="Path_40" data-name="Path 40" d="M21.689,18.875v1.905a1.654,1.654,0,0,1-1.657,1.65H6.637a1.654,1.654,0,0,1-1.657-1.65V18.875a1.66,1.66,0,0,1,1.657-1.657H20.031A1.66,1.66,0,0,1,21.689,18.875Z" transform="translate(-0.723 -4.293)" fill="#fcb73e"/>
    <path id="Path_41" data-name="Path 41" d="M20.868,18.331a1.65,1.65,0,0,0-1.561-1.113H5.914a1.65,1.65,0,0,0-1.561,1.113H20.869Zm-1.66,5.757v1.905a1.654,1.654,0,0,1-1.657,1.65H4.157A1.654,1.654,0,0,1,2.5,25.994V24.089a1.66,1.66,0,0,1,1.657-1.657H17.551A1.66,1.66,0,0,1,19.209,24.089Z" transform="translate(0 -4.293)" fill="#fd982e"/>
    <path id="Path_42" data-name="Path 42" d="M21.689,26.235v1.905a1.654,1.654,0,0,1-1.657,1.65H6.637a1.654,1.654,0,0,1-1.657-1.65V26.235a1.66,1.66,0,0,1,1.657-1.657H20.031A1.66,1.66,0,0,1,21.689,26.235Z" transform="translate(-0.723 -6.44)" fill="#fcb73e"/>
    <path id="Path_43" data-name="Path 43" d="M21.632,25.691a1.65,1.65,0,0,0-1.561-1.113H6.677a1.65,1.65,0,0,0-1.561,1.113H21.632Z" transform="translate(-0.763 -6.44)" fill="#fd982e"/>
    <path id="Path_44" data-name="Path 44" d="M38.272,23.427a14.863,14.863,0,0,1-14.74,14.846h-.106A14.842,14.842,0,1,1,38.272,23.427Z" transform="translate(-1.774 -1.774)" fill="#fcb73e"/>
    <path id="Path_45" data-name="Path 45" d="M24.51,38.231q-.542.042-1.084.042a14.846,14.846,0,0,1,0-29.692c.368,0,.744.014,1.1.042a14.841,14.841,0,0,0-.021,29.607Z" transform="translate(-1.774 -1.774)" fill="#fd982e"/>
    <path id="Path_46" data-name="Path 46" d="M36.335,24.493A11.558,11.558,0,0,1,24.782,36.046h-.021A11.552,11.552,0,1,1,36.335,24.493Z" transform="translate(-3.13 -3.046)" fill="#deddff"/>
    <path id="Path_47" data-name="Path 47" d="M26.426,35.925a11.432,11.432,0,0,1-1.643.12,11.552,11.552,0,0,1,0-23.1,11.432,11.432,0,0,1,1.643.12,11.55,11.55,0,0,0,0,22.864Z" transform="translate(-3.13 -3.046)" fill="#c6c6f7"/>
    <path id="Path_48" data-name="Path 48" d="M29.516,20.931a3.775,3.775,0,0,1,.623,1.363c.009.038.1.078.156.078.488.006.975,0,1.463,0,.338,0,.432.093.433.427,0,.288,0,.577,0,.865,0,.273-.112.378-.387.378q-.739,0-1.478,0c-.085,0-.146,0-.167.113A3.849,3.849,0,0,1,27.445,27.2c-.412.145-.848.222-1.282.333a.563.563,0,0,0,.055.076c1.55,1.682,3,3.444,4.452,5.212a.641.641,0,0,1,.119.182.317.317,0,0,1-.314.405c-.65.006-1.3,0-1.95,0a.386.386,0,0,1-.3-.166q-1.867-2.178-3.738-4.354c-.38-.439-.781-.862-1.178-1.288a.456.456,0,0,1-.135-.337c.006-.382,0-.765,0-1.148,0-.275.117-.387.4-.389.467,0,.934.008,1.4-.008a3.935,3.935,0,0,0,1.871-.472,1.928,1.928,0,0,0,.883-1.027c.012-.035.024-.069.033-.1a.446.446,0,0,0,0-.072H23.612c-.351,0-.439-.087-.439-.433v-.85c0-.284.1-.387.391-.387H27.65c-.1-.137-.159-.244-.239-.336a2.173,2.173,0,0,0-1.435-.707c-.565-.065-1.138-.066-1.708-.089-.23-.008-.46,0-.692,0-.29,0-.4-.11-.4-.4v-1.18c0-.308.1-.4.4-.4q3.137,0,6.274,0h1.92c.3,0,.4.1.4.408,0,.288,0,.577,0,.865s-.1.395-.4.4H29.516Z" transform="translate(-6.029 -4.89)" fill="#fcb73e"/>
  </g>
</svg>
