<svg xmlns="http://www.w3.org/2000/svg" width="82.604" height="72.109" viewBox="0 0 82.604 72.109">
  <g id="Group_35731" data-name="Group 35731" transform="translate(-735.25 -9257)">
    <path id="Path_37809" data-name="Path 37809" d="M54.5,76H42.428v4.241a19.516,19.516,0,0,0-8.7,3.749.966.966,0,1,0,1.208,1.478,17.67,17.67,0,0,1,8.5-3.43H55.4a17.8,17.8,0,0,1,8.521,3.439.97.97,0,1,0,1.246-1.488,19.516,19.516,0,0,0-8.7-3.749V76Z" transform="translate(727.119 9243.319)" fill="#67bec5"/>
    <path id="Path_37810" data-name="Path 37810" d="M89.854,25.509H50.03l.831-1.932,4.618-10.724A.969.969,0,1,0,53.7,12.08l-4.947,11.5-.242.57-.483-.57-4.773-5.69a.966.966,0,1,0-1.469,1.237l3.72,4.454,1.623,1.932H7.25V65.844h82.6Zm-54.48,13.2L40.91,33.17a.967.967,0,1,1,1.362,1.372l-5.536,5.526a.963.963,0,1,1-1.362-1.362Zm-.889,12.56a.966.966,0,0,1-.686-1.652l17.458-17.5a.967.967,0,1,1,1.362,1.372L35.161,50.947a.966.966,0,0,1-.676.28Zm2.29,8.289a.966.966,0,0,1-.686-1.652L60.145,33.856a.967.967,0,0,1,1.372,1.362L37.461,59.236a.966.966,0,0,1-.686.28ZM63.3,43.595l-14.25,14.25a.967.967,0,0,1-1.372-1.362l14.26-14.25A.966.966,0,0,1,63.3,43.595Z" transform="translate(728 9245.504)" fill="#67bec5"/>
    <path id="Path_37811" data-name="Path 37811" d="M54.59,73.856H89.854V69.75H7.25v4.106H54.59Z" transform="translate(728 9243.53)" fill="#67bec5"/>
  </g>
</svg>
