<svg xmlns="http://www.w3.org/2000/svg" width="76" height="76" viewBox="0 0 76 76">
  <g id="Group_36112" data-name="Group 36112" transform="translate(-451 -329)">
    <circle id="Ellipse_27" data-name="Ellipse 27" cx="38" cy="38" r="38" transform="translate(451 329)" fill="#fff"/>
    <g id="_8843349991e1cfa8989a1698313b8ffa" data-name="8843349991e1cfa8989a1698313b8ffa" transform="translate(465.374 342.006)">
      <path id="Path_38694" data-name="Path 38694" d="M35.285,19.687,31.52,15.674a2.122,2.122,0,0,0,.249-.983,2.15,2.15,0,0,0-2.15-2.15h-.357l3.253-7.773A2.15,2.15,0,0,0,29.564,1.92L27.576,3a2.16,2.16,0,0,1-2.549-.367l-.755-.757a3.582,3.582,0,0,0-5.067,0l-.755.757A2.164,2.164,0,0,1,15.9,3L13.906,1.916a2.149,2.149,0,0,0-2.966,2.8l3.273,7.817h-.357a2.139,2.139,0,0,0-1.366,3.8L9.051,19.576A19.4,19.4,0,0,0,3.558,38.44,9.3,9.3,0,0,0,12.594,45.5h18.1a9.3,9.3,0,0,0,9.037-7.055l.209-.833a19.268,19.268,0,0,0-4.654-17.923ZM12.241,4.123a.717.717,0,0,1,.984-.95l1.988,1.083a3.6,3.6,0,0,0,4.249-.6l.749-.762a2.15,2.15,0,0,1,3.041,0l.755.757a3.6,3.6,0,0,0,4.249.612l1.986-1.085a.7.7,0,0,1,.841.113.717.717,0,0,1,.123.88l-3.5,8.37H15.769Zm1.615,9.848H29.619a.716.716,0,1,1,0,1.433H13.856a.716.716,0,1,1,0-1.433Zm24.7,23.291-.209.833a7.869,7.869,0,0,1-7.651,5.97h-18.1a7.9,7.9,0,0,1-7.668-6.056,17.93,17.93,0,0,1,5.1-17.388l4.021-3.783h16.6l3.591,3.829A17.839,17.839,0,0,1,38.553,37.261Z" transform="translate(1.65 1.963)" fill="#3a266b"/>
      <g id="c52e2a8582c22d205d942046acad9997" transform="translate(-227.964 192.241)">
        <path id="Path_38696" data-name="Path 38696" d="M413.461-36a1,1,0,0,0-1-1H402.39a1,1,0,0,0-1,1,1,1,0,0,0,1,1h2.887a3.365,3.365,0,0,1,3.176,2.29H402.39a1,1,0,0,0-1,1,1,1,0,0,0,1,1h6.063a3.45,3.45,0,0,1-.826,1.384,3.319,3.319,0,0,1-2.35,1.006H402.39a.965.965,0,0,0-1,.926.965.965,0,0,0,.309.747l7.208,6.81a.983.983,0,0,0,1.4-.05.959.959,0,0,0-.02-1.354c-.01-.01-.02-.01-.02-.02l-5.386-5.068h.378a5.348,5.348,0,0,0,3.764-1.583,5.133,5.133,0,0,0,1.464-2.8h1.971a1,1,0,0,0,1-1,1,1,0,0,0-1-1h-1.971a4.623,4.623,0,0,0-1.085-2.29h3.047a1,1,0,0,0,1.005-1Z" transform="translate(-156.067 -131.489)" fill="#3a266b"/>
      </g>
    </g>
  </g>
</svg>
