<svg xmlns="http://www.w3.org/2000/svg" width="1961.88" height="846.296" viewBox="0 0 1961.88 846.296">
  <g id="Group_35711" data-name="Group 35711" transform="translate(73.778 -5696.75)">
    <path id="Path_37796" data-name="Path 37796" d="M2312.98,4017.141s250.189,250.9,454.442,288.532c-2.244,4.182,404.015,137.994,648.668-234.17,0-2.091,215.473-290.623,522.973-240.443-2.244,2.091,341.168,31.361,325.456,336.62,2.245-4.182,80.183,476.625-253.628,393.171" transform="translate(-2386.404 1872.065)" fill="none" stroke="#0e77ff" stroke-width="1" stroke-dasharray="10 10"/>
    <g id="Group_35710" data-name="Group 35710" transform="matrix(0.998, 0.07, -0.07, 0.998, 1380.236, 6231.037)">
      <g id="Group_545" data-name="Group 545" transform="matrix(-0.788, 0.616, -0.616, -0.788, 320.458, 140.48)">
        <path id="Path_1406" data-name="Path 1406" d="M0,.992,90.475,50.465l57.476,31.429L267.386,147.2,75.464,0Z" transform="translate(0 31.07)" fill="#68bae5"/>
        <path id="Path_1407" data-name="Path 1407" d="M0,31.059,35.943,0,191.921,178.269Z" transform="translate(75.465 0.003)" fill="#209cd9"/>
        <g id="Group_544" data-name="Group 544" transform="translate(111.406 0)">
          <path id="Path_1408" data-name="Path 1408" d="M133.251,132.19,0,0,69.092,12.693Z" transform="translate(22.727 46.081)" fill="#a7d3ec"/>
          <path id="Path_1409" data-name="Path 1409" d="M22.728,46.12,0,0,44.828,50.18Z" transform="translate(0 0)" fill="#68bae5"/>
        </g>
      </g>
    </g>
  </g>
</svg>
