<svg xmlns="http://www.w3.org/2000/svg" width="1961.893" height="846.296" viewBox="0 0 1961.893 846.296">
  <g id="Group_35721" data-name="Group 35721" transform="translate(0.56 0.513)">
    <path id="Path_37796" data-name="Path 37796" d="M4273.959,4017.141s-250.189,250.9-454.442,288.532c2.244,4.182-404.015,137.994-648.668-234.17,0-2.091-215.473-290.623-522.973-240.443,2.244,2.091-341.168,31.361-325.456,336.62-2.245-4.182-80.183,476.625,253.628,393.171" transform="translate(-2312.98 -3825.199)" fill="none" stroke="#0e77ff" stroke-width="1" stroke-dasharray="10 10"/>
    <g id="Group_35710" data-name="Group 35710" transform="matrix(-0.998, 0.07, -0.07, -0.998, 528.602, 838.13)">
      <g id="Group_545" data-name="Group 545" transform="matrix(-0.788, -0.616, 0.616, -0.788, 210.703, 305.1)">
        <path id="Path_1406" data-name="Path 1406" d="M0,146.211,90.475,96.738l57.476-31.429L267.386,0,75.464,147.2Z" transform="translate(0 0)" fill="#68bae5"/>
        <path id="Path_1407" data-name="Path 1407" d="M0,147.21l35.943,31.059L191.921,0Z" transform="translate(75.465 0)" fill="#209cd9"/>
        <g id="Group_544" data-name="Group 544" transform="translate(111.406 0.001)">
          <path id="Path_1408" data-name="Path 1408" d="M133.251,0,0,132.19,69.092,119.5Z" transform="translate(22.727 0)" fill="#a7d3ec"/>
          <path id="Path_1409" data-name="Path 1409" d="M22.728,4.06,0,50.18,44.828,0Z" transform="translate(0 128.091)" fill="#68bae5"/>
        </g>
      </g>
    </g>
  </g>
</svg>
