<svg xmlns="http://www.w3.org/2000/svg" width="275.655" height="106.624" viewBox="0 0 275.655 106.624">
  <g id="gummy-ux-slash-ui-design" transform="translate(-86.678 -344.42)">
    <g id="Layer_1" data-name="Layer 1" transform="translate(86.678 344.42)">
      <rect id="Rectangle_557" data-name="Rectangle 557" width="275.655" height="5.963" rx="2.981" transform="translate(0 100.662)" fill="#444e59"/>
      <rect id="Rectangle_558" data-name="Rectangle 558" width="46.648" height="2.799" transform="translate(106.231 100.49)" fill="#444e59"/>
      <rect id="Rectangle_559" data-name="Rectangle 559" width="118.02" height="81.635" rx="12" transform="translate(71.245 0.663)" fill="#bbbfc2"/>
      <rect id="Rectangle_560" data-name="Rectangle 560" width="60.176" height="103.559" transform="translate(182.268 8.126) rotate(90)" fill="#28a8e0"/>
      <path id="Path_37731" data-name="Path 37731" d="M599.205,484.428h12.73v35.919H594.677v-31.39a4.53,4.53,0,0,1,4.527-4.529Z" transform="translate(-426.401 -438.05)" fill="#848484" opacity="0.4"/>
      <path id="Path_37732" data-name="Path 37732" d="M310.143,501.326h-8.386V526.05a5.733,5.733,0,0,0,5.753,5.6h9.639v-23.2A7.124,7.124,0,0,0,310.143,501.326Z" transform="translate(-230.512 -449.351)" fill="#848484" opacity="0.4"/>
      <path id="Path_37733" data-name="Path 37733" d="M415.09,427.379H304.865a4.643,4.643,0,0,1-4.638-4.638V349.058a4.642,4.642,0,0,1,4.638-4.637H415.09a4.642,4.642,0,0,1,4.638,4.637v73.684a4.643,4.643,0,0,1-4.638,4.638ZM304.865,345.745a3.316,3.316,0,0,0-3.312,3.312v73.684a3.316,3.316,0,0,0,3.313,3.313H415.09a3.316,3.316,0,0,0,3.313-3.313V349.058a3.316,3.316,0,0,0-3.313-3.312Z" transform="translate(-229.489 -344.42)" fill="#444e59"/>
      <path id="Path_37734" data-name="Path 37734" d="M426.669,428.451H323.421a.663.663,0,0,1-.663-.663V367.615a.663.663,0,0,1,.663-.662H426.669a.663.663,0,0,1,.663.662v60.174A.663.663,0,0,1,426.669,428.451Zm-102.586-1.325H426.006V368.277H324.083Z" transform="translate(-244.556 -359.488)" fill="#444e59"/>
      <rect id="Rectangle_561" data-name="Rectangle 561" width="61.576" height="45.249" rx="7.045" transform="translate(102.8 20.157)" fill="#848484" opacity="0.32"/>
      <rect id="Rectangle_562" data-name="Rectangle 562" width="61.576" height="45.249" rx="7.045" transform="translate(100.167 17.922)" fill="#afb1b2"/>
      <path id="Path_37735" data-name="Path 37735" d="M446.971,443.1H390.062a3,3,0,0,1-3-3V399.521a3,3,0,0,1,3-3h56.909a3,3,0,0,1,3,3V440.1A3,3,0,0,1,446.971,443.1ZM390.062,397.85a1.673,1.673,0,0,0-1.671,1.671V440.1a1.673,1.673,0,0,0,1.671,1.671h56.909a1.673,1.673,0,0,0,1.671-1.671V399.521a1.673,1.673,0,0,0-1.671-1.671Z" transform="translate(-287.562 -379.265)" fill="#444e59"/>
      <path id="Path_37736" data-name="Path 37736" d="M466.476,611.055H438.744l3.434-18.193h20.864Z" transform="translate(-322.122 -510.565)" fill="#aeaeaf"/>
      <path id="Path_37737" data-name="Path 37737" d="M469.021,597.993l-.936-5.131H447.22l-.936,5.131Z" transform="translate(-327.164 -510.565)" fill="#848484" opacity="0.32"/>
      <path id="Path_37738" data-name="Path 37738" d="M465.139,610.38H437.407a.662.662,0,0,1-.651-.785L440.19,591.4a.663.663,0,0,1,.651-.54h20.865a.663.663,0,0,1,.651.54l3.434,18.193a.663.663,0,0,1-.651.785Zm-26.933-1.325H464.34l-3.184-16.868H441.39Z" transform="translate(-320.784 -509.228)" fill="#444e59"/>
      <path id="Path_37739" data-name="Path 37739" d="M452.686,649.908H406.038a.663.663,0,0,1-.663-.663v-2.8a.663.663,0,0,1,.663-.662h46.648a.663.663,0,0,1,.663.662v2.8A.663.663,0,0,1,452.686,649.908ZM406.7,648.583h45.323v-1.474H406.7Z" transform="translate(-299.806 -545.957)" fill="#444e59"/>
      <circle id="Ellipse_24" data-name="Ellipse 24" cx="2.067" cy="2.067" r="2.067" transform="translate(128.25 71.901)" fill="#444e59"/>
      <rect id="Rectangle_563" data-name="Rectangle 563" width="61.576" height="45.249" rx="7.045" transform="translate(95.502 13.724)" fill="#fff"/>
      <path id="Path_37740" data-name="Path 37740" d="M432.889,430.427H375.98a3,3,0,0,1-3-3v-40.58a3,3,0,0,1,3-3h56.909a3,3,0,0,1,3,3v40.58A3,3,0,0,1,432.889,430.427ZM375.98,385.178a1.673,1.673,0,0,0-1.671,1.671v40.582a1.673,1.673,0,0,0,1.671,1.671h56.909a1.673,1.673,0,0,0,1.671-1.671v-40.58a1.673,1.673,0,0,0-1.671-1.671Z" transform="translate(-278.145 -370.792)" fill="#444e59"/>
      <path id="Path_37741" data-name="Path 37741" d="M377.421,385.851h56.864a2.276,2.276,0,0,1,2.276,2.276v4.721H374.986v-4.563a2.435,2.435,0,0,1,2.434-2.434Z" transform="translate(-279.484 -372.127)" fill="#bbbfc2"/>
      <path id="Path_37742" data-name="Path 37742" d="M435.224,392.172H373.648a.662.662,0,0,1-.663-.662v-4.563a3.1,3.1,0,0,1,3.1-3.1h56.864a2.942,2.942,0,0,1,2.939,2.939v4.721A.662.662,0,0,1,435.224,392.172Zm-60.913-1.325h60.251v-4.059a1.616,1.616,0,0,0-1.615-1.614H376.083a1.774,1.774,0,0,0-1.772,1.772Z" transform="translate(-278.146 -370.789)" fill="#444e59"/>
      <circle id="Ellipse_25" data-name="Ellipse 25" cx="1.087" cy="1.087" r="1.087" transform="translate(100.366 16.174)" fill="#444e59"/>
      <circle id="Ellipse_26" data-name="Ellipse 26" cx="1.087" cy="1.087" r="1.087" transform="translate(103.958 16.174)" fill="#444e59"/>
      <circle id="Ellipse_27" data-name="Ellipse 27" cx="1.087" cy="1.087" r="1.087" transform="translate(107.55 16.174)" fill="#444e59"/>
      <rect id="Rectangle_564" data-name="Rectangle 564" width="51.78" height="8.397" rx="2" transform="translate(100.167 24.453)" fill="#6567c3"/>
      <rect id="Rectangle_565" data-name="Rectangle 565" width="15.86" height="5.131" rx="2" transform="translate(100.167 36.581)" fill="#444e59" opacity="0.2"/>
      <g id="Group_35693" data-name="Group 35693" transform="translate(101.837 44.782)" opacity="0.2">
        <path id="Path_37743" data-name="Path 37743" d="M406.434,480.936H394.772a.663.663,0,1,1,0-1.325h11.662a.663.663,0,1,1,0,1.325Z" transform="translate(-394.109 -479.611)" fill="#444e59"/>
      </g>
      <g id="Group_35694" data-name="Group 35694" transform="translate(101.837 48.514)" opacity="0.2">
        <path id="Path_37744" data-name="Path 37744" d="M406.434,492.2H394.772a.663.663,0,1,1,0-1.325h11.662a.663.663,0,1,1,0,1.325Z" transform="translate(-394.109 -490.877)" fill="#444e59"/>
      </g>
      <rect id="Rectangle_566" data-name="Rectangle 566" width="15.86" height="5.131" rx="2" transform="translate(118.36 36.581)" fill="#444e59" opacity="0.2"/>
      <g id="Group_35695" data-name="Group 35695" transform="translate(120.029 44.782)" opacity="0.2">
        <path id="Path_37745" data-name="Path 37745" d="M460.888,480.936h-11.2a.663.663,0,0,1,0-1.325h11.2a.663.663,0,1,1,0,1.325Z" transform="translate(-449.029 -479.611)" fill="#444e59"/>
      </g>
      <g id="Group_35696" data-name="Group 35696" transform="translate(120.029 48.514)" opacity="0.2">
        <path id="Path_37746" data-name="Path 37746" d="M460.888,492.2h-11.2a.663.663,0,0,1,0-1.325h11.2a.663.663,0,1,1,0,1.325Z" transform="translate(-449.029 -490.877)" fill="#444e59"/>
      </g>
      <g id="Group_35697" data-name="Group 35697" transform="translate(136.553 36.581)" opacity="0.2">
        <rect id="Rectangle_567" data-name="Rectangle 567" width="15.86" height="13.062" rx="2" fill="#444e59"/>
      </g>
      <g id="Group_35698" data-name="Group 35698" transform="translate(136.492 51.509)" opacity="0.09">
        <path id="Path_37747" data-name="Path 37747" d="M513.519,501.784h-13.86a.933.933,0,1,1,0-1.866h13.86a.933.933,0,1,1,0,1.866Z" transform="translate(-498.726 -499.918)" fill="#444e59"/>
      </g>
      <path id="Path_37748" data-name="Path 37748" d="M159.614,613.414H132.906a1.3,1.3,0,0,0-.865.319l-6.444,5.647a1.309,1.309,0,0,0,0,1.971l6.445,5.734a1.406,1.406,0,0,0,.865.408h26.709a2.911,2.911,0,0,0,2.766-2.906v-8.447A2.749,2.749,0,0,0,159.614,613.414ZM132.206,622a1.643,1.643,0,1,1,1.643-1.643A1.643,1.643,0,0,1,132.206,622Z" transform="translate(-112.406 -524.309)" fill="#fff"/>
      <rect id="Rectangle_568" data-name="Rectangle 568" width="7.78" height="14.079" transform="translate(26.634 89.105)" fill="#f09f54"/>
      <rect id="Rectangle_569" data-name="Rectangle 569" width="7.78" height="14.079" transform="translate(34.414 89.105)" fill="#ed8b3b"/>
      <path id="Path_37749" data-name="Path 37749" d="M214.057,613.414H218.5a3.338,3.338,0,0,1,3.338,3.338v7.278a3.463,3.463,0,0,1-3.463,3.463h-4.318V613.415Z" transform="translate(-171.862 -524.309)" fill="#ff6c37"/>
      <path id="Path_37750" data-name="Path 37750" d="M161.018,615.44a2.749,2.749,0,0,0-.4-.026H133.906a1.3,1.3,0,0,0-.865.319l-6.444,5.647a1.309,1.309,0,0,0,0,1.971l4.025,3.528L135,627.986a2.683,2.683,0,0,0,1.876-.211l23.79-12.134C160.787,615.577,160.9,615.512,161.018,615.44ZM133.206,624a1.643,1.643,0,1,1,1.643-1.643A1.643,1.643,0,0,1,133.206,624Z" transform="translate(-113.075 -525.647)" fill="#848484" opacity="0.4"/>
      <path id="Path_37751" data-name="Path 37751" d="M158.274,626.817H131.564a2,2,0,0,1-1.3-.573l-6.448-5.737a1.972,1.972,0,0,1,0-2.964l6.445-5.647a1.969,1.969,0,0,1,1.3-.483h26.709A3.412,3.412,0,0,1,161.7,614.8v8.447A3.593,3.593,0,0,1,158.274,626.817Zm-26.709-14.078a.647.647,0,0,0-.428.154l-6.446,5.647a.648.648,0,0,0,0,.975l6.449,5.737a.833.833,0,0,0,.424.241h26.709a2.263,2.263,0,0,0,2.1-2.243V614.8a2.087,2.087,0,0,0-2.1-2.062Zm-.7,8.591a2.305,2.305,0,1,1,2.305-2.305A2.306,2.306,0,0,1,130.865,621.33Zm0-3.286a.981.981,0,1,0,.98.98A.98.98,0,0,0,130.865,618.045Z" transform="translate(-111.065 -522.972)" fill="#444e59"/>
      <path id="Path_37752" data-name="Path 37752" d="M173.525,626.818h-7.78a.663.663,0,0,1-.663-.662V612.078a.663.663,0,0,1,.663-.662h7.78a.663.663,0,0,1,.663.662v14.078A.663.663,0,0,1,173.525,626.818Zm-7.118-1.325h6.455V612.74h-6.455Z" transform="translate(-139.111 -522.973)" fill="#444e59"/>
      <path id="Path_37753" data-name="Path 37753" d="M197.012,626.818h-7.78a.663.663,0,0,1-.663-.662V612.078a.663.663,0,0,1,.663-.662h7.78a.663.663,0,0,1,.663.662v14.078A.663.663,0,0,1,197.012,626.818Zm-7.118-1.325h6.455V612.74h-6.455Z" transform="translate(-154.817 -522.973)" fill="#444e59"/>
      <path id="Path_37754" data-name="Path 37754" d="M217.037,626.818h-4.317a.663.663,0,0,1-.663-.662V612.078a.663.663,0,0,1,.663-.662h4.442a4.005,4.005,0,0,1,4,4v7.278A4.13,4.13,0,0,1,217.037,626.818Zm-3.655-1.325h3.655a2.8,2.8,0,0,0,2.8-2.8v-7.278a2.678,2.678,0,0,0-2.676-2.675h-3.78Z" transform="translate(-170.525 -522.973)" fill="#444e59"/>
      <path id="Path_37755" data-name="Path 37755" d="M152.48,572.356l-23.791,12.138a1.311,1.311,0,0,0-.622.683l-3.173,7.961a1.311,1.311,0,0,0,.9,1.756L134.1,597a1.312,1.312,0,0,0,.918-.1l23.791-12.138A2.738,2.738,0,0,0,160,581.074l-3.84-7.523a2.738,2.738,0,0,0-3.683-1.194Z" transform="translate(-112.172 -496.651)" fill="#fff"/>
      <rect id="Rectangle_570" data-name="Rectangle 570" width="7.779" height="13.924" transform="matrix(0.891, -0.454, 0.454, 0.891, 28.888, 81.531)" fill="#8d91db"/>
      <path id="Path_37756" data-name="Path 37756" d="M133.085,596.367a1.986,1.986,0,0,1-.484-.06l-8.308-2.1a1.974,1.974,0,0,1-1.35-2.644l3.173-7.963a1.972,1.972,0,0,1,.936-1.027l23.791-12.138h0a3.4,3.4,0,0,1,4.574,1.483l3.84,7.526a3.4,3.4,0,0,1-1.484,4.575l-23.792,12.138A1.967,1.967,0,0,1,133.085,596.367Zm18.361-24.757-23.791,12.139a.651.651,0,0,0-.308.338l-3.173,7.962a.649.649,0,0,0,.444.87l8.309,2.1a.653.653,0,0,0,.454-.051l23.791-12.139a2.076,2.076,0,0,0,.906-2.792l-3.839-7.525a2.075,2.075,0,0,0-2.792-.906Z" transform="translate(-110.837 -495.315)" fill="#444e59"/>
      <circle id="Ellipse_28" data-name="Ellipse 28" cx="1.919" cy="1.919" r="1.919" transform="translate(17.138 92.444)" fill="#444e59"/>
      <rect id="Rectangle_571" data-name="Rectangle 571" width="7.779" height="13.924" transform="matrix(0.891, -0.454, 0.454, 0.891, 21.959, 85.066)" fill="#beccd5" stroke="#444e59" stroke-linecap="round" stroke-linejoin="round" stroke-width="4"/>
      <path id="Path_37757" data-name="Path 37757" d="M157.961,605.814a.662.662,0,0,1-.591-.361l-6.327-12.4a.662.662,0,0,1,.289-.891l6.929-3.535a.663.663,0,0,1,.891.289l6.327,12.4a.663.663,0,0,1-.289.891l-6.929,3.535A.659.659,0,0,1,157.961,605.814Zm-5.437-12.775,5.726,11.223L164,601.328,158.273,590.1Z" transform="translate(-129.674 -507.682)" fill="#444e59"/>
      <path id="Path_37758" data-name="Path 37758" d="M178.879,595.143a.667.667,0,0,1-.59-.362l-6.327-12.4a.662.662,0,0,1,.289-.891l6.929-3.534a.663.663,0,0,1,.891.289l6.327,12.4a.662.662,0,0,1-.289.891l-6.929,3.534A.657.657,0,0,1,178.879,595.143Zm-5.437-12.777,5.726,11.222,5.749-2.934-5.726-11.223Z" transform="translate(-143.663 -500.547)" fill="#444e59"/>
      <path id="Path_37759" data-name="Path 37759" d="M0,0H4.467A3.313,3.313,0,0,1,7.779,3.313v7.3a3.313,3.313,0,0,1-3.313,3.313H0Z" transform="matrix(0.891, -0.454, 0.454, 0.891, 35.817, 77.995)" fill="#6567c3"/>
      <path id="Path_37760" data-name="Path 37760" d="M199.8,586.779a.662.662,0,0,1-.591-.361l-6.327-12.4a.663.663,0,0,1,.289-.891l3.979-2.03a3.979,3.979,0,0,1,5.346,1.733l3.317,6.5a3.98,3.98,0,0,1-1.734,5.348h0l-3.979,2.03A.663.663,0,0,1,199.8,586.779ZM194.362,574l5.726,11.223,3.389-1.729a2.654,2.654,0,0,0,1.156-3.565l-3.317-6.5a2.654,2.654,0,0,0-3.565-1.156Zm9.415,10.084Z" transform="translate(-157.653 -495.718)" fill="#444e59"/>
      <rect id="Rectangle_572" data-name="Rectangle 572" width="28.922" height="51.313" rx="10" transform="translate(53.985 51.975)" fill="#fff"/>
      <path id="Path_37761" data-name="Path 37761" d="M252.892,501.326h22.724a3.424,3.424,0,0,1,3.424,3.424v11.97H249.652V504.566a3.24,3.24,0,0,1,3.24-3.24Z" transform="translate(-195.667 -449.351)" fill="#6567c3"/>
      <path id="Path_37762" data-name="Path 37762" d="M273.924,551.964h-22.3a3.979,3.979,0,0,1-3.975-3.975V503.3a3.98,3.98,0,0,1,3.975-3.975h22.3A3.979,3.979,0,0,1,277.9,503.3v44.688A3.979,3.979,0,0,1,273.924,551.964Zm-22.3-51.313a2.653,2.653,0,0,0-2.65,2.65v44.688a2.653,2.653,0,0,0,2.65,2.65h22.3a2.653,2.653,0,0,0,2.65-2.65V503.3a2.653,2.653,0,0,0-2.65-2.65Z" transform="translate(-194.329 -448.013)" fill="#444e59"/>
      <path id="Path_37763" data-name="Path 37763" d="M249.649,626.66h28.922v6.52a3.276,3.276,0,0,1-3.276,3.276H253.077a3.429,3.429,0,0,1-3.429-3.429V626.66Z" transform="translate(-195.664 -533.168)" fill="#bbbfc2"/>
      <path id="Path_37764" data-name="Path 37764" d="M274.023,635.781H251.74a4.1,4.1,0,0,1-4.092-4.092v-6.367a.663.663,0,0,1,.663-.663h28.922a.663.663,0,0,1,.663.663v6.586A3.877,3.877,0,0,1,274.023,635.781Zm-25.049-9.8v5.7a2.77,2.77,0,0,0,2.765,2.766h22.282a2.551,2.551,0,0,0,2.548-2.548v-5.923Z" transform="translate(-194.326 -531.83)" fill="#444e59"/>
      <circle id="Ellipse_29" data-name="Ellipse 29" cx="1.648" cy="1.648" r="1.648" transform="translate(67.035 96.522)" fill="#444e59"/>
      <g id="Group_35699" data-name="Group 35699" transform="translate(59.854 71.838)" opacity="0.3">
        <path id="Path_37765" data-name="Path 37765" d="M284.357,562.614H268.031a.663.663,0,0,1,0-1.325h16.327a.663.663,0,0,1,0,1.325Z" transform="translate(-267.368 -561.289)" fill="#444e59"/>
      </g>
      <g id="Group_35700" data-name="Group 35700" transform="translate(63.119 76.97)" opacity="0.3">
        <path id="Path_37766" data-name="Path 37766" d="M288.15,578.105H277.887a.663.663,0,0,1,0-1.325H288.15a.663.663,0,0,1,0,1.325Z" transform="translate(-277.225 -576.78)" fill="#444e59"/>
      </g>
      <g id="Group_35701" data-name="Group 35701" transform="translate(59.854 81.634)" opacity="0.3">
        <path id="Path_37767" data-name="Path 37767" d="M284.357,592.187H268.031a.663.663,0,0,1,0-1.325h16.327a.663.663,0,0,1,0,1.325Z" transform="translate(-267.368 -590.862)" fill="#444e59"/>
      </g>
      <circle id="Ellipse_30" data-name="Ellipse 30" cx="3.711" cy="3.711" r="3.711" transform="translate(64.972 57.136)" fill="#fff" opacity="0.62"/>
      <path id="Path_37768" data-name="Path 37768" d="M288.546,604.586a1.866,1.866,0,0,1-1.866,1.866h-7a1.866,1.866,0,0,1-1.866-1.866h0a1.866,1.866,0,0,1,1.866-1.866h7A1.866,1.866,0,0,1,288.546,604.586Z" transform="translate(-214.502 -517.158)" fill="#ed8b3b"/>
      <path id="Path_37769" data-name="Path 37769" d="M608.529,484.428h75.138a2.506,2.506,0,0,1,2.506,2.506v48.34H605.938V487.019a2.591,2.591,0,0,1,2.591-2.591Z" transform="translate(-433.932 -438.05)" fill="#bbbfc2"/>
      <path id="Path_37770" data-name="Path 37770" d="M685.448,534.518H605.213a.663.663,0,0,1-.663-.663V485.493a3.316,3.316,0,0,1,3.313-3.312H682.8a3.316,3.316,0,0,1,3.313,3.313v48.363A.663.663,0,0,1,685.448,534.518Zm-79.573-1.325h78.91v-47.7A1.99,1.99,0,0,0,682.8,483.5H607.863a1.99,1.99,0,0,0-1.988,1.988Z" transform="translate(-433.004 -436.547)" fill="#444e59"/>
      <rect id="Rectangle_573" data-name="Rectangle 573" width="42.45" height="71.372" transform="translate(248.042 50.576) rotate(90)" fill="#5d5d5d" opacity="0.71"/>
      <rect id="Rectangle_574" data-name="Rectangle 574" width="7.464" height="22.391" rx="1.963" transform="translate(187.316 62.574)" fill="#848484" opacity="0.32"/>
      <rect id="Rectangle_575" data-name="Rectangle 575" width="38.252" height="29.855" rx="4" transform="translate(201.697 59.372)" fill="#848484" opacity="0.32"/>
      <path id="Path_37771" data-name="Path 37771" d="M689.992,539.058H618.673a.663.663,0,0,1-.662-.663V496.3a.663.663,0,0,1,.662-.663h71.318a.663.663,0,0,1,.663.663v42.1A.663.663,0,0,1,689.992,539.058Zm-70.656-1.325h69.993V496.96H619.336Z" transform="translate(-442.006 -445.545)" fill="#444e59"/>
      <path id="Path_37772" data-name="Path 37772" d="M580.114,638.18h97.748V641.3a2.65,2.65,0,0,1-2.65,2.65H582.764a2.65,2.65,0,0,1-2.65-2.65Z" transform="translate(-416.662 -540.872)" fill="#fff"/>
      <path id="Path_37773" data-name="Path 37773" d="M583.99,649.641h90.285a3.821,3.821,0,0,0,3.66-3.265H580.33A3.822,3.822,0,0,0,583.99,649.641Z" transform="translate(-416.807 -546.353)" fill="#bbbfc2" opacity="0.8"/>
      <path id="Path_37774" data-name="Path 37774" d="M673.874,643.273H581.427a3.317,3.317,0,0,1-3.312-3.312v-3.118a.663.663,0,0,1,.663-.662h97.748a.662.662,0,0,1,.662.662v3.118A3.316,3.316,0,0,1,673.874,643.273ZM579.439,637.5v2.456a1.99,1.99,0,0,0,1.987,1.988h92.448a1.99,1.99,0,0,0,1.988-1.988V637.5Z" transform="translate(-415.325 -539.534)" fill="#444e59"/>
      <rect id="Rectangle_576" data-name="Rectangle 576" width="7.464" height="7.464" transform="translate(185.534 60.839)" fill="#f09f54"/>
      <path id="Path_37775" data-name="Path 37775" d="M653.285,535.112h-7.464a.662.662,0,0,1-.663-.663v-7.464a.663.663,0,0,1,.663-.662h7.464a.663.663,0,0,1,.662.662v7.464A.662.662,0,0,1,653.285,535.112Zm-6.8-1.325h6.139v-6.139h-6.139Z" transform="translate(-460.161 -466.067)" fill="#444e59"/>
      <path id="Path_37776" data-name="Path 37776" d="M653.285,535.112h-7.464a.662.662,0,0,1-.663-.663v-7.464a.663.663,0,0,1,.663-.662h7.464a.663.663,0,0,1,.662.662v7.464A.662.662,0,0,1,653.285,535.112Zm-6.8-1.325h6.139v-6.139h-6.139Z" transform="translate(-460.161 -466.067)" fill="#444e59"/>
      <rect id="Rectangle_577" data-name="Rectangle 577" width="7.464" height="7.464" transform="translate(185.534 68.302)" fill="#8d91db"/>
      <path id="Path_37777" data-name="Path 37777" d="M653.285,557.644h-7.464a.663.663,0,0,1-.663-.663v-7.464a.663.663,0,0,1,.663-.662h7.464a.663.663,0,0,1,.662.662v7.464A.663.663,0,0,1,653.285,557.644Zm-6.8-1.325h6.139V550.18h-6.139Z" transform="translate(-460.161 -481.136)" fill="#444e59"/>
      <rect id="Rectangle_578" data-name="Rectangle 578" width="7.464" height="7.464" transform="translate(185.534 75.766)" fill="#6567c3"/>
      <path id="Path_37778" data-name="Path 37778" d="M653.285,580.176h-7.464a.663.663,0,0,1-.663-.662V572.05a.663.663,0,0,1,.663-.663h7.464a.662.662,0,0,1,.662.663v7.464A.662.662,0,0,1,653.285,580.176Zm-6.8-1.325h6.139v-6.139h-6.139Z" transform="translate(-460.161 -496.204)" fill="#444e59"/>
      <rect id="Rectangle_579" data-name="Rectangle 579" width="38.252" height="29.855" rx="4" transform="translate(199.528 57.107)" fill="#fff"/>
      <path id="Path_37779" data-name="Path 37779" d="M724.612,546h-35.6a1.99,1.99,0,0,1-1.987-1.987V516.8a1.99,1.99,0,0,1,1.987-1.988h35.6A1.99,1.99,0,0,1,726.6,516.8v27.2A1.99,1.99,0,0,1,724.612,546Zm-35.6-29.855a.662.662,0,0,0-.663.662v27.2a.663.663,0,0,0,.663.662h35.6a.662.662,0,0,0,.662-.662V516.8a.662.662,0,0,0-.662-.662Z" transform="translate(-488.158 -458.373)" fill="#444e59"/>
      <g id="Group_35702" data-name="Group 35702" transform="translate(210.427 64.319)" opacity="0.3">
        <path id="Path_37780" data-name="Path 37780" d="M769.7,583.98h-.5v-.663h.166v-.166h.663v.5A.331.331,0,0,1,769.7,583.98Z" transform="translate(-753.54 -568.39)" fill="#444e59"/>
        <path id="Path_37781" data-name="Path 37781" d="M739.9,584.315h-.947v-.663h.947Zm-1.578,0h-.946v-.663h.946Zm-1.577,0H735.8v-.663h.947Zm-1.578,0h-.947v-.663h.947Zm-1.578,0h-.946v-.663h.946Zm-1.578,0h-.947v-.663h.947Zm-1.578,0h-.947v-.663h.947Zm-1.578,0h-.947v-.663h.947Zm-1.578,0h-.947v-.663h.947Z" transform="translate(-724.875 -568.725)" fill="#444e59"/>
        <path id="Path_37782" data-name="Path 37782" d="M722.754,583.98h-.5a.331.331,0,0,1-.331-.331v-.5h.662v.166h.166Z" transform="translate(-721.926 -568.39)" fill="#444e59"/>
        <path id="Path_37783" data-name="Path 37783" d="M722.588,555.7h-.662v-.994h.662Zm0-1.659h-.662v-.994h.662Zm0-1.659h-.662v-.994h.662Zm0-1.659h-.662v-.994h.662Zm0-1.659h-.662v-.994h.662Zm0-1.659h-.662v-.994h.662Zm0-1.659h-.662v-.994h.662Zm0-1.659h-.662V543.1h.662Z" transform="translate(-721.926 -541.604)" fill="#444e59"/>
        <path id="Path_37784" data-name="Path 37784" d="M722.588,539.417h-.662v-.5a.331.331,0,0,1,.331-.331h.5v.662h-.166Z" transform="translate(-721.926 -538.589)" fill="#444e59"/>
        <path id="Path_37785" data-name="Path 37785" d="M739.9,539.251h-.947v-.662h.947Zm-1.578,0h-.947v-.662h.947Zm-1.578,0H735.8v-.662h.947Zm-1.578,0h-.947v-.662h.947Zm-1.578,0h-.946v-.662h.946Zm-1.578,0h-.947v-.662h.947Zm-1.578,0h-.947v-.662h.947Zm-1.578,0h-.946v-.662h.947Zm-1.578,0h-.947v-.662h.947Z" transform="translate(-724.875 -538.589)" fill="#444e59"/>
        <path id="Path_37786" data-name="Path 37786" d="M770.028,539.417h-.663v-.166H769.2v-.662h.5a.331.331,0,0,1,.331.331Z" transform="translate(-753.54 -538.589)" fill="#444e59"/>
        <path id="Path_37787" data-name="Path 37787" d="M770.363,555.7H769.7v-.994h.663Zm0-1.659H769.7v-.994h.663Zm0-1.659H769.7v-.994h.663Zm0-1.659H769.7v-.994h.663Zm0-1.659H769.7v-.994h.663Zm0-1.659H769.7v-.994h.663Zm0-1.659H769.7v-.994h.663Zm0-1.659H769.7V543.1h.663Z" transform="translate(-753.875 -541.604)" fill="#444e59"/>
      </g>
      <rect id="Rectangle_580" data-name="Rectangle 580" width="2.342" height="2.342" transform="translate(209.657 63.479)" fill="#fff"/>
      <path id="Path_37788" data-name="Path 37788" d="M721.3,537.992h-2.333a.166.166,0,0,1-.166-.166v-2.333a.166.166,0,0,1,.166-.166H721.3a.166.166,0,0,1,.166.166v2.333A.166.166,0,0,1,721.3,537.992Zm-2.167-.331h2v-2h-2Z" transform="translate(-509.409 -472.089)" fill="#444e59"/>
      <rect id="Rectangle_581" data-name="Rectangle 581" width="2.342" height="2.342" transform="translate(209.657 78.406)" fill="#fff"/>
      <path id="Path_37789" data-name="Path 37789" d="M721.3,583.057h-2.333a.165.165,0,0,1-.166-.166v-2.332a.166.166,0,0,1,.166-.166H721.3a.166.166,0,0,1,.166.166v2.332A.165.165,0,0,1,721.3,583.057Zm-2.167-.331h2v-2h-2Z" transform="translate(-509.409 -502.227)" fill="#444e59"/>
      <rect id="Rectangle_582" data-name="Rectangle 582" width="2.342" height="2.342" transform="translate(225.412 63.479)" fill="#fff"/>
      <path id="Path_37790" data-name="Path 37790" d="M769.18,537.992h-2.332a.166.166,0,0,1-.166-.166v-2.333a.166.166,0,0,1,.166-.166h2.332a.166.166,0,0,1,.166.166v2.333A.166.166,0,0,1,769.18,537.992Zm-2.167-.331h2v-2h-2Z" transform="translate(-541.43 -472.089)" fill="#444e59"/>
      <rect id="Rectangle_583" data-name="Rectangle 583" width="2.342" height="2.342" transform="translate(225.412 78.406)" fill="#fff"/>
      <path id="Path_37791" data-name="Path 37791" d="M769.18,583.057h-2.332a.166.166,0,0,1-.166-.166v-2.332a.166.166,0,0,1,.166-.166h2.332a.166.166,0,0,1,.166.166v2.332A.166.166,0,0,1,769.18,583.057Zm-2.167-.331h2v-2h-2Z" transform="translate(-541.43 -502.227)" fill="#444e59"/>
      <path id="Path_37792" data-name="Path 37792" d="M658.548,562.487l2.334,5.041,2.3,1.184,1.587-1.587-1.184-2.3Z" transform="translate(-469.115 -490.252)" fill="#fff"/>
      <path id="Path_37793" data-name="Path 37793" d="M662.855,568.545a.166.166,0,0,1-.076-.018l-2.3-1.184a.164.164,0,0,1-.075-.078l-2.332-5.04a.166.166,0,0,1,.22-.22l5.041,2.334a.165.165,0,0,1,.078.075l1.184,2.3a.165.165,0,0,1-.03.193l-1.587,1.587A.166.166,0,0,1,662.855,568.545Zm-2.177-1.471,2.146,1.1,1.416-1.416-1.1-2.146-4.579-2.12Z" transform="translate(-468.785 -489.919)" fill="#444e59"/>
      <circle id="Ellipse_31" data-name="Ellipse 31" cx="0.636" cy="0.636" r="0.636" transform="translate(191.747 74.445)" fill="#444e59"/>
      <path id="Path_37794" data-name="Path 37794" d="M660.822,564.927a.166.166,0,0,1-.117-.048L658.1,562.27a.166.166,0,0,1,.234-.234l2.608,2.608a.166.166,0,0,1-.117.282Z" transform="translate(-468.781 -489.918)" fill="#444e59"/>
      <rect id="Rectangle_584" data-name="Rectangle 584" width="2.261" height="1.62" transform="translate(194.072 78.46) rotate(-45)" fill="#fff"/>
      <path id="Path_37795" data-name="Path 37795" d="M673.36,579.027a.166.166,0,0,1-.117-.048l-1.145-1.146a.166.166,0,0,1,0-.234l1.6-1.6a.166.166,0,0,1,.234,0l1.146,1.145a.166.166,0,0,1,0,.234l-1.6,1.6A.166.166,0,0,1,673.36,579.027Zm-.911-1.311.911.911,1.365-1.365-.911-.911Z" transform="translate(-478.144 -499.256)" fill="#444e59"/>
    </g>
  </g>
</svg>
