<svg xmlns="http://www.w3.org/2000/svg" width="19.58" height="16.349" viewBox="0 0 19.58 16.349">
  <g id="Icon_feather-users" data-name="Icon feather-users" transform="translate(-0.75 -3.694)">
    <path id="Path_38542" data-name="Path 38542" d="M14.649,27.431V25.787A3.287,3.287,0,0,0,11.362,22.5H4.787A3.287,3.287,0,0,0,1.5,25.787v1.644" transform="translate(0 -8.138)" fill="none" stroke="#000000" stroke-linecap="round" stroke-linejoin="round" stroke-width="1.5"/>
    <path id="Path_38543" data-name="Path 38543" d="M14.075,7.787A3.287,3.287,0,1,1,10.787,4.5,3.287,3.287,0,0,1,14.075,7.787Z" transform="translate(-2.713)" fill="none" stroke="#000000" stroke-linecap="round" stroke-linejoin="round" stroke-width="1.5"/>
    <path id="Path_38544" data-name="Path 38544" d="M32.465,27.519V25.875A3.287,3.287,0,0,0,30,22.7" transform="translate(-12.885 -8.226)" fill="none" stroke="#000000" stroke-linecap="round" stroke-linejoin="round" stroke-width="1.5"/>
    <path id="Path_38545" data-name="Path 38545" d="M24,4.7a3.287,3.287,0,0,1,0,6.369" transform="translate(-10.173 -0.088)" fill="none" stroke="#000000" stroke-linecap="round" stroke-linejoin="round" stroke-width="1.5"/>
  </g>
</svg>
