<svg id="d0a9b330fad6a23a75abe54a18382031" xmlns="http://www.w3.org/2000/svg" width="43.679" height="39.311" viewBox="0 0 43.679 39.311">
  <path id="Path_49" data-name="Path 49" d="M31.7,0c7.526,0,11.974,4.321,11.974,11.658h0v.081H34.423a7.716,7.716,0,0,0-7.8,7.6,7.713,7.713,0,0,0,7.8,7.626h9.256v.668c0,7.337-4.447,11.675-11.974,11.675H11.976C4.447,39.311,0,34.973,0,27.636H0V11.658C0,4.321,4.447,0,11.976,0H31.7ZM22.676,8.463H10.351a1.63,1.63,0,1,0,0,3.259H22.692a1.63,1.63,0,1,0-.016-3.259Z" fill="#3a266b"/>
  <path id="Path_50" data-name="Path 50" d="M14.082,12.134a4.407,4.407,0,0,0,4.357,3.5h7.1a1.585,1.585,0,0,0,1.567-1.6V8.5a1.59,1.59,0,0,0-1.567-1.6H18.272A4.334,4.334,0,0,0,14,11.29a4.445,4.445,0,0,0,.082.844" transform="translate(16.575 8.169)" fill="#6bcece"/>
  <circle id="Ellipse_16" data-name="Ellipse 16" cx="2.184" cy="2.184" r="2.184" transform="translate(32.759 17.253)" fill="#200e32"/>
</svg>
