<svg id="feaab14b3755146bcf898feac9f18d7e" xmlns="http://www.w3.org/2000/svg" width="33.719" height="26.455" viewBox="0 0 33.719 26.455">
  <path id="Path_17898" data-name="Path 17898" d="M208.088,369.931a.649.649,0,0,1,.143.158c-.037-.048-.073-.092-.11-.139.022.029.04.055.059.084a1.983,1.983,0,0,1,.165.315l-.11-.264a2.2,2.2,0,0,1,.132.484c-.015-.1-.026-.194-.04-.293a2.27,2.27,0,0,1,0,.546c.015-.1.026-.194.04-.293a2.257,2.257,0,0,1-.132.484l.11-.264a2.335,2.335,0,0,1-.165.315.694.694,0,0,1-.059.084c.114-.147.147-.183.092-.121s-.081.1-.125.139-.077.073-.117.11c-.136.125.246-.165.015-.015a1.982,1.982,0,0,1-.315.165l.264-.11a2.2,2.2,0,0,1-.484.132c.1-.015.194-.026.293-.04a2.27,2.27,0,0,1-.546,0c.1.015.194.026.293.04a2.256,2.256,0,0,1-.484-.132l.264.11a2.339,2.339,0,0,1-.315-.165.69.69,0,0,1-.084-.059c.147.114.183.147.121.092s-.1-.081-.139-.125-.073-.077-.11-.117c-.125-.136.165.246.015.015a1.982,1.982,0,0,1-.165-.315l.11.264a2.2,2.2,0,0,1-.132-.484c.015.1.026.194.04.293a2.27,2.27,0,0,1,0-.546c-.015.1-.026.194-.04.293a2.257,2.257,0,0,1,.132-.484l-.11.264a2.342,2.342,0,0,1,.165-.315.691.691,0,0,1,.059-.084c-.114.147-.147.183-.092.121s.081-.1.125-.139.077-.073.117-.11c.136-.125-.246.165-.015.015a1.982,1.982,0,0,1,.315-.165l-.264.11a2.2,2.2,0,0,1,.484-.132c-.1.015-.194.026-.293.04a2.27,2.27,0,0,1,.546,0c-.1-.015-.194-.026-.293-.04a2.257,2.257,0,0,1,.484.132l-.264-.11a1.982,1.982,0,0,1,.315.165c.092.059.147.154-.055-.051.051.051.11.1.161.143a1.1,1.1,0,1,0,1.555-1.555,3.033,3.033,0,0,0-1.562-.836,3.292,3.292,0,0,0-2,.264,3.052,3.052,0,0,0-1.687,2.948,3.279,3.279,0,0,0,.766,1.841,3.009,3.009,0,0,0,1.54.946,3.081,3.081,0,0,0,2.941-5.163,1.1,1.1,0,0,0-1.555,1.555Zm-5.222-3.975c.18-.176.363-.345.557-.506l.125-.1c-.279.238-.081.062-.011.011.092-.066.183-.132.279-.194a7.74,7.74,0,0,1,1.25-.671l-.264.11a7.688,7.688,0,0,1,1.951-.528c-.1.015-.194.026-.293.04a8.011,8.011,0,0,1,2.01,0c-.1-.015-.194-.026-.293-.04a7.8,7.8,0,0,1,1.951.528l-.264-.11a7.74,7.74,0,0,1,1.25.671c.1.062.187.128.279.194.07.051.268.227-.011-.011l.125.1c.194.158.378.33.557.506a1.1,1.1,0,1,0,1.555-1.555,8.615,8.615,0,0,0-4.61-2.406,8.968,8.968,0,0,0-5.292.708,8.608,8.608,0,0,0-2.409,1.7,1.11,1.11,0,0,0,0,1.555,1.125,1.125,0,0,0,1.559,0Zm-5.116-5.116c.345-.341.7-.667,1.074-.975.1-.081.194-.158.29-.235.161-.128-.22.169-.055.044l.147-.11c.191-.139.385-.279.579-.407a14.819,14.819,0,0,1,2.457-1.324l-.264.11a14.867,14.867,0,0,1,3.762-1.027c-.1.015-.194.026-.293.04a15.077,15.077,0,0,1,4.023,0c-.1-.015-.194-.026-.293-.04a15.221,15.221,0,0,1,3.762,1.027l-.264-.11a14.819,14.819,0,0,1,2.457,1.324c.191.128.378.257.561.392.055.04.114.084.169.128.15.114-.213-.169-.055-.044.1.077.194.154.29.235.374.308.733.634,1.074.975a1.1,1.1,0,0,0,1.555-1.555,15.906,15.906,0,0,0-13.231-4.54,16.417,16.417,0,0,0-4.811,1.383,15.769,15.769,0,0,0-4.5,3.157,1.114,1.114,0,0,0,0,1.555,1.133,1.133,0,0,0,1.562,0Z" transform="translate(-190.592 -347.174)" fill="#f5654b"/>
  <path id="Path_17899" data-name="Path 17899" d="M53.758,159.822q.611-.611,1.265-1.173c.216-.183.436-.367.656-.543.048-.04.1-.077.147-.114.191-.15-.176.132-.033.026.121-.092.238-.18.359-.268A21.77,21.77,0,0,1,58.962,156c.546-.286,1.107-.55,1.676-.788l-.264.11a22.362,22.362,0,0,1,5.669-1.544c-.1.015-.194.026-.293.04a22.707,22.707,0,0,1,5.985,0c-.1-.015-.194-.026-.293-.04a22.516,22.516,0,0,1,5.669,1.544l-.264-.11a22.048,22.048,0,0,1,2.915,1.493q.7.429,1.375.909c.114.081.227.165.341.249.055.04.114.084.169.128.022.015.04.033.062.048.1.081-.216-.169-.077-.059.224.176.444.352.66.535q.743.627,1.43,1.313a1.1,1.1,0,0,0,1.555-1.555,23.425,23.425,0,0,0-5.882-4.287,23.42,23.42,0,0,0-13.6-2.369,23.887,23.887,0,0,0-6.978,2.013,23.145,23.145,0,0,0-5.977,4.026c-.22.2-.433.411-.645.62a1.114,1.114,0,0,0,0,1.555,1.15,1.15,0,0,0,1.57-.011Z" transform="translate(-51.872 -151.429)" fill="#f5654b"/>
</svg>
